<?xml version="1.0" encoding="UTF-8" standalone="no"?>
<!-- Created with Inkscape (http://www.inkscape.org/) -->

<svg
   xmlns:dc="http://purl.org/dc/elements/1.1/"
   xmlns:cc="http://creativecommons.org/ns#"
   xmlns:rdf="http://www.w3.org/1999/02/22-rdf-syntax-ns#"
   xmlns:svg="http://www.w3.org/2000/svg"
   xmlns="http://www.w3.org/2000/svg"
   xmlns:sodipodi="http://sodipodi.sourceforge.net/DTD/sodipodi-0.dtd"
   xmlns:inkscape="http://www.inkscape.org/namespaces/inkscape"
   width="1024"
   height="1024"
   viewBox="0 0 270.93333 270.93334"
   version="1.1"
   id="svg823"
   inkscape:version="0.92.2 (5c3e80d, 2017-08-06)"
   sodipodi:docname="Head.svg"
   inkscape:export-filename="G:\Documents\Digipen\Semester 02\GAM150\drqst\Production\Illustrations\King_Arthur\Head.png"
   inkscape:export-xdpi="96"
   inkscape:export-ydpi="96">
  <defs
     id="defs817" />
  <sodipodi:namedview
     id="base"
     pagecolor="#ffffff"
     bordercolor="#666666"
     borderopacity="1.0"
     inkscape:pageopacity="0.0"
     inkscape:pageshadow="2"
     inkscape:zoom="0.7"
     inkscape:cx="368.44435"
     inkscape:cy="533.05231"
     inkscape:document-units="mm"
     inkscape:current-layer="layer1"
     showgrid="false"
     units="px"
     inkscape:pagecheckerboard="true"
     inkscape:window-width="1920"
     inkscape:window-height="1057"
     inkscape:window-x="-32000"
     inkscape:window-y="-32000"
     inkscape:window-maximized="0" />
  <metadata
     id="metadata820">
    <rdf:RDF>
      <cc:Work
         rdf:about="">
        <dc:format>image/svg+xml</dc:format>
        <dc:type
           rdf:resource="http://purl.org/dc/dcmitype/StillImage" />
        <dc:title />
      </cc:Work>
    </rdf:RDF>
  </metadata>
  <g
     inkscape:label="Face"
     inkscape:groupmode="layer"
     id="layer1"
     transform="translate(0,-26.06665)">
    <path
       style="fill:#000000;fill-opacity:1;stroke:#000000;stroke-width:15;stroke-linecap:butt;stroke-linejoin:miter;stroke-miterlimit:4;stroke-dasharray:none;stroke-opacity:1"
       d="M 882.61133 426.80273 A 32.577419 33.840111 0 0 0 883.07227 426.46094 A 32.577419 33.840111 0 0 0 885.51758 424.22852 A 32.577419 33.840111 0 0 0 887.73828 421.75391 A 32.577419 33.840111 0 0 0 889.70898 419.06055 A 32.577419 33.840111 0 0 0 891.41016 416.17773 A 32.577419 33.840111 0 0 0 892.82617 413.13086 A 32.577419 33.840111 0 0 0 893.94336 409.95312 A 32.577419 33.840111 0 0 0 894.75 406.67578 A 32.577419 33.840111 0 0 0 895.23633 403.33203 A 32.577419 33.840111 0 0 0 895.39844 399.95312 A 32.577419 33.840111 0 0 0 895.31641 397.56055 A 32.577419 33.840111 0 0 0 894.92383 394.20117 A 32.577419 33.840111 0 0 0 894.21094 390.90039 A 32.577419 33.840111 0 0 0 893.18555 387.69141 A 32.577419 33.840111 0 0 0 891.85547 384.60352 A 32.577419 33.840111 0 0 0 890.23438 381.66992 A 32.577419 33.840111 0 0 0 888.33984 378.91797 A 32.577419 33.840111 0 0 0 886.19141 376.37695 A 32.577419 33.840111 0 0 0 883.80859 374.07031 A 32.577419 33.840111 0 0 0 881.2168 372.02344 A 32.577419 33.840111 0 0 0 878.43945 370.25586 A 32.577419 33.840111 0 0 0 875.50781 368.78516 A 32.577419 33.840111 0 0 0 872.44922 367.625 A 32.577419 33.840111 0 0 0 869.29297 366.78711 A 32.577419 33.840111 0 0 0 866.07422 366.2832 A 32.577419 33.840111 0 0 0 862.82031 366.11328 A 32.577419 33.840111 0 0 0 860.51758 366.19727 A 32.577419 33.840111 0 0 0 857.28516 366.60547 A 32.577419 33.840111 0 0 0 854.10742 367.3457 A 32.577419 33.840111 0 0 0 851.01758 368.41406 A 32.577419 33.840111 0 0 0 848.04492 369.79492 A 32.577419 33.840111 0 0 0 845.21875 371.47852 A 32.577419 33.840111 0 0 0 842.57031 373.44531 A 32.577419 33.840111 0 0 0 840.125 375.67773 A 32.577419 33.840111 0 0 0 837.9043 378.15234 A 32.577419 33.840111 0 0 0 835.93359 380.8457 A 32.577419 33.840111 0 0 0 834.23242 383.73047 A 32.577419 33.840111 0 0 0 832.81641 386.77539 A 32.577419 33.840111 0 0 0 831.69922 389.95312 A 32.577419 33.840111 0 0 0 830.89258 393.23047 A 32.577419 33.840111 0 0 0 830.40625 396.57422 A 32.577419 33.840111 0 0 0 830.24414 399.95312 A 32.577419 33.840111 0 0 0 830.32422 402.30273 A 174.82505 70.84829 29.546667 0 0 834.72461 404.79883 A 174.82505 70.84829 29.546667 0 0 845.66016 410.50977 A 174.82505 70.84829 29.546667 0 0 861.23438 417.96094 A 174.82505 70.84829 29.546667 0 0 876.81641 424.62305 A 174.82505 70.84829 29.546667 0 0 882.61133 426.80273 z "
       id="path1406"
       transform="matrix(0.26458333,0,0,0.26458333,0,26.06665)" />
    <path
       style="fill:#ffffff;fill-opacity:1;stroke:#000000;stroke-width:15;stroke-linecap:butt;stroke-linejoin:miter;stroke-miterlimit:4;stroke-dasharray:none;stroke-opacity:1"
       d="M 762.30859 233.07031 A 174.82505 70.84829 29.546667 0 0 750.83398 233.28125 A 174.82505 70.84829 29.546667 0 0 740.4707 234.54688 A 174.82505 70.84829 29.546667 0 0 731.32422 236.85742 A 174.82505 70.84829 29.546667 0 0 723.48438 240.1875 A 174.82505 70.84829 29.546667 0 0 717.0293 244.50586 A 174.82505 70.84829 29.546667 0 0 712.02344 249.76758 A 174.82505 70.84829 29.546667 0 0 708.51953 255.92188 A 174.82505 70.84829 29.546667 0 0 706.96484 260.78516 A 174.82505 70.84829 29.546667 0 0 706.09375 268.31445 A 174.82505 70.84829 29.546667 0 0 706.7832 276.55078 A 174.82505 70.84829 29.546667 0 0 709.02344 285.41016 A 174.82505 70.84829 29.546667 0 0 712.79492 294.80664 A 174.82505 70.84829 29.546667 0 0 718.05859 304.64258 A 174.82505 70.84829 29.546667 0 0 724.76172 314.82422 A 174.82505 70.84829 29.546667 0 0 732.83789 325.24609 A 174.82505 70.84829 29.546667 0 0 742.20508 335.80469 A 174.82505 70.84829 29.546667 0 0 752.77148 346.39648 A 174.82505 70.84829 29.546667 0 0 764.42969 356.91406 A 174.82505 70.84829 29.546667 0 0 777.06445 367.25195 A 174.82505 70.84829 29.546667 0 0 790.54883 377.30859 A 174.82505 70.84829 29.546667 0 0 804.75 386.98242 A 174.82505 70.84829 29.546667 0 0 819.52344 396.17578 A 174.82505 70.84829 29.546667 0 0 830.32422 402.30273 A 32.577419 33.840111 0 0 1 830.24414 399.95312 A 32.577419 33.840111 0 0 1 830.40625 396.57422 A 32.577419 33.840111 0 0 1 830.89258 393.23047 A 32.577419 33.840111 0 0 1 831.69922 389.95312 A 32.577419 33.840111 0 0 1 832.81641 386.77539 A 32.577419 33.840111 0 0 1 834.23242 383.73047 A 32.577419 33.840111 0 0 1 835.93359 380.8457 A 32.577419 33.840111 0 0 1 837.9043 378.15234 A 32.577419 33.840111 0 0 1 840.125 375.67773 A 32.577419 33.840111 0 0 1 842.57031 373.44531 A 32.577419 33.840111 0 0 1 845.21875 371.47852 A 32.577419 33.840111 0 0 1 848.04492 369.79492 A 32.577419 33.840111 0 0 1 851.01758 368.41406 A 32.577419 33.840111 0 0 1 854.10742 367.3457 A 32.577419 33.840111 0 0 1 857.28516 366.60547 A 32.577419 33.840111 0 0 1 860.51758 366.19727 A 32.577419 33.840111 0 0 1 862.82031 366.11328 A 32.577419 33.840111 0 0 1 866.07422 366.2832 A 32.577419 33.840111 0 0 1 869.29297 366.78711 A 32.577419 33.840111 0 0 1 872.44922 367.625 A 32.577419 33.840111 0 0 1 875.50781 368.78516 A 32.577419 33.840111 0 0 1 878.43945 370.25586 A 32.577419 33.840111 0 0 1 881.2168 372.02344 A 32.577419 33.840111 0 0 1 883.80859 374.07031 A 32.577419 33.840111 0 0 1 886.19141 376.37695 A 32.577419 33.840111 0 0 1 888.33984 378.91797 A 32.577419 33.840111 0 0 1 890.23438 381.66992 A 32.577419 33.840111 0 0 1 891.85547 384.60352 A 32.577419 33.840111 0 0 1 893.18555 387.69141 A 32.577419 33.840111 0 0 1 894.21094 390.90039 A 32.577419 33.840111 0 0 1 894.92383 394.20117 A 32.577419 33.840111 0 0 1 895.31641 397.56055 A 32.577419 33.840111 0 0 1 895.39844 399.95312 A 32.577419 33.840111 0 0 1 895.23633 403.33203 A 32.577419 33.840111 0 0 1 894.75 406.67578 A 32.577419 33.840111 0 0 1 893.94336 409.95312 A 32.577419 33.840111 0 0 1 892.82617 413.13086 A 32.577419 33.840111 0 0 1 891.41016 416.17773 A 32.577419 33.840111 0 0 1 889.70898 419.06055 A 32.577419 33.840111 0 0 1 887.73828 421.75391 A 32.577419 33.840111 0 0 1 885.51758 424.22852 A 32.577419 33.840111 0 0 1 883.07227 426.46094 A 32.577419 33.840111 0 0 1 882.61133 426.80273 A 174.82505 70.84829 29.546667 0 0 892.25391 430.42969 A 174.82505 70.84829 29.546667 0 0 907.39062 435.32422 A 174.82505 70.84829 29.546667 0 0 922.07422 439.25391 A 174.82505 70.84829 29.546667 0 0 926.03125 440.07617 C 937.01831 391.55015 946.56715 345.54066 942.06836 306.9043 A 174.82505 70.84829 29.546667 0 0 933.73633 300.69141 A 174.82505 70.84829 29.546667 0 0 919.53516 291.01758 A 174.82505 70.84829 29.546667 0 0 904.76172 281.82422 A 174.82505 70.84829 29.546667 0 0 889.5625 273.20117 A 174.82505 70.84829 29.546667 0 0 878.62695 267.49023 A 174.82505 70.84829 29.546667 0 0 863.05078 260.03906 A 174.82505 70.84829 29.546667 0 0 847.46875 253.37695 A 174.82505 70.84829 29.546667 0 0 832.03125 247.57031 A 174.82505 70.84829 29.546667 0 0 816.89648 242.67578 A 174.82505 70.84829 29.546667 0 0 802.21094 238.74609 A 174.82505 70.84829 29.546667 0 0 788.12695 235.81641 A 174.82505 70.84829 29.546667 0 0 774.78125 233.91797 A 174.82505 70.84829 29.546667 0 0 762.30859 233.07031 z "
       id="path1395"
       transform="matrix(0.26458333,0,0,0.26458333,0,26.06665)" />
    <path
       style="fill:#e9c6af;fill-opacity:1;stroke:#000000;stroke-width:15;stroke-linecap:butt;stroke-linejoin:miter;stroke-miterlimit:4;stroke-dasharray:none;stroke-opacity:1"
       d="M 479.85352 47.664062 C 468.2201 47.54107 456.81887 47.746718 445.71484 48.285156 C 313.38835 54.701713 167.01202 131.74802 101.42773 246.85742 C 21.97951 386.29994 2.8151776 617.464 107.14258 728.28516 C 241.51309 869.08371 511.2049 968.17401 722.85742 926.85742 C 821.31744 907.63709 1083.6142 868.99205 953.51562 733.54297 C 874.88211 651.67556 903.32893 540.34443 926.03125 440.07617 A 174.82505 70.848291 29.546667 0 1 922.07422 439.25391 A 174.82505 70.848291 29.546667 0 1 907.39062 435.32422 A 174.82505 70.848291 29.546667 0 1 892.25391 430.42969 A 174.82505 70.848291 29.546667 0 1 876.81641 424.62305 A 174.82505 70.848291 29.546667 0 1 861.23438 417.96094 A 174.82505 70.848291 29.546667 0 1 845.66016 410.50977 A 174.82505 70.848291 29.546667 0 1 834.72461 404.79883 A 174.82505 70.848291 29.546667 0 1 819.52344 396.17578 A 174.82505 70.848291 29.546667 0 1 804.75 386.98242 A 174.82505 70.848291 29.546667 0 1 790.54883 377.30859 A 174.82505 70.848291 29.546667 0 1 777.06445 367.25195 A 174.82505 70.848291 29.546667 0 1 764.42969 356.91406 A 174.82505 70.848291 29.546667 0 1 752.77148 346.39648 A 174.82505 70.848291 29.546667 0 1 742.20508 335.80469 A 174.82505 70.848291 29.546667 0 1 732.83789 325.24609 A 174.82505 70.848291 29.546667 0 1 724.76172 314.82422 A 174.82505 70.848291 29.546667 0 1 718.05859 304.64258 A 174.82505 70.848291 29.546667 0 1 712.79492 294.80664 A 174.82505 70.848291 29.546667 0 1 709.02344 285.41016 A 174.82505 70.848291 29.546667 0 1 706.7832 276.55078 A 174.82505 70.848291 29.546667 0 1 706.09375 268.31445 A 174.82505 70.848291 29.546667 0 1 706.96484 260.78516 A 174.82505 70.848291 29.546667 0 1 708.51953 255.92188 A 174.82505 70.848291 29.546667 0 1 712.02344 249.76758 A 174.82505 70.848291 29.546667 0 1 717.0293 244.50586 A 174.82505 70.848291 29.546667 0 1 723.48438 240.1875 A 174.82505 70.848291 29.546667 0 1 731.32422 236.85742 A 174.82505 70.848291 29.546667 0 1 740.4707 234.54688 A 174.82505 70.848291 29.546667 0 1 750.83398 233.28125 A 174.82505 70.848291 29.546667 0 1 762.30859 233.07031 A 174.82505 70.848291 29.546667 0 1 774.78125 233.91797 A 174.82505 70.848291 29.546667 0 1 788.12695 235.81641 A 174.82505 70.848291 29.546667 0 1 802.21094 238.74609 A 174.82505 70.848291 29.546667 0 1 816.89648 242.67578 A 174.82505 70.848291 29.546667 0 1 832.03125 247.57031 A 174.82505 70.848291 29.546667 0 1 847.46875 253.37695 A 174.82505 70.848291 29.546667 0 1 863.05078 260.03906 A 174.82505 70.848291 29.546667 0 1 878.62695 267.49023 A 174.82505 70.848291 29.546667 0 1 889.5625 273.20117 A 174.82505 70.848291 29.546667 0 1 904.76172 281.82422 A 174.82505 70.848291 29.546667 0 1 919.53516 291.01758 A 174.82505 70.848291 29.546667 0 1 933.73633 300.69141 A 174.82505 70.848291 29.546667 0 1 942.06836 306.9043 C 940.48315 293.29022 937.24162 280.52657 931.58594 268.91797 C 880.82346 125.53691 654.35479 49.508943 479.85352 47.664062 z "
       id="path1368"
       transform="matrix(0.26458333,0,0,0.26458333,0,26.06665)" />
    <path
       style="fill:#000000;fill-opacity:1;stroke:#000000;stroke-width:0.26458332px;stroke-linecap:butt;stroke-linejoin:miter;stroke-opacity:1"
       d="m 236.53353,85.589788 c 8.1685,12.95669 7.59851,12.69589 -3.20724,7.216278 -10.80575,-5.479615 -44.53962,-9.886904 -54.25571,-19.777948 -9.71609,-9.891044 -8.28535,-24.054257 -8.28535,-24.054257 0,0 57.5798,23.659237 65.7483,36.615927 z"
       id="path1419"
       inkscape:connector-curvature="0"
       sodipodi:nodetypes="zzzcz" />
    <path
       style="fill:none;stroke:#000000;stroke-width:3.96875;stroke-linecap:butt;stroke-linejoin:miter;stroke-miterlimit:4;stroke-dasharray:none;stroke-opacity:1"
       d="m 146.27335,196.07724 c 8.97443,-1.19733 26.96146,-8.1307 33.69535,-16.5429"
       id="path1425"
       inkscape:connector-curvature="0"
       sodipodi:nodetypes="cc" />
  </g>
  <g
     inkscape:groupmode="layer"
     id="layer2"
     inkscape:label="Mouth">
    <path
       style="fill:none;stroke:#000000;stroke-width:3.96875;stroke-linecap:butt;stroke-linejoin:miter;stroke-opacity:1;stroke-miterlimit:4;stroke-dasharray:none"
       d="m 253.62202,194.58214 c 0,0 -74.08333,0.75595 -88.8244,-28.72619"
       id="path1373"
       inkscape:connector-curvature="0" />
  </g>
  <g
     inkscape:groupmode="layer"
     id="layer3"
     inkscape:label="Eyes" />
</svg>
