<?xml version="1.0" encoding="UTF-8" standalone="no"?>
<!-- Created with Inkscape (http://www.inkscape.org/) -->

<svg
   xmlns:dc="http://purl.org/dc/elements/1.1/"
   xmlns:cc="http://creativecommons.org/ns#"
   xmlns:rdf="http://www.w3.org/1999/02/22-rdf-syntax-ns#"
   xmlns:svg="http://www.w3.org/2000/svg"
   xmlns="http://www.w3.org/2000/svg"
   xmlns:sodipodi="http://sodipodi.sourceforge.net/DTD/sodipodi-0.dtd"
   xmlns:inkscape="http://www.inkscape.org/namespaces/inkscape"
   width="1024"
   height="1024"
   viewBox="0 0 270.93333 270.93334"
   version="1.1"
   id="svg8"
   inkscape:version="0.92.2 (5c3e80d, 2017-08-06)"
   sodipodi:docname="Bob_Body.svg"
   inkscape:export-filename="G:\Documents\Digipen\Semester 02\GAM150\drqst\Production\Illustrations\Bob_Body.png"
   inkscape:export-xdpi="96"
   inkscape:export-ydpi="96">
  <defs
     id="defs2" />
  <sodipodi:namedview
     id="base"
     pagecolor="#ffffff"
     bordercolor="#666666"
     borderopacity="1.0"
     inkscape:pageopacity="0.0"
     inkscape:pageshadow="2"
     inkscape:zoom="0.7"
     inkscape:cx="438.71453"
     inkscape:cy="491.39777"
     inkscape:document-units="mm"
     inkscape:current-layer="layer1"
     showgrid="false"
     units="px"
     inkscape:pagecheckerboard="true"
     inkscape:window-width="1920"
     inkscape:window-height="1057"
     inkscape:window-x="-8"
     inkscape:window-y="-8"
     inkscape:window-maximized="1" />
  <metadata
     id="metadata5">
    <rdf:RDF>
      <cc:Work
         rdf:about="">
        <dc:format>image/svg+xml</dc:format>
        <dc:type
           rdf:resource="http://purl.org/dc/dcmitype/StillImage" />
        <dc:title />
      </cc:Work>
    </rdf:RDF>
  </metadata>
  <g
     inkscape:label="Layer 1"
     inkscape:groupmode="layer"
     id="layer1"
     transform="translate(0,-26.06665)">
    <path
       style="fill:none;stroke:#000000;stroke-width:3.96875;stroke-linecap:butt;stroke-linejoin:miter;stroke-opacity:1;stroke-miterlimit:4;stroke-dasharray:none"
       d="m 196.84947,92.200597 a 47.36392,96.572921 0 0 0 -0.62486,-0.06356 47.36392,96.572921 0 0 0 -3.35037,0.241848 47.36392,96.572921 0 0 0 -4.69977,1.163235 47.36392,96.572921 0 0 0 -4.61966,2.114082 47.36392,96.572921 0 0 0 -4.49282,3.043742 47.36392,96.572921 0 0 0 -4.32147,3.943426 47.36392,96.572921 0 0 0 -4.10652,4.80332 47.36392,96.572921 0 0 0 -3.85104,5.61517 47.36392,96.572921 0 0 0 -3.55689,6.37067 47.36392,96.572921 0 0 0 -3.22753,7.06313 47.36392,96.572921 0 0 0 -2.8648,7.6848 47.36392,96.572921 0 0 0 -2.47495,8.22999 47.36392,96.572921 0 0 0 -2.05927,8.69198 47.36392,96.572921 0 0 0 -1.6231,9.06818 47.36392,96.572921 0 0 0 -1.17139,9.35292 47.36392,96.572921 0 0 0 -0.70763,9.54515 47.36392,96.572921 0 0 0 -0.23677,9.64127 47.36392,96.572921 0 0 0 0.11883,6.83111 47.36392,96.572921 0 0 0 0.57056,9.58287 47.36392,96.572921 0 0 0 1.03697,9.41907 47.36392,96.572921 0 0 0 1.49271,9.16068 47.36392,96.572921 0 0 0 1.93376,8.81135 47.36392,96.572921 0 0 0 2.35567,8.37313 47.36392,96.572921 0 0 0 2.754,7.85223 47.36392,96.572921 0 0 0 3.12472,7.25227 47.36392,96.572921 0 0 0 3.4643,6.57996 47.36392,96.572921 0 0 0 3.76872,5.84203 47.36392,96.572921 0 0 0 4.03619,5.04568 47.36392,96.572921 0 0 0 4.26317,4.19923 47.36392,96.572921 0 0 0 4.44743,3.30987 47.36392,96.572921 0 0 0 4.58717,2.38849 47.36392,96.572921 0 0 0 4.68152,1.44229 47.36392,96.572921 0 0 0 4.72826,0.48265 47.36392,96.572921 0 0 0 3.35036,-0.24184 47.36392,96.572921 0 0 0 4.70022,-1.16324 47.36392,96.572921 0 0 0 2.58532,-1.18339 c 11.09566,-17.8395 24.47575,-69.23646 17.57963,-109.96589 -7.01315,-41.42069 -14.22422,-60.38856 -27.59067,-80.5279 z"
       id="path19"
       inkscape:connector-curvature="0" />
    <path
       style="fill:none;stroke:#000000;stroke-width:3.96875;stroke-linecap:butt;stroke-linejoin:miter;stroke-opacity:1;stroke-miterlimit:4;stroke-dasharray:none"
       d="M 77.760582,29.552225 C 66.286192,29.805336 55.720179,32.683939 47.466648,39.879243 -3.9792133,84.728936 41.611715,214.96122 31.251106,240.56311 c -8.177447,20.20715 -25.6111066,34.02793 -10.578489,46.45092 15.032621,12.42297 169.621153,7.98218 180.947823,1.62057 1.61373,-0.90635 3.39661,-2.97632 5.24007,-5.94021 a 47.36392,96.572921 0 0 1 -2.58532,1.18339 47.36392,96.572921 0 0 1 -4.70022,1.16324 47.36392,96.572921 0 0 1 -3.35036,0.24184 47.36392,96.572921 0 0 1 -4.72826,-0.48265 47.36392,96.572921 0 0 1 -4.68152,-1.44229 47.36392,96.572921 0 0 1 -4.58717,-2.38849 47.36392,96.572921 0 0 1 -4.44743,-3.30987 47.36392,96.572921 0 0 1 -4.26317,-4.19923 47.36392,96.572921 0 0 1 -4.03619,-5.04568 47.36392,96.572921 0 0 1 -3.76872,-5.84203 47.36392,96.572921 0 0 1 -3.4643,-6.57996 47.36392,96.572921 0 0 1 -3.12472,-7.25227 47.36392,96.572921 0 0 1 -2.754,-7.85223 47.36392,96.572921 0 0 1 -2.35567,-8.37313 47.36392,96.572921 0 0 1 -1.93376,-8.81135 47.36392,96.572921 0 0 1 -1.49271,-9.16068 47.36392,96.572921 0 0 1 -1.03697,-9.41907 47.36392,96.572921 0 0 1 -0.57056,-9.58287 47.36392,96.572921 0 0 1 -0.11883,-6.83111 47.36392,96.572921 0 0 1 0.23677,-9.64127 47.36392,96.572921 0 0 1 0.70763,-9.54515 47.36392,96.572921 0 0 1 1.17139,-9.35292 47.36392,96.572921 0 0 1 1.6231,-9.06818 47.36392,96.572921 0 0 1 2.05927,-8.69198 47.36392,96.572921 0 0 1 2.47495,-8.22999 47.36392,96.572921 0 0 1 2.8648,-7.6848 47.36392,96.572921 0 0 1 3.22753,-7.06313 47.36392,96.572921 0 0 1 3.55689,-6.37067 47.36392,96.572921 0 0 1 3.85104,-5.61517 47.36392,96.572921 0 0 1 4.10652,-4.80332 47.36392,96.572921 0 0 1 4.32147,-3.943429 47.36392,96.572921 0 0 1 4.49282,-3.043742 47.36392,96.572921 0 0 1 4.61966,-2.114082 47.36392,96.572921 0 0 1 4.69977,-1.163235 47.36392,96.572921 0 0 1 3.35037,-0.241848 47.36392,96.572921 0 0 1 0.62486,0.06356 c -1.9606,-2.954038 -4.04949,-5.932286 -6.29396,-9.011334 C 176.61149,64.060274 156.82713,49.714924 136.20241,42.328706 118.53197,36.000491 96.884568,29.130374 77.760582,29.552225 Z"
       id="path10"
       inkscape:connector-curvature="0" />
    <path
       style="opacity:1;fill:#ff0000;fill-opacity:1;stroke-width:3.96875;stroke:#000000;stroke-opacity:1;stroke-miterlimit:4;stroke-dasharray:none"
       d="m 193.51234,284.65216 c -7.92703,-0.70205 -16.57885,-6.6276 -23.34162,-15.98648 -10.59274,-14.6591 -17.33567,-35.34721 -20.14873,-61.81872 -0.83493,-7.85682 -0.83768,-28.51308 -0.005,-36.28571 2.91511,-27.20573 9.97067,-48.36735 20.99469,-62.96901 6.52718,-8.645469 15.15979,-14.269695 22.70475,-14.792364 l 3.00498,-0.208166 2.27844,3.566337 c 10.79983,16.904603 17.33874,35.332673 22.98077,64.764813 3.2809,17.11521 3.87227,22.51079 3.89409,35.52976 0.0168,10.04242 -0.31407,15.73571 -1.43894,24.75744 -2.70794,21.71841 -8.74982,43.84496 -15.63931,57.27416 -1.77407,3.45809 -2.14504,3.95435 -3.33989,4.46804 -3.59522,1.54564 -7.46599,2.09653 -11.94438,1.6999 z"
       id="path21"
       inkscape:connector-curvature="0" />
    <path
       style="opacity:1;fill:#ff0000;fill-opacity:1;stroke-width:3.96875;stroke:#000000;stroke-opacity:1;stroke-miterlimit:4;stroke-dasharray:none"
       d="m 80.250237,294.31247 c -32.692606,-1.05489 -51.655295,-3.2721 -58.106247,-6.79405 -1.99834,-1.09102 -4.657715,-3.98401 -5.869721,-6.38538 -1.280407,-2.53689 -1.468481,-6.25917 -0.487691,-9.65215 0.989369,-3.42265 2.221905,-5.87462 7.921099,-15.75799 8.295317,-14.38551 9.341407,-17.43847 9.341407,-27.2624 0,-8.35864 -0.773788,-16.08149 -4.229539,-42.21324 -4.63006,-35.01165 -5.942862,-50.3025 -5.938588,-69.16964 0.0062,-27.301617 3.962154,-46.828475 12.481673,-61.610118 10.251739,-17.787108 23.621623,-25.525819 44.0718,-25.509493 13.426101,0.01072 28.08214,3.015739 48.83078,10.012083 17.92747,6.045062 27.73924,11.129687 40.0396,20.749185 9.89875,7.741335 20.02167,18.909905 26.96397,29.749239 l 0.87177,1.36113 -2.68726,0.220859 c -3.25105,0.267194 -7.31696,1.693867 -10.81349,3.794315 -24.27985,14.58541 -38.64455,65.38871 -32.7084,115.67908 4.04962,34.30797 16.79297,61.02702 33.65147,70.55726 6.78852,3.83759 12.81497,4.41337 21.34352,2.03918 0.64859,-0.18056 0.40587,0.23249 -1.19553,2.03452 -1.81234,2.0394 -2.23293,2.32011 -4.29003,2.86337 -7.34683,1.94025 -26.2495,3.5866 -54.89936,4.78148 -8.8931,0.37092 -56.837067,0.7533 -64.291233,0.51276 z"
       id="path23"
       inkscape:connector-curvature="0" />
    <path
       style="opacity:1;fill:#ffccaa;fill-opacity:1;stroke-width:3.96875;stroke:#000000;stroke-opacity:1;stroke-miterlimit:4;stroke-dasharray:none"
       d="m 191.13855,284.13191 c -15.90443,-3.49852 -30.29706,-24.38325 -37.1108,-53.85042 -1.4678,-6.34777 -2.57022,-12.62624 -3.53115,-20.1106 -0.68069,-5.30166 -0.74221,-7.08083 -0.74221,-21.46678 0,-14.42314 0.0604,-16.15769 0.74933,-21.54464 3.12417,-24.42593 9.63957,-43.99828 19.14268,-57.50484 6.51741,-9.26305 14.96299,-15.369862 22.91003,-16.565742 4.14653,-0.623974 3.87192,-0.747289 6.07409,2.727571 11.15931,17.608521 17.42407,35.192431 23.23992,65.229631 3.38165,17.46525 4.06301,24.60287 3.79487,39.75326 -0.29771,16.82107 -2.51201,32.49171 -7.10342,50.27083 -3.26242,12.63297 -9.70535,29.00967 -12.29432,31.24987 -0.29005,0.25098 -1.67642,0.81903 -3.08083,1.26233 -3.36007,1.06061 -8.6317,1.30106 -12.04819,0.54953 z"
       id="path25"
       inkscape:connector-curvature="0" />
    <path
       sodipodi:type="spiral"
       style="fill:none;fill-rule:evenodd;stroke:#000000;stroke-width:6.4094437;stroke-opacity:1;stroke-miterlimit:4;stroke-dasharray:none"
       id="path832"
       sodipodi:cx="199.9494"
       sodipodi:cy="115.57141"
       sodipodi:expansion="1"
       sodipodi:revolution="3"
       sodipodi:radius="100.98191"
       sodipodi:argument="-17.432833"
       sodipodi:t0="0"
       d="m 199.9494,115.57141 c 0.777,5.0031 -6.36073,3.51573 -8.31547,1.29143 -5.29724,-6.02774 -0.39153,-14.87106 5.73262,-17.922379 10.95466,-5.458098 23.49072,2.129879 27.52928,12.756669 5.92674,15.59525 -4.64588,32.25628 -19.78072,37.13618 -20.17237,6.50415 -41.07741,-7.15477 -46.74308,-26.80477 -7.12967,-24.727516 9.65901,-49.925959 33.82881,-56.349978 29.27288,-7.780349 58.79015,12.160377 65.95689,40.852868 8.44575,33.8131 -14.65991,67.66409 -47.87692,75.56378 -38.35034,9.1205 -76.54457,-17.15822 -85.17068,-54.90096 -9.80154,-42.885705 19.65568,-85.429622 61.92501,-94.777588 47.4198,-10.487005 94.318,22.152542 104.38449,68.949058 11.17571,51.95301 -24.64895,103.20887 -75.97311,113.99139"
       transform="matrix(0.39852867,0,0,0.96207126,103.65943,73.390214)" />
  </g>
</svg>
