<?xml version="1.0" encoding="UTF-8" standalone="no"?>
<!-- Created with Inkscape (http://www.inkscape.org/) -->

<svg
   xmlns:dc="http://purl.org/dc/elements/1.1/"
   xmlns:cc="http://creativecommons.org/ns#"
   xmlns:rdf="http://www.w3.org/1999/02/22-rdf-syntax-ns#"
   xmlns:svg="http://www.w3.org/2000/svg"
   xmlns="http://www.w3.org/2000/svg"
   xmlns:sodipodi="http://sodipodi.sourceforge.net/DTD/sodipodi-0.dtd"
   xmlns:inkscape="http://www.inkscape.org/namespaces/inkscape"
   width="1024"
   height="1024"
   viewBox="0 0 270.93333 270.93334"
   version="1.1"
   id="svg844"
   inkscape:version="0.92.2 (5c3e80d, 2017-08-06)"
   sodipodi:docname="Knight_Body.svg"
   inkscape:export-filename="G:\Documents\Digipen\Semester 02\GAM150\drqst\Production\Illustrations\Knight\Knight_Body.png"
   inkscape:export-xdpi="96"
   inkscape:export-ydpi="96">
  <defs
     id="defs838" />
  <sodipodi:namedview
     id="base"
     pagecolor="#ffffff"
     bordercolor="#666666"
     borderopacity="1.0"
     inkscape:pageopacity="0.0"
     inkscape:pageshadow="2"
     inkscape:zoom="0.49497475"
     inkscape:cx="-175.97823"
     inkscape:cy="579.60463"
     inkscape:document-units="mm"
     inkscape:current-layer="layer1"
     showgrid="false"
     units="px"
     inkscape:pagecheckerboard="true"
     inkscape:window-width="1920"
     inkscape:window-height="1057"
     inkscape:window-x="-32000"
     inkscape:window-y="-32000"
     inkscape:window-maximized="0" />
  <metadata
     id="metadata841">
    <rdf:RDF>
      <cc:Work
         rdf:about="">
        <dc:format>image/svg+xml</dc:format>
        <dc:type
           rdf:resource="http://purl.org/dc/dcmitype/StillImage" />
        <dc:title />
      </cc:Work>
    </rdf:RDF>
  </metadata>
  <g
     inkscape:label="Layer 1"
     inkscape:groupmode="layer"
     id="layer1"
     transform="translate(0,-26.06665)">
    <path
       style="fill:#999999;stroke:#000000;stroke-width:4.8674593;stroke-linecap:butt;stroke-linejoin:miter;stroke-miterlimit:4;stroke-dasharray:none;stroke-opacity:1"
       d="M 204.44685,223.46674 H 58.504847 c 0.519931,31.37187 2.118784,55.13477 5.291459,58.30745 10.198484,10.19849 115.597594,10.05903 136.944814,-0.83406 9.33495,-4.76344 6.42017,-28.61558 3.70573,-57.47339 z"
       id="path1415"
       inkscape:connector-curvature="0" />
    <path
       style="fill:#1a1a1a;stroke:#000000;stroke-width:0.32955843px;stroke-linecap:butt;stroke-linejoin:miter;stroke-opacity:1"
       d="M 205.71298,212.46046 H 56.109898 c 0.03279,3.69762 0.05025,7.48282 0.110483,11.00629 H 206.75041 c -0.35699,-3.67975 -0.71427,-7.18101 -1.03743,-11.00629 z"
       id="path1413"
       inkscape:connector-curvature="0" />
    <path
       style="fill:#999999;stroke:#000000;stroke-width:4.8674593;stroke-linecap:butt;stroke-linejoin:miter;stroke-miterlimit:4;stroke-dasharray:none;stroke-opacity:1"
       d="M 159.97742,33.602874 C 118.36891,33.29089 72.3179,36.115136 65.656462,43.288991 61.715402,46.92689 57.802683,143.25113 58.397736,212.46043 H 203.44104 c -2.84847,-34.77789 -3.28119,-74.3591 18.16044,-97.94113 0.34032,-0.21268 0.6877,-0.58334 1.0375,-1.02545 -0.0926,-4.9e-4 -0.1799,0.001 -0.27253,0.001 -5.26596,-0.0296 -10.53133,-0.10724 -15.49157,-0.23195 -4.96024,-0.12481 -9.61539,-0.29671 -13.65994,-0.51337 -4.04454,-0.21667 -7.4784,-0.47826 -9.99731,-0.78335 -1.25945,-0.15256 -2.29053,-0.3159 -3.05419,-0.48992 -0.38185,-0.087 -0.69694,-0.17706 -0.94053,-0.26937 -0.2436,-0.0921 -0.41565,-0.18703 -0.51147,-0.28456 -0.0958,-0.0975 -0.18867,-0.27184 -0.27825,-0.51779 -0.0895,-0.24598 -0.17589,-0.56331 -0.25921,-0.94815 -0.16661,-0.76968 -0.32031,-1.80808 -0.46202,-3.07574 -0.28342,-2.53536 -0.51711,-5.98946 -0.70161,-10.056899 -0.18449,-4.067448 -0.32034,-8.74829 -0.40689,-13.734727 -0.0866,-4.986438 -0.1239,-10.279099 -0.11343,-15.57143 0.011,-5.292334 0.069,-10.583771 0.17554,-15.568899 0.10647,-4.985124 0.26046,-9.663573 0.46203,-13.728387 0.0761,-1.535619 0.19242,-2.451741 0.28204,-3.79573 -5.63497,-0.169053 -11.48815,-0.277393 -17.43222,-0.321963 z"
       id="path1396"
       inkscape:connector-curvature="0" />
    <path
       style="fill:#cccccc;stroke:#000000;stroke-width:4.8674593;stroke-linecap:butt;stroke-linejoin:miter;stroke-miterlimit:4;stroke-dasharray:none;stroke-opacity:1"
       d="m 177.40964,33.924837 c -0.0896,1.343988 -0.20589,2.26011 -0.28204,3.795729 -0.20157,4.064815 -0.35553,8.743264 -0.46203,13.728387 -0.10646,4.985129 -0.1651,10.276566 -0.17554,15.568899 -0.011,5.292332 0.0269,10.584993 0.11343,15.571431 0.0866,4.986434 0.2224,9.667287 0.40689,13.734724 0.1845,4.067433 0.41819,7.521543 0.70161,10.056893 0.14171,1.26767 0.29541,2.30606 0.46202,3.07575 0.0832,0.38485 0.16965,0.70216 0.25921,0.94814 0.0895,0.24598 0.18243,0.42026 0.27825,0.5178 0.0959,0.0975 0.26787,0.19227 0.51147,0.28457 0.24359,0.0923 0.55868,0.18233 0.94053,0.26935 0.76366,0.17402 1.79474,0.33736 3.05419,0.48992 2.51891,0.3051 5.95277,0.5667 9.99731,0.78335 4.04455,0.21668 8.6997,0.38857 13.65994,0.51337 4.96024,0.1248 10.22561,0.20245 15.49157,0.23196 0.0926,5.3e-4 0.17991,-10e-4 0.27253,-10e-4 7.27373,-9.19372 16.1102,-65.647557 6.37966,-73.608916 -3.75665,-3.073625 -25.32003,-5.171419 -51.609,-5.960099 z"
       id="path1391"
       inkscape:connector-curvature="0" />
    <rect
       style="opacity:1;fill:#000000;fill-opacity:1;stroke:#000000;stroke-width:3.61256337;stroke-miterlimit:4;stroke-dasharray:none;stroke-opacity:1"
       id="rect1417"
       width="6.1493115"
       height="58.865841"
       x="70.880569"
       y="225.46046" />
    <rect
       y="225.46046"
       x="87.800781"
       height="58.865841"
       width="6.1493115"
       id="rect1421"
       style="opacity:1;fill:#000000;fill-opacity:1;stroke:#000000;stroke-width:3.61256337;stroke-miterlimit:4;stroke-dasharray:none;stroke-opacity:1" />
    <rect
       style="opacity:1;fill:#000000;fill-opacity:1;stroke:#000000;stroke-width:3.61256337;stroke-miterlimit:4;stroke-dasharray:none;stroke-opacity:1"
       id="rect1423"
       width="6.1493115"
       height="58.865841"
       x="103.56208"
       y="226.61938" />
    <rect
       y="226.85118"
       x="119.55515"
       height="58.865841"
       width="6.1493115"
       id="rect1425"
       style="opacity:1;fill:#000000;fill-opacity:1;stroke:#000000;stroke-width:3.61256337;stroke-miterlimit:4;stroke-dasharray:none;stroke-opacity:1" />
    <rect
       style="opacity:1;fill:#000000;fill-opacity:1;stroke:#000000;stroke-width:3.61256337;stroke-miterlimit:4;stroke-dasharray:none;stroke-opacity:1"
       id="rect1427"
       width="6.1493115"
       height="58.865841"
       x="135.78001"
       y="226.85118" />
    <rect
       y="226.85118"
       x="151.77312"
       height="58.865841"
       width="6.1493115"
       id="rect1429"
       style="opacity:1;fill:#000000;fill-opacity:1;stroke:#000000;stroke-width:3.61256337;stroke-miterlimit:4;stroke-dasharray:none;stroke-opacity:1" />
    <rect
       style="opacity:1;fill:#000000;fill-opacity:1;stroke:#000000;stroke-width:3.61256337;stroke-miterlimit:4;stroke-dasharray:none;stroke-opacity:1"
       id="rect1431"
       width="6.1493115"
       height="58.865841"
       x="166.83905"
       y="226.15582" />
    <rect
       y="226.13957"
       x="182.58412"
       height="57.507637"
       width="6.1818085"
       id="rect1433"
       style="opacity:1;fill:#000000;fill-opacity:1;stroke:#000000;stroke-width:3.58006668;stroke-miterlimit:4;stroke-dasharray:none;stroke-opacity:1" />
    <path
       sodipodi:type="star"
       style="opacity:1;fill:#ffcc00;fill-opacity:1;stroke:none;stroke-width:3.75408077;stroke-miterlimit:4;stroke-dasharray:none;stroke-opacity:0.97979796"
       id="path836"
       sodipodi:sides="4"
       sodipodi:cx="112.2649"
       sodipodi:cy="57.133533"
       sodipodi:r1="46.122948"
       sodipodi:r2="6.7493854"
       sodipodi:arg1="1.5630445"
       sodipodi:arg2="2.3690544"
       inkscape:flatsided="false"
       inkscape:rounded="0.05"
       inkscape:randomized="0.004"
       d="m 112.58497,103.10243 c -2.08697,-0.0217 -3.6677,-39.845978 -5.15532,-41.310845 -1.47986,-1.457216 -41.354187,-2.136683 -41.335545,-4.215135 0.01874,-2.089364 40.107925,-3.760011 41.574125,-5.247866 1.45854,-1.480083 2.2243,-41.386449 4.30193,-41.360221 2.08855,0.02637 3.64566,40.080475 5.13581,41.541399 1.48238,1.453294 41.18393,2.270254 41.16943,4.343997 -0.0146,2.084632 -39.93514,3.795006 -41.38812,5.289313 -1.44539,1.486502 -2.22624,40.980988 -4.30231,40.959358 z"
       transform="matrix(0.42084138,0,0,0.70743737,157.18719,32.657247)"
       inkscape:transform-center-x="0.012782526"
       inkscape:transform-center-y="-0.18163104" />
    <flowRoot
       xml:space="preserve"
       id="flowRoot1481"
       style="font-style:normal;font-weight:normal;font-size:40px;line-height:1.25;font-family:sans-serif;letter-spacing:0px;word-spacing:0px;fill:#000000;fill-opacity:1;stroke:none"
       transform="matrix(0.32449725,0,0,0.32449725,0.86722017,15.586045)"><flowRegion
         id="flowRegion1483"><rect
           id="rect1485"
           width="175.76654"
           height="165.66502"
           x="353.55341"
           y="124.96423" /></flowRegion><flowPara
         id="flowPara1487"
         style="font-size:85.33333588px">I</flowPara></flowRoot>    <flowRoot
       xml:space="preserve"
       id="flowRoot1497"
       style="font-style:normal;font-weight:normal;font-size:40px;line-height:1.25;font-family:sans-serif;letter-spacing:0px;word-spacing:0px;fill:#000000;fill-opacity:1;stroke:none"
       transform="matrix(0.32449725,0,0,0.32449725,-2.493644,29.724854)"><flowRegion
         id="flowRegion1499"><rect
           id="rect1501"
           width="217.14285"
           height="107.14286"
           x="314.28571"
           y="384" /></flowRegion><flowPara
         id="flowPara1503"
         style="font-size:85.33333588px">KA</flowPara></flowRoot>    <path
       style="fill:#ff0000;stroke:none;stroke-width:0.32449725px;stroke-linecap:butt;stroke-linejoin:miter;stroke-opacity:1"
       d="m 119.58149,104.78356 c 8.20644,-11.638622 30.06654,-23.9948 37.12241,-5.162719 7.37866,19.693639 -33.18893,46.382519 -38.2697,46.546419 -4.99017,0.16097 -44.17401,-22.85552 -35.729291,-38.84331 7.557232,-14.307568 28.681761,-7.785083 36.876581,-2.54039 z"
       id="path1505"
       inkscape:connector-curvature="0"
       sodipodi:nodetypes="csssc" />
  </g>
</svg>
