<?xml version="1.0" encoding="UTF-8" standalone="no"?>
<!-- Created with Inkscape (http://www.inkscape.org/) -->

<svg
   xmlns:dc="http://purl.org/dc/elements/1.1/"
   xmlns:cc="http://creativecommons.org/ns#"
   xmlns:rdf="http://www.w3.org/1999/02/22-rdf-syntax-ns#"
   xmlns:svg="http://www.w3.org/2000/svg"
   xmlns="http://www.w3.org/2000/svg"
   xmlns:sodipodi="http://sodipodi.sourceforge.net/DTD/sodipodi-0.dtd"
   xmlns:inkscape="http://www.inkscape.org/namespaces/inkscape"
   width="1280"
   height="720"
   viewBox="0 0 338.66666 190.5"
   version="1.1"
   id="svg8"
   inkscape:version="0.92.2 (5c3e80d, 2017-08-06)"
   sodipodi:docname="BG_Stage1.svg"
   inkscape:export-filename="D:\Documents\Digipen\Semester 02\GAM150\drqst\Production\Illustrations\BG\BG_Stage1.png"
   inkscape:export-xdpi="96"
   inkscape:export-ydpi="96">
  <defs
     id="defs2" />
  <sodipodi:namedview
     id="base"
     pagecolor="#ffffff"
     bordercolor="#666666"
     borderopacity="1.0"
     inkscape:pageopacity="0.0"
     inkscape:pageshadow="2"
     inkscape:zoom="0.7"
     inkscape:cx="478.08936"
     inkscape:cy="318.80783"
     inkscape:document-units="mm"
     inkscape:current-layer="layer5"
     showgrid="false"
     inkscape:pagecheckerboard="true"
     units="px"
     inkscape:window-width="1920"
     inkscape:window-height="1057"
     inkscape:window-x="-8"
     inkscape:window-y="-8"
     inkscape:window-maximized="1" />
  <metadata
     id="metadata5">
    <rdf:RDF>
      <cc:Work
         rdf:about="">
        <dc:format>image/svg+xml</dc:format>
        <dc:type
           rdf:resource="http://purl.org/dc/dcmitype/StillImage" />
        <dc:title />
      </cc:Work>
    </rdf:RDF>
  </metadata>
  <g
     inkscape:groupmode="layer"
     id="layer4"
     inkscape:label="Ground"
     sodipodi:insensitive="true">
    <rect
       style="fill:#a05a2c;fill-opacity:1;stroke:#000000;stroke-width:0;stroke-miterlimit:4;stroke-dasharray:none;stroke-opacity:1"
       id="rect1180"
       width="402.16666"
       height="93.738091"
       x="-36.3237"
       y="105.00465" />
  </g>
  <g
     inkscape:groupmode="layer"
     id="layer5"
     inkscape:label="Shrubs">
    <circle
       style="fill:#008000;fill-opacity:1;stroke:#000000;stroke-width:1.32291663;stroke-miterlimit:4;stroke-dasharray:none;stroke-opacity:1"
       id="path1184"
       cx="117.26663"
       cy="145.35085"
       r="6.9925594" />
    <circle
       r="6.9925594"
       cy="135.86278"
       cx="120.87478"
       id="circle1186"
       style="fill:#008000;fill-opacity:1;stroke:#000000;stroke-width:1.32291663;stroke-miterlimit:4;stroke-dasharray:none;stroke-opacity:1" />
    <circle
       style="fill:#008000;fill-opacity:1;stroke:#000000;stroke-width:1.32291663;stroke-miterlimit:4;stroke-dasharray:none;stroke-opacity:1"
       id="circle1188"
       cx="126.08654"
       cy="145.61812"
       r="6.9925594" />
    <circle
       r="6.9925594"
       cy="135.46187"
       cx="79.8489"
       id="circle1194"
       style="fill:#008000;fill-opacity:1;stroke:#000000;stroke-width:1.32291663;stroke-miterlimit:4;stroke-dasharray:none;stroke-opacity:1" />
    <circle
       style="fill:#008000;fill-opacity:1;stroke:#000000;stroke-width:1.32291663;stroke-miterlimit:4;stroke-dasharray:none;stroke-opacity:1"
       id="circle1196"
       cx="83.457047"
       cy="125.9738"
       r="6.9925594" />
    <circle
       r="6.9925594"
       cy="135.72914"
       cx="88.668808"
       id="circle1198"
       style="fill:#008000;fill-opacity:1;stroke:#000000;stroke-width:1.32291663;stroke-miterlimit:4;stroke-dasharray:none;stroke-opacity:1" />
    <circle
       style="fill:#008000;fill-opacity:1;stroke:#000000;stroke-width:1.32291663;stroke-miterlimit:4;stroke-dasharray:none;stroke-opacity:1"
       id="circle1200"
       cx="9.5355234"
       cy="160.21034"
       r="6.9925594" />
    <circle
       r="6.9925594"
       cy="150.72227"
       cx="13.143669"
       id="circle1202"
       style="fill:#008000;fill-opacity:1;stroke:#000000;stroke-width:1.32291663;stroke-miterlimit:4;stroke-dasharray:none;stroke-opacity:1" />
    <circle
       style="fill:#008000;fill-opacity:1;stroke:#000000;stroke-width:1.32291663;stroke-miterlimit:4;stroke-dasharray:none;stroke-opacity:1"
       id="circle1204"
       cx="18.355434"
       cy="160.47762"
       r="6.9925594" />
    <circle
       r="4.5913668"
       cy="128.77359"
       cx="27.241165"
       id="circle1206"
       style="fill:#008000;fill-opacity:1;stroke:#000000;stroke-width:0.86863691;stroke-miterlimit:4;stroke-dasharray:none;stroke-opacity:1" />
    <circle
       style="fill:#008000;fill-opacity:1;stroke:#000000;stroke-width:0.86863691;stroke-miterlimit:4;stroke-dasharray:none;stroke-opacity:1"
       id="circle1208"
       cx="29.6103"
       cy="122.54366"
       r="4.5913668" />
    <circle
       r="4.5913668"
       cy="128.9491"
       cx="33.032383"
       id="circle1210"
       style="fill:#008000;fill-opacity:1;stroke:#000000;stroke-width:0.86863691;stroke-miterlimit:4;stroke-dasharray:none;stroke-opacity:1" />
    <circle
       r="6.9925594"
       cy="142.41087"
       cx="205.73285"
       id="circle1212"
       style="fill:#008000;fill-opacity:1;stroke:#000000;stroke-width:1.32291663;stroke-miterlimit:4;stroke-dasharray:none;stroke-opacity:1" />
    <circle
       style="fill:#008000;fill-opacity:1;stroke:#000000;stroke-width:1.32291663;stroke-miterlimit:4;stroke-dasharray:none;stroke-opacity:1"
       id="circle1214"
       cx="209.34099"
       cy="132.92281"
       r="6.9925594" />
    <circle
       r="6.9925594"
       cy="142.67815"
       cx="214.55275"
       id="circle1216"
       style="fill:#008000;fill-opacity:1;stroke:#000000;stroke-width:1.32291663;stroke-miterlimit:4;stroke-dasharray:none;stroke-opacity:1" />
    <circle
       style="fill:#008000;fill-opacity:1;stroke:#000000;stroke-width:1.18184412;stroke-miterlimit:4;stroke-dasharray:none;stroke-opacity:1"
       id="circle1218"
       cx="317.97168"
       cy="153.41183"
       r="6.2468905" />
    <circle
       r="6.2468905"
       cy="144.93555"
       cx="321.19504"
       id="circle1220"
       style="fill:#008000;fill-opacity:1;stroke:#000000;stroke-width:1.18184412;stroke-miterlimit:4;stroke-dasharray:none;stroke-opacity:1" />
    <circle
       style="fill:#008000;fill-opacity:1;stroke:#000000;stroke-width:1.18184412;stroke-miterlimit:4;stroke-dasharray:none;stroke-opacity:1"
       id="circle1222"
       cx="325.85101"
       cy="153.6506"
       r="6.2468905" />
    <circle
       style="fill:#008000;fill-opacity:1;stroke:#000000;stroke-width:0.97121614;stroke-miterlimit:4;stroke-dasharray:none;stroke-opacity:1"
       id="circle1224"
       cx="244.32297"
       cy="129.01515"
       r="5.1335711" />
    <circle
       r="5.1335711"
       cy="122.04951"
       cx="246.97188"
       id="circle1226"
       style="fill:#008000;fill-opacity:1;stroke:#000000;stroke-width:0.97121614;stroke-miterlimit:4;stroke-dasharray:none;stroke-opacity:1" />
    <circle
       style="fill:#008000;fill-opacity:1;stroke:#000000;stroke-width:0.97121614;stroke-miterlimit:4;stroke-dasharray:none;stroke-opacity:1"
       id="circle1228"
       cx="250.79808"
       cy="129.21136"
       r="5.1335711" />
    <circle
       r="4.5596347"
       cy="126.21902"
       cx="307.43137"
       id="circle1230"
       style="fill:#008000;fill-opacity:1;stroke:#000000;stroke-width:0.86263353;stroke-miterlimit:4;stroke-dasharray:none;stroke-opacity:1" />
    <circle
       style="fill:#008000;fill-opacity:1;stroke:#000000;stroke-width:0.86263353;stroke-miterlimit:4;stroke-dasharray:none;stroke-opacity:1"
       id="circle1232"
       cx="309.78412"
       cy="120.03214"
       r="4.5596347" />
    <circle
       r="4.5596347"
       cy="126.3933"
       cx="313.18253"
       id="circle1234"
       style="fill:#008000;fill-opacity:1;stroke:#000000;stroke-width:0.86263353;stroke-miterlimit:4;stroke-dasharray:none;stroke-opacity:1" />
  </g>
  <g
     inkscape:groupmode="layer"
     id="layer2"
     inkscape:label="Sky"
     sodipodi:insensitive="true">
    <rect
       style="fill:#55ddff;fill-opacity:1;stroke:none;stroke-width:2.64583325;stroke-miterlimit:4;stroke-dasharray:none;stroke-opacity:1"
       id="rect874"
       width="389.31549"
       height="120.95238"
       x="-29.482141"
       y="-8.3154764" />
  </g>
  <g
     inkscape:label="Clouds"
     inkscape:groupmode="layer"
     id="layer1"
     transform="translate(0,-106.49998)"
     sodipodi:insensitive="true">
    <ellipse
       style="fill:#ffffff;fill-opacity:1;stroke:#000000;stroke-width:0.98025954;stroke-miterlimit:4;stroke-dasharray:none;stroke-opacity:1"
       id="path817"
       cx="26.916862"
       cy="133.99777"
       rx="10.362744"
       ry="10.187698" />
    <ellipse
       ry="10.187698"
       rx="10.362744"
       cy="128.78601"
       cx="38.275814"
       id="ellipse819"
       style="fill:#ffffff;fill-opacity:1;stroke:#000000;stroke-width:0.98025954;stroke-miterlimit:4;stroke-dasharray:none;stroke-opacity:1" />
    <ellipse
       style="fill:#ffffff;fill-opacity:1;stroke:#000000;stroke-width:0.98025954;stroke-miterlimit:4;stroke-dasharray:none;stroke-opacity:1"
       id="ellipse821"
       cx="49.902035"
       cy="131.8596"
       rx="10.362744"
       ry="10.187698" />
    <ellipse
       ry="10.187698"
       rx="10.362744"
       cy="134.66594"
       cx="36.404926"
       id="ellipse823"
       style="fill:#ffffff;fill-opacity:1;stroke:#000000;stroke-width:0.98025954;stroke-miterlimit:4;stroke-dasharray:none;stroke-opacity:1" />
    <ellipse
       style="fill:#ffffff;fill-opacity:1;stroke:#000000;stroke-width:0.98025954;stroke-miterlimit:4;stroke-dasharray:none;stroke-opacity:1"
       id="ellipse825"
       cx="52.090939"
       cy="140.90254"
       rx="10.362744"
       ry="10.187698" />
    <ellipse
       ry="10.187698"
       rx="10.362744"
       cy="130.69717"
       cx="61.351353"
       id="ellipse827"
       style="fill:#ffffff;fill-opacity:1;stroke:#000000;stroke-width:0.98025954;stroke-miterlimit:4;stroke-dasharray:none;stroke-opacity:1" />
    <ellipse
       style="fill:#ffffff;fill-opacity:1;stroke:#000000;stroke-width:0.98025954;stroke-miterlimit:4;stroke-dasharray:none;stroke-opacity:1"
       id="ellipse829"
       cx="32.247189"
       cy="143.35938"
       rx="10.362744"
       ry="10.187698" />
    <ellipse
       ry="10.187698"
       rx="10.362744"
       cy="145.06027"
       cx="61.162365"
       id="ellipse831"
       style="fill:#ffffff;fill-opacity:1;stroke:#000000;stroke-width:0.98025954;stroke-miterlimit:4;stroke-dasharray:none;stroke-opacity:1" />
    <ellipse
       style="fill:#ffffff;fill-opacity:1;stroke:#000000;stroke-width:0.98025954;stroke-miterlimit:4;stroke-dasharray:none;stroke-opacity:1"
       id="ellipse833"
       cx="45.854328"
       cy="145.62724"
       rx="10.362744"
       ry="10.187698" />
    <ellipse
       ry="13.917745"
       rx="14.156881"
       cy="139.81544"
       cx="271.66129"
       id="ellipse835"
       style="fill:#ffffff;fill-opacity:1;stroke:#000000;stroke-width:1.33916438;stroke-miterlimit:4;stroke-dasharray:none;stroke-opacity:1" />
    <ellipse
       style="fill:#ffffff;fill-opacity:1;stroke:#000000;stroke-width:1.33916438;stroke-miterlimit:4;stroke-dasharray:none;stroke-opacity:1"
       id="ellipse837"
       cx="287.17914"
       cy="132.6955"
       rx="14.156881"
       ry="13.917745" />
    <ellipse
       ry="13.917745"
       rx="14.156881"
       cy="136.89442"
       cx="303.06207"
       id="ellipse839"
       style="fill:#ffffff;fill-opacity:1;stroke:#000000;stroke-width:1.33916438;stroke-miterlimit:4;stroke-dasharray:none;stroke-opacity:1" />
    <ellipse
       style="fill:#ffffff;fill-opacity:1;stroke:#000000;stroke-width:1.33916438;stroke-miterlimit:4;stroke-dasharray:none;stroke-opacity:1"
       id="ellipse841"
       cx="284.62326"
       cy="140.72826"
       rx="14.156881"
       ry="13.917745" />
    <ellipse
       ry="13.917745"
       rx="14.156881"
       cy="149.24828"
       cx="306.05243"
       id="ellipse843"
       style="fill:#ffffff;fill-opacity:1;stroke:#000000;stroke-width:1.33916438;stroke-miterlimit:4;stroke-dasharray:none;stroke-opacity:1" />
    <ellipse
       style="fill:#ffffff;fill-opacity:1;stroke:#000000;stroke-width:1.33916438;stroke-miterlimit:4;stroke-dasharray:none;stroke-opacity:1"
       id="ellipse845"
       cx="318.70337"
       cy="135.3064"
       rx="14.156881"
       ry="13.917745" />
    <ellipse
       ry="13.917745"
       rx="14.156881"
       cy="152.60464"
       cx="278.94324"
       id="ellipse847"
       style="fill:#ffffff;fill-opacity:1;stroke:#000000;stroke-width:1.33916438;stroke-miterlimit:4;stroke-dasharray:none;stroke-opacity:1" />
    <ellipse
       style="fill:#ffffff;fill-opacity:1;stroke:#000000;stroke-width:1.33916438;stroke-miterlimit:4;stroke-dasharray:none;stroke-opacity:1"
       id="ellipse849"
       cx="318.44519"
       cy="154.92828"
       rx="14.156881"
       ry="13.917745" />
    <ellipse
       ry="13.917745"
       rx="14.156881"
       cy="155.70285"
       cx="297.53238"
       id="ellipse851"
       style="fill:#ffffff;fill-opacity:1;stroke:#000000;stroke-width:1.33916438;stroke-miterlimit:4;stroke-dasharray:none;stroke-opacity:1" />
    <ellipse
       style="fill:#ffffff;fill-opacity:1;stroke:#000000;stroke-width:1.26242757;stroke-miterlimit:4;stroke-dasharray:none;stroke-opacity:1"
       id="ellipse853"
       cx="140.34421"
       cy="147.14679"
       rx="17.437725"
       ry="10.041343" />
    <ellipse
       ry="10.041343"
       rx="17.437725"
       cy="142.00989"
       cx="159.45833"
       id="ellipse855"
       style="fill:#ffffff;fill-opacity:1;stroke:#000000;stroke-width:1.26242757;stroke-miterlimit:4;stroke-dasharray:none;stroke-opacity:1" />
    <ellipse
       style="fill:#ffffff;fill-opacity:1;stroke:#000000;stroke-width:1.26242757;stroke-miterlimit:4;stroke-dasharray:none;stroke-opacity:1"
       id="ellipse857"
       cx="179.02206"
       cy="145.03935"
       rx="17.437725"
       ry="10.041343" />
    <ellipse
       ry="10.041343"
       rx="17.437725"
       cy="147.80534"
       cx="156.31007"
       id="ellipse859"
       style="fill:#ffffff;fill-opacity:1;stroke:#000000;stroke-width:1.26242757;stroke-miterlimit:4;stroke-dasharray:none;stroke-opacity:1" />
    <ellipse
       style="fill:#ffffff;fill-opacity:1;stroke:#000000;stroke-width:1.26242757;stroke-miterlimit:4;stroke-dasharray:none;stroke-opacity:1"
       id="ellipse861"
       cx="182.70547"
       cy="153.95235"
       rx="17.437725"
       ry="10.041343" />
    <ellipse
       ry="10.041343"
       rx="17.437725"
       cy="143.89362"
       cx="198.28827"
       id="ellipse863"
       style="fill:#ffffff;fill-opacity:1;stroke:#000000;stroke-width:1.26242757;stroke-miterlimit:4;stroke-dasharray:none;stroke-opacity:1" />
    <ellipse
       style="fill:#ffffff;fill-opacity:1;stroke:#000000;stroke-width:1.26242757;stroke-miterlimit:4;stroke-dasharray:none;stroke-opacity:1"
       id="ellipse865"
       cx="149.31377"
       cy="156.3739"
       rx="17.437725"
       ry="10.041343" />
    <ellipse
       ry="10.041343"
       rx="17.437725"
       cy="158.05037"
       cx="197.97025"
       id="ellipse867"
       style="fill:#ffffff;fill-opacity:1;stroke:#000000;stroke-width:1.26242757;stroke-miterlimit:4;stroke-dasharray:none;stroke-opacity:1" />
    <ellipse
       style="fill:#ffffff;fill-opacity:1;stroke:#000000;stroke-width:1.26242757;stroke-miterlimit:4;stroke-dasharray:none;stroke-opacity:1"
       id="ellipse869"
       cx="172.21091"
       cy="158.60921"
       rx="17.437725"
       ry="10.041343" />
    <ellipse
       ry="4.71629"
       rx="8.1902761"
       cy="194.79298"
       cx="84.648918"
       id="ellipse1125"
       style="fill:#ffffff;fill-opacity:1;stroke:#000000;stroke-width:0.59294605;stroke-miterlimit:4;stroke-dasharray:none;stroke-opacity:1" />
    <ellipse
       style="fill:#ffffff;fill-opacity:1;stroke:#000000;stroke-width:0.59294605;stroke-miterlimit:4;stroke-dasharray:none;stroke-opacity:1"
       id="ellipse1127"
       cx="93.626579"
       cy="192.38025"
       rx="8.1902761"
       ry="4.71629" />
    <ellipse
       ry="4.71629"
       rx="8.1902761"
       cy="193.80315"
       cx="102.81541"
       id="ellipse1129"
       style="fill:#ffffff;fill-opacity:1;stroke:#000000;stroke-width:0.59294605;stroke-miterlimit:4;stroke-dasharray:none;stroke-opacity:1" />
    <ellipse
       style="fill:#ffffff;fill-opacity:1;stroke:#000000;stroke-width:0.59294605;stroke-miterlimit:4;stroke-dasharray:none;stroke-opacity:1"
       id="ellipse1131"
       cx="92.147881"
       cy="195.10229"
       rx="8.1902761"
       ry="4.71629" />
    <ellipse
       ry="4.71629"
       rx="8.1902761"
       cy="197.98946"
       cx="104.54546"
       id="ellipse1133"
       style="fill:#ffffff;fill-opacity:1;stroke:#000000;stroke-width:0.59294605;stroke-miterlimit:4;stroke-dasharray:none;stroke-opacity:1" />
    <ellipse
       style="fill:#ffffff;fill-opacity:1;stroke:#000000;stroke-width:0.59294605;stroke-miterlimit:4;stroke-dasharray:none;stroke-opacity:1"
       id="ellipse1135"
       cx="111.8645"
       cy="193.265"
       rx="8.1902761"
       ry="4.71629" />
    <ellipse
       ry="4.71629"
       rx="8.1902761"
       cy="199.12683"
       cx="88.861809"
       id="ellipse1137"
       style="fill:#ffffff;fill-opacity:1;stroke:#000000;stroke-width:0.59294605;stroke-miterlimit:4;stroke-dasharray:none;stroke-opacity:1" />
    <ellipse
       style="fill:#ffffff;fill-opacity:1;stroke:#000000;stroke-width:0.59294605;stroke-miterlimit:4;stroke-dasharray:none;stroke-opacity:1"
       id="ellipse1139"
       cx="111.71513"
       cy="199.91425"
       rx="8.1902761"
       ry="4.71629" />
    <ellipse
       ry="4.71629"
       rx="8.1902761"
       cy="200.17673"
       cx="99.616302"
       id="ellipse1141"
       style="fill:#ffffff;fill-opacity:1;stroke:#000000;stroke-width:0.59294605;stroke-miterlimit:4;stroke-dasharray:none;stroke-opacity:1" />
    <ellipse
       style="fill:#ffffff;fill-opacity:1;stroke:#000000;stroke-width:0.47132307;stroke-miterlimit:4;stroke-dasharray:none;stroke-opacity:1"
       id="ellipse1143"
       cx="193.27357"
       cy="186.91017"
       rx="5.3727541"
       ry="4.5426483" />
    <ellipse
       ry="4.5426483"
       rx="5.3727541"
       cy="184.58627"
       cx="199.16284"
       id="ellipse1145"
       style="fill:#ffffff;fill-opacity:1;stroke:#000000;stroke-width:0.47132307;stroke-miterlimit:4;stroke-dasharray:none;stroke-opacity:1" />
    <ellipse
       style="fill:#ffffff;fill-opacity:1;stroke:#000000;stroke-width:0.47132307;stroke-miterlimit:4;stroke-dasharray:none;stroke-opacity:1"
       id="ellipse1147"
       cx="205.19064"
       cy="185.95679"
       rx="5.3727541"
       ry="4.5426483" />
    <ellipse
       ry="4.5426483"
       rx="5.3727541"
       cy="187.2081"
       cx="198.19283"
       id="ellipse1149"
       style="fill:#ffffff;fill-opacity:1;stroke:#000000;stroke-width:0.47132307;stroke-miterlimit:4;stroke-dasharray:none;stroke-opacity:1" />
    <ellipse
       style="fill:#ffffff;fill-opacity:1;stroke:#000000;stroke-width:0.47132307;stroke-miterlimit:4;stroke-dasharray:none;stroke-opacity:1"
       id="ellipse1151"
       cx="206.32555"
       cy="189.98897"
       rx="5.3727541"
       ry="4.5426483" />
    <ellipse
       ry="4.5426483"
       rx="5.3727541"
       cy="185.43845"
       cx="211.12677"
       id="ellipse1153"
       style="fill:#ffffff;fill-opacity:1;stroke:#000000;stroke-width:0.47132307;stroke-miterlimit:4;stroke-dasharray:none;stroke-opacity:1" />
    <ellipse
       style="fill:#ffffff;fill-opacity:1;stroke:#000000;stroke-width:0.47132307;stroke-miterlimit:4;stroke-dasharray:none;stroke-opacity:1"
       id="ellipse1155"
       cx="196.03719"
       cy="191.08446"
       rx="5.3727541"
       ry="4.5426483" />
    <ellipse
       ry="4.5426483"
       rx="5.3727541"
       cy="191.84288"
       cx="211.02878"
       id="ellipse1157"
       style="fill:#ffffff;fill-opacity:1;stroke:#000000;stroke-width:0.47132307;stroke-miterlimit:4;stroke-dasharray:none;stroke-opacity:1" />
    <ellipse
       style="fill:#ffffff;fill-opacity:1;stroke:#000000;stroke-width:0.47132307;stroke-miterlimit:4;stroke-dasharray:none;stroke-opacity:1"
       id="ellipse1159"
       cx="203.09204"
       cy="192.0957"
       rx="5.3727541"
       ry="4.5426483" />
    <ellipse
       ry="4.5426483"
       rx="5.3727541"
       cy="115.3215"
       cx="229.18132"
       id="ellipse1161"
       style="fill:#ffffff;fill-opacity:1;stroke:#000000;stroke-width:0.47132307;stroke-miterlimit:4;stroke-dasharray:none;stroke-opacity:1" />
    <ellipse
       style="fill:#ffffff;fill-opacity:1;stroke:#000000;stroke-width:0.47132307;stroke-miterlimit:4;stroke-dasharray:none;stroke-opacity:1"
       id="ellipse1163"
       cx="235.07059"
       cy="112.99757"
       rx="5.3727541"
       ry="4.5426483" />
    <ellipse
       ry="4.5426483"
       rx="5.3727541"
       cy="114.36809"
       cx="241.09839"
       id="ellipse1165"
       style="fill:#ffffff;fill-opacity:1;stroke:#000000;stroke-width:0.47132307;stroke-miterlimit:4;stroke-dasharray:none;stroke-opacity:1" />
    <ellipse
       style="fill:#ffffff;fill-opacity:1;stroke:#000000;stroke-width:0.47132307;stroke-miterlimit:4;stroke-dasharray:none;stroke-opacity:1"
       id="ellipse1167"
       cx="234.10057"
       cy="115.61942"
       rx="5.3727541"
       ry="4.5426483" />
    <ellipse
       ry="4.5426483"
       rx="5.3727541"
       cy="118.40028"
       cx="242.23329"
       id="ellipse1169"
       style="fill:#ffffff;fill-opacity:1;stroke:#000000;stroke-width:0.47132307;stroke-miterlimit:4;stroke-dasharray:none;stroke-opacity:1" />
    <ellipse
       style="fill:#ffffff;fill-opacity:1;stroke:#000000;stroke-width:0.47132307;stroke-miterlimit:4;stroke-dasharray:none;stroke-opacity:1"
       id="ellipse1171"
       cx="247.03452"
       cy="113.84975"
       rx="5.3727541"
       ry="4.5426483" />
    <ellipse
       ry="4.5426483"
       rx="5.3727541"
       cy="119.49576"
       cx="231.94493"
       id="ellipse1173"
       style="fill:#ffffff;fill-opacity:1;stroke:#000000;stroke-width:0.47132307;stroke-miterlimit:4;stroke-dasharray:none;stroke-opacity:1" />
    <ellipse
       style="fill:#ffffff;fill-opacity:1;stroke:#000000;stroke-width:0.47132307;stroke-miterlimit:4;stroke-dasharray:none;stroke-opacity:1"
       id="ellipse1175"
       cx="246.93652"
       cy="120.25418"
       rx="5.3727541"
       ry="4.5426483" />
    <ellipse
       ry="4.5426483"
       rx="5.3727541"
       cy="120.507"
       cx="238.99979"
       id="ellipse1177"
       style="fill:#ffffff;fill-opacity:1;stroke:#000000;stroke-width:0.47132307;stroke-miterlimit:4;stroke-dasharray:none;stroke-opacity:1" />
  </g>
  <g
     inkscape:groupmode="layer"
     id="layer3"
     inkscape:label="Trees"
     sodipodi:insensitive="true">
    <path
       style="fill:#c87137;stroke:#000000;stroke-width:3.96875;stroke-linecap:butt;stroke-linejoin:miter;stroke-miterlimit:4;stroke-dasharray:none;stroke-opacity:1"
       d="m 47.625,93.171131 c 6.795066,-13.918875 12.530775,-13.004917 20.410712,1.133928 7.229341,12.971491 13.229167,88.824401 9.07143,90.336311 -4.157739,1.5119 -30.616071,3.77975 -35.151786,-0.75596 -4.535713,-4.53571 0.212519,-79.53602 5.669644,-90.714279 z"
       id="path877"
       inkscape:connector-curvature="0"
       sodipodi:nodetypes="sscss" />
    <path
       style="fill:#1a1a1a;fill-opacity:1;stroke:none;stroke-width:3.96875;stroke-miterlimit:4;stroke-dasharray:none;stroke-opacity:1"
       id="path881"
       d="m 52.714646,89.957187 c -0.51186,0.62521 -0.978805,1.289462 -1.36733,1.998233 -0.286482,0.539772 -0.366077,1.133002 -0.402261,1.733328 -0.05068,0.587166 0.0013,1.162389 0.09799,1.740525 0.119317,0.548499 0.323506,1.072253 0.59586,1.561798 0.312968,0.540578 0.69274,1.021876 1.100159,1.491311 0.426122,0.472508 0.837414,0.958783 1.269069,1.425776 0.585345,0.687102 1.184635,1.360932 1.761479,2.055212 0.579917,0.66493 1.075449,1.39986 1.549609,2.14253 0.311907,0.6279 0.559044,1.28662 0.698463,1.97415 0.129148,0.76496 0.126013,1.54335 0.134887,2.31666 0.0083,0.9271 -0.351729,1.7661 -0.765029,2.57562 -0.455319,0.8977 -1.10693,1.66643 -1.701906,2.47072 -0.648475,0.82381 -1.274151,1.66509 -1.90006,2.50608 -0.528124,0.74229 -1.095026,1.45564 -1.607513,2.20887 -0.458404,0.63636 -0.758555,1.36283 -1.062448,2.08065 -0.3659,0.80944 -0.542165,1.67198 -0.646544,2.54825 -0.07895,0.91244 -0.07621,1.82948 -0.08036,2.74459 -0.0039,0.91257 -0.01209,1.82267 0.07194,2.73194 0.122092,1.15222 0.543658,2.23928 0.939786,3.31879 0.437553,1.15706 0.848398,2.32503 1.301377,3.47594 0.482114,1.13533 0.782336,2.32945 1.078244,3.52282 0.226676,0.9556 0.306466,1.93676 0.347591,2.91545 0.06631,0.81923 0.0109,1.6183 -0.16115,2.41965 -0.159658,0.78299 -0.563647,1.4629 -1.00099,2.11838 -0.380119,0.48978 -0.780003,0.96361 -1.1723,1.44354 -0.338632,0.40968 -0.684578,0.80857 -0.908209,1.29419 -0.180874,0.47675 -0.196265,0.98952 -0.210738,1.49298 -0.0073,0.58534 -0.0043,1.17076 -0.0065,1.75613 0.01916,0.79805 0.321858,1.54119 0.614778,2.27107 0.327467,0.72542 0.756428,1.39445 1.203383,2.05038 0.47025,0.65008 0.919031,1.31573 1.385216,1.96934 0.473011,0.49331 0.694486,1.14045 1.042974,1.71042 0.303641,0.56702 0.514115,1.17714 0.735383,1.77949 0.23722,0.61899 0.306636,1.27297 0.348562,1.9287 0.0333,0.62726 0.02516,1.25555 0.02463,1.88339 -0.0033,0.64764 -0.004,1.29527 -0.003,1.94292 0.02368,0.64582 -0.0363,1.28645 -0.167637,1.91832 -0.129836,0.5079 -0.32131,0.99463 -0.533225,1.47293 -0.230111,0.43947 -0.432496,0.89644 -0.711711,1.30774 -0.292365,0.44682 -0.609727,0.87547 -0.914363,1.31358 -0.310951,0.41507 -0.66321,0.79725 -0.938183,1.23772 -0.289415,0.42827 -0.581742,0.85441 -0.858885,1.29097 -0.196454,0.41493 -0.43165,0.80558 -0.671817,1.19552 -0.164423,0.38273 -0.30089,0.78402 -0.412893,1.18626 -0.111284,0.47604 -0.121296,0.9671 -0.13226,1.45351 -0.04893,0.53419 0.04623,1.03885 0.204004,1.54534 0.105932,0.47164 0.264883,0.91024 0.500674,1.3302 0.17535,0.43451 0.447421,0.80444 0.779878,1.13063 0.362484,0.39533 0.836147,0.4888 1.344419,0.54915 0,0 -3.239307,2.27697 -3.239307,2.27697 v 0 c -0.575394,-0.11156 -1.0879,-0.31325 -1.492665,-0.75688 -0.338532,-0.36283 -0.64956,-0.75309 -0.837295,-1.21766 -0.246729,-0.44499 -0.42599,-0.90568 -0.529955,-1.4061 -0.173437,-0.54159 -0.319437,-1.08123 -0.26642,-1.65717 0.0058,-0.50956 0.01027,-1.02166 0.08883,-1.52635 0.08554,-0.44021 0.266205,-0.84061 0.3693,-1.2752 0.187891,-0.42764 0.52537,-0.7665 0.672156,-1.21718 0.24475,-0.45502 0.543626,-0.88914 0.853508,-1.29673 0.271601,-0.4564 0.564309,-0.88201 0.9271,-1.27331 0.331341,-0.4138 0.613585,-0.85781 0.916324,-1.29362 0.0868,-0.12992 0.194283,-0.24521 0.280757,-0.37534 0.181592,-0.27325 0.240528,-0.61847 0.46632,-0.86746 0.197163,-0.47051 0.42344,-0.92773 0.556837,-1.42268 0.203428,-0.58173 0.231775,-1.21482 0.219369,-1.82645 0.0024,-0.64808 0.0039,-1.29615 0.0046,-1.94423 0.0021,-0.62108 0.0034,-1.24237 -0.01402,-1.86325 -0.0289,-0.61907 -0.07877,-1.23943 -0.291229,-1.82755 -0.209315,-0.57969 -0.421754,-1.16206 -0.706435,-1.70939 -0.333801,-0.56791 -0.550087,-1.20253 -1.011899,-1.69253 -0.465754,-0.65674 -0.914546,-1.32537 -1.385604,-1.97814 -0.464215,-0.68033 -0.905193,-1.37429 -1.251001,-2.12403 -0.301627,-0.77508 -0.623472,-1.56019 -0.690261,-2.39783 -0.0058,-0.58626 -0.01296,-1.17255 -0.0094,-1.75885 0.0074,-0.54107 0.01453,-1.08815 0.149781,-1.61562 0.17199,-0.53895 0.469215,-1.00087 0.869926,-1.40219 0.361969,-0.50128 0.785249,-0.96077 1.178084,-1.43739 0.474554,-0.58375 0.876093,-1.24662 1.082955,-1.97423 0.05862,-0.26083 0.134731,-0.51822 0.177668,-0.78209 0.08329,-0.51182 0.01643,-1.03431 0.02933,-1.54929 -0.02914,-0.95763 -0.08062,-1.91838 -0.29264,-2.85618 -0.272745,-1.18169 -0.567407,-2.35895 -1.041439,-3.47936 -0.460071,-1.15109 -0.872596,-2.32221 -1.300121,-3.48598 -0.417983,-1.10459 -0.857662,-2.21599 -1.016084,-3.39403 -0.09065,-0.92068 -0.109919,-1.83968 -0.09053,-2.76504 -0.0019,-0.9269 0.0019,-1.85421 0.06289,-2.77957 0.07568,-0.90446 0.23598,-1.80145 0.590169,-2.64286 0.279234,-0.74463 0.598147,-1.48744 1.027261,-2.1588 0.516438,-0.76152 1.074198,-1.48819 1.618739,-2.22964 0.615411,-0.84813 1.243677,-1.68953 1.902685,-2.50406 0.571212,-0.80713 1.24119,-1.54502 1.713164,-2.41921 0.421857,-0.73969 0.805836,-1.52748 0.843195,-2.39317 -0.0048,-0.74973 -0.0073,-1.50335 -0.112188,-2.24715 -0.118594,-0.64275 -0.34176,-1.2597 -0.62144,-1.84953 -0.455838,-0.73376 -0.938734,-1.45563 -1.507583,-2.10742 -0.573426,-0.69024 -1.176861,-1.35321 -1.771017,-2.02551 -0.434364,-0.47141 -0.856375,-0.95459 -1.283404,-1.43295 -0.420489,-0.49205 -0.806077,-1.003279 -1.138531,-1.560417 -0.298458,-0.52759 -0.521116,-1.09035 -0.665515,-1.679882 -0.100862,-0.604623 -0.18855,-1.201764 -0.131691,-1.817714 0.02196,-0.645861 0.06626,-1.291582 0.337206,-1.890043 0.358132,-0.739042 0.842124,-1.400513 1.314408,-2.069748 0,0 3.652033,-1.551659 3.652033,-1.551659 z"
       inkscape:connector-curvature="0" />
    <path
       style="fill:#1a1a1a;fill-opacity:1;stroke:none;stroke-width:3.96875;stroke-miterlimit:4;stroke-dasharray:none;stroke-opacity:1"
       id="path883"
       d="m 63.620588,92.776145 c -0.553156,0.01122 -1.11484,-0.06057 -1.66385,0.03586 -0.11561,0.02032 -0.62475,0.16084 -0.744416,0.193249 -0.182385,0.10073 -0.382027,0.166301 -0.566156,0.263337 -0.0847,0.04463 -0.329496,0.195117 -0.24629,0.147762 5.641541,-3.210901 3.711102,-2.44734 2.77046,-1.444366 -0.393186,0.574117 -0.42256,1.2817 -0.463521,1.953776 -0.02671,0.680509 -0.0172,1.361723 -0.01164,2.042533 0.0044,0.560303 0.0091,1.120617 0.0058,1.680933 0.0409,0.565729 0.215852,1.114213 0.382442,1.653928 0.183399,0.764203 0.433425,1.509513 0.636191,2.268193 0.279021,0.91943 0.425714,1.86732 0.508494,2.82216 0.06827,0.93393 0.06633,1.87116 0.0701,2.80703 -0.01606,0.80429 0.03471,1.61027 -0.01987,2.4132 -0.08574,0.62843 -0.28992,1.22628 -0.516531,1.81492 -0.18484,0.53901 -0.444955,1.03219 -0.77933,1.49162 -0.265409,0.43006 -0.652131,0.75619 -1.01056,1.10379 -0.322837,0.28707 -0.61472,0.60645 -0.9349,0.89695 -0.334886,0.30691 -0.401328,0.73158 -0.447558,1.16119 -0.03757,0.52211 -0.03096,1.04613 -0.02941,1.56923 0.01804,0.55528 0.219392,1.06732 0.447019,1.56546 0.347768,0.65853 0.670644,1.3311 0.987353,2.00528 0.332444,0.64902 0.526579,1.33757 0.629788,2.05554 0.07674,0.6888 0.08067,1.38364 0.08026,2.07598 -0.10101,0.94049 -0.504579,1.82145 -0.948703,2.64603 -0.41058,0.71757 -0.812744,1.4419 -1.143267,2.20037 -0.151524,0.31351 -0.177184,0.58985 -0.106236,0.92143 0,0 -3.492931,1.88658 -3.492931,1.88658 v 0 c -0.10814,-0.40108 -0.16814,-0.75562 0.01074,-1.15307 0.30716,-0.78608 0.728059,-1.52262 1.144813,-2.25485 0.454072,-0.7616 0.829569,-1.58007 1.014407,-2.45167 -0.0026,-0.67693 0.0063,-1.3554 -0.05701,-2.0302 -0.08188,-0.68206 -0.248348,-1.3393 -0.571574,-1.95142 -0.308144,-0.67678 -0.629261,-1.3498 -0.988525,-2.00088 -0.265015,-0.54346 -0.482092,-1.10544 -0.538314,-1.71319 -0.0024,-0.53276 -0.0087,-1.06583 0.01143,-1.59834 0.02855,-0.48441 0.06027,-0.98604 0.328533,-1.40656 0.285052,-0.3332 0.653418,-0.57996 0.92042,-0.93262 0.390556,-0.28937 0.73697,-0.65235 1.065739,-1.00814 0.284649,-0.46265 0.660865,-0.86095 0.812218,-1.40298 0.201072,-0.57492 0.467293,-1.12281 0.576077,-1.72922 0.09282,-0.79116 0.02751,-1.59319 0.05174,-2.38826 7.94e-4,-0.92683 0.0011,-1.85449 -0.05353,-2.78005 -0.07216,-0.93297 -0.19467,-1.8629 -0.482502,-2.75738 -0.196527,-0.7527 -0.464304,-1.48432 -0.642787,-2.24216 -0.187978,-0.57406 -0.369385,-1.15897 -0.442275,-1.759698 -0.0048,-0.559848 -0.0029,-1.119725 -0.0052,-1.679589 -0.0013,-0.68944 -0.003,-1.379021 0.01611,-2.068269 0.0258,-0.726763 0.04976,-1.478642 0.352592,-2.152359 0.925777,-1.664544 3.069349,-2.306412 4.812887,-2.937634 0.819933,-0.177734 1.644489,-0.170564 2.480638,-0.165166 0,0 -3.209369,2.331744 -3.209369,2.331744 z"
       inkscape:connector-curvature="0" />
    <path
       style="fill:#1a1a1a;fill-opacity:1;stroke:none;stroke-width:3.96875;stroke-miterlimit:4;stroke-dasharray:none;stroke-opacity:1"
       id="path885"
       d="m 67.152789,128.25517 c -1.209252,0.59428 -2.008309,0.99683 2.509449,-1.45255 0.160125,-0.0868 -0.300893,0.20553 -0.447263,0.31394 -0.410755,0.30424 -0.744836,0.6263 -1.070223,1.01795 -0.464728,0.59798 -0.578702,1.30338 -0.638062,2.03492 -0.0798,0.95911 0.143338,1.87775 0.4415,2.77976 0.417891,1.25012 1.039339,2.41837 1.650209,3.58211 0.608941,1.27524 1.299805,2.50671 1.881709,3.79444 0.579098,1.05413 0.833667,2.22013 1.067805,3.38711 0.21467,1.11336 0.255566,2.24703 0.281154,3.37722 -0.01135,1.02608 -0.190672,2.04406 -0.440632,3.03681 -0.205583,0.59925 -0.386685,1.20611 -0.582194,1.80866 -0.148415,0.53074 -0.283242,1.06514 -0.436719,1.59468 -0.197598,0.5276 -0.296516,1.07605 -0.346519,1.63478 -0.0453,0.69255 -0.04495,1.38704 -0.04393,2.08075 -0.05943,0.70791 0.119647,1.35582 0.392319,2.00109 0.296214,0.73115 0.619712,1.45758 1.036203,2.12882 0.354592,0.60257 0.641189,1.23746 0.905838,1.88336 0.233275,0.56673 0.297077,1.16996 0.330499,1.77541 0.01431,0.41894 0.0087,0.21057 0.01704,0.62508 0,0 -3.524406,1.80247 -3.524406,1.80247 v 0 c -0.004,-0.40772 -7.93e-4,-0.20323 -0.01005,-0.61346 -0.02426,-0.56244 -0.06426,-1.12771 -0.26811,-1.65903 -0.248804,-0.62895 -0.520375,-1.24701 -0.865611,-1.83018 -0.419349,-0.69124 -0.750766,-1.43447 -1.05987,-2.18048 -0.300001,-0.68434 -0.541317,-1.38165 -0.473599,-2.13982 0.0016,-0.70116 -0.0064,-1.40284 0.02405,-2.10349 0.03501,-0.58344 0.0922,-1.16533 0.300464,-1.71726 0.186404,-0.51859 0.29999,-1.06168 0.437814,-1.59442 0.191738,-0.60343 0.366151,-1.21226 0.607806,-1.79881 0.270727,-0.9624 0.488265,-1.94724 0.516636,-2.95075 -0.02313,-1.10884 -0.05784,-2.22182 -0.251545,-3.31662 -0.219271,-1.14094 -0.459107,-2.2813 -1.010573,-3.31707 -0.571527,-1.28405 -1.254358,-2.51086 -1.865061,-3.77652 -0.618109,-1.18124 -1.269635,-2.35742 -1.691669,-3.62669 -0.33382,-0.93653 -0.608156,-1.89019 -0.545428,-2.89709 0.02654,-0.78833 0.113636,-1.57185 0.549926,-2.2527 1.353693,-1.91858 3.743367,-2.79976 5.715018,-3.9073 0,0 -3.093974,2.47488 -3.093974,2.47488 z"
       inkscape:connector-curvature="0" />
    <path
       style="fill:#1a1a1a;fill-opacity:1;stroke:none;stroke-width:3.96875;stroke-miterlimit:4;stroke-dasharray:none;stroke-opacity:1"
       id="path887"
       d="m 62.01697,148.63548 c -0.129379,0.0267 -0.259535,0.0498 -0.388141,0.08 -0.268203,0.063 -0.799396,0.20344 -1.046618,0.29915 -0.184131,0.0713 -0.707556,0.3494 -0.537194,0.24958 3.423436,-2.00578 3.579913,-2.16298 2.256989,-1.16313 -1.22355,1.0726 -2.038049,2.50099 -2.786481,3.92433 -0.499337,0.95133 -0.732412,1.97168 -0.821007,3.03241 -0.05004,1.09324 0.272388,2.122 0.664948,3.12556 0.383688,0.91324 0.927028,1.72951 1.547138,2.49593 0.486918,0.50555 1.030856,0.95117 1.516634,1.45756 0.296799,0.30935 0.616582,0.57727 0.979868,0.8045 0.383847,0.31752 0.63064,0.73661 0.889611,1.1533 0.385099,0.67974 0.795647,1.34747 1.130983,2.05364 0.366826,0.66438 0.55889,1.38732 0.675034,2.13153 0.142687,0.82009 -0.13312,1.59037 -0.470085,2.3249 -0.311698,0.66639 -0.727162,1.27381 -1.07328,1.92157 -0.315354,0.50239 -0.539784,1.05252 -0.856607,1.55329 -0.282366,0.40116 -0.380066,0.86183 -0.432453,1.33958 0,0 -3.550219,1.77026 -3.550219,1.77026 v 0 c 0.03442,-0.5217 0.08929,-1.04829 0.353055,-1.51195 0.09526,-0.14975 0.209743,-0.28688 0.302127,-0.43842 0.214035,-0.35108 0.307943,-0.77066 0.57454,-1.09363 0.354185,-0.64713 0.741191,-1.2699 1.09605,-1.91635 0.347792,-0.64983 0.660527,-1.34997 0.559123,-2.10474 -0.08955,-0.71123 -0.256628,-1.39983 -0.609725,-2.0316 -0.325876,-0.69206 -0.724876,-1.34686 -1.113499,-2.00507 -0.239455,-0.36229 -0.470998,-0.7386 -0.824285,-1.00299 -0.368435,-0.26254 -0.710279,-0.54669 -1.013471,-0.88433 -0.49191,-0.51327 -1.036825,-0.97225 -1.510088,-1.50334 -0.634582,-0.80538 -1.194922,-1.65802 -1.595297,-2.60672 -0.401706,-1.05669 -0.766509,-2.1273 -0.750369,-3.27495 0.06482,-1.11731 0.269483,-2.18708 0.78822,-3.19469 0.751885,-1.4458 1.553427,-2.90557 2.716774,-4.06535 1.820238,-1.60591 4.09303,-2.96372 6.537097,-3.25161 0,0 -3.209372,2.33175 -3.209372,2.33175 z"
       inkscape:connector-curvature="0" />
    <circle
       style="fill:#008000;fill-opacity:1;stroke:#000000;stroke-width:1.23867011;stroke-miterlimit:4;stroke-dasharray:none;stroke-opacity:1"
       id="path893"
       cx="40.91544"
       cy="109.51852"
       r="7.257226" />
    <circle
       r="7.257226"
       cy="97.25631"
       cx="43.918427"
       id="circle895"
       style="fill:#008000;fill-opacity:1;stroke:#000000;stroke-width:1.23867011;stroke-miterlimit:4;stroke-dasharray:none;stroke-opacity:1" />
    <circle
       style="fill:#008000;fill-opacity:1;stroke:#000000;stroke-width:1.23867011;stroke-miterlimit:4;stroke-dasharray:none;stroke-opacity:1"
       id="circle897"
       cx="52.176647"
       cy="99.508553"
       r="7.257226" />
    <circle
       r="7.257226"
       cy="89.248329"
       cx="51.425903"
       id="circle899"
       style="fill:#008000;fill-opacity:1;stroke:#000000;stroke-width:1.23867011;stroke-miterlimit:4;stroke-dasharray:none;stroke-opacity:1" />
    <circle
       style="fill:#008000;fill-opacity:1;stroke:#000000;stroke-width:1.23867011;stroke-miterlimit:4;stroke-dasharray:none;stroke-opacity:1"
       id="circle901"
       cx="64.438858"
       cy="92.001076"
       r="7.257226" />
    <circle
       r="7.257226"
       cy="92.001076"
       cx="64.438858"
       id="circle903"
       style="fill:#008000;fill-opacity:1;stroke:#000000;stroke-width:1.23867011;stroke-miterlimit:4;stroke-dasharray:none;stroke-opacity:1"
       inkscape:transform-center-x="-1.5014954"
       inkscape:transform-center-y="-9.509465" />
    <circle
       inkscape:transform-center-y="-9.509471"
       inkscape:transform-center-x="-1.5014932"
       style="fill:#008000;fill-opacity:1;stroke:#000000;stroke-width:1.23867011;stroke-miterlimit:4;stroke-dasharray:none;stroke-opacity:1"
       id="circle905"
       cx="61.686119"
       cy="100.75979"
       r="7.257226" />
    <circle
       r="7.257226"
       cy="109.26826"
       cx="68.693092"
       id="circle907"
       style="fill:#008000;fill-opacity:1;stroke:#000000;stroke-width:1.23867011;stroke-miterlimit:4;stroke-dasharray:none;stroke-opacity:1"
       inkscape:transform-center-x="-1.5014927"
       inkscape:transform-center-y="-9.5094758" />
    <circle
       inkscape:transform-center-y="-9.5094577"
       inkscape:transform-center-x="-1.5014939"
       style="fill:#008000;fill-opacity:1;stroke:#000000;stroke-width:1.23867011;stroke-miterlimit:4;stroke-dasharray:none;stroke-opacity:1"
       id="circle909"
       cx="54.42889"
       cy="108.26727"
       r="7.257226" />
    <circle
       r="7.257226"
       cy="100.75979"
       cx="34.15871"
       id="circle911"
       style="fill:#008000;fill-opacity:1;stroke:#000000;stroke-width:1.23867011;stroke-miterlimit:4;stroke-dasharray:none;stroke-opacity:1"
       inkscape:transform-center-x="-1.5014955"
       inkscape:transform-center-y="-9.509471" />
    <circle
       inkscape:transform-center-y="-9.5094711"
       inkscape:transform-center-x="-1.5014955"
       style="fill:#008000;fill-opacity:1;stroke:#000000;stroke-width:1.23867011;stroke-miterlimit:4;stroke-dasharray:none;stroke-opacity:1"
       id="circle913"
       cx="34.15871"
       cy="84.493591"
       r="7.257226" />
    <circle
       r="7.257226"
       cy="77.736862"
       cx="47.922417"
       id="circle915"
       style="fill:#008000;fill-opacity:1;stroke:#000000;stroke-width:1.23867011;stroke-miterlimit:4;stroke-dasharray:none;stroke-opacity:1"
       inkscape:transform-center-x="-1.5014963"
       inkscape:transform-center-y="-9.5094719" />
    <circle
       inkscape:transform-center-y="-9.5094675"
       inkscape:transform-center-x="-1.5014962"
       style="fill:#008000;fill-opacity:1;stroke:#000000;stroke-width:1.23867011;stroke-miterlimit:4;stroke-dasharray:none;stroke-opacity:1"
       id="circle917"
       cx="42.166687"
       cy="85.744843"
       r="7.257226" />
    <circle
       r="7.257226"
       cy="91.500572"
       cx="27.401983"
       id="circle919"
       style="fill:#008000;fill-opacity:1;stroke:#000000;stroke-width:1.23867011;stroke-miterlimit:4;stroke-dasharray:none;stroke-opacity:1"
       inkscape:transform-center-x="-1.5014949"
       inkscape:transform-center-y="-9.5094709" />
    <circle
       inkscape:transform-center-y="-9.5094701"
       inkscape:transform-center-x="-1.5014956"
       style="fill:#008000;fill-opacity:1;stroke:#000000;stroke-width:1.23867011;stroke-miterlimit:4;stroke-dasharray:none;stroke-opacity:1"
       id="circle921"
       cx="37.662201"
       cy="93.502563"
       r="7.257226" />
    <circle
       r="7.257226"
       cy="79.488609"
       cx="58.93338"
       id="circle923"
       style="fill:#008000;fill-opacity:1;stroke:#000000;stroke-width:1.23867011;stroke-miterlimit:4;stroke-dasharray:none;stroke-opacity:1"
       inkscape:transform-center-x="-1.5014946"
       inkscape:transform-center-y="-9.50947" />
    <circle
       inkscape:transform-center-y="-9.5094713"
       inkscape:transform-center-x="-1.5014921"
       style="fill:#008000;fill-opacity:1;stroke:#000000;stroke-width:1.23867011;stroke-miterlimit:4;stroke-dasharray:none;stroke-opacity:1"
       id="circle925"
       cx="68.943344"
       cy="77.48661"
       r="7.257226" />
    <circle
       r="7.257226"
       cy="84.994095"
       cx="71.696091"
       id="circle927"
       style="fill:#008000;fill-opacity:1;stroke:#000000;stroke-width:1.23867011;stroke-miterlimit:4;stroke-dasharray:none;stroke-opacity:1"
       inkscape:transform-center-x="-1.5014983"
       inkscape:transform-center-y="-9.5094652" />
    <circle
       inkscape:transform-center-y="-9.5094712"
       inkscape:transform-center-x="-1.5014935"
       style="fill:#008000;fill-opacity:1;stroke:#000000;stroke-width:1.23867011;stroke-miterlimit:4;stroke-dasharray:none;stroke-opacity:1"
       id="circle929"
       cx="75.449821"
       cy="93.752808"
       r="7.257226" />
    <circle
       r="7.257226"
       cy="101.01003"
       cx="75.449821"
       id="circle931"
       style="fill:#008000;fill-opacity:1;stroke:#000000;stroke-width:1.23867011;stroke-miterlimit:4;stroke-dasharray:none;stroke-opacity:1"
       inkscape:transform-center-x="-1.5014935"
       inkscape:transform-center-y="-9.5094721" />
    <circle
       inkscape:transform-center-y="-9.5094715"
       inkscape:transform-center-x="-1.5014923"
       style="fill:#008000;fill-opacity:1;stroke:#000000;stroke-width:1.23867011;stroke-miterlimit:4;stroke-dasharray:none;stroke-opacity:1"
       id="circle933"
       cx="80.454803"
       cy="105.51452"
       r="7.257226" />
    <circle
       r="7.257226"
       cy="98.007042"
       cx="84.458794"
       id="circle935"
       style="fill:#008000;fill-opacity:1;stroke:#000000;stroke-width:1.23867011;stroke-miterlimit:4;stroke-dasharray:none;stroke-opacity:1"
       inkscape:transform-center-x="-1.5014945"
       inkscape:transform-center-y="-9.50947" />
    <circle
       inkscape:transform-center-y="-9.5094651"
       inkscape:transform-center-x="-1.5014951"
       style="fill:#008000;fill-opacity:1;stroke:#000000;stroke-width:1.23867011;stroke-miterlimit:4;stroke-dasharray:none;stroke-opacity:1"
       id="circle937"
       cx="88.96328"
       cy="89.498573"
       r="7.257226" />
    <circle
       r="7.257226"
       cy="77.736862"
       cx="85.459793"
       id="circle939"
       style="fill:#008000;fill-opacity:1;stroke:#000000;stroke-width:1.23867011;stroke-miterlimit:4;stroke-dasharray:none;stroke-opacity:1"
       inkscape:transform-center-x="-1.5014988"
       inkscape:transform-center-y="-9.5094648" />
    <circle
       inkscape:transform-center-y="-9.5094648"
       inkscape:transform-center-x="-1.5014974"
       style="fill:#008000;fill-opacity:1;stroke:#000000;stroke-width:1.23867011;stroke-miterlimit:4;stroke-dasharray:none;stroke-opacity:1"
       id="circle941"
       cx="78.953316"
       cy="77.736862"
       r="7.257226" />
    <circle
       r="7.257226"
       cy="85.244339"
       cx="54.679142"
       id="circle943"
       style="fill:#008000;fill-opacity:1;stroke:#000000;stroke-width:1.23867011;stroke-miterlimit:4;stroke-dasharray:none;stroke-opacity:1"
       inkscape:transform-center-x="-1.5014933"
       inkscape:transform-center-y="-9.5094663" />
    <circle
       inkscape:transform-center-y="-9.5094668"
       inkscape:transform-center-x="-1.5014969"
       style="fill:#008000;fill-opacity:1;stroke:#000000;stroke-width:1.23867011;stroke-miterlimit:4;stroke-dasharray:none;stroke-opacity:1"
       id="circle945"
       cx="69.694092"
       cy="65.474648"
       r="7.257226" />
    <circle
       r="7.257226"
       cy="63.973148"
       cx="80.454803"
       id="circle947"
       style="fill:#008000;fill-opacity:1;stroke:#000000;stroke-width:1.23867011;stroke-miterlimit:4;stroke-dasharray:none;stroke-opacity:1"
       inkscape:transform-center-x="-1.5014923"
       inkscape:transform-center-y="-9.5094696" />
    <circle
       inkscape:transform-center-y="-9.5094689"
       inkscape:transform-center-x="-1.5014933"
       style="fill:#008000;fill-opacity:1;stroke:#000000;stroke-width:1.23867011;stroke-miterlimit:4;stroke-dasharray:none;stroke-opacity:1"
       id="circle949"
       cx="56.931381"
       cy="67.226387"
       r="7.257226" />
    <circle
       r="7.257226"
       cy="81.740837"
       cx="23.648243"
       id="circle951"
       style="fill:#008000;fill-opacity:1;stroke:#000000;stroke-width:1.23867011;stroke-miterlimit:4;stroke-dasharray:none;stroke-opacity:1"
       inkscape:transform-center-x="-1.5014955"
       inkscape:transform-center-y="-9.5094707" />
    <circle
       inkscape:transform-center-y="-9.5094675"
       inkscape:transform-center-x="-1.5014958"
       style="fill:#008000;fill-opacity:1;stroke:#000000;stroke-width:1.23867011;stroke-miterlimit:4;stroke-dasharray:none;stroke-opacity:1"
       id="circle953"
       cx="43.417931"
       cy="69.228386"
       r="7.257226" />
    <circle
       inkscape:transform-center-y="-9.5094673"
       inkscape:transform-center-x="-1.5014949"
       style="fill:#008000;fill-opacity:1;stroke:#000000;stroke-width:1.23867011;stroke-miterlimit:4;stroke-dasharray:none;stroke-opacity:1"
       id="circle955"
       cx="31.405968"
       cy="71.480629"
       r="7.257226" />
    <circle
       r="7.257226"
       cy="80.239349"
       cx="39.664192"
       id="circle957"
       style="fill:#008000;fill-opacity:1;stroke:#000000;stroke-width:1.23867011;stroke-miterlimit:4;stroke-dasharray:none;stroke-opacity:1"
       inkscape:transform-center-x="-1.5014965"
       inkscape:transform-center-y="-9.5094656" />
    <circle
       r="7.257226"
       cy="87.496582"
       cx="76.450821"
       id="circle959"
       style="fill:#008000;fill-opacity:1;stroke:#000000;stroke-width:1.23867011;stroke-miterlimit:4;stroke-dasharray:none;stroke-opacity:1"
       inkscape:transform-center-x="-1.5014977"
       inkscape:transform-center-y="-9.509466" />
    <circle
       r="7.257226"
       cy="58.467667"
       cx="48.923412"
       id="circle961"
       style="fill:#008000;fill-opacity:1;stroke:#000000;stroke-width:1.23867011;stroke-miterlimit:4;stroke-dasharray:none;stroke-opacity:1"
       inkscape:transform-center-x="-1.5014967"
       inkscape:transform-center-y="-9.509467" />
    <path
       sodipodi:nodetypes="sscss"
       inkscape:connector-curvature="0"
       id="path965"
       d="m 152.83684,100.30867 c 6.09807,-12.491161 11.24545,-11.670952 18.31711,1.01762 6.4878,11.64095 11.8722,79.71334 8.14094,81.07016 -3.73126,1.35682 -27.47567,3.39205 -31.54613,-0.67841 -4.07047,-4.07047 0.19072,-71.37771 5.08808,-81.40937 z"
       style="fill:#c87137;stroke:#000000;stroke-width:3.56165981;stroke-linecap:butt;stroke-linejoin:miter;stroke-miterlimit:4;stroke-dasharray:none;stroke-opacity:1" />
    <path
       inkscape:connector-curvature="0"
       d="m 157.40443,97.424393 c -0.45936,0.56108 -0.87841,1.157197 -1.22708,1.793267 -0.2571,0.484405 -0.32853,1.01679 -0.361,1.55553 -0.0455,0.52694 9e-4,1.04316 0.0879,1.562 0.10708,0.49223 0.29031,0.96226 0.53474,1.40159 0.28087,0.48513 0.62168,0.91706 0.98731,1.33835 0.38241,0.42404 0.75151,0.86043 1.1389,1.27952 0.5253,0.61663 1.06311,1.22134 1.58079,1.84441 0.52043,0.59672 0.96513,1.25627 1.39066,1.92276 0.27991,0.56349 0.5017,1.15465 0.62682,1.77165 0.1159,0.6865 0.11309,1.38505 0.12105,2.07904 0.007,0.832 -0.31565,1.58494 -0.68655,2.31142 -0.40862,0.80562 -0.99339,1.4955 -1.52734,2.21729 -0.58196,0.73931 -1.14346,1.4943 -1.70516,2.24902 -0.47395,0.66615 -0.98271,1.30633 -1.44263,1.9823 -0.41138,0.57109 -0.68075,1.22304 -0.95347,1.86723 -0.32836,0.72641 -0.48655,1.50048 -0.58023,2.28687 -0.0709,0.81884 -0.0684,1.64182 -0.0721,2.46306 -0.004,0.81897 -0.0109,1.63572 0.0645,2.45172 0.10958,1.03403 0.4879,2.00959 0.8434,2.97837 0.39267,1.03837 0.76137,2.08654 1.16789,3.1194 0.43266,1.01887 0.70208,2.09051 0.96764,3.16147 0.20343,0.85758 0.27503,1.7381 0.31194,2.6164 0.0595,0.7352 0.01,1.4523 -0.14462,2.17146 -0.14329,0.70267 -0.50583,1.31284 -0.89832,1.90108 -0.34113,0.43955 -0.69999,0.86477 -1.05205,1.29548 -0.3039,0.36765 -0.61436,0.72563 -0.81505,1.16144 -0.16232,0.42784 -0.17613,0.88802 -0.18912,1.33983 -0.006,0.5253 -0.004,1.05067 -0.005,1.576 0.0172,0.71619 0.28883,1.38311 0.55171,2.03812 0.29388,0.65101 0.67884,1.25141 1.07995,1.84006 0.42202,0.5834 0.82476,1.18077 1.24313,1.76734 0.42449,0.44271 0.62325,1.02347 0.93599,1.53498 0.2725,0.50885 0.46138,1.05639 0.65995,1.59696 0.21289,0.55549 0.27519,1.14239 0.31281,1.73086 0.0299,0.56292 0.0226,1.12677 0.0221,1.69021 -0.003,0.5812 -0.004,1.1624 -0.003,1.74362 0.0213,0.57958 -0.0326,1.1545 -0.15044,1.72155 -0.11651,0.45581 -0.28835,0.89261 -0.47853,1.32185 -0.2065,0.39439 -0.38813,0.80449 -0.6387,1.1736 -0.26238,0.40099 -0.54719,0.78567 -0.82057,1.17884 -0.27907,0.37249 -0.59519,0.71547 -0.84196,1.11076 -0.25972,0.38434 -0.52207,0.76677 -0.77078,1.15855 -0.17631,0.37237 -0.38738,0.72295 -0.60291,1.07289 -0.14755,0.34348 -0.27003,0.7036 -0.37054,1.06458 -0.0999,0.42722 -0.10886,0.86791 -0.11869,1.30442 -0.0439,0.4794 0.0415,0.93229 0.18307,1.38683 0.0951,0.42326 0.23771,0.81687 0.44933,1.19376 0.15736,0.38994 0.40152,0.72192 0.69987,1.01465 0.32531,0.35478 0.75039,0.43867 1.20652,0.49283 0,0 -2.90703,2.04341 -2.90703,2.04341 v 0 c -0.51638,-0.10012 -0.97631,-0.28112 -1.33956,-0.67925 -0.30381,-0.32561 -0.58294,-0.67584 -0.75141,-1.09276 -0.22142,-0.39934 -0.38229,-0.81278 -0.4756,-1.26187 -0.15565,-0.48603 -0.28667,-0.97032 -0.23909,-1.48718 0.005,-0.4573 0.009,-0.91687 0.0797,-1.36979 0.0767,-0.39506 0.2389,-0.75439 0.33142,-1.1444 0.16862,-0.38377 0.47148,-0.68788 0.60321,-1.09233 0.21965,-0.40834 0.48786,-0.79794 0.76596,-1.16372 0.24375,-0.40958 0.50642,-0.79154 0.832,-1.1427 0.29736,-0.37135 0.55065,-0.76982 0.82234,-1.16093 0.0779,-0.11659 0.17435,-0.22006 0.25196,-0.33684 0.16296,-0.24522 0.21585,-0.55503 0.41849,-0.77848 0.17693,-0.42225 0.38,-0.83257 0.49971,-1.27675 0.18256,-0.52206 0.20801,-1.09021 0.19687,-1.6391 0.002,-0.58161 0.004,-1.1632 0.004,-1.74481 0.002,-0.55737 0.003,-1.11493 -0.0126,-1.67212 -0.0259,-0.55557 -0.0707,-1.1123 -0.26135,-1.6401 -0.18784,-0.52022 -0.37849,-1.04286 -0.63397,-1.53405 -0.29956,-0.50965 -0.49367,-1.07918 -0.90811,-1.51892 -0.41798,-0.58937 -0.82074,-1.18942 -1.24348,-1.77523 -0.4166,-0.61055 -0.81234,-1.23333 -1.12268,-1.90616 -0.27068,-0.69558 -0.55952,-1.40016 -0.61946,-2.15188 -0.005,-0.52612 -0.0117,-1.05227 -0.008,-1.57844 0.006,-0.48557 0.013,-0.97653 0.13442,-1.44989 0.15435,-0.48367 0.42109,-0.89821 0.7807,-1.25837 0.32484,-0.44986 0.7047,-0.86222 1.05724,-1.28995 0.42588,-0.52387 0.78623,-1.11875 0.97188,-1.77172 0.0526,-0.23408 0.12091,-0.46507 0.15944,-0.70187 0.0748,-0.45932 0.0147,-0.92822 0.0263,-1.39037 -0.0261,-0.85941 -0.0723,-1.72161 -0.26263,-2.56322 -0.24477,-1.06047 -0.50921,-2.11698 -0.93461,-3.12246 -0.41288,-1.03302 -0.7831,-2.08402 -1.16676,-3.12841 -0.37512,-0.99129 -0.7697,-1.98869 -0.91187,-3.04589 -0.0813,-0.82625 -0.0986,-1.65098 -0.0812,-2.48142 -0.002,-0.83183 0.002,-1.66402 0.0565,-2.49446 0.0679,-0.81169 0.21178,-1.61667 0.52963,-2.37177 0.2506,-0.66825 0.5368,-1.33487 0.92189,-1.93737 0.46347,-0.6834 0.96402,-1.33554 1.4527,-2.00093 0.55229,-0.76114 1.11612,-1.51623 1.70753,-2.24721 0.51262,-0.72434 1.11387,-1.38654 1.53743,-2.17107 0.37859,-0.66381 0.72318,-1.3708 0.75671,-2.14769 -0.004,-0.67283 -0.006,-1.34914 -0.10068,-2.01665 -0.10643,-0.57682 -0.3067,-1.13049 -0.5577,-1.65982 -0.40908,-0.65849 -0.84245,-1.30632 -1.35295,-1.89125 -0.5146,-0.61944 -1.05614,-1.21441 -1.58935,-1.81775 -0.38981,-0.42305 -0.76854,-0.85667 -1.15176,-1.28596 -0.37736,-0.44158 -0.72339,-0.90037 -1.02175,-1.40036 -0.26785,-0.47348 -0.46766,-0.97851 -0.59725,-1.50757 -0.0905,-0.54261 -0.16921,-1.0785 -0.11818,-1.63127 0.0197,-0.57961 0.0595,-1.1591 0.30261,-1.69617 0.3214,-0.66324 0.75575,-1.256859 1.17959,-1.857448 0,0 3.27743,-1.392499 3.27743,-1.392499 z"
       id="path967"
       style="fill:#1a1a1a;fill-opacity:1;stroke:none;stroke-width:3.56165981;stroke-miterlimit:4;stroke-dasharray:none;stroke-opacity:1" />
    <path
       inkscape:connector-curvature="0"
       d="m 167.1917,99.9542 c -0.49641,0.01007 -1.00049,-0.05436 -1.49318,0.03218 -0.10375,0.01824 -0.56067,0.14434 -0.66805,0.17343 -0.16369,0.0904 -0.34285,0.14924 -0.50809,0.23632 -0.076,0.0401 -0.2957,0.17511 -0.22103,0.13261 5.06287,-2.881548 3.33044,-2.196309 2.48629,-1.296214 -0.35286,0.515228 -0.37922,1.150234 -0.41598,1.753374 -0.024,0.6107 -0.0154,1.22204 -0.0104,1.83302 0.004,0.50283 0.008,1.00567 0.005,1.50851 0.0367,0.5077 0.19371,0.99993 0.34322,1.48428 0.16458,0.68582 0.38897,1.35468 0.57093,2.03554 0.2504,0.82512 0.38205,1.67578 0.45634,2.53268 0.0613,0.83813 0.0595,1.67923 0.0629,2.5191 -0.0145,0.72179 0.0311,1.4451 -0.0179,2.16567 -0.0769,0.56397 -0.26018,1.1005 -0.46355,1.62876 -0.16588,0.48372 -0.39931,0.92631 -0.6994,1.33862 -0.23817,0.38594 -0.58523,0.67862 -0.9069,0.99057 -0.28971,0.25762 -0.55166,0.54424 -0.839,0.80494 -0.30053,0.27543 -0.36016,0.65654 -0.40165,1.04208 -0.0337,0.46856 -0.0278,0.93883 -0.0264,1.40827 0.0161,0.49832 0.19689,0.95784 0.40117,1.40489 0.31209,0.59098 0.60185,1.19456 0.88607,1.79959 0.29834,0.58244 0.47257,1.20037 0.56519,1.84469 0.0688,0.61815 0.0724,1.24172 0.0721,1.86304 -0.0906,0.84402 -0.45282,1.63462 -0.85139,2.37462 -0.36847,0.64396 -0.72938,1.294 -1.02599,1.97467 -0.13599,0.28135 -0.15902,0.52934 -0.0953,0.82691 0,0 -3.13464,1.69307 -3.13464,1.69307 v 0 c -0.097,-0.35994 -0.1509,-0.67811 0.01,-1.0348 0.27565,-0.70545 0.65338,-1.36644 1.02738,-2.02356 0.4075,-0.68348 0.74448,-1.41799 0.91036,-2.20019 -0.003,-0.6075 0.005,-1.21637 -0.0512,-1.82196 -0.0735,-0.61209 -0.22288,-1.20192 -0.51295,-1.75125 -0.27654,-0.60736 -0.56472,-1.21135 -0.88713,-1.79564 -0.23782,-0.48772 -0.43264,-0.99205 -0.48309,-1.53746 -0.002,-0.47812 -0.008,-0.95651 0.0102,-1.4344 0.0257,-0.43472 0.0541,-0.88489 0.29483,-1.26228 0.25581,-0.29902 0.5864,-0.52047 0.82601,-0.83696 0.3505,-0.25969 0.66138,-0.58543 0.95642,-0.90473 0.25545,-0.41519 0.59308,-0.77264 0.72891,-1.25907 0.18045,-0.51595 0.41936,-1.00764 0.51698,-1.55185 0.0833,-0.71 0.0247,-1.42977 0.0464,-2.14328 7.2e-4,-0.83176 8.9e-4,-1.66427 -0.048,-2.49489 -0.0648,-0.83727 -0.1747,-1.67182 -0.433,-2.47455 -0.17637,-0.67549 -0.41668,-1.33207 -0.57686,-2.01217 -0.16869,-0.51518 -0.33149,-1.04009 -0.3969,-1.5792 -0.004,-0.50242 -0.003,-1.00487 -0.004,-1.50731 -9e-4,-0.61872 -0.003,-1.23757 0.0145,-1.85612 0.0231,-0.65221 0.0447,-1.32697 0.31642,-1.93158 0.83082,-1.493807 2.75452,-2.069836 4.31921,-2.636311 0.73583,-0.159504 1.47581,-0.153069 2.22619,-0.148225 0,0 -2.88017,2.092568 -2.88017,2.092568 z"
       id="path969"
       style="fill:#1a1a1a;fill-opacity:1;stroke:none;stroke-width:3.56165981;stroke-miterlimit:4;stroke-dasharray:none;stroke-opacity:1" />
    <path
       inkscape:connector-curvature="0"
       d="m 170.36159,131.79401 c -1.08521,0.53332 -1.80231,0.89458 2.25205,-1.30356 0.1437,-0.0779 -0.27003,0.18445 -0.40139,0.28174 -0.36862,0.27303 -0.66844,0.56206 -0.96044,0.91353 -0.41706,0.53665 -0.51935,1.16969 -0.57262,1.82619 -0.0716,0.86073 0.12864,1.68514 0.39621,2.49463 0.37503,1.12189 0.93273,2.17031 1.48094,3.21468 0.54648,1.14443 1.16649,2.24959 1.6887,3.40523 0.5197,0.946 0.74816,1.9924 0.95828,3.03968 0.19265,0.99916 0.22935,2.01654 0.25231,3.03081 -0.0101,0.92083 -0.17111,1.83439 -0.39543,2.72531 -0.18449,0.53778 -0.34703,1.08239 -0.52248,1.62314 -0.13319,0.4763 -0.25419,0.95588 -0.39192,1.43111 -0.17733,0.47348 -0.2661,0.96567 -0.31097,1.46709 -0.0407,0.62151 -0.0404,1.24477 -0.0394,1.86732 -0.0533,0.6353 0.10737,1.21675 0.35208,1.79583 0.26582,0.65615 0.55614,1.30807 0.92991,1.91046 0.31822,0.54076 0.57542,1.11053 0.81292,1.69017 0.20935,0.5086 0.2666,1.04996 0.2966,1.5933 0.0128,0.37597 0.008,0.18897 0.0153,0.56097 0,0 -3.1629,1.61758 -3.1629,1.61758 v 0 c -0.004,-0.3659 -7.1e-4,-0.18238 -0.009,-0.55053 -0.0218,-0.50475 -0.0577,-1.01204 -0.24061,-1.48886 -0.22328,-0.56444 -0.467,-1.1191 -0.77682,-1.64245 -0.37634,-0.62034 -0.67376,-1.28733 -0.95116,-1.95682 -0.26922,-0.61415 -0.48579,-1.23993 -0.42502,-1.92033 0.002,-0.62924 -0.005,-1.25895 0.0216,-1.88773 0.0314,-0.52359 0.0827,-1.0458 0.26964,-1.54111 0.16729,-0.4654 0.26922,-0.95278 0.39291,-1.43088 0.17208,-0.54153 0.3286,-1.08791 0.54546,-1.6143 0.24296,-0.86368 0.43818,-1.7475 0.46364,-2.64808 -0.0207,-0.9951 -0.0519,-1.99392 -0.22574,-2.97642 -0.19678,-1.02391 -0.41201,-2.0473 -0.90691,-2.97682 -0.51291,-1.15234 -1.1257,-2.25331 -1.67376,-3.38915 -0.55471,-1.06008 -1.1394,-2.11561 -1.51815,-3.25469 -0.29958,-0.84046 -0.54577,-1.6963 -0.48948,-2.59992 0.0238,-0.70747 0.10198,-1.41062 0.49352,-2.02163 1.21484,-1.72179 3.3594,-2.51258 5.12881,-3.50652 0,0 -2.77662,2.22103 -2.77662,2.22103 z"
       id="path971"
       style="fill:#1a1a1a;fill-opacity:1;stroke:none;stroke-width:3.56165981;stroke-miterlimit:4;stroke-dasharray:none;stroke-opacity:1" />
    <path
       inkscape:connector-curvature="0"
       d="m 165.75257,150.08383 c -0.11611,0.024 -0.23291,0.0447 -0.34833,0.0718 -0.24069,0.0565 -0.71739,0.18257 -0.93926,0.26847 -0.16524,0.064 -0.63497,0.31356 -0.48209,0.22398 3.07229,-1.80004 3.21271,-1.94112 2.02548,-1.04383 -1.09804,0.96258 -1.829,2.24446 -2.50066,3.5218 -0.44812,0.85375 -0.65728,1.76944 -0.73679,2.72136 -0.0449,0.98111 0.24445,1.90434 0.59674,2.80496 0.34433,0.81957 0.83194,1.55211 1.38844,2.23992 0.43698,0.45369 0.92512,0.8536 1.36107,1.30805 0.26635,0.27762 0.55333,0.51806 0.87936,0.72198 0.34448,0.28495 0.56595,0.66105 0.79836,1.035 0.3456,0.61002 0.71404,1.20925 1.01497,1.84299 0.3292,0.59623 0.50156,1.24502 0.6058,1.91289 0.12804,0.73597 -0.11947,1.42724 -0.42187,2.08643 -0.27973,0.59803 -0.65258,1.14315 -0.96319,1.72446 -0.28301,0.45086 -0.48442,0.94456 -0.76874,1.39397 -0.2534,0.36001 -0.34108,0.77342 -0.3881,1.20217 0,0 -3.18606,1.58868 -3.18606,1.58868 v 0 c 0.0309,-0.46819 0.0801,-0.94077 0.31685,-1.35687 0.0855,-0.13439 0.18822,-0.25745 0.27114,-0.39345 0.19207,-0.31506 0.27635,-0.69161 0.5156,-0.98145 0.31785,-0.58075 0.66517,-1.13964 0.98363,-1.71978 0.31211,-0.58317 0.59276,-1.2115 0.50177,-1.88885 -0.0803,-0.63828 -0.23031,-1.25624 -0.54719,-1.82321 -0.29245,-0.62107 -0.65052,-1.20871 -0.99929,-1.7994 -0.21488,-0.32513 -0.42267,-0.66284 -0.73973,-0.90011 -0.33064,-0.23561 -0.63742,-0.49062 -0.90951,-0.79362 -0.44145,-0.46062 -0.93048,-0.87252 -1.35519,-1.34914 -0.56949,-0.72277 -1.07236,-1.48795 -1.43167,-2.33934 -0.36049,-0.9483 -0.68788,-1.90909 -0.6734,-2.93902 0.0582,-1.00271 0.24185,-1.96275 0.70737,-2.867 0.67476,-1.2975 1.39409,-2.60754 2.43811,-3.64835 1.63353,-1.44119 3.67319,-2.65972 5.86656,-2.91808 0,0 -2.88018,2.09257 -2.88018,2.09257 z"
       id="path973"
       style="fill:#1a1a1a;fill-opacity:1;stroke:none;stroke-width:3.56165981;stroke-miterlimit:4;stroke-dasharray:none;stroke-opacity:1" />
    <circle
       r="6.5128241"
       cy="109.63385"
       cx="135.85747"
       id="circle975"
       style="fill:#008000;fill-opacity:1;stroke:#000000;stroke-width:1.11161494;stroke-miterlimit:4;stroke-dasharray:none;stroke-opacity:1" />
    <circle
       style="fill:#008000;fill-opacity:1;stroke:#000000;stroke-width:1.11161494;stroke-miterlimit:4;stroke-dasharray:none;stroke-opacity:1"
       id="circle977"
       cx="149.51048"
       cy="103.97482"
       r="6.5128241" />
    <circle
       r="6.5128241"
       cy="105.99603"
       cx="156.92162"
       id="circle979"
       style="fill:#008000;fill-opacity:1;stroke:#000000;stroke-width:1.11161494;stroke-miterlimit:4;stroke-dasharray:none;stroke-opacity:1" />
    <circle
       style="fill:#008000;fill-opacity:1;stroke:#000000;stroke-width:1.11161494;stroke-miterlimit:4;stroke-dasharray:none;stroke-opacity:1"
       id="circle981"
       cx="156.24788"
       cy="96.788246"
       r="6.5128241" />
    <circle
       r="6.5128241"
       cy="99.258629"
       cx="167.92604"
       id="circle983"
       style="fill:#008000;fill-opacity:1;stroke:#000000;stroke-width:1.11161494;stroke-miterlimit:4;stroke-dasharray:none;stroke-opacity:1" />
    <circle
       inkscape:transform-center-y="-8.5340431"
       inkscape:transform-center-x="-1.3474741"
       style="fill:#008000;fill-opacity:1;stroke:#000000;stroke-width:1.11161494;stroke-miterlimit:4;stroke-dasharray:none;stroke-opacity:1"
       id="circle985"
       cx="167.92604"
       cy="99.258629"
       r="6.5128241" />
    <circle
       r="6.5128241"
       cy="107.11893"
       cx="165.45566"
       id="circle987"
       style="fill:#008000;fill-opacity:1;stroke:#000000;stroke-width:1.11161494;stroke-miterlimit:4;stroke-dasharray:none;stroke-opacity:1"
       inkscape:transform-center-x="-1.3474761"
       inkscape:transform-center-y="-8.5340478" />
    <circle
       inkscape:transform-center-y="-8.5340547"
       inkscape:transform-center-x="-1.3474734"
       style="fill:#008000;fill-opacity:1;stroke:#000000;stroke-width:1.11161494;stroke-miterlimit:4;stroke-dasharray:none;stroke-opacity:1"
       id="circle989"
       cx="194.19455"
       cy="105.40021"
       r="6.5128241" />
    <circle
       r="6.5128241"
       cy="94.880203"
       cx="156.27014"
       id="circle991"
       style="fill:#008000;fill-opacity:1;stroke:#000000;stroke-width:1.11161494;stroke-miterlimit:4;stroke-dasharray:none;stroke-opacity:1"
       inkscape:transform-center-x="-1.3474757"
       inkscape:transform-center-y="-8.5340369" />
    <circle
       inkscape:transform-center-y="-8.5340478"
       inkscape:transform-center-x="-1.3474782"
       style="fill:#008000;fill-opacity:1;stroke:#000000;stroke-width:1.11161494;stroke-miterlimit:4;stroke-dasharray:none;stroke-opacity:1"
       id="circle993"
       cx="141.01912"
       cy="105.24804"
       r="6.5128241" />
    <circle
       r="6.5128241"
       cy="93.323029"
       cx="144.76089"
       id="circle995"
       style="fill:#008000;fill-opacity:1;stroke:#000000;stroke-width:1.11161494;stroke-miterlimit:4;stroke-dasharray:none;stroke-opacity:1"
       inkscape:transform-center-x="-1.3474782"
       inkscape:transform-center-y="-8.5340475" />
    <circle
       inkscape:transform-center-y="-8.5340504"
       inkscape:transform-center-x="-1.3474865"
       style="fill:#008000;fill-opacity:1;stroke:#000000;stroke-width:1.11161494;stroke-miterlimit:4;stroke-dasharray:none;stroke-opacity:1"
       id="circle997"
       cx="153.10376"
       cy="86.45755"
       r="6.5128241" />
    <circle
       inkscape:transform-center-y="-8.5340487"
       inkscape:transform-center-x="-1.3474832"
       style="fill:#008000;fill-opacity:1;stroke:#000000;stroke-width:1.11161494;stroke-miterlimit:4;stroke-dasharray:none;stroke-opacity:1"
       id="circle1001"
       cx="134.68819"
       cy="98.809464"
       r="6.5128241" />
    <circle
       inkscape:transform-center-y="-8.534045"
       inkscape:transform-center-x="-1.3474829"
       style="fill:#008000;fill-opacity:1;stroke:#000000;stroke-width:1.11161494;stroke-miterlimit:4;stroke-dasharray:none;stroke-opacity:1"
       id="circle1005"
       cx="162.98529"
       cy="88.029617"
       r="6.5128241" />
    <circle
       r="6.5128241"
       cy="81.956657"
       cx="169.83034"
       id="circle1007"
       style="fill:#008000;fill-opacity:1;stroke:#000000;stroke-width:1.11161494;stroke-miterlimit:4;stroke-dasharray:none;stroke-opacity:1"
       inkscape:transform-center-x="-1.3474777"
       inkscape:transform-center-y="-8.5340462" />
    <circle
       inkscape:transform-center-y="-8.5340418"
       inkscape:transform-center-x="-1.3474793"
       style="fill:#008000;fill-opacity:1;stroke:#000000;stroke-width:1.11161494;stroke-miterlimit:4;stroke-dasharray:none;stroke-opacity:1"
       id="circle1009"
       cx="174.43887"
       cy="92.970383"
       r="6.5128241" />
    <circle
       r="6.5128241"
       cy="100.83068"
       cx="177.80757"
       id="circle1011"
       style="fill:#008000;fill-opacity:1;stroke:#000000;stroke-width:1.11161494;stroke-miterlimit:4;stroke-dasharray:none;stroke-opacity:1"
       inkscape:transform-center-x="-1.3474839"
       inkscape:transform-center-y="-8.5340465" />
    <circle
       inkscape:transform-center-y="-8.5340379"
       inkscape:transform-center-x="-1.3474839"
       style="fill:#008000;fill-opacity:1;stroke:#000000;stroke-width:1.11161494;stroke-miterlimit:4;stroke-dasharray:none;stroke-opacity:1"
       id="circle1013"
       cx="177.80757"
       cy="107.34351"
       r="6.5128241" />
    <circle
       r="6.5128241"
       cy="112.18775"
       cx="184.43735"
       id="circle1015"
       style="fill:#008000;fill-opacity:1;stroke:#000000;stroke-width:1.11161494;stroke-miterlimit:4;stroke-dasharray:none;stroke-opacity:1"
       inkscape:transform-center-x="-1.3474822"
       inkscape:transform-center-y="-8.5340461" />
    <circle
       inkscape:transform-center-y="-8.5340506"
       inkscape:transform-center-x="-1.3474827"
       style="fill:#008000;fill-opacity:1;stroke:#000000;stroke-width:1.11161494;stroke-miterlimit:4;stroke-dasharray:none;stroke-opacity:1"
       id="circle1017"
       cx="162.64001"
       cy="99.035873"
       r="6.5128241" />
    <circle
       r="6.5128241"
       cy="99.150978"
       cx="188.33127"
       id="circle1019"
       style="fill:#008000;fill-opacity:1;stroke:#000000;stroke-width:1.11161494;stroke-miterlimit:4;stroke-dasharray:none;stroke-opacity:1"
       inkscape:transform-center-x="-1.3474745"
       inkscape:transform-center-y="-8.5340436" />
    <circle
       inkscape:transform-center-y="-8.534044"
       inkscape:transform-center-x="-1.3474873"
       style="fill:#008000;fill-opacity:1;stroke:#000000;stroke-width:1.11161494;stroke-miterlimit:4;stroke-dasharray:none;stroke-opacity:1"
       id="circle1021"
       cx="186.79079"
       cy="86.45755"
       r="6.5128241" />
    <circle
       r="6.5128241"
       cy="89.130249"
       cx="181.21896"
       id="circle1023"
       style="fill:#008000;fill-opacity:1;stroke:#000000;stroke-width:1.11161494;stroke-miterlimit:4;stroke-dasharray:none;stroke-opacity:1"
       inkscape:transform-center-x="-1.3474795"
       inkscape:transform-center-y="-8.534044" />
    <circle
       r="6.5128241"
       cy="76.254936"
       cx="160.6151"
       id="circle1027"
       style="fill:#008000;fill-opacity:1;stroke:#000000;stroke-width:1.11161494;stroke-miterlimit:4;stroke-dasharray:none;stroke-opacity:1"
       inkscape:transform-center-x="-1.347478"
       inkscape:transform-center-y="-8.5340427" />
    <circle
       inkscape:transform-center-y="-8.534044"
       inkscape:transform-center-x="-1.3474884"
       style="fill:#008000;fill-opacity:1;stroke:#000000;stroke-width:1.11161494;stroke-miterlimit:4;stroke-dasharray:none;stroke-opacity:1"
       id="circle1033"
       cx="134.79399"
       cy="90.050827"
       r="6.5128241" />
    <circle
       r="6.5128241"
       cy="75.347321"
       cx="148.79404"
       id="circle1035"
       style="fill:#008000;fill-opacity:1;stroke:#000000;stroke-width:1.11161494;stroke-miterlimit:4;stroke-dasharray:none;stroke-opacity:1"
       inkscape:transform-center-x="-1.3474796"
       inkscape:transform-center-y="-8.5340446" />
    <circle
       r="6.5128241"
       cy="83.783012"
       cx="142.02324"
       id="circle1037"
       style="fill:#008000;fill-opacity:1;stroke:#000000;stroke-width:1.11161494;stroke-miterlimit:4;stroke-dasharray:none;stroke-opacity:1"
       inkscape:transform-center-x="-1.3474817"
       inkscape:transform-center-y="-8.5340412" />
    <circle
       inkscape:transform-center-y="-8.5340436"
       inkscape:transform-center-x="-1.3474885"
       style="fill:#008000;fill-opacity:1;stroke:#000000;stroke-width:1.11161494;stroke-miterlimit:4;stroke-dasharray:none;stroke-opacity:1"
       id="circle1041"
       cx="177.63683"
       cy="78.64547"
       r="6.5128241" />
    <path
       style="fill:#c87137;stroke:#000000;stroke-width:4.22852898;stroke-linecap:butt;stroke-linejoin:miter;stroke-miterlimit:4;stroke-dasharray:none;stroke-opacity:1"
       d="m 261.63424,83.747791 c 7.23986,-14.829949 13.35101,-13.856167 21.74673,1.208155 7.70255,13.820555 14.0951,94.638504 9.66522,96.249364 -4.42989,1.61087 -32.62009,4.02716 -37.45269,-0.80542 -4.83261,-4.83261 0.22642,-84.742154 6.04074,-96.652099 z"
       id="path1045"
       inkscape:connector-curvature="0"
       sodipodi:nodetypes="sscss" />
    <path
       style="fill:#1a1a1a;fill-opacity:1;stroke:none;stroke-width:4.22852898;stroke-miterlimit:4;stroke-dasharray:none;stroke-opacity:1"
       id="path1047"
       d="m 267.05706,80.323476 c -0.54537,0.666134 -1.04289,1.373864 -1.45684,2.129029 -0.30524,0.575104 -0.39004,1.20717 -0.4286,1.846781 -0.054,0.625602 10e-4,1.238477 0.10437,1.854462 0.12713,0.584397 0.34466,1.142432 0.63486,1.664021 0.33346,0.575963 0.73807,1.088765 1.17216,1.588936 0.45401,0.503435 0.89222,1.021533 1.35215,1.519091 0.62366,0.732081 1.26217,1.450016 1.87677,2.189753 0.61787,0.708438 1.14584,1.491483 1.65104,2.282768 0.33233,0.66899 0.59564,1.37084 0.74418,2.103366 0.1376,0.815033 0.13426,1.644375 0.14371,2.468305 0.008,0.987782 -0.37475,1.881702 -0.81509,2.744202 -0.48512,0.95646 -1.17939,1.77551 -1.81331,2.63244 -0.69092,0.87774 -1.35755,1.77409 -2.02443,2.67012 -0.56269,0.79088 -1.1667,1.55092 -1.71274,2.35346 -0.4884,0.67802 -0.80821,1.45203 -1.13199,2.21684 -0.38984,0.86242 -0.57765,1.78142 -0.68887,2.71506 -0.0842,0.97214 -0.0813,1.94921 -0.0856,2.92423 -0.005,0.9723 -0.0129,1.94198 0.0766,2.91077 0.13011,1.22763 0.57926,2.38585 1.00132,3.53602 0.46619,1.23279 0.90392,2.47721 1.38656,3.70346 0.51367,1.20964 0.83353,2.48193 1.14882,3.75341 0.24151,1.01815 0.32652,2.06353 0.37034,3.10628 0.0706,0.87286 0.0119,1.72422 -0.17169,2.57803 -0.17012,0.83425 -0.60054,1.55866 -1.06652,2.25704 -0.405,0.52185 -0.83105,1.02669 -1.24903,1.53804 -0.3608,0.43648 -0.72939,0.86149 -0.96766,1.3789 -0.19271,0.50795 -0.20911,1.05428 -0.22453,1.59069 -0.007,0.62365 -0.005,1.2474 -0.006,1.87109 0.0204,0.85028 0.34291,1.64208 0.65501,2.41972 0.34891,0.7729 0.80595,1.48572 1.28217,2.18459 0.50103,0.69263 0.97917,1.40185 1.47588,2.09825 0.50397,0.5256 0.73994,1.2151 1.11124,1.82238 0.32352,0.60413 0.54777,1.25418 0.78352,1.89597 0.25274,0.65949 0.32671,1.35628 0.37138,2.05493 0.0355,0.66832 0.0268,1.33774 0.0263,2.00669 -0.003,0.69002 -0.005,1.38004 -0.003,2.07009 0.0252,0.68809 -0.0387,1.37065 -0.17861,2.04388 -0.13833,0.54115 -0.34234,1.05974 -0.56813,1.56935 -0.24516,0.46823 -0.4608,0.95511 -0.75828,1.39333 -0.31152,0.47607 -0.64965,0.93278 -0.97422,1.39957 -0.33132,0.44223 -0.70663,0.84942 -0.9996,1.31872 -0.30835,0.45631 -0.61982,0.91035 -0.9151,1.37547 -0.20932,0.4421 -0.45991,0.85832 -0.71579,1.27378 -0.17518,0.40779 -0.32059,0.83534 -0.43992,1.26391 -0.11861,0.50721 -0.12925,1.03042 -0.14092,1.54865 -0.0521,0.56917 0.0492,1.10685 0.21735,1.64649 0.11285,0.50252 0.28221,0.96982 0.53346,1.41728 0.18683,0.46295 0.4767,0.85709 0.83091,1.20463 0.38622,0.42121 0.89089,0.5208 1.43242,0.58511 0,0 -3.45133,2.426 -3.45133,2.426 v 0 c -0.61306,-0.11887 -1.15911,-0.33375 -1.59037,-0.80643 -0.36069,-0.38657 -0.69209,-0.80238 -0.89209,-1.29736 -0.26289,-0.47411 -0.45388,-0.96497 -0.56466,-1.49813 -0.18479,-0.57703 -0.34034,-1.15201 -0.28385,-1.76564 0.006,-0.54292 0.0102,-1.08854 0.0946,-1.62627 0.091,-0.46902 0.28363,-0.89564 0.39348,-1.35867 0.20018,-0.45562 0.55975,-0.81667 0.71614,-1.29684 0.26078,-0.4848 0.57921,-0.94735 0.90939,-1.38162 0.28938,-0.48626 0.60123,-0.93974 0.98777,-1.35665 0.35303,-0.44088 0.65375,-0.91396 0.97632,-1.3783 0.0925,-0.13842 0.20698,-0.26126 0.29912,-0.39991 0.19348,-0.29113 0.25628,-0.65895 0.49686,-0.92423 0.21005,-0.50132 0.45115,-0.98846 0.59326,-1.51581 0.21675,-0.61981 0.24697,-1.29433 0.23374,-1.94599 0.002,-0.69051 0.005,-1.381 0.005,-2.07151 0.002,-0.66173 0.003,-1.32368 -0.015,-1.9852 -0.0308,-0.65959 -0.084,-1.32056 -0.31028,-1.94718 -0.22301,-0.61762 -0.44935,-1.23812 -0.75267,-1.82129 -0.35565,-0.60506 -0.58611,-1.28123 -1.07814,-1.80331 -0.49624,-0.69972 -0.97441,-1.41212 -1.4763,-2.10761 -0.49461,-0.72487 -0.96444,-1.46426 -1.33289,-2.26306 -0.32136,-0.82582 -0.66428,-1.66233 -0.73545,-2.55479 -0.006,-0.62463 -0.0139,-1.2493 -0.009,-1.87398 0.007,-0.57649 0.0154,-1.15937 0.15959,-1.72136 0.18325,-0.57424 0.49994,-1.06639 0.92687,-1.49399 0.38566,-0.53408 0.83664,-1.02365 1.25519,-1.53147 0.50563,-0.62196 0.93345,-1.32822 1.15386,-2.10345 0.0625,-0.2779 0.14354,-0.55215 0.18929,-0.83328 0.0889,-0.54532 0.0174,-1.10202 0.0312,-1.6507 -0.031,-1.02032 -0.0858,-2.04396 -0.3118,-3.04315 -0.2906,-1.25903 -0.60455,-2.51334 -1.1096,-3.70709 -0.49019,-1.22644 -0.92972,-2.47423 -1.38522,-3.71416 -0.44536,-1.17689 -0.91381,-2.36104 -1.08261,-3.61618 -0.0966,-0.98096 -0.11705,-1.96011 -0.0964,-2.94603 -0.002,-0.98758 0.002,-1.97559 0.0671,-2.96152 0.0806,-0.96367 0.25143,-1.91937 0.6288,-2.81584 0.29752,-0.79337 0.63731,-1.58482 1.0945,-2.30013 0.55025,-0.81135 1.14452,-1.58559 1.72469,-2.37557 0.65571,-0.90364 1.3251,-1.80012 2.02725,-2.66796 0.6086,-0.85997 1.32242,-1.64615 1.82529,-2.57757 0.44947,-0.7881 0.85858,-1.62746 0.89839,-2.54982 -0.005,-0.79881 -0.007,-1.60174 -0.11953,-2.394237 -0.12636,-0.684815 -0.36413,-1.342157 -0.66212,-1.970601 -0.48567,-0.781777 -1.00019,-1.55091 -1.60628,-2.245357 -0.61095,-0.735413 -1.25388,-1.441791 -1.88692,-2.158096 -0.4628,-0.502255 -0.91244,-1.017063 -1.36741,-1.526731 -0.44803,-0.524264 -0.85884,-1.068956 -1.21306,-1.662562 -0.31801,-0.562132 -0.55523,-1.161722 -0.70909,-1.78984 -0.10742,-0.644205 -0.20088,-1.280434 -0.1403,-1.936705 0.0234,-0.688133 0.0706,-1.376125 0.35927,-2.013754 0.38158,-0.787422 0.89726,-1.492187 1.40045,-2.205227 0,0 3.89108,-1.653224 3.89108,-1.653224 z"
       inkscape:connector-curvature="0" />
    <path
       style="fill:#1a1a1a;fill-opacity:1;stroke:none;stroke-width:4.22852898;stroke-miterlimit:4;stroke-dasharray:none;stroke-opacity:1"
       id="path1049"
       d="m 278.67684,83.326952 c -0.58934,0.01195 -1.18781,-0.06454 -1.77275,0.0382 -0.12317,0.02165 -0.66565,0.171365 -0.79314,0.205902 -0.19433,0.107331 -0.40703,0.177183 -0.60321,0.280568 -0.0902,0.04761 -0.35107,0.207896 -0.26242,0.157439 6.01081,-3.421076 3.95402,-2.607537 2.95182,-1.538912 -0.41894,0.611697 -0.45023,1.3656 -0.49387,2.081668 -0.0285,0.725045 -0.0183,1.45085 -0.0123,2.17623 0.005,0.596978 0.009,1.193967 0.006,1.790957 0.0436,0.60276 0.22999,1.187153 0.40749,1.76219 0.1954,0.81423 0.4618,1.608321 0.67783,2.416665 0.29728,0.979618 0.45358,1.989549 0.54178,3.006895 0.0728,0.995057 0.0706,1.993635 0.0747,2.990764 -0.0172,0.856927 0.0369,1.715662 -0.0213,2.571152 -0.0913,0.66957 -0.3089,1.30656 -0.55035,1.93373 -0.19694,0.57429 -0.47407,1.09975 -0.83035,1.58926 -0.28276,0.4582 -0.69481,0.80568 -1.0767,1.17604 -0.34396,0.30585 -0.65496,0.64614 -0.99609,0.95564 -0.3568,0.32701 -0.42761,0.77947 -0.47686,1.23721 -0.04,0.55628 -0.0331,1.1146 -0.0314,1.67194 0.0191,0.59163 0.23376,1.13718 0.47628,1.66794 0.37053,0.70163 0.71453,1.41822 1.05198,2.13653 0.35419,0.69149 0.56105,1.42513 0.671,2.19008 0.0817,0.7339 0.0859,1.47422 0.0856,2.21188 -0.10754,1.00204 -0.53761,1.94067 -1.0108,2.81923 -0.43747,0.76452 -0.86595,1.53628 -1.2181,2.34439 -0.16145,0.33403 -0.1888,0.62845 -0.11319,0.98174 0,0 -3.72156,2.01007 -3.72156,2.01007 v 0 c -0.11517,-0.42733 -0.17916,-0.80508 0.0119,-1.22855 0.32726,-0.83754 0.77571,-1.62229 1.21974,-2.40244 0.4838,-0.81145 0.88388,-1.68349 1.08081,-2.61215 -0.003,-0.72124 0.006,-1.44411 -0.0608,-2.16309 -0.0873,-0.72669 -0.26462,-1.42696 -0.609,-2.07915 -0.32831,-0.72107 -0.67045,-1.43816 -1.05323,-2.13185 -0.28235,-0.57903 -0.51364,-1.1778 -0.57354,-1.82532 -0.002,-0.56764 -0.009,-1.1356 0.0121,-1.70297 0.0306,-0.51612 0.0642,-1.05058 0.35003,-1.49862 0.30371,-0.35501 0.6962,-0.61793 0.98067,-0.99367 0.41613,-0.30832 0.78522,-0.69505 1.1355,-1.07413 0.30328,-0.49293 0.70412,-0.91731 0.86538,-1.49481 0.21424,-0.61256 0.49789,-1.19631 0.61379,-1.84241 0.0989,-0.84294 0.0293,-1.69748 0.0551,-2.54458 8.6e-4,-0.987496 10e-4,-1.975887 -0.0569,-2.962025 -0.077,-0.994039 -0.20741,-1.984852 -0.51407,-2.93788 -0.2094,-0.80196 -0.4947,-1.581473 -0.68487,-2.388911 -0.20027,-0.611645 -0.39355,-1.234838 -0.47122,-1.874889 -0.005,-0.596491 -0.003,-1.193017 -0.005,-1.789532 -10e-4,-0.734566 -0.003,-1.469287 0.0172,-2.203655 0.0274,-0.774327 0.0531,-1.575425 0.37566,-2.29324 0.98638,-1.7735 3.27026,-2.457383 5.12792,-3.129922 0.8736,-0.189368 1.75214,-0.181729 2.64301,-0.175977 0,0 -3.41943,2.48437 -3.41943,2.48437 z"
       inkscape:connector-curvature="0" />
    <path
       style="fill:#1a1a1a;fill-opacity:1;stroke:none;stroke-width:4.22852898;stroke-miterlimit:4;stroke-dasharray:none;stroke-opacity:1"
       id="path1051"
       d="m 282.44025,121.12831 c -1.2884,0.63318 -2.13976,1.06207 2.67372,-1.54764 0.1706,-0.0925 -0.32059,0.21899 -0.47655,0.33449 -0.43763,0.32416 -0.79359,0.66731 -1.14026,1.08458 -0.49516,0.63713 -0.6166,1.3887 -0.67984,2.16812 -0.085,1.02188 0.15272,2.00065 0.47039,2.96171 0.44525,1.33194 1.10737,2.57667 1.75823,3.81658 0.64879,1.35871 1.3849,2.6708 2.00489,4.04282 0.617,1.12311 0.88823,2.36544 1.1377,3.6088 0.22872,1.18625 0.27229,2.39412 0.29955,3.59829 -0.012,1.09325 -0.20315,2.17785 -0.46948,3.23559 -0.21903,0.63847 -0.412,1.28505 -0.6203,1.92705 -0.15812,0.56547 -0.30178,1.13485 -0.4653,1.69906 -0.21053,0.56213 -0.31592,1.14648 -0.36919,1.74179 -0.0483,0.73787 -0.048,1.47783 -0.0467,2.21694 -0.0633,0.75425 0.12748,1.44457 0.418,2.13208 0.3156,0.779 0.66028,1.55298 1.10403,2.26816 0.3778,0.64201 0.68315,1.31846 0.96512,2.00663 0.24855,0.60383 0.31652,1.24656 0.35214,1.89163 0.0152,0.44636 0.009,0.22435 0.0182,0.666 0,0 -3.75511,1.92044 -3.75511,1.92044 v 0 c -0.005,-0.4344 -8.4e-4,-0.21653 -0.0102,-0.6536 -0.0259,-0.59927 -0.0685,-1.20154 -0.28565,-1.76764 -0.26509,-0.67012 -0.55444,-1.32863 -0.92228,-1.94997 -0.4468,-0.73649 -0.79991,-1.52836 -1.12925,-2.3232 -0.31962,-0.72914 -0.57675,-1.4721 -0.5046,-2.27988 0.002,-0.74706 -0.006,-1.49468 0.0257,-2.24119 0.0372,-0.62162 0.0981,-1.24161 0.32012,-1.82966 0.19862,-0.55253 0.31963,-1.13117 0.46648,-1.69878 0.2043,-0.64294 0.39012,-1.29161 0.64758,-1.91657 0.28846,-1.02538 0.52023,-2.07469 0.55046,-3.14389 -0.0246,-1.18141 -0.0616,-2.36725 -0.268,-3.53371 -0.23364,-1.21562 -0.48916,-2.43063 -1.07672,-3.53418 -0.60895,-1.3681 -1.33647,-2.67521 -1.98715,-4.02372 -0.65857,-1.25856 -1.35274,-2.51173 -1.8024,-3.86408 -0.35567,-0.99783 -0.64796,-2.01391 -0.58113,-3.08672 0.0283,-0.83994 0.12107,-1.67475 0.58593,-2.40015 1.4423,-2.04418 3.98839,-2.98302 6.08909,-4.16306 0,0 -3.29649,2.63688 -3.29649,2.63688 z"
       inkscape:connector-curvature="0" />
    <path
       style="fill:#1a1a1a;fill-opacity:1;stroke:none;stroke-width:4.22852898;stroke-miterlimit:4;stroke-dasharray:none;stroke-opacity:1"
       id="path1053"
       d="m 276.96826,142.84262 c -0.13784,0.0285 -0.27652,0.0531 -0.41355,0.0852 -0.28576,0.0671 -0.85171,0.21675 -1.11512,0.31874 -0.19618,0.076 -0.75386,0.37226 -0.57236,0.26592 3.64754,-2.13708 3.81424,-2.30457 2.40472,-1.23928 -1.30362,1.14281 -2.17145,2.6647 -2.96887,4.18121 -0.53202,1.0136 -0.78034,2.10074 -0.87474,3.2309 -0.0533,1.1648 0.29022,2.2609 0.70847,3.33014 0.4088,0.97302 0.98771,1.84273 1.6484,2.65931 0.51881,0.53865 1.09834,1.01343 1.61592,1.55297 0.31622,0.3296 0.65692,0.61505 1.044,0.85715 0.40899,0.33831 0.67191,0.78482 0.94785,1.2288 0.4103,0.72424 0.84773,1.43566 1.20501,2.18805 0.39084,0.70788 0.59547,1.47814 0.71922,2.27106 0.15201,0.87377 -0.14184,1.69447 -0.50086,2.47708 -0.3321,0.71001 -0.77477,1.35719 -1.14353,2.04734 -0.336,0.53528 -0.57512,1.12142 -0.91268,1.65497 -0.30085,0.42742 -0.40494,0.91823 -0.46077,1.42727 0,0 -3.7826,1.88613 -3.7826,1.88613 v 0 c 0.0367,-0.55585 0.0951,-1.11692 0.37618,-1.61092 0.10153,-0.15955 0.22347,-0.30566 0.32191,-0.46712 0.22803,-0.37405 0.32808,-0.8211 0.61213,-1.16521 0.37737,-0.68949 0.78972,-1.35303 1.16781,-2.04179 0.37054,-0.69236 0.70374,-1.43833 0.59572,-2.24251 -0.0953,-0.75779 -0.27344,-1.49145 -0.64965,-2.16458 -0.34721,-0.73736 -0.77232,-1.43502 -1.18639,-2.1363 -0.25512,-0.38601 -0.50181,-0.78695 -0.87824,-1.06865 -0.39255,-0.27973 -0.75676,-0.58249 -1.07979,-0.94222 -0.52412,-0.54686 -1.1047,-1.03589 -1.60894,-1.60174 -0.67612,-0.8581 -1.27314,-1.76655 -1.69972,-2.77735 -0.42799,-1.12586 -0.81668,-2.26654 -0.7995,-3.48931 0.0691,-1.19045 0.28714,-2.33024 0.83983,-3.4038 0.8011,-1.54044 1.6551,-3.09576 2.8946,-4.33145 1.93938,-1.71103 4.36095,-3.15771 6.96499,-3.46445 0,0 -3.41945,2.48437 -3.41945,2.48437 z"
       inkscape:connector-curvature="0" />
    <circle
       style="fill:#008000;fill-opacity:1;stroke:#000000;stroke-width:1.31974864;stroke-miterlimit:4;stroke-dasharray:none;stroke-opacity:1"
       id="circle1055"
       cx="304.99945"
       cy="77.110931"
       r="7.7322559" />
    <circle
       r="7.7322559"
       cy="91.040337"
       cx="252.60696"
       id="circle1057"
       style="fill:#008000;fill-opacity:1;stroke:#000000;stroke-width:1.31974864;stroke-miterlimit:4;stroke-dasharray:none;stroke-opacity:1" />
    <circle
       style="fill:#008000;fill-opacity:1;stroke:#000000;stroke-width:1.31974864;stroke-miterlimit:4;stroke-dasharray:none;stroke-opacity:1"
       id="circle1059"
       cx="265.41473"
       cy="82.749207"
       r="7.7322559" />
    <circle
       r="7.7322559"
       cy="74.222816"
       cx="272.63297"
       id="circle1061"
       style="fill:#008000;fill-opacity:1;stroke:#000000;stroke-width:1.31974864;stroke-miterlimit:4;stroke-dasharray:none;stroke-opacity:1" />
    <circle
       style="fill:#008000;fill-opacity:1;stroke:#000000;stroke-width:1.31974864;stroke-miterlimit:4;stroke-dasharray:none;stroke-opacity:1"
       id="circle1063"
       cx="279.54868"
       cy="82.501137"
       r="7.7322559" />
    <circle
       r="7.7322559"
       cy="82.501137"
       cx="279.54868"
       id="circle1065"
       style="fill:#008000;fill-opacity:1;stroke:#000000;stroke-width:1.31974864;stroke-miterlimit:4;stroke-dasharray:none;stroke-opacity:1"
       inkscape:transform-center-x="-1.5997606"
       inkscape:transform-center-y="-10.13192" />
    <circle
       inkscape:transform-center-y="-10.131926"
       inkscape:transform-center-x="-1.5997847"
       style="fill:#008000;fill-opacity:1;stroke:#000000;stroke-width:1.31974864;stroke-miterlimit:4;stroke-dasharray:none;stroke-opacity:1"
       id="circle1067"
       cx="292.38467"
       cy="90.764084"
       r="7.7322559" />
    <circle
       r="7.7322559"
       cy="53.057304"
       cx="235.97284"
       id="circle1069"
       style="fill:#008000;fill-opacity:1;stroke:#000000;stroke-width:1.31974864;stroke-miterlimit:4;stroke-dasharray:none;stroke-opacity:1"
       inkscape:transform-center-x="-1.5997684"
       inkscape:transform-center-y="-10.13194" />
    <circle
       inkscape:transform-center-y="-10.131914"
       inkscape:transform-center-x="-1.5997626"
       style="fill:#008000;fill-opacity:1;stroke:#000000;stroke-width:1.31974864;stroke-miterlimit:4;stroke-dasharray:none;stroke-opacity:1"
       id="circle1071"
       cx="257.92545"
       cy="73.372368"
       r="7.7322559" />
    <circle
       r="7.7322559"
       cy="84.884155"
       cx="269.20264"
       id="circle1073"
       style="fill:#008000;fill-opacity:1;stroke:#000000;stroke-width:1.31974864;stroke-miterlimit:4;stroke-dasharray:none;stroke-opacity:1"
       inkscape:transform-center-x="-1.5997864"
       inkscape:transform-center-y="-10.131926" />
    <circle
       inkscape:transform-center-y="-10.131925"
       inkscape:transform-center-x="-1.5997864"
       style="fill:#008000;fill-opacity:1;stroke:#000000;stroke-width:1.31974864;stroke-miterlimit:4;stroke-dasharray:none;stroke-opacity:1"
       id="circle1075"
       cx="247.28653"
       cy="74.502243"
       r="7.7322559" />
    <circle
       r="7.7322559"
       cy="68.372322"
       cx="264.89108"
       id="circle1077"
       style="fill:#008000;fill-opacity:1;stroke:#000000;stroke-width:1.31974864;stroke-miterlimit:4;stroke-dasharray:none;stroke-opacity:1"
       inkscape:transform-center-x="-1.5997661"
       inkscape:transform-center-y="-10.131925" />
    <circle
       inkscape:transform-center-y="-10.131929"
       inkscape:transform-center-x="-1.599789"
       style="fill:#008000;fill-opacity:1;stroke:#000000;stroke-width:1.31974864;stroke-miterlimit:4;stroke-dasharray:none;stroke-opacity:1"
       id="circle1079"
       cx="249.93874"
       cy="50.712051"
       r="7.7322559" />
    <circle
       r="7.7322559"
       cy="81.967873"
       cx="240.08752"
       id="circle1081"
       style="fill:#008000;fill-opacity:1;stroke:#000000;stroke-width:1.31974864;stroke-miterlimit:4;stroke-dasharray:none;stroke-opacity:1"
       inkscape:transform-center-x="-1.599779"
       inkscape:transform-center-y="-10.131925" />
    <circle
       inkscape:transform-center-y="-10.131925"
       inkscape:transform-center-x="-1.5997859"
       style="fill:#008000;fill-opacity:1;stroke:#000000;stroke-width:1.31974864;stroke-miterlimit:4;stroke-dasharray:none;stroke-opacity:1"
       id="circle1083"
       cx="253.1575"
       cy="80.091866"
       r="7.7322559" />
    <circle
       r="7.7322559"
       cy="62.220654"
       cx="273.9501"
       id="circle1085"
       style="fill:#008000;fill-opacity:1;stroke:#000000;stroke-width:1.31974864;stroke-miterlimit:4;stroke-dasharray:none;stroke-opacity:1"
       inkscape:transform-center-x="-1.5997782"
       inkscape:transform-center-y="-10.131916" />
    <circle
       inkscape:transform-center-y="-10.131917"
       inkscape:transform-center-x="-1.5997719"
       style="fill:#008000;fill-opacity:1;stroke:#000000;stroke-width:1.31974864;stroke-miterlimit:4;stroke-dasharray:none;stroke-opacity:1"
       id="circle1087"
       cx="284.34802"
       cy="67.036621"
       r="7.7322559" />
    <circle
       r="7.7322559"
       cy="75.035515"
       cx="287.28094"
       id="circle1089"
       style="fill:#008000;fill-opacity:1;stroke:#000000;stroke-width:1.31974864;stroke-miterlimit:4;stroke-dasharray:none;stroke-opacity:1"
       inkscape:transform-center-x="-1.5997884"
       inkscape:transform-center-y="-10.131911" />
    <circle
       inkscape:transform-center-y="-10.131918"
       inkscape:transform-center-x="-1.5997886"
       style="fill:#008000;fill-opacity:1;stroke:#000000;stroke-width:1.31974864;stroke-miterlimit:4;stroke-dasharray:none;stroke-opacity:1"
       id="circle1091"
       cx="292.884"
       cy="81.160301"
       r="7.7322559" />
    <circle
       r="7.7322559"
       cy="38.378616"
       cx="266.95886"
       id="circle1093"
       style="fill:#008000;fill-opacity:1;stroke:#000000;stroke-width:1.31974864;stroke-miterlimit:4;stroke-dasharray:none;stroke-opacity:1"
       inkscape:transform-center-x="-1.5997886"
       inkscape:transform-center-y="-10.13192" />
    <circle
       inkscape:transform-center-y="-10.131919"
       inkscape:transform-center-x="-1.5997713"
       style="fill:#008000;fill-opacity:1;stroke:#000000;stroke-width:1.31974864;stroke-miterlimit:4;stroke-dasharray:none;stroke-opacity:1"
       id="circle1095"
       cx="298.48386"
       cy="40.505253"
       r="7.7322559" />
    <circle
       r="7.7322559"
       cy="38.653553"
       cx="254.10686"
       id="circle1097"
       style="fill:#008000;fill-opacity:1;stroke:#000000;stroke-width:1.31974864;stroke-miterlimit:4;stroke-dasharray:none;stroke-opacity:1"
       inkscape:transform-center-x="-1.5997764"
       inkscape:transform-center-y="-10.131932" />
    <circle
       inkscape:transform-center-y="-10.131919"
       inkscape:transform-center-x="-1.5997736"
       style="fill:#008000;fill-opacity:1;stroke:#000000;stroke-width:1.31974864;stroke-miterlimit:4;stroke-dasharray:none;stroke-opacity:1"
       id="circle1099"
       cx="280.02051"
       cy="38.942593"
       r="7.7322559" />
    <circle
       r="7.7322559"
       cy="58.750622"
       cx="304.88556"
       id="circle1101"
       style="fill:#008000;fill-opacity:1;stroke:#000000;stroke-width:1.31974864;stroke-miterlimit:4;stroke-dasharray:none;stroke-opacity:1"
       inkscape:transform-center-x="-1.5997925"
       inkscape:transform-center-y="-10.131917" />
    <circle
       inkscape:transform-center-y="-10.131917"
       inkscape:transform-center-x="-1.5997797"
       style="fill:#008000;fill-opacity:1;stroke:#000000;stroke-width:1.31974864;stroke-miterlimit:4;stroke-dasharray:none;stroke-opacity:1"
       id="circle1103"
       cx="299.55676"
       cy="67.837784"
       r="7.7322559" />
    <circle
       r="7.7322559"
       cy="45.367943"
       cx="276.90094"
       id="circle1105"
       style="fill:#008000;fill-opacity:1;stroke:#000000;stroke-width:1.31974864;stroke-miterlimit:4;stroke-dasharray:none;stroke-opacity:1"
       inkscape:transform-center-x="-1.5997699"
       inkscape:transform-center-y="-10.13192" />
    <circle
       inkscape:transform-center-y="-10.131918"
       inkscape:transform-center-x="-1.5997846"
       style="fill:#008000;fill-opacity:1;stroke:#000000;stroke-width:1.31974864;stroke-miterlimit:4;stroke-dasharray:none;stroke-opacity:1"
       id="circle1107"
       cx="288.88968"
       cy="55.574753"
       r="7.7322559" />
    <circle
       r="7.7322559"
       cy="52.638618"
       cx="296.61298"
       id="circle1109"
       style="fill:#008000;fill-opacity:1;stroke:#000000;stroke-width:1.31974864;stroke-miterlimit:4;stroke-dasharray:none;stroke-opacity:1"
       inkscape:transform-center-x="-1.5997713"
       inkscape:transform-center-y="-10.131925" />
    <circle
       inkscape:transform-center-y="-10.131924"
       inkscape:transform-center-x="-1.5997745"
       style="fill:#008000;fill-opacity:1;stroke:#000000;stroke-width:1.31974864;stroke-miterlimit:4;stroke-dasharray:none;stroke-opacity:1"
       id="circle1111"
       cx="272.6189"
       cy="56.104797"
       r="7.7322559" />
    <circle
       r="7.7322559"
       cy="71.569305"
       cx="236.08809"
       id="circle1113"
       style="fill:#008000;fill-opacity:1;stroke:#000000;stroke-width:1.31974864;stroke-miterlimit:4;stroke-dasharray:none;stroke-opacity:1"
       inkscape:transform-center-x="-1.5997876"
       inkscape:transform-center-y="-10.131923" />
    <circle
       inkscape:transform-center-y="-10.131923"
       inkscape:transform-center-x="-1.5997815"
       style="fill:#008000;fill-opacity:1;stroke:#000000;stroke-width:1.31974864;stroke-miterlimit:4;stroke-dasharray:none;stroke-opacity:1"
       id="circle1115"
       cx="257.15179"
       cy="58.237839"
       r="7.7322559" />
    <circle
       inkscape:transform-center-y="-10.131915"
       inkscape:transform-center-x="-1.5997789"
       style="fill:#008000;fill-opacity:1;stroke:#000000;stroke-width:1.31974864;stroke-miterlimit:4;stroke-dasharray:none;stroke-opacity:1"
       id="circle1117"
       cx="244.35359"
       cy="60.637512"
       r="7.7322559" />
    <circle
       r="7.7322559"
       cy="61.684174"
       cx="249.94514"
       id="circle1119"
       style="fill:#008000;fill-opacity:1;stroke:#000000;stroke-width:1.31974864;stroke-miterlimit:4;stroke-dasharray:none;stroke-opacity:1"
       inkscape:transform-center-x="-1.5997873"
       inkscape:transform-center-y="-10.131926" />
    <circle
       r="7.7322559"
       cy="45.629456"
       cx="285.39789"
       id="circle1121"
       style="fill:#008000;fill-opacity:1;stroke:#000000;stroke-width:1.31974864;stroke-miterlimit:4;stroke-dasharray:none;stroke-opacity:1"
       inkscape:transform-center-x="-1.5997799"
       inkscape:transform-center-y="-10.13192" />
    <circle
       r="7.7322559"
       cy="46.772774"
       cx="263.01767"
       id="circle1123"
       style="fill:#008000;fill-opacity:1;stroke:#000000;stroke-width:1.31974864;stroke-miterlimit:4;stroke-dasharray:none;stroke-opacity:1"
       inkscape:transform-center-x="-1.5997782"
       inkscape:transform-center-y="-10.131918" />
  </g>
</svg>
