<?xml version="1.0" encoding="UTF-8" standalone="no"?>
<!-- Created with Inkscape (http://www.inkscape.org/) -->

<svg
   xmlns:dc="http://purl.org/dc/elements/1.1/"
   xmlns:cc="http://creativecommons.org/ns#"
   xmlns:rdf="http://www.w3.org/1999/02/22-rdf-syntax-ns#"
   xmlns:svg="http://www.w3.org/2000/svg"
   xmlns="http://www.w3.org/2000/svg"
   xmlns:xlink="http://www.w3.org/1999/xlink"
   xmlns:sodipodi="http://sodipodi.sourceforge.net/DTD/sodipodi-0.dtd"
   xmlns:inkscape="http://www.inkscape.org/namespaces/inkscape"
   width="1280"
   height="720"
   viewBox="0 0 338.66666 190.50001"
   version="1.1"
   id="svg8"
   inkscape:version="0.92.2 (5c3e80d, 2017-08-06)"
   sodipodi:docname="BG_Stage2.svg"
   inkscape:export-filename="D:\Documents\Digipen\Semester 02\GAM150\drqst\Production\Illustrations\BG\BG_Stage2.png"
   inkscape:export-xdpi="96"
   inkscape:export-ydpi="96">
  <defs
     id="defs2" />
  <sodipodi:namedview
     id="base"
     pagecolor="#ffffff"
     bordercolor="#666666"
     borderopacity="1.0"
     inkscape:pageopacity="0.0"
     inkscape:pageshadow="2"
     inkscape:zoom="1.4"
     inkscape:cx="534.66763"
     inkscape:cy="260.88608"
     inkscape:document-units="mm"
     inkscape:current-layer="layer3"
     showgrid="false"
     units="px"
     inkscape:pagecheckerboard="true"
     inkscape:window-width="1920"
     inkscape:window-height="1057"
     inkscape:window-x="-8"
     inkscape:window-y="-8"
     inkscape:window-maximized="1" />
  <metadata
     id="metadata5">
    <rdf:RDF>
      <cc:Work
         rdf:about="">
        <dc:format>image/svg+xml</dc:format>
        <dc:type
           rdf:resource="http://purl.org/dc/dcmitype/StillImage" />
        <dc:title />
      </cc:Work>
    </rdf:RDF>
  </metadata>
  <g
     inkscape:groupmode="layer"
     id="layer2"
     inkscape:label="Sky"
     style="display:inline">
    <rect
       transform="translate(0,-106.49998)"
       style="fill:#00ccff;fill-opacity:1;stroke:#000000;stroke-width:3.96875;stroke-miterlimit:4;stroke-dasharray:none;stroke-opacity:1"
       id="rect819"
       width="418.04166"
       height="242.66072"
       x="-43.467262"
       y="80.7976" />
  </g>
  <g
     inkscape:groupmode="layer"
     id="layer3"
     inkscape:label="Stone"
     style="display:inline">
    <path
       style="fill:#4d4d4d;fill-opacity:1;stroke:#000000;stroke-width:16.802145;stroke-miterlimit:4;stroke-dasharray:none;stroke-opacity:1"
       d="M -54.679688,-49.099609 V 727 H 1339.0996 V -49.099609 Z M 156.43555,134.38281 H 315.57227 V 374.58789 H 156.43555 Z m 680.31445,0 H 995.88672 V 374.58789 H 836.75 Z"
       id="rect823"
       transform="scale(0.26458333)"
       inkscape:connector-curvature="0" />
  </g>
  <g
     inkscape:label="Cobble"
     inkscape:groupmode="layer"
     id="layer1"
     transform="translate(0,-106.49998)"
     style="display:inline">
    <path
       sodipodi:nodetypes="asssssa"
       inkscape:connector-curvature="0"
       id="use923"
       d="m 96.268017,110.29818 c 3.42696,-0.0919 8.008463,3.43405 9.167563,4.66133 1.41902,1.50248 3.11475,10.9522 1.85069,12.86772 -1.01513,1.53833 -10.983683,4.22841 -12.645943,3.9649 -1.31197,-0.20798 -9.84039,-8.03031 -10.72611,-10.39221 -1.001661,-2.6711 3.13019,-7.51245 5.9265,-7.38725 2.79629,0.12521 3.95371,-3.64814 6.4273,-3.71449 z"
       style="fill:#666666;stroke:#000000;stroke-width:1.58372664;stroke-linecap:butt;stroke-linejoin:miter;stroke-miterlimit:4;stroke-dasharray:none;stroke-opacity:1" />
    <use
       id="use954"
       inkscape:spray-origin="#use923"
       xlink:href="#use923"
       transform="matrix(0.53726382,-0.55603771,0.55603771,0.53726382,32.918134,115.23174)"
       x="0"
       y="0"
       width="100%"
       height="100%" />
    <use
       id="use956"
       inkscape:spray-origin="#use923"
       xlink:href="#use923"
       transform="matrix(0.8419151,0.79094481,-0.79094481,0.8419151,141.06725,-4.6525646)"
       x="0"
       y="0"
       width="100%"
       height="100%" />
    <use
       id="use958"
       inkscape:spray-origin="#use923"
       xlink:href="#use923"
       transform="matrix(1.1608417,-0.16522638,0.16522638,1.1608417,-27.702901,24.489186)"
       x="0"
       y="0"
       width="100%"
       height="100%" />
    <use
       id="use960"
       inkscape:spray-origin="#use923"
       xlink:href="#use923"
       transform="matrix(0.9284318,0.53937155,-0.53937155,0.9284318,131.52212,29.24462)"
       x="0"
       y="0"
       width="100%"
       height="100%" />
    <use
       id="use962"
       inkscape:spray-origin="#use923"
       xlink:href="#use923"
       transform="matrix(1.0251629,-0.30643457,0.30643457,1.0251629,86.960522,31.490511)"
       x="0"
       y="0"
       width="100%"
       height="100%" />
    <use
       id="use964"
       inkscape:spray-origin="#use923"
       xlink:href="#use923"
       transform="matrix(0.68697329,-0.47957569,0.47957569,0.68697329,177.03719,93.424178)"
       x="0"
       y="0"
       width="100%"
       height="100%" />
    <use
       id="use966"
       inkscape:spray-origin="#use923"
       xlink:href="#use923"
       transform="matrix(0.86067437,-0.52579688,0.52579688,0.86067437,-128.45579,88.030058)"
       x="0"
       y="0"
       width="100%"
       height="100%" />
    <use
       id="use968"
       inkscape:spray-origin="#use923"
       xlink:href="#use923"
       transform="matrix(0.73805777,0.59279707,-0.59279707,0.73805777,38.578344,-23.977587)"
       x="0"
       y="0"
       width="100%"
       height="100%" />
    <use
       id="use970"
       inkscape:spray-origin="#use923"
       xlink:href="#use923"
       transform="matrix(0.71593255,0.7826638,-0.7826638,0.71593255,49.383207,8.7880226)"
       x="0"
       y="0"
       width="100%"
       height="100%" />
    <use
       id="use972"
       inkscape:spray-origin="#use923"
       xlink:href="#use923"
       transform="matrix(0.7223484,0.39914332,-0.39914332,0.7223484,145.82646,37.808154)"
       x="0"
       y="0"
       width="100%"
       height="100%" />
    <use
       id="use974"
       inkscape:spray-origin="#use923"
       xlink:href="#use923"
       transform="matrix(1.0917983,0.49414753,-0.49414753,1.0917983,2.6630671,60.174133)"
       x="0"
       y="0"
       width="100%"
       height="100%" />
    <use
       id="use976"
       inkscape:spray-origin="#use923"
       xlink:href="#use923"
       transform="matrix(0.63581153,-0.52441006,0.52441006,0.63581153,-86.562602,243.02406)"
       x="0"
       y="0"
       width="100%"
       height="100%" />
    <use
       id="use978"
       inkscape:spray-origin="#use923"
       xlink:href="#use923"
       transform="matrix(0.74045032,-0.3144038,0.3144038,0.74045032,6.3625651,170.41143)"
       x="0"
       y="0"
       width="100%"
       height="100%" />
    <use
       id="use980"
       inkscape:spray-origin="#use923"
       xlink:href="#use923"
       transform="matrix(0.55770719,0.61209042,-0.61209042,0.55770719,208.7817,124.05375)"
       x="0"
       y="0"
       width="100%"
       height="100%" />
    <use
       id="use982"
       inkscape:spray-origin="#use923"
       xlink:href="#use923"
       transform="matrix(1.1124707,-0.14870797,0.14870797,1.1124707,105.87159,106.70217)"
       x="0"
       y="0"
       width="100%"
       height="100%" />
    <use
       id="use984"
       inkscape:spray-origin="#use923"
       xlink:href="#use923"
       transform="matrix(0.82816796,-0.80616106,0.80616106,0.82816796,111.29719,170.44443)"
       x="0"
       y="0"
       width="100%"
       height="100%" />
    <use
       id="use986"
       inkscape:spray-origin="#use923"
       xlink:href="#use923"
       transform="matrix(0.69346427,-0.34250851,0.34250851,0.69346427,-4.7250307,136.61723)"
       x="0"
       y="0"
       width="100%"
       height="100%" />
    <use
       id="use988"
       inkscape:spray-origin="#use923"
       xlink:href="#use923"
       transform="matrix(0.80352921,-0.63047853,0.63047853,0.80352921,-48.761109,231.662)"
       x="0"
       y="0"
       width="100%"
       height="100%" />
    <use
       id="use990"
       inkscape:spray-origin="#use923"
       xlink:href="#use923"
       transform="matrix(1.12461,0.10528784,-0.10528784,1.12461,158.19903,113.34505)"
       x="0"
       y="0"
       width="100%"
       height="100%" />
    <use
       id="use992"
       inkscape:spray-origin="#use923"
       xlink:href="#use923"
       transform="matrix(1.0227287,0.30034362,-0.30034362,1.0227287,249.3389,109.12408)"
       x="0"
       y="0"
       width="100%"
       height="100%" />
    <use
       id="use994"
       inkscape:spray-origin="#use923"
       xlink:href="#use923"
       transform="matrix(0.81238907,0.1533027,-0.1533027,0.81238907,241.48765,127.19337)"
       x="0"
       y="0"
       width="100%"
       height="100%" />
    <use
       id="use996"
       inkscape:spray-origin="#use923"
       xlink:href="#use923"
       transform="matrix(0.97549741,0.23451061,-0.23451061,0.97549741,87.417673,87.932386)"
       x="0"
       y="0"
       width="100%"
       height="100%" />
    <use
       id="use998"
       inkscape:spray-origin="#use923"
       xlink:href="#use923"
       transform="matrix(0.76902626,0.12891358,-0.12891358,0.76902626,123.19634,100.44862)"
       x="0"
       y="0"
       width="100%"
       height="100%" />
    <use
       id="use1000"
       inkscape:spray-origin="#use923"
       xlink:href="#use923"
       transform="matrix(0.93731399,-0.57452777,0.57452777,0.93731399,57.260893,212.44261)"
       x="0"
       y="0"
       width="100%"
       height="100%" />
    <use
       id="use1002"
       inkscape:spray-origin="#use923"
       xlink:href="#use923"
       transform="matrix(0.7716422,-0.6257008,0.6257008,0.7716422,148.39032,121.61068)"
       x="0"
       y="0"
       width="100%"
       height="100%" />
    <use
       id="use1004"
       inkscape:spray-origin="#use923"
       xlink:href="#use923"
       transform="matrix(0.81839916,0.07925843,-0.07925843,0.81839916,84.189527,170.08604)"
       x="0"
       y="0"
       width="100%"
       height="100%" />
    <use
       id="use1006"
       inkscape:spray-origin="#use923"
       xlink:href="#use923"
       transform="matrix(0.68727071,-0.37565987,0.37565987,0.68727071,210.31792,100.9491)"
       x="0"
       y="0"
       width="100%"
       height="100%" />
    <use
       id="use1008"
       inkscape:spray-origin="#use923"
       xlink:href="#use923"
       transform="matrix(1.1068032,-0.34972294,0.34972294,1.1068032,124.19359,139.17749)"
       x="0"
       y="0"
       width="100%"
       height="100%" />
    <use
       id="use1010"
       inkscape:spray-origin="#use923"
       xlink:href="#use923"
       transform="matrix(0.67112337,-0.61935976,0.61935976,0.67112337,120.55157,261.7459)"
       x="0"
       y="0"
       width="100%"
       height="100%" />
    <use
       id="use1012"
       inkscape:spray-origin="#use923"
       xlink:href="#use923"
       transform="matrix(0.75663817,-0.09577191,0.09577191,0.75663817,225.31816,91.782312)"
       x="0"
       y="0"
       width="100%"
       height="100%" />
    <use
       id="use1014"
       inkscape:spray-origin="#use923"
       xlink:href="#use923"
       transform="matrix(0.72542988,0.89331442,-0.89331442,0.72542988,164.59695,-43.508984)"
       x="0"
       y="0"
       width="100%"
       height="100%" />
    <use
       id="use1016"
       inkscape:spray-origin="#use923"
       xlink:href="#use923"
       transform="matrix(0.71050807,-0.78657368,0.78657368,0.71050807,-17.84289,141.34337)"
       x="0"
       y="0"
       width="100%"
       height="100%" />
    <use
       id="use1018"
       inkscape:spray-origin="#use923"
       xlink:href="#use923"
       transform="matrix(0.91260042,0.08024965,-0.08024965,0.91260042,202.92987,151.56899)"
       x="0"
       y="0"
       width="100%"
       height="100%" />
    <use
       id="use1020"
       inkscape:spray-origin="#use923"
       xlink:href="#use923"
       transform="matrix(0.62307758,0.64006611,-0.64006611,0.62307758,192.24971,-18.401812)"
       x="0"
       y="0"
       width="100%"
       height="100%" />
    <use
       id="use1022"
       inkscape:spray-origin="#use923"
       xlink:href="#use923"
       transform="matrix(0.70336809,0.36533818,-0.36533818,0.70336809,223.34156,9.6524627)"
       x="0"
       y="0"
       width="100%"
       height="100%" />
    <use
       id="use1024"
       inkscape:spray-origin="#use923"
       xlink:href="#use923"
       transform="matrix(1.0888758,-0.26177572,0.26177572,1.0888758,136.25514,20.17998)"
       x="0"
       y="0"
       width="100%"
       height="100%" />
    <use
       id="use1026"
       inkscape:spray-origin="#use923"
       xlink:href="#use923"
       transform="matrix(0.82822137,0.02006217,-0.02006217,0.82822137,120.35613,40.373603)"
       x="0"
       y="0"
       width="100%"
       height="100%" />
    <use
       id="use1028"
       inkscape:spray-origin="#use923"
       xlink:href="#use923"
       transform="matrix(0.64593691,0.6630379,-0.6630379,0.64593691,214.19889,-22.470074)"
       x="0"
       y="0"
       width="100%"
       height="100%" />
    <use
       id="use1030"
       inkscape:spray-origin="#use923"
       xlink:href="#use923"
       transform="matrix(0.95684765,0.21626812,-0.21626812,0.95684765,103.23728,3.8955813)"
       x="0"
       y="0"
       width="100%"
       height="100%" />
    <use
       id="use1032"
       inkscape:spray-origin="#use923"
       xlink:href="#use923"
       transform="matrix(0.97860882,-0.30273257,0.30273257,0.97860882,68.817405,135.25253)"
       x="0"
       y="0"
       width="100%"
       height="100%" />
    <use
       id="use1034"
       inkscape:spray-origin="#use923"
       xlink:href="#use923"
       transform="matrix(0.86808973,-0.56803303,0.56803303,0.86808973,-87.083143,70.690415)"
       x="0"
       y="0"
       width="100%"
       height="100%" />
    <use
       id="use1036"
       inkscape:spray-origin="#use923"
       xlink:href="#use923"
       transform="matrix(0.73993275,0.30013763,-0.30013763,0.73993275,241.70461,51.543072)"
       x="0"
       y="0"
       width="100%"
       height="100%" />
    <use
       id="use1038"
       inkscape:spray-origin="#use923"
       xlink:href="#use923"
       transform="matrix(0.87926047,-0.12661914,0.12661914,0.87926047,84.205746,184.40616)"
       x="0"
       y="0"
       width="100%"
       height="100%" />
    <use
       id="use1040"
       inkscape:spray-origin="#use923"
       xlink:href="#use923"
       transform="matrix(0.68510157,0.40859756,-0.40859756,0.68510157,-3.3288054,96.003411)"
       x="0"
       y="0"
       width="100%"
       height="100%" />
    <use
       id="use1042"
       inkscape:spray-origin="#use923"
       xlink:href="#use923"
       transform="matrix(0.93981088,0.10509767,-0.10509767,0.93981088,-61.876102,156.23613)"
       x="0"
       y="0"
       width="100%"
       height="100%" />
    <use
       id="use1044"
       inkscape:spray-origin="#use923"
       xlink:href="#use923"
       transform="matrix(0.81078861,0.16881953,-0.16881953,0.81078861,-30.100141,86.523304)"
       x="0"
       y="0"
       width="100%"
       height="100%" />
    <use
       id="use1046"
       inkscape:spray-origin="#use923"
       xlink:href="#use923"
       transform="matrix(0.74463751,-0.23090804,0.23090804,0.74463751,-82.858994,176.82604)"
       x="0"
       y="0"
       width="100%"
       height="100%" />
    <use
       id="use1048"
       inkscape:spray-origin="#use923"
       xlink:href="#use923"
       transform="matrix(0.86354877,-0.06097996,0.06097996,0.86354877,112.09628,97.720525)"
       x="0"
       y="0"
       width="100%"
       height="100%" />
    <use
       id="use1050"
       inkscape:spray-origin="#use923"
       xlink:href="#use923"
       transform="matrix(0.26012835,-1.0584978,1.0584978,0.26012835,171.3933,192.68614)"
       x="0"
       y="0"
       width="100%"
       height="100%" />
    <use
       id="use1052"
       inkscape:spray-origin="#use923"
       xlink:href="#use923"
       transform="matrix(1.0890811,-0.54082956,0.54082956,1.0890811,-85.564017,151.9123)"
       x="0"
       y="0"
       width="100%"
       height="100%" />
    <use
       id="use1054"
       inkscape:spray-origin="#use923"
       xlink:href="#use923"
       transform="matrix(1.0845206,0.24979933,-0.24979933,1.0845206,-2.7929785,118.00214)"
       x="0"
       y="0"
       width="100%"
       height="100%" />
    <use
       id="use1056"
       inkscape:spray-origin="#use923"
       xlink:href="#use923"
       transform="matrix(0.81597019,0.09425128,-0.09425128,0.81597019,62.944676,153.95978)"
       x="0"
       y="0"
       width="100%"
       height="100%" />
    <use
       id="use1058"
       inkscape:spray-origin="#use923"
       xlink:href="#use923"
       transform="matrix(0.60767049,0.46569679,-0.46569679,0.60767049,296.77266,101.00611)"
       x="0"
       y="0"
       width="100%"
       height="100%" />
    <use
       id="use1060"
       inkscape:spray-origin="#use923"
       xlink:href="#use923"
       transform="matrix(0.87712043,0.05145386,-0.05145386,0.87712043,242.67603,173.83635)"
       x="0"
       y="0"
       width="100%"
       height="100%" />
    <use
       id="use1062"
       inkscape:spray-origin="#use923"
       xlink:href="#use923"
       transform="matrix(1.1470278,0.03657523,-0.03657523,1.1470278,21.900163,63.769624)"
       x="0"
       y="0"
       width="100%"
       height="100%" />
    <use
       id="use1064"
       inkscape:spray-origin="#use923"
       xlink:href="#use923"
       transform="matrix(1.0875069,0.20542428,-0.20542428,1.0875069,244.73496,77.180902)"
       x="0"
       y="0"
       width="100%"
       height="100%" />
    <use
       id="use1066"
       inkscape:spray-origin="#use923"
       xlink:href="#use923"
       transform="matrix(0.74971972,-0.1638469,0.1638469,0.74971972,183.33825,142.63798)"
       x="0"
       y="0"
       width="100%"
       height="100%" />
    <use
       id="use1068"
       inkscape:spray-origin="#use923"
       xlink:href="#use923"
       transform="matrix(0.77861142,-0.40888084,0.40888084,0.77861142,191.22542,141.59961)"
       x="0"
       y="0"
       width="100%"
       height="100%" />
    <use
       height="100%"
       width="100%"
       y="0"
       x="0"
       transform="matrix(0.78143401,-0.5048224,0.49836785,0.79155467,48.780909,134.05775)"
       xlink:href="#use923"
       inkscape:spray-origin="#use923"
       id="use875" />
    <use
       height="100%"
       width="100%"
       y="0"
       x="0"
       transform="matrix(1.063294,0.21805412,-0.21805412,1.063294,129.5378,16.693687)"
       xlink:href="#use923"
       inkscape:spray-origin="#use923"
       id="use877" />
    <use
       height="100%"
       width="100%"
       y="0"
       x="0"
       transform="matrix(0.38135794,-0.39916673,0.39916673,0.38135794,10.06436,200.93304)"
       xlink:href="#use923"
       inkscape:spray-origin="#use923"
       id="use879" />
    <use
       id="use881"
       inkscape:spray-origin="#use923"
       xlink:href="#use923"
       transform="matrix(0.38135794,-0.39916673,0.39916673,0.38135794,-48.734936,210.28747)"
       x="0"
       y="0"
       width="100%"
       height="100%" />
    <use
       id="use883"
       inkscape:spray-origin="#use923"
       xlink:href="#use923"
       transform="matrix(0.29235595,-0.66886589,0.66886589,0.29235595,-45.352622,247.93609)"
       x="0"
       y="0"
       width="100%"
       height="100%" />
    <use
       height="100%"
       width="100%"
       y="0"
       x="0"
       transform="matrix(0.69278504,0.02894287,-0.02894287,0.69278504,38.288903,160.84864)"
       xlink:href="#use923"
       inkscape:spray-origin="#use923"
       id="use885" />
    <use
       height="100%"
       width="100%"
       y="0"
       x="0"
       transform="matrix(0.68857665,0.07953628,-0.07953628,0.68857665,16.671466,160.34767)"
       xlink:href="#use923"
       inkscape:spray-origin="#use923"
       id="use887" />
    <use
       height="100%"
       width="100%"
       y="0"
       x="0"
       transform="matrix(0.86152573,-0.51211403,0.51211403,0.86152573,19.388437,199.00081)"
       xlink:href="#use923"
       inkscape:spray-origin="#use923"
       id="use889" />
    <use
       height="100%"
       width="100%"
       y="0"
       x="0"
       transform="matrix(0.54225421,-0.12289437,0.12289437,0.54225421,108.39842,170.28414)"
       xlink:href="#use923"
       inkscape:spray-origin="#use923"
       id="use891" />
    <use
       height="100%"
       width="100%"
       y="0"
       x="0"
       transform="matrix(-0.04580252,0.76422448,-0.76422448,-0.04580252,313.13952,176.8106)"
       xlink:href="#use923"
       inkscape:spray-origin="#use923"
       id="use893" />
    <use
       height="100%"
       width="100%"
       y="0"
       x="0"
       transform="matrix(0.67612921,0.00303433,-0.00303433,0.67612921,173.80531,197.54277)"
       xlink:href="#use923"
       inkscape:spray-origin="#use923"
       id="use895"
       inkscape:transform-center-x="0.52887479"
       inkscape:transform-center-y="0.26364494" />
    <use
       height="100%"
       width="100%"
       y="0"
       x="0"
       transform="matrix(0.67994826,0.0398873,-0.0398873,0.67994826,194.29469,137.20707)"
       xlink:href="#use923"
       inkscape:spray-origin="#use923"
       id="use897" />
    <use
       id="use899"
       inkscape:spray-origin="#use923"
       xlink:href="#use923"
       transform="matrix(0.39406927,-0.3971158,0.3971158,0.39406927,154.81414,234.5988)"
       x="0"
       y="0"
       width="100%"
       height="100%" />
    <use
       height="100%"
       width="100%"
       y="0"
       x="0"
       transform="matrix(0.74583234,-0.1295644,0.1295644,0.74583234,189.63091,71.163224)"
       xlink:href="#use923"
       inkscape:spray-origin="#use923"
       id="use901" />
    <use
       id="use903"
       inkscape:spray-origin="#use923"
       xlink:href="#use923"
       transform="matrix(0.3350512,0.56263728,-0.56263728,0.3350512,133.75013,74.744166)"
       x="0"
       y="0"
       width="100%"
       height="100%" />
    <use
       height="100%"
       width="100%"
       y="0"
       x="0"
       transform="matrix(0.08365769,0.81712425,-0.81712425,0.08365769,226.70388,152.54796)"
       xlink:href="#use923"
       inkscape:spray-origin="#use923"
       id="use905" />
  </g>
</svg>
