<?xml version="1.0" encoding="UTF-8" standalone="no"?>
<!-- Created with Inkscape (http://www.inkscape.org/) -->

<svg
   xmlns:dc="http://purl.org/dc/elements/1.1/"
   xmlns:cc="http://creativecommons.org/ns#"
   xmlns:rdf="http://www.w3.org/1999/02/22-rdf-syntax-ns#"
   xmlns:svg="http://www.w3.org/2000/svg"
   xmlns="http://www.w3.org/2000/svg"
   xmlns:xlink="http://www.w3.org/1999/xlink"
   xmlns:sodipodi="http://sodipodi.sourceforge.net/DTD/sodipodi-0.dtd"
   xmlns:inkscape="http://www.inkscape.org/namespaces/inkscape"
   width="1920"
   height="1080"
   viewBox="0 0 507.99999 285.75002"
   version="1.1"
   id="svg8"
   inkscape:version="0.92.2 (5c3e80d, 2017-08-06)"
   sodipodi:docname="BG_Stage2.svg"
   inkscape:export-filename="G:\Documents\Digipen\Semester 02\GAM150\drqst\Production\Illustrations\BG\BG_Stage2.png"
   inkscape:export-xdpi="96"
   inkscape:export-ydpi="96">
  <defs
     id="defs2" />
  <sodipodi:namedview
     id="base"
     pagecolor="#ffffff"
     bordercolor="#666666"
     borderopacity="1.0"
     inkscape:pageopacity="0.0"
     inkscape:pageshadow="2"
     inkscape:zoom="0.49497475"
     inkscape:cx="952.75893"
     inkscape:cy="576.41435"
     inkscape:document-units="mm"
     inkscape:current-layer="layer1"
     showgrid="false"
     units="px"
     inkscape:pagecheckerboard="true"
     inkscape:window-width="1920"
     inkscape:window-height="1057"
     inkscape:window-x="-8"
     inkscape:window-y="-8"
     inkscape:window-maximized="1"
     borderlayer="true" />
  <metadata
     id="metadata5">
    <rdf:RDF>
      <cc:Work
         rdf:about="">
        <dc:format>image/svg+xml</dc:format>
        <dc:type
           rdf:resource="http://purl.org/dc/dcmitype/StillImage" />
        <dc:title></dc:title>
      </cc:Work>
    </rdf:RDF>
  </metadata>
  <g
     inkscape:groupmode="layer"
     id="layer2"
     inkscape:label="Sky"
     style="display:inline"
     transform="translate(49.231402,56.223905)">
    <rect
       style="fill:#00ccff;fill-opacity:1;stroke:#000000;stroke-width:5.86848688;stroke-miterlimit:4;stroke-dasharray:none;stroke-opacity:1"
       id="rect819"
       width="618.14728"
       height="358.81604"
       x="-110.16859"
       y="-88.21743" />
  </g>
  <g
     inkscape:groupmode="layer"
     id="layer3"
     inkscape:label="Stone"
     style="display:inline"
     transform="translate(49.231402,56.223905)">
    <path
       style="fill:#4d4d4d;fill-opacity:1;stroke:#000000;stroke-width:6.57354403;stroke-miterlimit:4;stroke-dasharray:none;stroke-opacity:1"
       d="M -67.28719,-66.086294 V 237.54909 H 478.0044 V -66.086294 Z M 15.307938,5.6979799 H 77.567399 V 99.674003 H 15.307938 Z m 266.160982,0 h 62.25947 V 99.674003 h -62.25947 z"
       id="rect823"
       inkscape:connector-curvature="0" />
  </g>
  <g
     inkscape:label="Cobble"
     inkscape:groupmode="layer"
     id="layer1"
     transform="translate(49.231402,-50.276071)"
     style="display:inline">
    <path
       sodipodi:nodetypes="asssssa"
       inkscape:connector-curvature="0"
       id="use923"
       d="m 96.454221,61.904276 c 5.067339,-0.13589 11.841889,5.077842 13.555809,6.892587 2.09828,2.221677 4.6057,16.194727 2.73655,19.027156 -1.50105,2.274694 -16.241259,6.25244 -18.699164,5.862798 -1.939951,-0.307541 -14.550697,-11.87421 -15.860385,-15.366688 -1.481138,-3.949686 4.62854,-11.108464 8.763371,-10.923334 4.134778,0.185147 5.84622,-5.394408 9.503819,-5.492519 z"
       style="fill:#666666;stroke:#000000;stroke-width:2.34181523;stroke-linecap:butt;stroke-linejoin:miter;stroke-miterlimit:4;stroke-dasharray:none;stroke-opacity:1" />
    <use
       id="use954"
       inkscape:spray-origin="#use923"
       xlink:href="#use923"
       transform="matrix(0.53726382,-0.55603771,0.55603771,0.53726382,83.703895,98.046344)"
       x="0"
       y="0"
       width="100%"
       height="100%" />
    <use
       id="use956"
       inkscape:spray-origin="#use923"
       xlink:href="#use923"
       transform="matrix(0.8419151,0.79094481,-0.79094481,0.8419151,121.3007,13.423845)"
       x="0"
       y="0"
       width="100%"
       height="100%" />
    <use
       id="use958"
       inkscape:spray-origin="#use923"
       xlink:href="#use923"
       transform="matrix(1.1608417,-0.16522638,0.16522638,1.1608417,-16.862384,44.904203)"
       x="0"
       y="0"
       width="100%"
       height="100%" />
    <use
       id="use960"
       inkscape:spray-origin="#use923"
       xlink:href="#use923"
       transform="matrix(0.9284318,0.53937155,-0.53937155,0.9284318,136.61437,60.755513)"
       x="0"
       y="0"
       width="100%"
       height="100%" />
    <use
       id="use962"
       inkscape:spray-origin="#use923"
       xlink:href="#use923"
       transform="matrix(1.0251629,-0.30643457,0.30643457,1.0251629,160.7494,35.046723)"
       x="0"
       y="0"
       width="100%"
       height="100%" />
    <use
       id="use964"
       inkscape:spray-origin="#use923"
       xlink:href="#use923"
       transform="matrix(0.68697329,-0.47957569,0.47957569,0.68697329,295.94236,84.458504)"
       x="0"
       y="0"
       width="100%"
       height="100%" />
    <use
       id="use966"
       inkscape:spray-origin="#use923"
       xlink:href="#use923"
       transform="matrix(0.86067437,-0.52579688,0.52579688,0.86067437,-143.13275,91.937971)"
       x="0"
       y="0"
       width="100%"
       height="100%" />
    <use
       id="use968"
       inkscape:spray-origin="#use923"
       xlink:href="#use923"
       transform="matrix(0.73805777,0.59279707,-0.59279707,0.73805777,-14.962565,-34.75492)"
       x="0"
       y="0"
       width="100%"
       height="100%" />
    <use
       id="use970"
       inkscape:spray-origin="#use923"
       xlink:href="#use923"
       transform="matrix(0.71593255,0.7826638,-0.7826638,0.71593255,-19.213873,20.169761)"
       x="0"
       y="0"
       width="100%"
       height="100%" />
    <use
       id="use972"
       inkscape:spray-origin="#use923"
       xlink:href="#use923"
       transform="matrix(0.7223484,0.39914332,-0.39914332,0.7223484,162.49718,46.128711)"
       x="0"
       y="0"
       width="100%"
       height="100%" />
    <use
       id="use974"
       inkscape:spray-origin="#use923"
       xlink:href="#use923"
       transform="matrix(1.0917983,0.49414753,-0.49414753,1.0917983,-41.852316,120.94602)"
       x="0"
       y="0"
       width="100%"
       height="100%" />
    <use
       id="use976"
       inkscape:spray-origin="#use923"
       xlink:href="#use923"
       transform="matrix(0.63581153,-0.52441006,0.52441006,0.63581153,-91.646734,298.43321)"
       x="0"
       y="0"
       width="100%"
       height="100%" />
    <use
       id="use978"
       inkscape:spray-origin="#use923"
       xlink:href="#use923"
       transform="matrix(0.74045032,-0.3144038,0.3144038,0.74045032,29.31096,211.28953)"
       x="0"
       y="0"
       width="100%"
       height="100%" />
    <use
       id="use980"
       inkscape:spray-origin="#use923"
       xlink:href="#use923"
       transform="matrix(0.55770719,0.61209042,-0.61209042,0.55770719,226.48319,166.77089)"
       x="0"
       y="0"
       width="100%"
       height="100%" />
    <use
       id="use982"
       inkscape:spray-origin="#use923"
       xlink:href="#use923"
       transform="matrix(1.1124707,-0.14870797,0.14870797,1.1124707,176.75911,162.33391)"
       x="0"
       y="0"
       width="100%"
       height="100%" />
    <use
       id="use984"
       inkscape:spray-origin="#use923"
       xlink:href="#use923"
       transform="matrix(0.82816796,-0.80616106,0.80616106,0.82816796,238.2621,197.64547)"
       x="0"
       y="0"
       width="100%"
       height="100%" />
    <use
       id="use986"
       inkscape:spray-origin="#use923"
       xlink:href="#use923"
       transform="matrix(0.69346427,-0.34250851,0.34250851,0.69346427,13.603537,155.27451)"
       x="0"
       y="0"
       width="100%"
       height="100%" />
    <use
       id="use988"
       inkscape:spray-origin="#use923"
       xlink:href="#use923"
       transform="matrix(0.80352921,-0.63047853,0.63047853,0.80352921,-17.320148,293.73588)"
       x="0"
       y="0"
       width="100%"
       height="100%" />
    <use
       id="use990"
       inkscape:spray-origin="#use923"
       xlink:href="#use923"
       transform="matrix(1.12461,0.10528784,-0.10528784,1.12461,228.98948,185.04172)"
       x="0"
       y="0"
       width="100%"
       height="100%" />
    <use
       id="use992"
       inkscape:spray-origin="#use923"
       xlink:href="#use923"
       transform="matrix(1.0227287,0.30034362,-0.30034362,1.0227287,339.34181,177.44309)"
       x="0"
       y="0"
       width="100%"
       height="100%" />
    <use
       id="use994"
       inkscape:spray-origin="#use923"
       xlink:href="#use923"
       transform="matrix(0.81238907,0.1533027,-0.1533027,0.81238907,332.95819,176.12875)"
       x="0"
       y="0"
       width="100%"
       height="100%" />
    <use
       id="use996"
       inkscape:spray-origin="#use923"
       xlink:href="#use923"
       transform="matrix(0.97549741,0.23451061,-0.23451061,0.97549741,104.40736,138.30684)"
       x="0"
       y="0"
       width="100%"
       height="100%" />
    <use
       id="use998"
       inkscape:spray-origin="#use923"
       xlink:href="#use923"
       transform="matrix(0.76902626,0.12891358,-0.12891358,0.76902626,158.52175,131.07496)"
       x="0"
       y="0"
       width="100%"
       height="100%" />
    <use
       id="use1000"
       inkscape:spray-origin="#use923"
       xlink:href="#use923"
       transform="matrix(0.93731399,-0.57452777,0.57452777,0.93731399,139.93016,281.42224)"
       x="0"
       y="0"
       width="100%"
       height="100%" />
    <use
       id="use1002"
       inkscape:spray-origin="#use923"
       xlink:href="#use923"
       transform="matrix(0.7716422,-0.6257008,0.6257008,0.7716422,272.25559,127.99848)"
       x="0"
       y="0"
       width="100%"
       height="100%" />
    <use
       id="use1004"
       inkscape:spray-origin="#use923"
       xlink:href="#use923"
       transform="matrix(0.81839916,0.07925843,-0.07925843,0.81839916,108.13404,236.76301)"
       x="0"
       y="0"
       width="100%"
       height="100%" />
    <use
       id="use1006"
       inkscape:spray-origin="#use923"
       xlink:href="#use923"
       transform="matrix(0.68727071,-0.37565987,0.37565987,0.68727071,334.65212,100.38463)"
       x="0"
       y="0"
       width="100%"
       height="100%" />
    <use
       id="use1008"
       inkscape:spray-origin="#use923"
       xlink:href="#use923"
       transform="matrix(1.1068032,-0.34972294,0.34972294,1.1068032,223.93208,200.55532)"
       x="0"
       y="0"
       width="100%"
       height="100%" />
    <use
       id="use1010"
       inkscape:spray-origin="#use923"
       xlink:href="#use923"
       transform="matrix(0.67112337,-0.61935976,0.61935976,0.67112337,225.83632,325.33227)"
       x="0"
       y="0"
       width="100%"
       height="100%" />
    <use
       id="use1012"
       inkscape:spray-origin="#use923"
       xlink:href="#use923"
       transform="matrix(0.75663817,-0.09577191,0.09577191,0.75663817,331.69423,106.69469)"
       x="0"
       y="0"
       width="100%"
       height="100%" />
    <use
       id="use1014"
       inkscape:spray-origin="#use923"
       xlink:href="#use923"
       transform="matrix(0.72542988,0.89331442,-0.89331442,0.72542988,140.38851,-51.12115)"
       x="0"
       y="0"
       width="100%"
       height="100%" />
    <use
       id="use1016"
       inkscape:spray-origin="#use923"
       xlink:href="#use923"
       transform="matrix(0.71050807,-0.78657368,0.78657368,0.71050807,39.924001,143.60724)"
       x="0"
       y="0"
       width="100%"
       height="100%" />
    <use
       id="use1018"
       inkscape:spray-origin="#use923"
       xlink:href="#use923"
       transform="matrix(0.91260042,0.08024965,-0.08024965,0.91260042,287.93544,218.96021)"
       x="0"
       y="0"
       width="100%"
       height="100%" />
    <use
       id="use1020"
       inkscape:spray-origin="#use923"
       xlink:href="#use923"
       transform="matrix(0.62307758,0.64006611,-0.64006611,0.62307758,202.20692,-35.975677)"
       x="0"
       y="0"
       width="100%"
       height="100%" />
    <use
       id="use1022"
       inkscape:spray-origin="#use923"
       xlink:href="#use923"
       transform="matrix(0.70336809,0.36533818,-0.36533818,0.70336809,279.66649,1.0235313)"
       x="0"
       y="0"
       width="100%"
       height="100%" />
    <use
       id="use1024"
       inkscape:spray-origin="#use923"
       xlink:href="#use923"
       transform="matrix(1.0888758,-0.26177572,0.26177572,1.0888758,232.04516,26.818895)"
       x="0"
       y="0"
       width="100%"
       height="100%" />
    <use
       id="use1026"
       inkscape:spray-origin="#use923"
       xlink:href="#use923"
       transform="matrix(0.82822137,0.02006217,-0.02006217,0.82822137,168.05367,43.237729)"
       x="0"
       y="0"
       width="100%"
       height="100%" />
    <use
       id="use1028"
       inkscape:spray-origin="#use923"
       xlink:href="#use923"
       transform="matrix(0.64593691,0.6630379,-0.6630379,0.64593691,233.38734,-38.623862)"
       x="0"
       y="0"
       width="100%"
       height="100%" />
    <use
       id="use1030"
       inkscape:spray-origin="#use923"
       xlink:href="#use923"
       transform="matrix(0.95684765,0.21626812,-0.21626812,0.95684765,128.78928,11.319243)"
       x="0"
       y="0"
       width="100%"
       height="100%" />
    <use
       id="use1032"
       inkscape:spray-origin="#use923"
       xlink:href="#use923"
       transform="matrix(0.97860882,-0.30273257,0.30273257,0.97860882,131.41041,183.93585)"
       x="0"
       y="0"
       width="100%"
       height="100%" />
    <use
       id="use1034"
       inkscape:spray-origin="#use923"
       xlink:href="#use923"
       transform="matrix(0.86808973,-0.56803303,0.56803303,0.86808973,-77.341859,65.110254)"
       x="0"
       y="0"
       width="100%"
       height="100%" />
    <use
       id="use1036"
       inkscape:spray-origin="#use923"
       xlink:href="#use923"
       transform="matrix(0.73993275,0.30013763,-0.30013763,0.73993275,315.09532,63.673724)"
       x="0"
       y="0"
       width="100%"
       height="100%" />
    <use
       id="use1038"
       inkscape:spray-origin="#use923"
       xlink:href="#use923"
       transform="matrix(0.87926047,-0.12661914,0.12661914,0.87926047,131.78428,254.64772)"
       x="0"
       y="0"
       width="100%"
       height="100%" />
    <use
       id="use1040"
       inkscape:spray-origin="#use923"
       xlink:href="#use923"
       transform="matrix(0.68510157,0.40859756,-0.40859756,0.68510157,-60.720694,128.84558)"
       x="0"
       y="0"
       width="100%"
       height="100%" />
    <use
       id="use1042"
       inkscape:spray-origin="#use923"
       xlink:href="#use923"
       transform="matrix(0.93981088,0.10509767,-0.10509767,0.93981088,-104.8919,229.755)"
       x="0"
       y="0"
       width="100%"
       height="100%" />
    <use
       id="use1044"
       inkscape:spray-origin="#use923"
       xlink:href="#use923"
       transform="matrix(0.81078861,0.16881953,-0.16881953,0.81078861,-70.275076,116.54121)"
       x="0"
       y="0"
       width="100%"
       height="100%" />
    <use
       id="use1046"
       inkscape:spray-origin="#use923"
       xlink:href="#use923"
       transform="matrix(0.74463751,-0.23090804,0.23090804,0.74463751,-110.87548,225.03022)"
       x="0"
       y="0"
       width="100%"
       height="100%" />
    <use
       id="use1048"
       inkscape:spray-origin="#use923"
       xlink:href="#use923"
       transform="matrix(0.86354877,-0.06097996,0.06097996,0.86354877,165.66191,127.89054)"
       x="0"
       y="0"
       width="100%"
       height="100%" />
    <use
       id="use1050"
       inkscape:spray-origin="#use923"
       xlink:href="#use923"
       transform="matrix(0.26012835,-1.0584978,1.0584978,0.26012835,326.58867,161.47244)"
       x="0"
       y="0"
       width="100%"
       height="100%" />
    <use
       id="use1052"
       inkscape:spray-origin="#use923"
       xlink:href="#use923"
       transform="matrix(1.0890811,-0.54082956,0.54082956,1.0890811,-67.705984,208.82165)"
       x="0"
       y="0"
       width="100%"
       height="100%" />
    <use
       id="use1054"
       inkscape:spray-origin="#use923"
       xlink:href="#use923"
       transform="matrix(1.0845206,0.24979933,-0.24979933,1.0845206,-25.528258,194.50407)"
       x="0"
       y="0"
       width="100%"
       height="100%" />
    <use
       id="use1056"
       inkscape:spray-origin="#use923"
       xlink:href="#use923"
       transform="matrix(0.81597019,0.09425128,-0.09425128,0.81597019,75.091282,213.3598)"
       x="0"
       y="0"
       width="100%"
       height="100%" />
    <use
       id="use1058"
       inkscape:spray-origin="#use923"
       xlink:href="#use923"
       transform="matrix(0.60767049,0.46569679,-0.46569679,0.60767049,373.69982,131.028)"
       x="0"
       y="0"
       width="100%"
       height="100%" />
    <use
       id="use1060"
       inkscape:spray-origin="#use923"
       xlink:href="#use923"
       transform="matrix(0.87712043,0.05145386,-0.05145386,0.87712043,347.99239,246.97458)"
       x="0"
       y="0"
       width="100%"
       height="100%" />
    <use
       id="use1062"
       inkscape:spray-origin="#use923"
       xlink:href="#use923"
       transform="matrix(1.1470278,0.03657523,-0.03657523,1.1470278,35.429907,110.85085)"
       x="0"
       y="0"
       width="100%"
       height="100%" />
    <use
       id="use1064"
       inkscape:spray-origin="#use923"
       xlink:href="#use923"
       transform="matrix(1.0875069,0.20542428,-0.20542428,1.0875069,345.11201,132.40816)"
       x="0"
       y="0"
       width="100%"
       height="100%" />
    <use
       id="use1066"
       inkscape:spray-origin="#use923"
       xlink:href="#use923"
       transform="matrix(0.74971972,-0.1638469,0.1638469,0.74971972,276.19074,178.0693)"
       x="0"
       y="0"
       width="100%"
       height="100%" />
    <use
       id="use1068"
       inkscape:spray-origin="#use923"
       xlink:href="#use923"
       transform="matrix(0.77861142,-0.40888084,0.40888084,0.77861142,313.97437,168.21155)"
       x="0"
       y="0"
       width="100%"
       height="100%" />
    <use
       height="100%"
       width="100%"
       y="0"
       x="0"
       transform="matrix(0.78143401,-0.5048224,0.49836785,0.79155467,112.53021,153.96625)"
       xlink:href="#use923"
       inkscape:spray-origin="#use923"
       id="use875" />
    <use
       height="100%"
       width="100%"
       y="0"
       x="0"
       transform="matrix(1.063294,0.21805412,-0.21805412,1.063294,172.38392,41.096816)"
       xlink:href="#use923"
       inkscape:spray-origin="#use923"
       id="use877" />
    <use
       height="100%"
       width="100%"
       y="0"
       x="0"
       transform="matrix(0.38135794,-0.39916673,0.39916673,0.38135794,26.881477,216.19388)"
       xlink:href="#use923"
       inkscape:spray-origin="#use923"
       id="use879" />
    <use
       id="use881"
       inkscape:spray-origin="#use923"
       xlink:href="#use923"
       transform="matrix(0.38135794,-0.39916673,0.39916673,0.38135794,-60.063501,230.02606)"
       x="0"
       y="0"
       width="100%"
       height="100%" />
    <use
       id="use883"
       inkscape:spray-origin="#use923"
       xlink:href="#use923"
       transform="matrix(0.29235595,-0.66886589,0.66886589,0.29235595,-31.855827,264.31216)"
       x="0"
       y="0"
       width="100%"
       height="100%" />
    <use
       height="100%"
       width="100%"
       y="0"
       x="0"
       transform="matrix(0.69278504,0.02894287,-0.02894287,0.69278504,39.588506,208.08381)"
       xlink:href="#use923"
       inkscape:spray-origin="#use923"
       id="use885" />
    <use
       height="100%"
       width="100%"
       y="0"
       x="0"
       transform="matrix(0.68857665,0.07953628,-0.07953628,0.68857665,2.3106368,209.23915)"
       xlink:href="#use923"
       inkscape:spray-origin="#use923"
       id="use887" />
    <use
       height="100%"
       width="100%"
       y="0"
       x="0"
       transform="matrix(0.86152573,-0.51211403,0.51211403,0.86152573,74.135133,256.74179)"
       xlink:href="#use923"
       inkscape:spray-origin="#use923"
       id="use889" />
    <use
       height="100%"
       width="100%"
       y="0"
       x="0"
       transform="matrix(0.54225421,-0.12289437,0.12289437,0.54225421,151.71343,199.83498)"
       xlink:href="#use923"
       inkscape:spray-origin="#use923"
       id="use891" />
    <use
       height="100%"
       width="100%"
       y="0"
       x="0"
       transform="matrix(-0.04580252,0.76422448,-0.76422448,-0.04580252,337.70171,190.69355)"
       xlink:href="#use923"
       inkscape:spray-origin="#use923"
       id="use893" />
    <use
       height="100%"
       width="100%"
       y="0"
       x="0"
       transform="matrix(0.67612921,0.00303433,-0.00303433,0.67612921,241.83048,259.46792)"
       xlink:href="#use923"
       inkscape:spray-origin="#use923"
       id="use895"
       inkscape:transform-center-x="0.78203498"
       inkscape:transform-center-y="0.38985806" />
    <use
       height="100%"
       width="100%"
       y="0"
       x="0"
       transform="matrix(0.67994826,0.0398873,-0.0398873,0.67994826,268.57363,172.32887)"
       xlink:href="#use923"
       inkscape:spray-origin="#use923"
       id="use897" />
    <use
       id="use899"
       inkscape:spray-origin="#use923"
       xlink:href="#use923"
       transform="matrix(0.39406927,-0.3971158,0.3971158,0.39406927,241.29501,267.355)"
       x="0"
       y="0"
       width="100%"
       height="100%" />
    <use
       height="100%"
       width="100%"
       y="0"
       x="0"
       transform="matrix(0.74583234,-0.1295644,0.1295644,0.74583234,281.84796,73.561458)"
       xlink:href="#use923"
       inkscape:spray-origin="#use923"
       id="use901" />
    <use
       id="use903"
       inkscape:spray-origin="#use923"
       xlink:href="#use923"
       transform="matrix(0.3350512,0.56263728,-0.56263728,0.3350512,110.32146,69.057651)"
       x="0"
       y="0"
       width="100%"
       height="100%" />
    <use
       height="100%"
       width="100%"
       y="0"
       x="0"
       transform="matrix(0.08365769,0.81712425,-0.81712425,0.08365769,210.48023,170.34489)"
       xlink:href="#use923"
       inkscape:spray-origin="#use923"
       id="use905" />
  </g>
</svg>
