<?xml version="1.0" encoding="UTF-8" standalone="no"?>
<!-- Created with Inkscape (http://www.inkscape.org/) -->

<svg
   xmlns:dc="http://purl.org/dc/elements/1.1/"
   xmlns:cc="http://creativecommons.org/ns#"
   xmlns:rdf="http://www.w3.org/1999/02/22-rdf-syntax-ns#"
   xmlns:svg="http://www.w3.org/2000/svg"
   xmlns="http://www.w3.org/2000/svg"
   xmlns:sodipodi="http://sodipodi.sourceforge.net/DTD/sodipodi-0.dtd"
   xmlns:inkscape="http://www.inkscape.org/namespaces/inkscape"
   width="1920"
   height="1080"
   viewBox="0 0 507.99999 285.75"
   version="1.1"
   id="svg8"
   inkscape:version="0.92.2 (5c3e80d, 2017-08-06)"
   sodipodi:docname="BG_Stage1.svg"
   inkscape:export-filename="C:\Users\jacob.lim\Desktop\drqst\Production\Illustrations\BG\BG_Stage1.png"
   inkscape:export-xdpi="96"
   inkscape:export-ydpi="96">
  <defs
     id="defs2" />
  <sodipodi:namedview
     id="base"
     pagecolor="#ffffff"
     bordercolor="#666666"
     borderopacity="1.0"
     inkscape:pageopacity="0.0"
     inkscape:pageshadow="2"
     inkscape:zoom="0.35"
     inkscape:cx="807.67325"
     inkscape:cy="609.42322"
     inkscape:document-units="mm"
     inkscape:current-layer="layer3"
     showgrid="false"
     inkscape:pagecheckerboard="true"
     units="px"
     inkscape:window-width="1920"
     inkscape:window-height="1138"
     inkscape:window-x="-8"
     inkscape:window-y="-8"
     inkscape:window-maximized="1" />
  <metadata
     id="metadata5">
    <rdf:RDF>
      <cc:Work
         rdf:about="">
        <dc:format>image/svg+xml</dc:format>
        <dc:type
           rdf:resource="http://purl.org/dc/dcmitype/StillImage" />
        <dc:title></dc:title>
      </cc:Work>
    </rdf:RDF>
  </metadata>
  <g
     inkscape:groupmode="layer"
     id="layer4"
     inkscape:label="Ground"
     transform="translate(0,95.25)">
    <rect
       style="fill:#a05a2c;fill-opacity:1;stroke:#000000;stroke-width:0;stroke-miterlimit:4;stroke-dasharray:none;stroke-opacity:1"
       id="rect1180"
       width="571.01855"
       height="133.09454"
       x="-36.3237"
       y="65.648193" />
  </g>
  <g
     inkscape:groupmode="layer"
     id="layer5"
     inkscape:label="Shrubs"
     transform="translate(0,95.25)">
    <circle
       style="fill:#008000;fill-opacity:1;stroke:#000000;stroke-width:1.87835038;stroke-miterlimit:4;stroke-dasharray:none;stroke-opacity:1"
       id="path1184"
       cx="181.75238"
       cy="122.93397"
       r="9.9284239" />
    <circle
       r="9.9284239"
       cy="109.46228"
       cx="186.87543"
       id="circle1186"
       style="fill:#008000;fill-opacity:1;stroke:#000000;stroke-width:1.87835038;stroke-miterlimit:4;stroke-dasharray:none;stroke-opacity:1" />
    <circle
       style="fill:#008000;fill-opacity:1;stroke:#000000;stroke-width:1.87835038;stroke-miterlimit:4;stroke-dasharray:none;stroke-opacity:1"
       id="circle1188"
       cx="194.27538"
       cy="123.31345"
       r="9.9284239" />
    <circle
       r="9.9284239"
       cy="108.89305"
       cx="128.6246"
       id="circle1194"
       style="fill:#008000;fill-opacity:1;stroke:#000000;stroke-width:1.87835038;stroke-miterlimit:4;stroke-dasharray:none;stroke-opacity:1" />
    <circle
       style="fill:#008000;fill-opacity:1;stroke:#000000;stroke-width:1.87835038;stroke-miterlimit:4;stroke-dasharray:none;stroke-opacity:1"
       id="circle1196"
       cx="133.74765"
       cy="95.421364"
       r="9.9284239" />
    <circle
       r="9.9284239"
       cy="109.27254"
       cx="141.1476"
       id="circle1198"
       style="fill:#008000;fill-opacity:1;stroke:#000000;stroke-width:1.87835038;stroke-miterlimit:4;stroke-dasharray:none;stroke-opacity:1" />
    <circle
       style="fill:#008000;fill-opacity:1;stroke:#000000;stroke-width:1.87835038;stroke-miterlimit:4;stroke-dasharray:none;stroke-opacity:1"
       id="circle1200"
       cx="28.78977"
       cy="144.0323"
       r="9.9284239" />
    <circle
       r="9.9284239"
       cy="130.56062"
       cx="33.912815"
       id="circle1202"
       style="fill:#008000;fill-opacity:1;stroke:#000000;stroke-width:1.87835038;stroke-miterlimit:4;stroke-dasharray:none;stroke-opacity:1" />
    <circle
       style="fill:#008000;fill-opacity:1;stroke:#000000;stroke-width:1.87835038;stroke-miterlimit:4;stroke-dasharray:none;stroke-opacity:1"
       id="circle1204"
       cx="41.312767"
       cy="144.41179"
       r="9.9284239" />
    <circle
       r="6.5190773"
       cy="99.39666"
       cx="53.929222"
       id="circle1206"
       style="fill:#008000;fill-opacity:1;stroke:#000000;stroke-width:1.23333883;stroke-miterlimit:4;stroke-dasharray:none;stroke-opacity:1" />
    <circle
       style="fill:#008000;fill-opacity:1;stroke:#000000;stroke-width:1.23333883;stroke-miterlimit:4;stroke-dasharray:none;stroke-opacity:1"
       id="circle1208"
       cx="57.293053"
       cy="90.551064"
       r="6.5190773" />
    <circle
       r="6.5190773"
       cy="99.645851"
       cx="62.151913"
       id="circle1210"
       style="fill:#008000;fill-opacity:1;stroke:#000000;stroke-width:1.23333883;stroke-miterlimit:4;stroke-dasharray:none;stroke-opacity:1" />
    <circle
       r="9.9284239"
       cy="118.75964"
       cx="307.3616"
       id="circle1212"
       style="fill:#008000;fill-opacity:1;stroke:#000000;stroke-width:1.87835038;stroke-miterlimit:4;stroke-dasharray:none;stroke-opacity:1" />
    <circle
       style="fill:#008000;fill-opacity:1;stroke:#000000;stroke-width:1.87835038;stroke-miterlimit:4;stroke-dasharray:none;stroke-opacity:1"
       id="circle1214"
       cx="312.48465"
       cy="105.28795"
       r="9.9284239" />
    <circle
       r="9.9284239"
       cy="119.13912"
       cx="319.88461"
       id="circle1216"
       style="fill:#008000;fill-opacity:1;stroke:#000000;stroke-width:1.87835038;stroke-miterlimit:4;stroke-dasharray:none;stroke-opacity:1" />
    <circle
       style="fill:#008000;fill-opacity:1;stroke:#000000;stroke-width:1.67804778;stroke-miterlimit:4;stroke-dasharray:none;stroke-opacity:1"
       id="circle1218"
       cx="466.72455"
       cy="134.37941"
       r="8.8696814" />
    <circle
       r="8.8696814"
       cy="122.34431"
       cx="471.30124"
       id="circle1220"
       style="fill:#008000;fill-opacity:1;stroke:#000000;stroke-width:1.67804778;stroke-miterlimit:4;stroke-dasharray:none;stroke-opacity:1" />
    <circle
       style="fill:#008000;fill-opacity:1;stroke:#000000;stroke-width:1.67804778;stroke-miterlimit:4;stroke-dasharray:none;stroke-opacity:1"
       id="circle1222"
       cx="477.91205"
       cy="134.71843"
       r="8.8696814" />
    <circle
       style="fill:#008000;fill-opacity:1;stroke:#000000;stroke-width:1.3789866;stroke-miterlimit:4;stroke-dasharray:none;stroke-opacity:1"
       id="circle1224"
       cx="362.15399"
       cy="99.739647"
       r="7.288929" />
    <circle
       r="7.288929"
       cy="89.849434"
       cx="365.91507"
       id="circle1226"
       style="fill:#008000;fill-opacity:1;stroke:#000000;stroke-width:1.3789866;stroke-miterlimit:4;stroke-dasharray:none;stroke-opacity:1" />
    <circle
       style="fill:#008000;fill-opacity:1;stroke:#000000;stroke-width:1.3789866;stroke-miterlimit:4;stroke-dasharray:none;stroke-opacity:1"
       id="circle1228"
       cx="371.34772"
       cy="100.01823"
       r="7.288929" />
    <circle
       r="6.4740224"
       cy="95.769539"
       cx="451.75882"
       id="circle1230"
       style="fill:#008000;fill-opacity:1;stroke:#000000;stroke-width:1.22481489;stroke-miterlimit:4;stroke-dasharray:none;stroke-opacity:1" />
    <circle
       style="fill:#008000;fill-opacity:1;stroke:#000000;stroke-width:1.22481489;stroke-miterlimit:4;stroke-dasharray:none;stroke-opacity:1"
       id="circle1232"
       cx="455.09937"
       cy="86.985069"
       r="6.4740224" />
    <circle
       r="6.4740224"
       cy="96.016998"
       cx="459.92462"
       id="circle1234"
       style="fill:#008000;fill-opacity:1;stroke:#000000;stroke-width:1.22481489;stroke-miterlimit:4;stroke-dasharray:none;stroke-opacity:1" />
  </g>
  <g
     inkscape:groupmode="layer"
     id="layer2"
     inkscape:label="Sky"
     transform="translate(0,95.25)">
    <rect
       style="fill:#55ddff;fill-opacity:1;stroke:none;stroke-width:3.75670075;stroke-miterlimit:4;stroke-dasharray:none;stroke-opacity:1"
       id="rect874"
       width="552.77173"
       height="171.73489"
       x="-26.609676"
       y="-95.25" />
  </g>
  <g
     inkscape:label="Clouds"
     inkscape:groupmode="layer"
     id="layer1"
     transform="translate(0,-11.24998)">
    <ellipse
       style="fill:#ffffff;fill-opacity:1;stroke:#000000;stroke-width:1.39182687;stroke-miterlimit:4;stroke-dasharray:none;stroke-opacity:1"
       id="path817"
       cx="53.468758"
       cy="62.099644"
       rx="14.713599"
       ry="14.465059" />
    <ellipse
       ry="14.465059"
       rx="14.713599"
       cy="54.699696"
       cx="69.596825"
       id="ellipse819"
       style="fill:#ffffff;fill-opacity:1;stroke:#000000;stroke-width:1.39182687;stroke-miterlimit:4;stroke-dasharray:none;stroke-opacity:1" />
    <ellipse
       style="fill:#ffffff;fill-opacity:1;stroke:#000000;stroke-width:1.39182687;stroke-miterlimit:4;stroke-dasharray:none;stroke-opacity:1"
       id="ellipse821"
       cx="86.104378"
       cy="59.063755"
       rx="14.713599"
       ry="14.465059" />
    <ellipse
       ry="14.465059"
       rx="14.713599"
       cy="63.048347"
       cx="66.940437"
       id="ellipse823"
       style="fill:#ffffff;fill-opacity:1;stroke:#000000;stroke-width:1.39182687;stroke-miterlimit:4;stroke-dasharray:none;stroke-opacity:1" />
    <ellipse
       style="fill:#ffffff;fill-opacity:1;stroke:#000000;stroke-width:1.39182687;stroke-miterlimit:4;stroke-dasharray:none;stroke-opacity:1"
       id="ellipse825"
       cx="89.212311"
       cy="71.903419"
       rx="14.713599"
       ry="14.465059" />
    <ellipse
       ry="14.465059"
       rx="14.713599"
       cy="57.413273"
       cx="102.36076"
       id="ellipse827"
       style="fill:#ffffff;fill-opacity:1;stroke:#000000;stroke-width:1.39182687;stroke-miterlimit:4;stroke-dasharray:none;stroke-opacity:1" />
    <ellipse
       style="fill:#ffffff;fill-opacity:1;stroke:#000000;stroke-width:1.39182687;stroke-miterlimit:4;stroke-dasharray:none;stroke-opacity:1"
       id="ellipse829"
       cx="61.037052"
       cy="75.391769"
       rx="14.713599"
       ry="14.465059" />
    <ellipse
       ry="14.465059"
       rx="14.713599"
       cy="77.806793"
       cx="102.09242"
       id="ellipse831"
       style="fill:#ffffff;fill-opacity:1;stroke:#000000;stroke-width:1.39182687;stroke-miterlimit:4;stroke-dasharray:none;stroke-opacity:1" />
    <ellipse
       style="fill:#ffffff;fill-opacity:1;stroke:#000000;stroke-width:1.39182687;stroke-miterlimit:4;stroke-dasharray:none;stroke-opacity:1"
       id="ellipse833"
       cx="80.357224"
       cy="78.611816"
       rx="14.713599"
       ry="14.465059" />
    <ellipse
       ry="19.761187"
       rx="20.100725"
       cy="70.359901"
       cx="400.97046"
       id="ellipse835"
       style="fill:#ffffff;fill-opacity:1;stroke:#000000;stroke-width:1.90141988;stroke-miterlimit:4;stroke-dasharray:none;stroke-opacity:1" />
    <ellipse
       style="fill:#ffffff;fill-opacity:1;stroke:#000000;stroke-width:1.90141988;stroke-miterlimit:4;stroke-dasharray:none;stroke-opacity:1"
       id="ellipse837"
       cx="423.00357"
       cy="60.250599"
       rx="20.100725"
       ry="19.761187" />
    <ellipse
       ry="19.761187"
       rx="20.100725"
       cy="66.212471"
       cx="445.55505"
       id="ellipse839"
       style="fill:#ffffff;fill-opacity:1;stroke:#000000;stroke-width:1.90141988;stroke-miterlimit:4;stroke-dasharray:none;stroke-opacity:1" />
    <ellipse
       style="fill:#ffffff;fill-opacity:1;stroke:#000000;stroke-width:1.90141988;stroke-miterlimit:4;stroke-dasharray:none;stroke-opacity:1"
       id="ellipse841"
       cx="419.3746"
       cy="71.65596"
       rx="20.100725"
       ry="19.761187" />
    <ellipse
       ry="19.761187"
       rx="20.100725"
       cy="83.753159"
       cx="449.80093"
       id="ellipse843"
       style="fill:#ffffff;fill-opacity:1;stroke:#000000;stroke-width:1.90141988;stroke-miterlimit:4;stroke-dasharray:none;stroke-opacity:1" />
    <ellipse
       style="fill:#ffffff;fill-opacity:1;stroke:#000000;stroke-width:1.90141988;stroke-miterlimit:4;stroke-dasharray:none;stroke-opacity:1"
       id="ellipse845"
       cx="467.76343"
       cy="63.957703"
       rx="20.100725"
       ry="19.761187" />
    <ellipse
       ry="19.761187"
       rx="20.100725"
       cy="88.518715"
       cx="411.30978"
       id="ellipse847"
       style="fill:#ffffff;fill-opacity:1;stroke:#000000;stroke-width:1.90141988;stroke-miterlimit:4;stroke-dasharray:none;stroke-opacity:1" />
    <ellipse
       style="fill:#ffffff;fill-opacity:1;stroke:#000000;stroke-width:1.90141988;stroke-miterlimit:4;stroke-dasharray:none;stroke-opacity:1"
       id="ellipse849"
       cx="467.39685"
       cy="91.817947"
       rx="20.100725"
       ry="19.761187" />
    <ellipse
       ry="19.761187"
       rx="20.100725"
       cy="92.917717"
       cx="437.70367"
       id="ellipse851"
       style="fill:#ffffff;fill-opacity:1;stroke:#000000;stroke-width:1.90141988;stroke-miterlimit:4;stroke-dasharray:none;stroke-opacity:1" />
    <ellipse
       style="fill:#ffffff;fill-opacity:1;stroke:#000000;stroke-width:1.79246473;stroke-miterlimit:4;stroke-dasharray:none;stroke-opacity:1"
       id="ellipse853"
       cx="214.5192"
       cy="80.769348"
       rx="24.759048"
       ry="14.257256" />
    <ellipse
       ry="14.257256"
       rx="24.759048"
       cy="73.475693"
       cx="241.65848"
       id="ellipse855"
       style="fill:#ffffff;fill-opacity:1;stroke:#000000;stroke-width:1.79246473;stroke-miterlimit:4;stroke-dasharray:none;stroke-opacity:1" />
    <ellipse
       style="fill:#ffffff;fill-opacity:1;stroke:#000000;stroke-width:1.79246473;stroke-miterlimit:4;stroke-dasharray:none;stroke-opacity:1"
       id="ellipse857"
       cx="269.43616"
       cy="77.777092"
       rx="24.759048"
       ry="14.257256" />
    <ellipse
       ry="14.257256"
       rx="24.759048"
       cy="81.704399"
       cx="237.18842"
       id="ellipse859"
       style="fill:#ffffff;fill-opacity:1;stroke:#000000;stroke-width:1.79246473;stroke-miterlimit:4;stroke-dasharray:none;stroke-opacity:1" />
    <ellipse
       style="fill:#ffffff;fill-opacity:1;stroke:#000000;stroke-width:1.79246473;stroke-miterlimit:4;stroke-dasharray:none;stroke-opacity:1"
       id="ellipse861"
       cx="274.66608"
       cy="90.432259"
       rx="24.759048"
       ry="14.257256" />
    <ellipse
       ry="14.257256"
       rx="24.759048"
       cy="76.150314"
       cx="296.79138"
       id="ellipse863"
       style="fill:#ffffff;fill-opacity:1;stroke:#000000;stroke-width:1.79246473;stroke-miterlimit:4;stroke-dasharray:none;stroke-opacity:1" />
    <ellipse
       style="fill:#ffffff;fill-opacity:1;stroke:#000000;stroke-width:1.79246473;stroke-miterlimit:4;stroke-dasharray:none;stroke-opacity:1"
       id="ellipse865"
       cx="227.25467"
       cy="93.870514"
       rx="24.759048"
       ry="14.257256" />
    <ellipse
       ry="14.257256"
       rx="24.759048"
       cy="96.250854"
       cx="296.33984"
       id="ellipse867"
       style="fill:#ffffff;fill-opacity:1;stroke:#000000;stroke-width:1.79246473;stroke-miterlimit:4;stroke-dasharray:none;stroke-opacity:1" />
    <ellipse
       style="fill:#ffffff;fill-opacity:1;stroke:#000000;stroke-width:1.79246473;stroke-miterlimit:4;stroke-dasharray:none;stroke-opacity:1"
       id="ellipse869"
       cx="259.76529"
       cy="97.044327"
       rx="24.759048"
       ry="14.257256" />
    <ellipse
       ry="6.6964502"
       rx="11.629008"
       cy="148.42006"
       cx="135.43994"
       id="ellipse1125"
       style="fill:#ffffff;fill-opacity:1;stroke:#000000;stroke-width:0.84189773;stroke-miterlimit:4;stroke-dasharray:none;stroke-opacity:1" />
    <ellipse
       style="fill:#ffffff;fill-opacity:1;stroke:#000000;stroke-width:0.84189773;stroke-miterlimit:4;stroke-dasharray:none;stroke-opacity:1"
       id="ellipse1127"
       cx="148.18692"
       cy="144.99432"
       rx="11.629008"
       ry="6.6964502" />
    <ellipse
       ry="6.6964502"
       rx="11.629008"
       cy="147.01463"
       cx="161.23372"
       id="ellipse1129"
       style="fill:#ffffff;fill-opacity:1;stroke:#000000;stroke-width:0.84189773;stroke-miterlimit:4;stroke-dasharray:none;stroke-opacity:1" />
    <ellipse
       style="fill:#ffffff;fill-opacity:1;stroke:#000000;stroke-width:0.84189773;stroke-miterlimit:4;stroke-dasharray:none;stroke-opacity:1"
       id="ellipse1131"
       cx="146.08737"
       cy="148.85924"
       rx="11.629008"
       ry="6.6964502" />
    <ellipse
       ry="6.6964502"
       rx="11.629008"
       cy="152.95859"
       cx="163.69016"
       id="ellipse1133"
       style="fill:#ffffff;fill-opacity:1;stroke:#000000;stroke-width:0.84189773;stroke-miterlimit:4;stroke-dasharray:none;stroke-opacity:1" />
    <ellipse
       style="fill:#ffffff;fill-opacity:1;stroke:#000000;stroke-width:0.84189773;stroke-miterlimit:4;stroke-dasharray:none;stroke-opacity:1"
       id="ellipse1135"
       cx="174.08212"
       cy="146.25055"
       rx="11.629008"
       ry="6.6964502" />
    <ellipse
       ry="6.6964502"
       rx="11.629008"
       cy="154.5735"
       cx="141.42163"
       id="ellipse1137"
       style="fill:#ffffff;fill-opacity:1;stroke:#000000;stroke-width:0.84189773;stroke-miterlimit:4;stroke-dasharray:none;stroke-opacity:1" />
    <ellipse
       style="fill:#ffffff;fill-opacity:1;stroke:#000000;stroke-width:0.84189773;stroke-miterlimit:4;stroke-dasharray:none;stroke-opacity:1"
       id="ellipse1139"
       cx="173.87004"
       cy="155.69151"
       rx="11.629008"
       ry="6.6964502" />
    <ellipse
       ry="6.6964502"
       rx="11.629008"
       cy="156.06419"
       cx="156.69145"
       id="ellipse1141"
       style="fill:#ffffff;fill-opacity:1;stroke:#000000;stroke-width:0.84189773;stroke-miterlimit:4;stroke-dasharray:none;stroke-opacity:1" />
    <ellipse
       style="fill:#ffffff;fill-opacity:1;stroke:#000000;stroke-width:0.66921067;stroke-miterlimit:4;stroke-dasharray:none;stroke-opacity:1"
       id="ellipse1143"
       cx="289.67123"
       cy="137.2276"
       rx="7.6285343"
       ry="6.449904" />
    <ellipse
       ry="6.449904"
       rx="7.6285343"
       cy="133.92801"
       cx="298.03314"
       id="ellipse1145"
       style="fill:#ffffff;fill-opacity:1;stroke:#000000;stroke-width:0.66921067;stroke-miterlimit:4;stroke-dasharray:none;stroke-opacity:1" />
    <ellipse
       style="fill:#ffffff;fill-opacity:1;stroke:#000000;stroke-width:0.66921067;stroke-miterlimit:4;stroke-dasharray:none;stroke-opacity:1"
       id="ellipse1147"
       cx="306.59177"
       cy="135.87393"
       rx="7.6285343"
       ry="6.449904" />
    <ellipse
       ry="6.449904"
       rx="7.6285343"
       cy="137.65062"
       cx="296.65588"
       id="ellipse1149"
       style="fill:#ffffff;fill-opacity:1;stroke:#000000;stroke-width:0.66921067;stroke-miterlimit:4;stroke-dasharray:none;stroke-opacity:1" />
    <ellipse
       style="fill:#ffffff;fill-opacity:1;stroke:#000000;stroke-width:0.66921067;stroke-miterlimit:4;stroke-dasharray:none;stroke-opacity:1"
       id="ellipse1151"
       cx="308.20316"
       cy="141.59904"
       rx="7.6285343"
       ry="6.449904" />
    <ellipse
       ry="6.449904"
       rx="7.6285343"
       cy="135.13797"
       cx="315.0202"
       id="ellipse1153"
       style="fill:#ffffff;fill-opacity:1;stroke:#000000;stroke-width:0.66921067;stroke-miterlimit:4;stroke-dasharray:none;stroke-opacity:1" />
    <ellipse
       style="fill:#ffffff;fill-opacity:1;stroke:#000000;stroke-width:0.66921067;stroke-miterlimit:4;stroke-dasharray:none;stroke-opacity:1"
       id="ellipse1155"
       cx="293.59518"
       cy="143.15448"
       rx="7.6285343"
       ry="6.449904" />
    <ellipse
       ry="6.449904"
       rx="7.6285343"
       cy="144.23134"
       cx="314.88107"
       id="ellipse1157"
       style="fill:#ffffff;fill-opacity:1;stroke:#000000;stroke-width:0.66921067;stroke-miterlimit:4;stroke-dasharray:none;stroke-opacity:1" />
    <ellipse
       style="fill:#ffffff;fill-opacity:1;stroke:#000000;stroke-width:0.66921067;stroke-miterlimit:4;stroke-dasharray:none;stroke-opacity:1"
       id="ellipse1159"
       cx="303.61206"
       cy="144.59032"
       rx="7.6285343"
       ry="6.449904" />
    <ellipse
       ry="6.449904"
       rx="7.6285343"
       cy="35.582043"
       cx="340.65506"
       id="ellipse1161"
       style="fill:#ffffff;fill-opacity:1;stroke:#000000;stroke-width:0.66921067;stroke-miterlimit:4;stroke-dasharray:none;stroke-opacity:1" />
    <ellipse
       style="fill:#ffffff;fill-opacity:1;stroke:#000000;stroke-width:0.66921067;stroke-miterlimit:4;stroke-dasharray:none;stroke-opacity:1"
       id="ellipse1163"
       cx="349.01697"
       cy="32.282387"
       rx="7.6285343"
       ry="6.449904" />
    <ellipse
       ry="6.449904"
       rx="7.6285343"
       cy="34.228329"
       cx="357.57556"
       id="ellipse1165"
       style="fill:#ffffff;fill-opacity:1;stroke:#000000;stroke-width:0.66921067;stroke-miterlimit:4;stroke-dasharray:none;stroke-opacity:1" />
    <ellipse
       style="fill:#ffffff;fill-opacity:1;stroke:#000000;stroke-width:0.66921067;stroke-miterlimit:4;stroke-dasharray:none;stroke-opacity:1"
       id="ellipse1167"
       cx="347.63968"
       cy="36.005047"
       rx="7.6285343"
       ry="6.449904" />
    <ellipse
       ry="6.449904"
       rx="7.6285343"
       cy="39.953465"
       cx="359.18698"
       id="ellipse1169"
       style="fill:#ffffff;fill-opacity:1;stroke:#000000;stroke-width:0.66921067;stroke-miterlimit:4;stroke-dasharray:none;stroke-opacity:1" />
    <ellipse
       style="fill:#ffffff;fill-opacity:1;stroke:#000000;stroke-width:0.66921067;stroke-miterlimit:4;stroke-dasharray:none;stroke-opacity:1"
       id="ellipse1171"
       cx="366.004"
       cy="33.492359"
       rx="7.6285343"
       ry="6.449904" />
    <ellipse
       ry="6.449904"
       rx="7.6285343"
       cy="41.508881"
       cx="344.57898"
       id="ellipse1173"
       style="fill:#ffffff;fill-opacity:1;stroke:#000000;stroke-width:0.66921067;stroke-miterlimit:4;stroke-dasharray:none;stroke-opacity:1" />
    <ellipse
       style="fill:#ffffff;fill-opacity:1;stroke:#000000;stroke-width:0.66921067;stroke-miterlimit:4;stroke-dasharray:none;stroke-opacity:1"
       id="ellipse1175"
       cx="365.86487"
       cy="42.585732"
       rx="7.6285343"
       ry="6.449904" />
    <ellipse
       ry="6.449904"
       rx="7.6285343"
       cy="42.944702"
       cx="354.59586"
       id="ellipse1177"
       style="fill:#ffffff;fill-opacity:1;stroke:#000000;stroke-width:0.66921067;stroke-miterlimit:4;stroke-dasharray:none;stroke-opacity:1" />
  </g>
  <g
     inkscape:groupmode="layer"
     id="layer3"
     inkscape:label="Trees"
     transform="translate(0,95.25)">
    <path
       style="fill:#c87137;stroke:#000000;stroke-width:5.63505125;stroke-linecap:butt;stroke-linejoin:miter;stroke-miterlimit:4;stroke-dasharray:none;stroke-opacity:1"
       d="m 82.871321,48.846315 c 9.648012,-19.762791 17.791889,-18.465103 28.980259,1.610013 10.26462,18.417643 18.78351,126.117812 12.88012,128.264502 -5.90339,2.14668 -43.470394,5.3667 -49.910454,-1.07335 -6.440057,-6.44005 0.301746,-112.929653 8.050075,-128.801165 z"
       id="path877"
       inkscape:connector-curvature="0"
       sodipodi:nodetypes="sscss" />
    <path
       style="fill:#1a1a1a;fill-opacity:1;stroke:none;stroke-width:5.63505125;stroke-miterlimit:4;stroke-dasharray:none;stroke-opacity:1"
       id="path881"
       d="m 90.097883,44.282979 c -0.726767,0.887707 -1.389762,1.830849 -1.941411,2.837202 -0.406763,0.766398 -0.519777,1.608699 -0.571153,2.461075 -0.07196,0.833691 0.0018,1.650424 0.139132,2.471294 0.169413,0.778789 0.459332,1.522444 0.846035,2.217527 0.444369,0.767543 0.983591,1.450916 1.562067,2.117446 0.605032,0.670893 1.189007,1.361334 1.801894,2.024396 0.831106,0.975586 1.682011,1.932327 2.501046,2.918104 0.823398,0.944105 1.526982,1.987599 2.200221,3.042083 0.442863,0.891527 0.793762,1.826815 0.991716,2.803008 0.183372,1.086132 0.178921,2.191334 0.19152,3.289322 0.01179,1.316348 -0.499404,2.507607 -1.08623,3.657008 -0.646487,1.274605 -1.571681,2.36609 -2.416461,3.508066 -0.920741,1.169691 -1.80911,2.364187 -2.69781,3.558271 -0.74986,1.053945 -1.554779,2.066798 -2.282436,3.136276 -0.650868,0.903539 -1.077039,1.935022 -1.508523,2.954222 -0.519525,1.149288 -0.769796,2.37397 -0.917999,3.618147 -0.112098,1.295533 -0.108207,2.597597 -0.1141,3.896921 -0.0055,1.295718 -0.01717,2.587928 0.102145,3.87896 0.173353,1.635983 0.771916,3.179453 1.33436,4.712203 0.621262,1.64286 1.204603,3.30121 1.847767,4.93533 0.684532,1.61201 1.110804,3.30748 1.530951,5.0019 0.321847,1.35681 0.435137,2.74992 0.493529,4.13951 0.09415,1.16319 0.01548,2.29776 -0.22881,3.43556 -0.226691,1.11173 -0.800297,2.0771 -1.421261,3.00779 -0.539714,0.69542 -1.107491,1.36819 -1.664497,2.04962 -0.480808,0.58169 -0.972001,1.14805 -1.289525,1.83756 -0.256815,0.67692 -0.278668,1.40498 -0.299218,2.11982 -0.01036,0.8311 -0.0061,1.66231 -0.0092,2.49345 0.0272,1.13311 0.456992,2.18827 0.872896,3.22459 0.464956,1.02999 1.074019,1.97992 1.70863,2.91124 0.667687,0.92302 1.304891,1.86815 1.966807,2.79618 0.671607,0.70043 0.98607,1.61928 1.480872,2.42855 0.431126,0.80509 0.729969,1.67137 1.044138,2.52662 0.336818,0.87888 0.435378,1.80743 0.494907,2.73847 0.04728,0.89062 0.03572,1.7827 0.03497,2.67415 -0.0047,0.91955 -0.0057,1.83909 -0.0043,2.75866 0.03362,0.91697 -0.05154,1.82657 -0.23802,2.72374 -0.184349,0.72114 -0.456214,1.41223 -0.757103,2.09135 -0.326724,0.62398 -0.614082,1.27281 -1.010527,1.8568 -0.415116,0.63442 -0.865724,1.24304 -1.298263,1.86509 -0.441505,0.58934 -0.941662,1.13198 -1.332084,1.75739 -0.410928,0.60808 -0.82599,1.21313 -1.219493,1.83299 -0.278936,0.58914 -0.61288,1.1438 -0.953883,1.69746 -0.233457,0.54342 -0.42722,1.1132 -0.586248,1.68432 -0.158007,0.67591 -0.172223,1.37314 -0.18779,2.06377 -0.06947,0.75848 0.06564,1.47502 0.289656,2.19416 0.150408,0.66966 0.376095,1.29241 0.710885,1.8887 0.248971,0.61694 0.635273,1.14218 1.107314,1.60533 0.514675,0.56131 1.187208,0.69402 1.90888,0.77971 0,0 -4.599347,3.23297 -4.599347,3.23297 v 0 c -0.816977,-0.1584 -1.544661,-0.44477 -2.119369,-1.07466 -0.480667,-0.51517 -0.922281,-1.06928 -1.188838,-1.7289 -0.350319,-0.63182 -0.604844,-1.28594 -0.752459,-1.99646 -0.246256,-0.76898 -0.453555,-1.53519 -0.378278,-2.35294 0.0082,-0.72351 0.01458,-1.45061 0.126125,-2.1672 0.121455,-0.62503 0.377973,-1.19354 0.524353,-1.8106 0.266778,-0.60719 0.74595,-1.08832 0.954364,-1.72822 0.34751,-0.64606 0.771871,-1.26245 1.211858,-1.84117 0.385635,-0.64802 0.801238,-1.25233 1.316348,-1.80791 0.470457,-0.58754 0.871202,-1.21797 1.301048,-1.83676 0.123244,-0.18447 0.275854,-0.34816 0.398634,-0.53293 0.257835,-0.38797 0.341515,-0.87813 0.662107,-1.23166 0.279943,-0.66806 0.601224,-1.31725 0.790629,-2.02 0.288838,-0.82598 0.329087,-1.72487 0.311472,-2.5933 0.0034,-0.92018 0.0055,-1.84035 0.0065,-2.76053 0.003,-0.88184 0.0048,-1.76398 -0.01991,-2.64554 -0.04103,-0.87899 -0.111842,-1.75981 -0.413503,-2.59486 -0.297197,-0.82307 -0.59883,-1.64996 -1.003036,-2.42708 -0.473949,-0.80635 -0.781044,-1.70742 -1.43675,-2.40315 -0.661304,-0.93248 -1.298523,-1.88184 -1.967358,-2.80868 -0.659118,-0.96597 -1.285243,-1.95129 -1.77624,-3.01581 -0.428267,-1.1005 -0.88524,-2.21525 -0.980071,-3.40457 -0.0082,-0.83241 -0.0184,-1.66485 -0.01335,-2.49732 0.01051,-0.76824 0.02063,-1.54501 0.212668,-2.29394 0.244201,-0.76523 0.666217,-1.42109 1.235169,-1.99091 0.513943,-0.71175 1.11494,-1.36415 1.672709,-2.04089 0.673798,-0.82884 1.243925,-1.77002 1.537639,-2.80312 0.08323,-0.37034 0.191299,-0.73579 0.252263,-1.11045 0.11826,-0.72671 0.02333,-1.46857 0.04165,-2.19977 -0.04138,-1.3597 -0.114469,-2.72382 -0.415507,-4.05536 -0.387258,-1.67783 -0.805636,-3.34937 -1.478693,-4.94019 -0.653234,-1.63438 -1.23896,-3.2972 -1.845984,-4.94959 -0.593475,-1.56836 -1.217756,-3.14638 -1.442692,-4.81903 -0.12871,-1.307233 -0.156069,-2.612081 -0.12854,-3.925958 -0.0027,-1.316064 0.0027,-2.63271 0.08929,-3.946588 0.107455,-1.284202 0.335058,-2.557798 0.837955,-3.752479 0.396472,-1.057267 0.849282,-2.11195 1.458562,-3.065184 0.733267,-1.081248 1.525206,-2.113015 2.298375,-3.165767 0.873795,-1.204222 1.765842,-2.398888 2.701538,-3.555403 0.811039,-1.146008 1.76231,-2.193705 2.432445,-3.434928 0.598976,-1.050253 1.144171,-2.168801 1.197215,-3.397956 -0.0068,-1.064508 -0.01037,-2.13454 -0.15929,-3.190628 C 92.50719,68.906287 92.190327,68.030307 91.793222,67.192834 91.146049,66.151 90.460406,65.126049 89.652723,64.200602 88.838541,63.220561 87.98175,62.279239 87.138134,61.32467 86.5214,60.655336 85.922206,59.969291 85.315886,59.290088 c -0.597033,-0.698639 -1.144513,-1.424511 -1.616549,-2.215566 -0.423767,-0.749102 -0.73991,-1.54814 -0.944935,-2.38519 -0.14321,-0.858477 -0.267714,-1.706331 -0.186982,-2.580891 0.03118,-0.917029 0.09408,-1.83386 0.478783,-2.683588 0.508496,-1.049333 1.195695,-1.988526 1.86627,-2.938743 0,0 5.185359,-2.203131 5.185359,-2.203131 z"
       inkscape:connector-curvature="0" />
    <path
       style="fill:#1a1a1a;fill-opacity:1;stroke:none;stroke-width:5.63505125;stroke-miterlimit:4;stroke-dasharray:none;stroke-opacity:1"
       id="path883"
       d="m 105.58274,48.285492 c -0.7854,0.01593 -1.58291,-0.086 -2.36242,0.05092 -0.16415,0.02885 -0.88706,0.228369 -1.05697,0.274385 -0.25896,0.143022 -0.54242,0.236124 -0.80386,0.373901 -0.12026,0.06337 -0.46783,0.277038 -0.34969,0.2098 8.01017,-4.559015 5.26923,-3.474869 3.93365,-2.050791 -0.55827,0.815164 -0.59997,1.819829 -0.65813,2.77408 -0.0379,0.966224 -0.0244,1.93345 -0.0165,2.900102 0.006,0.795549 0.0129,1.591114 0.008,2.386681 0.0581,0.803254 0.30648,1.582022 0.54301,2.348339 0.2604,1.085058 0.6154,2.143291 0.9033,3.220506 0.39617,1.305458 0.60445,2.651325 0.72199,4.00706 0.0969,1.326045 0.0942,2.656777 0.0995,3.985577 -0.0228,1.141975 0.0493,2.28635 -0.0282,3.426395 -0.12174,0.89228 -0.41165,1.74114 -0.7334,2.576924 -0.26245,0.765316 -0.63178,1.465561 -1.10654,2.117885 -0.37684,0.610623 -0.92593,1.07368 -1.43485,1.567222 -0.45838,0.407598 -0.87281,0.861071 -1.32742,1.273539 -0.47549,0.435768 -0.56983,1.038738 -0.63547,1.648722 -0.0533,0.741321 -0.044,1.485354 -0.0418,2.22808 0.0256,0.788418 0.31151,1.51544 0.63471,2.222727 0.49378,0.935018 0.95221,1.88997 1.40189,2.847208 0.47203,0.921515 0.74767,1.899156 0.89421,2.91857 0.10896,0.977996 0.11454,1.964568 0.11396,2.947591 -0.14342,1.33536 -0.71643,2.586196 -1.34702,3.75698 -0.58297,1.018846 -1.15398,2.047285 -1.62328,3.124205 -0.21514,0.44514 -0.25157,0.8375 -0.15084,1.3083 0,0 -4.959453,2.67867 -4.959453,2.67867 v 0 c -0.153543,-0.56948 -0.238734,-1.07287 0.01525,-1.6372 0.436123,-1.11612 1.033739,-2.1619 1.625469,-3.20156 0.644717,-1.081355 1.177868,-2.243464 1.440312,-3.48101 -0.0037,-0.961143 0.0089,-1.924472 -0.08095,-2.88259 -0.116258,-0.968427 -0.352618,-1.901613 -0.811553,-2.770735 -0.43752,-0.96093 -0.893459,-1.916521 -1.403562,-2.84096 -0.376283,-0.771635 -0.684501,-1.569565 -0.764328,-2.432482 -0.0034,-0.756443 -0.01235,-1.513325 0.01623,-2.269412 0.04054,-0.687792 0.08557,-1.400034 0.466469,-1.997112 0.404733,-0.473096 0.927759,-0.823459 1.306863,-1.324186 0.554533,-0.410863 1.046391,-0.926242 1.513196,-1.431413 0.40416,-0.656896 0.938337,-1.222424 1.153237,-1.992029 0.28549,-0.816303 0.66349,-1.594228 0.81794,-2.455242 0.13179,-1.123333 0.0391,-2.2621 0.0735,-3.390984 10e-4,-1.315965 0.002,-2.633108 -0.076,-3.947269 -0.10246,-1.324683 -0.2764,-2.645049 -0.68508,-3.915081 -0.27904,-1.068726 -0.65925,-2.10752 -0.912668,-3.183544 -0.266902,-0.815082 -0.524474,-1.645569 -0.627967,-2.498516 -0.0068,-0.794904 -0.0041,-1.589848 -0.0074,-2.384774 -0.0018,-0.978905 -0.0043,-1.95801 0.02287,-2.936643 0.03663,-1.031898 0.07065,-2.099458 0.500629,-3.056039 1.314476,-2.363412 4.358036,-3.274771 6.833606,-4.171015 1.16419,-0.252357 2.33494,-0.242177 3.52215,-0.234512 0,0 -4.55684,3.310739 -4.55684,3.310739 z"
       inkscape:connector-curvature="0" />
    <path
       style="fill:#1a1a1a;fill-opacity:1;stroke:none;stroke-width:5.63505125;stroke-miterlimit:4;stroke-dasharray:none;stroke-opacity:1"
       id="path885"
       d="m 110.59796,98.660579 c -1.71696,0.843792 -2.85151,1.415351 3.56305,-2.062411 0.22736,-0.123243 -0.42722,0.291823 -0.63504,0.44575 -0.58322,0.431976 -1.05756,0.889255 -1.51957,1.445341 -0.65984,0.849046 -0.82167,1.850611 -0.90595,2.889291 -0.11331,1.3618 0.20352,2.66614 0.62686,3.94686 0.59335,1.77499 1.47571,3.43374 2.34306,5.08608 0.86461,1.81065 1.84554,3.55916 2.67176,5.38755 0.82223,1.49672 1.18368,3.15227 1.51613,4.80921 0.3048,1.58081 0.36286,3.19046 0.39919,4.79517 -0.0161,1.45688 -0.27072,2.90226 -0.62563,4.31183 -0.2919,0.85084 -0.54904,1.7125 -0.82663,2.56803 -0.21073,0.75358 -0.40216,1.51235 -0.62008,2.26422 -0.28056,0.74911 -0.42101,1.52783 -0.49201,2.32115 -0.0643,0.98332 -0.0638,1.96939 -0.0624,2.95436 -0.0844,1.00513 0.16988,1.92507 0.55704,2.84126 0.42058,1.03813 0.8799,2.06955 1.47125,3.02262 0.50347,0.85556 0.9104,1.75701 1.28616,2.6741 0.33122,0.80467 0.42181,1.66117 0.46926,2.52082 0.0203,0.59484 0.0124,0.29898 0.0242,0.88753 0,0 -5.00415,2.55924 -5.00415,2.55924 v 0 c -0.006,-0.5789 -0.001,-0.28855 -0.0143,-0.87102 -0.0344,-0.79859 -0.0912,-1.60119 -0.38068,-2.35558 -0.35326,-0.89302 -0.73885,-1.77058 -1.22904,-2.5986 -0.59541,-0.98146 -1.06598,-2.03674 -1.50486,-3.09596 -0.42596,-0.97167 -0.76859,-1.96175 -0.67244,-3.03824 0.002,-0.99554 -0.009,-1.99183 0.0341,-2.98665 0.0497,-0.8284 0.13092,-1.6546 0.42662,-2.43826 0.26467,-0.73632 0.42594,-1.50743 0.62163,-2.26385 0.27224,-0.85678 0.51988,-1.72123 0.863,-2.55405 0.38439,-1.36646 0.69327,-2.7648 0.73355,-4.18963 -0.0328,-1.5744 -0.0821,-3.15467 -0.35716,-4.70913 -0.31133,-1.61997 -0.65187,-3.23911 -1.43487,-4.70976 -0.81148,-1.82316 -1.781,-3.56505 -2.64811,-5.36211 -0.87763,-1.67719 -1.8027,-3.34719 -2.40193,-5.14937 -0.47398,-1.32974 -0.86349,-2.6838 -0.77443,-4.11345 0.0377,-1.11932 0.16135,-2.2318 0.78082,-3.19851 1.92205,-2.724108 5.31504,-3.975256 8.1145,-5.547803 0,0 -4.393,3.513972 -4.393,3.513972 z"
       inkscape:connector-curvature="0" />
    <path
       style="fill:#1a1a1a;fill-opacity:1;stroke:none;stroke-width:5.63505125;stroke-miterlimit:4;stroke-dasharray:none;stroke-opacity:1"
       id="path887"
       d="m 103.30584,127.59767 c -0.1837,0.0379 -0.3685,0.0707 -0.55111,0.11359 -0.38081,0.0894 -1.13502,0.28886 -1.48604,0.42475 -0.26144,0.10124 -1.00463,0.4961 -0.76274,0.35437 4.86078,-2.84792 5.08296,-3.07112 3.2046,-1.65148 -1.73727,1.52294 -2.89374,3.55105 -3.956402,5.57198 -0.708986,1.35076 -1.039919,2.79951 -1.165711,4.30559 -0.07105,1.55224 0.386751,3.01293 0.94413,4.43784 0.544783,1.29667 1.316243,2.45566 2.196713,3.54386 0.69135,0.71781 1.46367,1.35053 2.1534,2.06953 0.42141,0.43923 0.87546,0.81964 1.39127,1.14227 0.54501,0.45083 0.89542,1.04588 1.26312,1.63752 0.54679,0.96513 1.1297,1.91321 1.60583,2.91587 0.52084,0.94332 0.79355,1.9698 0.95845,3.02647 0.2026,1.16441 -0.18901,2.25809 -0.66745,3.30102 -0.44257,0.94618 -1.03246,1.80862 -1.5239,2.72835 -0.44776,0.71332 -0.76642,1.49443 -1.21626,2.20545 -0.40092,0.56959 -0.53964,1.22367 -0.61402,1.90201 0,0 -5.0408,2.51351 -5.0408,2.51351 v 0 c 0.0489,-0.74074 0.12678,-1.48842 0.50129,-2.14675 0.13525,-0.21262 0.2978,-0.40733 0.42898,-0.62249 0.30389,-0.49849 0.43723,-1.09423 0.81576,-1.5528 0.50289,-0.91883 1.05238,-1.80307 1.55623,-2.72094 0.49382,-0.92266 0.93785,-1.91676 0.79388,-2.98843 -0.12715,-1.00984 -0.36438,-1.98755 -0.86573,-2.88457 -0.46269,-0.98263 -1.02922,-1.91235 -1.581,-2.84691 -0.34,-0.5144 -0.66875,-1.04871 -1.17037,-1.42411 -0.523124,-0.37276 -1.008493,-0.77622 -1.438982,-1.25562 -0.698441,-0.72877 -1.472141,-1.38045 -2.144106,-2.13452 -0.901015,-1.14352 -1.696617,-2.35415 -2.265091,-3.70117 -0.570365,-1.50034 -1.088332,-3.02046 -1.065416,-4.64995 0.09203,-1.58642 0.382627,-3.10534 1.119158,-4.536 1.067569,-2.05283 2.205642,-4.12549 3.857427,-5.77221 2.58447,-2.28016 5.81151,-4.20805 9.28173,-4.61682 0,0 -4.55684,3.31075 -4.55684,3.31075 z"
       inkscape:connector-curvature="0" />
    <circle
       style="fill:#008000;fill-opacity:1;stroke:#000000;stroke-width:1.75873256;stroke-miterlimit:4;stroke-dasharray:none;stroke-opacity:1"
       id="path893"
       cx="73.344711"
       cy="72.057236"
       r="10.304212" />
    <circle
       r="10.304212"
       cy="54.646679"
       cx="77.608521"
       id="circle895"
       style="fill:#008000;fill-opacity:1;stroke:#000000;stroke-width:1.75873256;stroke-miterlimit:4;stroke-dasharray:none;stroke-opacity:1" />
    <circle
       style="fill:#008000;fill-opacity:1;stroke:#000000;stroke-width:1.75873256;stroke-miterlimit:4;stroke-dasharray:none;stroke-opacity:1"
       id="circle897"
       cx="89.334"
       cy="57.844536"
       r="10.304212" />
    <circle
       r="10.304212"
       cy="43.276505"
       cx="88.268051"
       id="circle899"
       style="fill:#008000;fill-opacity:1;stroke:#000000;stroke-width:1.75873256;stroke-miterlimit:4;stroke-dasharray:none;stroke-opacity:1" />
    <circle
       style="fill:#008000;fill-opacity:1;stroke:#000000;stroke-width:1.75873256;stroke-miterlimit:4;stroke-dasharray:none;stroke-opacity:1"
       id="circle901"
       cx="106.74457"
       cy="47.185005"
       r="10.304212" />
    <circle
       r="10.304212"
       cy="47.185005"
       cx="106.74457"
       id="circle903"
       style="fill:#008000;fill-opacity:1;stroke:#000000;stroke-width:1.75873256;stroke-miterlimit:4;stroke-dasharray:none;stroke-opacity:1"
       inkscape:transform-center-x="-2.1319049"
       inkscape:transform-center-y="-13.502066" />
    <circle
       inkscape:transform-center-y="-13.502073"
       inkscape:transform-center-x="-2.1318926"
       style="fill:#008000;fill-opacity:1;stroke:#000000;stroke-width:1.75873256;stroke-miterlimit:4;stroke-dasharray:none;stroke-opacity:1"
       id="circle905"
       cx="102.83607"
       cy="59.621113"
       r="10.304212" />
    <circle
       r="10.304212"
       cy="71.701904"
       cx="112.78497"
       id="circle907"
       style="fill:#008000;fill-opacity:1;stroke:#000000;stroke-width:1.75873256;stroke-miterlimit:4;stroke-dasharray:none;stroke-opacity:1"
       inkscape:transform-center-x="-2.1319085"
       inkscape:transform-center-y="-13.502084" />
    <circle
       inkscape:transform-center-y="-13.502055"
       inkscape:transform-center-x="-2.1319028"
       style="fill:#008000;fill-opacity:1;stroke:#000000;stroke-width:1.75873256;stroke-miterlimit:4;stroke-dasharray:none;stroke-opacity:1"
       id="circle909"
       cx="92.53186"
       cy="70.280655"
       r="10.304212" />
    <circle
       r="10.304212"
       cy="59.621113"
       cx="63.751137"
       id="circle911"
       style="fill:#008000;fill-opacity:1;stroke:#000000;stroke-width:1.75873256;stroke-miterlimit:4;stroke-dasharray:none;stroke-opacity:1"
       inkscape:transform-center-x="-2.1319071"
       inkscape:transform-center-y="-13.502073" />
    <circle
       inkscape:transform-center-y="-13.502074"
       inkscape:transform-center-x="-2.1319071"
       style="fill:#008000;fill-opacity:1;stroke:#000000;stroke-width:1.75873256;stroke-miterlimit:4;stroke-dasharray:none;stroke-opacity:1"
       id="circle913"
       cx="63.751137"
       cy="36.525463"
       r="10.304212" />
    <circle
       r="10.304212"
       cy="26.931883"
       cx="83.29361"
       id="circle915"
       style="fill:#008000;fill-opacity:1;stroke:#000000;stroke-width:1.75873256;stroke-miterlimit:4;stroke-dasharray:none;stroke-opacity:1"
       inkscape:transform-center-x="-2.1319075"
       inkscape:transform-center-y="-13.502076" />
    <circle
       inkscape:transform-center-y="-13.502069"
       inkscape:transform-center-x="-2.1319094"
       style="fill:#008000;fill-opacity:1;stroke:#000000;stroke-width:1.75873256;stroke-miterlimit:4;stroke-dasharray:none;stroke-opacity:1"
       id="circle917"
       cx="75.121307"
       cy="38.302059"
       r="10.304212" />
    <circle
       r="10.304212"
       cy="46.474361"
       cx="54.157558"
       id="circle919"
       style="fill:#008000;fill-opacity:1;stroke:#000000;stroke-width:1.75873256;stroke-miterlimit:4;stroke-dasharray:none;stroke-opacity:1"
       inkscape:transform-center-x="-2.131904"
       inkscape:transform-center-y="-13.502075" />
    <circle
       inkscape:transform-center-y="-13.502072"
       inkscape:transform-center-x="-2.1319063"
       style="fill:#008000;fill-opacity:1;stroke:#000000;stroke-width:1.75873256;stroke-miterlimit:4;stroke-dasharray:none;stroke-opacity:1"
       id="circle921"
       cx="68.725586"
       cy="49.316902"
       r="10.304212" />
    <circle
       r="10.304212"
       cy="29.419111"
       cx="98.927589"
       id="circle923"
       style="fill:#008000;fill-opacity:1;stroke:#000000;stroke-width:1.75873256;stroke-miterlimit:4;stroke-dasharray:none;stroke-opacity:1"
       inkscape:transform-center-x="-2.1319082"
       inkscape:transform-center-y="-13.502073" />
    <circle
       inkscape:transform-center-y="-13.502074"
       inkscape:transform-center-x="-2.1319024"
       style="fill:#008000;fill-opacity:1;stroke:#000000;stroke-width:1.75873256;stroke-miterlimit:4;stroke-dasharray:none;stroke-opacity:1"
       id="circle925"
       cx="113.14029"
       cy="26.576563"
       r="10.304212" />
    <circle
       r="10.304212"
       cy="37.236107"
       cx="117.04879"
       id="circle927"
       style="fill:#008000;fill-opacity:1;stroke:#000000;stroke-width:1.75873256;stroke-miterlimit:4;stroke-dasharray:none;stroke-opacity:1"
       inkscape:transform-center-x="-2.1319096"
       inkscape:transform-center-y="-13.502064" />
    <circle
       inkscape:transform-center-y="-13.502075"
       inkscape:transform-center-x="-2.1319053"
       style="fill:#008000;fill-opacity:1;stroke:#000000;stroke-width:1.75873256;stroke-miterlimit:4;stroke-dasharray:none;stroke-opacity:1"
       id="circle929"
       cx="122.37855"
       cy="49.672211"
       r="10.304212" />
    <circle
       r="10.304212"
       cy="59.976421"
       cx="122.37855"
       id="circle931"
       style="fill:#008000;fill-opacity:1;stroke:#000000;stroke-width:1.75873256;stroke-miterlimit:4;stroke-dasharray:none;stroke-opacity:1"
       inkscape:transform-center-x="-2.1319053"
       inkscape:transform-center-y="-13.502077" />
    <circle
       inkscape:transform-center-y="-13.502077"
       inkscape:transform-center-x="-2.1318987"
       style="fill:#008000;fill-opacity:1;stroke:#000000;stroke-width:1.75873256;stroke-miterlimit:4;stroke-dasharray:none;stroke-opacity:1"
       id="circle933"
       cx="129.48489"
       cy="66.372139"
       r="10.304212" />
    <circle
       r="10.304212"
       cy="55.712608"
       cx="135.16998"
       id="circle935"
       style="fill:#008000;fill-opacity:1;stroke:#000000;stroke-width:1.75873256;stroke-miterlimit:4;stroke-dasharray:none;stroke-opacity:1"
       inkscape:transform-center-x="-2.1319036"
       inkscape:transform-center-y="-13.502074" />
    <circle
       inkscape:transform-center-y="-13.502066"
       inkscape:transform-center-x="-2.1319066"
       style="fill:#008000;fill-opacity:1;stroke:#000000;stroke-width:1.75873256;stroke-miterlimit:4;stroke-dasharray:none;stroke-opacity:1"
       id="circle937"
       cx="141.5657"
       cy="43.631813"
       r="10.304212" />
    <circle
       r="10.304212"
       cy="26.931883"
       cx="136.59126"
       id="circle939"
       style="fill:#008000;fill-opacity:1;stroke:#000000;stroke-width:1.75873256;stroke-miterlimit:4;stroke-dasharray:none;stroke-opacity:1"
       inkscape:transform-center-x="-2.131915"
       inkscape:transform-center-y="-13.502066" />
    <circle
       inkscape:transform-center-y="-13.502066"
       inkscape:transform-center-x="-2.1319045"
       style="fill:#008000;fill-opacity:1;stroke:#000000;stroke-width:1.75873256;stroke-miterlimit:4;stroke-dasharray:none;stroke-opacity:1"
       id="circle941"
       cx="127.353"
       cy="26.931883"
       r="10.304212" />
    <circle
       r="10.304212"
       cy="37.591415"
       cx="92.887184"
       id="circle943"
       style="fill:#008000;fill-opacity:1;stroke:#000000;stroke-width:1.75873256;stroke-miterlimit:4;stroke-dasharray:none;stroke-opacity:1"
       inkscape:transform-center-x="-2.1319044"
       inkscape:transform-center-y="-13.502068" />
    <circle
       inkscape:transform-center-y="-13.502069"
       inkscape:transform-center-x="-2.1319198"
       style="fill:#008000;fill-opacity:1;stroke:#000000;stroke-width:1.75873256;stroke-miterlimit:4;stroke-dasharray:none;stroke-opacity:1"
       id="circle945"
       cx="114.20625"
       cy="9.5213108"
       r="10.304212" />
    <circle
       r="10.304212"
       cy="7.3893991"
       cx="129.48489"
       id="circle947"
       style="fill:#008000;fill-opacity:1;stroke:#000000;stroke-width:1.75873256;stroke-miterlimit:4;stroke-dasharray:none;stroke-opacity:1"
       inkscape:transform-center-x="-2.1318987"
       inkscape:transform-center-y="-13.502073" />
    <circle
       inkscape:transform-center-y="-13.502072"
       inkscape:transform-center-x="-2.1319033"
       style="fill:#008000;fill-opacity:1;stroke:#000000;stroke-width:1.75873256;stroke-miterlimit:4;stroke-dasharray:none;stroke-opacity:1"
       id="circle949"
       cx="96.085037"
       cy="12.008528"
       r="10.304212" />
    <circle
       r="10.304212"
       cy="32.616951"
       cx="48.827793"
       id="circle951"
       style="fill:#008000;fill-opacity:1;stroke:#000000;stroke-width:1.75873256;stroke-miterlimit:4;stroke-dasharray:none;stroke-opacity:1"
       inkscape:transform-center-x="-2.1319083"
       inkscape:transform-center-y="-13.502072" />
    <circle
       inkscape:transform-center-y="-13.502069"
       inkscape:transform-center-x="-2.1319046"
       style="fill:#008000;fill-opacity:1;stroke:#000000;stroke-width:1.75873256;stroke-miterlimit:4;stroke-dasharray:none;stroke-opacity:1"
       id="circle953"
       cx="76.897888"
       cy="14.851077"
       r="10.304212" />
    <circle
       inkscape:transform-center-y="-13.502069"
       inkscape:transform-center-x="-2.1319063"
       style="fill:#008000;fill-opacity:1;stroke:#000000;stroke-width:1.75873256;stroke-miterlimit:4;stroke-dasharray:none;stroke-opacity:1"
       id="circle955"
       cx="59.84264"
       cy="18.048937"
       r="10.304212" />
    <circle
       r="10.304212"
       cy="30.485054"
       cx="71.568123"
       id="circle957"
       style="fill:#008000;fill-opacity:1;stroke:#000000;stroke-width:1.75873256;stroke-miterlimit:4;stroke-dasharray:none;stroke-opacity:1"
       inkscape:transform-center-x="-2.1319063"
       inkscape:transform-center-y="-13.502066" />
    <circle
       r="10.304212"
       cy="40.789276"
       cx="123.79982"
       id="circle959"
       style="fill:#008000;fill-opacity:1;stroke:#000000;stroke-width:1.75873256;stroke-miterlimit:4;stroke-dasharray:none;stroke-opacity:1"
       inkscape:transform-center-x="-2.131909"
       inkscape:transform-center-y="-13.502066" />
    <circle
       r="10.304212"
       cy="-0.42758918"
       cx="84.714882"
       id="circle961"
       style="fill:#008000;fill-opacity:1;stroke:#000000;stroke-width:1.75873256;stroke-miterlimit:4;stroke-dasharray:none;stroke-opacity:1"
       inkscape:transform-center-x="-2.1319112"
       inkscape:transform-center-y="-13.502069" />
    <path
       sodipodi:nodetypes="sscss"
       inkscape:connector-curvature="0"
       id="path965"
       d="m 232.25693,58.980588 c 8.65838,-17.735643 15.96691,-16.571065 26.00765,1.444874 9.21173,16.528466 16.8568,113.181418 11.55895,115.107908 -5.29785,1.92649 -39.01148,4.81622 -44.79094,-0.96324 -5.77948,-5.77948 0.27079,-101.346034 7.22434,-115.589542 z"
       style="fill:#c87137;stroke:#000000;stroke-width:5.05704212;stroke-linecap:butt;stroke-linejoin:miter;stroke-miterlimit:4;stroke-dasharray:none;stroke-opacity:1" />
    <path
       inkscape:connector-curvature="0"
       d="m 238.74225,54.885332 c -0.65223,0.796652 -1.24722,1.643052 -1.74228,2.54618 -0.36505,0.687785 -0.46647,1.443695 -0.51257,2.208628 -0.0646,0.748178 0.001,1.481136 0.12481,2.217814 0.15203,0.698895 0.41219,1.36627 0.75925,1.990055 0.39879,0.688815 0.8827,1.302093 1.40184,1.900264 0.54296,0.602075 1.06703,1.221686 1.61707,1.816733 0.74585,0.875526 1.50946,1.734126 2.24449,2.618796 0.73894,0.847256 1.37035,1.783722 1.97454,2.730041 0.39743,0.800074 0.71234,1.639436 0.88999,2.515487 0.16457,0.974731 0.16058,1.966571 0.17188,2.951936 0.01,1.18132 -0.44818,2.250386 -0.9748,3.281883 -0.58019,1.143864 -1.41047,2.123394 -2.16861,3.148231 -0.8263,1.049713 -1.62354,2.12169 -2.42108,3.193283 -0.67294,0.945837 -1.3953,1.8548 -2.04832,2.81458 -0.5841,0.810865 -0.96657,1.73654 -1.35379,2.651197 -0.46623,1.031397 -0.69083,2.130464 -0.82385,3.247024 -0.10066,1.162635 -0.0971,2.331148 -0.10237,3.497186 -0.006,1.16282 -0.0155,2.32249 0.0916,3.48109 0.15559,1.46817 0.69275,2.85333 1.19751,4.22886 0.55753,1.47433 1.08104,2.96258 1.65824,4.42909 0.61431,1.44665 0.99685,2.96823 1.3739,4.48883 0.28885,1.21764 0.39051,2.46786 0.44291,3.71491 0.0845,1.04388 0.0142,2.06206 -0.20534,3.08316 -0.20345,0.99769 -0.7182,1.86405 -1.27548,2.69926 -0.48436,0.6241 -0.99388,1.22785 -1.49376,1.8394 -0.43149,0.52201 -0.8723,1.03029 -1.15725,1.64907 -0.23047,0.60747 -0.25008,1.26086 -0.26853,1.90237 -0.009,0.74585 -0.006,1.4918 -0.007,2.23769 0.0244,1.01689 0.41009,1.96382 0.78334,2.89384 0.41727,0.92434 0.96386,1.77682 1.53338,2.61262 0.5992,0.82834 1.17104,1.67652 1.76506,2.50936 0.60272,0.62859 0.88493,1.45318 1.32897,2.17945 0.38691,0.7225 0.65509,1.49992 0.93704,2.26746 0.30227,0.78871 0.39073,1.62202 0.44414,2.45757 0.0425,0.79926 0.0321,1.59985 0.0314,2.39985 -0.004,0.82522 -0.006,1.65044 -0.004,2.47569 0.0302,0.82292 -0.0463,1.63922 -0.2136,2.44435 -0.16543,0.64719 -0.40942,1.26738 -0.67945,1.87684 -0.2932,0.55997 -0.55109,1.14226 -0.90686,1.66634 -0.37254,0.56935 -0.77693,1.11554 -1.16509,1.67378 -0.39624,0.52888 -0.84508,1.01587 -1.19546,1.57712 -0.36877,0.54571 -0.74126,1.0887 -1.0944,1.64497 -0.25033,0.52872 -0.55002,1.02649 -0.85604,1.52335 -0.2095,0.48769 -0.38341,0.99901 -0.52612,1.51155 -0.14184,0.60659 -0.15456,1.23231 -0.16852,1.85209 -0.0623,0.68068 0.0589,1.32372 0.25994,1.9691 0.13502,0.60097 0.33751,1.15984 0.63798,1.69497 0.22343,0.55365 0.5701,1.02502 0.99371,1.44065 0.4619,0.50374 1.06545,0.62285 1.71309,0.69975 0,0 -4.12757,2.90135 -4.12757,2.90135 v 0 c -0.73318,-0.14216 -1.38621,-0.39915 -1.90198,-0.96444 -0.43136,-0.46232 -0.82769,-0.9596 -1.06689,-1.55156 -0.31438,-0.56701 -0.5428,-1.15403 -0.67528,-1.79168 -0.221,-0.69009 -0.40703,-1.37771 -0.33948,-2.11158 0.007,-0.6493 0.0128,-1.30182 0.11317,-1.9449 0.1089,-0.56093 0.3392,-1.07112 0.47056,-1.62488 0.23942,-0.5449 0.66944,-0.97669 0.85647,-1.55095 0.31188,-0.57979 0.6927,-1.13296 1.08756,-1.65232 0.34609,-0.58154 0.71904,-1.12387 1.18132,-1.62247 0.42221,-0.52726 0.78184,-1.09303 1.1676,-1.64835 0.11061,-0.16554 0.24755,-0.31245 0.35775,-0.47826 0.23138,-0.34818 0.30647,-0.78807 0.59419,-1.10533 0.25122,-0.59954 0.53955,-1.18213 0.70952,-1.8128 0.25921,-0.74125 0.29534,-1.54794 0.27953,-2.32729 0.003,-0.8258 0.006,-1.65157 0.006,-2.47738 0.003,-0.79138 0.004,-1.58304 -0.0179,-2.37416 -0.0368,-0.78883 -0.10039,-1.57931 -0.37108,-2.32871 -0.26671,-0.73864 -0.5374,-1.48071 -0.90015,-2.17813 -0.42533,-0.72363 -0.70094,-1.53228 -1.28938,-2.15665 -0.59348,-0.83682 -1.16534,-1.6888 -1.76557,-2.52057 -0.59151,-0.86689 -1.1534,-1.75115 -1.59404,-2.70647 -0.38433,-0.98762 -0.79444,-1.98802 -0.87954,-3.05536 -0.007,-0.74701 -0.0166,-1.49407 -0.0114,-2.24115 0.009,-0.68944 0.0185,-1.38653 0.19085,-2.05864 0.21916,-0.68674 0.59789,-1.27533 1.10849,-1.7867 0.46122,-0.63874 1.00057,-1.22423 1.50112,-1.83154 0.60469,-0.74382 1.11634,-1.58847 1.37993,-2.51559 0.0747,-0.33236 0.17168,-0.66033 0.22638,-0.99655 0.10621,-0.65217 0.0209,-1.31794 0.0374,-1.97413 -0.0371,-1.22024 -0.10266,-2.44444 -0.3729,-3.6394 -0.34754,-1.50571 -0.723,-3.00581 -1.32701,-4.43344 -0.58623,-1.46674 -1.11189,-2.95901 -1.65663,-4.44189 -0.53262,-1.40749 -1.09286,-2.82365 -1.29473,-4.32473 -0.11543,-1.17315 -0.13999,-2.34415 -0.11529,-3.52325 -0.003,-1.18108 0.003,-2.36267 0.0802,-3.541776 0.0964,-1.152482 0.3007,-2.295437 0.752,-3.36757 0.35582,-0.948819 0.76218,-1.895323 1.30895,-2.750786 0.65806,-0.970329 1.36877,-1.896274 2.06263,-2.841031 0.78417,-1.080709 1.58473,-2.152828 2.42444,-3.190714 0.72785,-1.028458 1.58154,-1.968686 2.18293,-3.082605 0.53754,-0.942514 1.02681,-1.946338 1.07442,-3.04941 -0.006,-0.955321 -0.009,-1.915583 -0.14295,-2.863351 -0.15112,-0.819001 -0.43547,-1.605133 -0.79185,-2.356705 -0.58084,-0.93496 -1.19616,-1.854785 -1.921,-2.685301 -0.73066,-0.879516 -1.49956,-1.724287 -2.25664,-2.580943 -0.55348,-0.600669 -1.09122,-1.216347 -1.63534,-1.825877 -0.53579,-0.62698 -1.02711,-1.278395 -1.45074,-1.988309 -0.3803,-0.672273 -0.664,-1.389342 -0.848,-2.140531 -0.1285,-0.770428 -0.24026,-1.531314 -0.1678,-2.316168 0.028,-0.822962 0.0845,-1.645754 0.42966,-2.408316 0.45634,-0.941705 1.07306,-1.784558 1.67485,-2.637308 0,0 4.65347,-1.977147 4.65347,-1.977147 z"
       id="path967"
       style="fill:#1a1a1a;fill-opacity:1;stroke:none;stroke-width:5.05704212;stroke-miterlimit:4;stroke-dasharray:none;stroke-opacity:1" />
    <path
       inkscape:connector-curvature="0"
       d="m 252.63875,58.477292 c -0.70483,0.0143 -1.42055,-0.07718 -2.1201,0.04569 -0.14731,0.0259 -0.79607,0.204942 -0.94853,0.246246 -0.23242,0.128355 -0.4868,0.211899 -0.72141,0.33554 -0.10791,0.05694 -0.41986,0.248631 -0.31384,0.188287 7.18855,-4.091382 4.72875,-3.118441 3.53018,-1.840437 -0.50101,0.73155 -0.53844,1.633166 -0.59063,2.489538 -0.0341,0.867106 -0.0219,1.73512 -0.0148,2.602624 0.006,0.713945 0.0114,1.427906 0.007,2.141866 0.0521,0.72086 0.27504,1.419756 0.48732,2.107463 0.23368,0.973765 0.55228,1.92345 0.81064,2.890172 0.35553,1.171552 0.54246,2.379366 0.64794,3.59604 0.087,1.190023 0.0845,2.384264 0.0893,3.576758 -0.0206,1.024837 0.0442,2.051833 -0.0254,3.074938 -0.10919,0.800756 -0.36942,1.562551 -0.65817,2.312604 -0.23553,0.686813 -0.56697,1.315226 -0.99305,1.900647 -0.33817,0.547979 -0.83094,0.963542 -1.28767,1.406466 -0.41134,0.365783 -0.78328,0.772742 -1.19126,1.142899 -0.42671,0.39107 -0.51137,0.932192 -0.57028,1.479603 -0.0478,0.665287 -0.0395,1.333003 -0.0375,1.99954 0.0229,0.707542 0.27956,1.359994 0.56961,1.99474 0.44312,0.839106 0.85454,1.696103 1.25809,2.555158 0.4236,0.826981 0.67098,1.704352 0.80249,2.619193 0.0977,0.877684 0.10279,1.763063 0.10237,2.645248 -0.12864,1.198385 -0.64294,2.320925 -1.20885,3.371615 -0.52318,0.91433 -1.03562,1.8373 -1.45676,2.80375 -0.19309,0.39948 -0.22579,0.75159 -0.13531,1.17409 0,0 -4.45074,2.40392 -4.45074,2.40392 v 0 c -0.13772,-0.51107 -0.21425,-0.96282 0.0142,-1.46927 0.39138,-1.00164 0.92771,-1.94015 1.45873,-2.87316 0.57859,-0.97045 1.05706,-2.01334 1.29258,-3.12395 -0.004,-0.86257 0.007,-1.72707 -0.0727,-2.586926 -0.10436,-0.869079 -0.31646,-1.706552 -0.72832,-2.486521 -0.39265,-0.862364 -0.80182,-1.719942 -1.2596,-2.54955 -0.33767,-0.692492 -0.61428,-1.408567 -0.68591,-2.182971 -0.003,-0.678861 -0.0114,-1.358106 0.0145,-2.03664 0.0365,-0.61724 0.0768,-1.256416 0.41861,-1.792256 0.36322,-0.424565 0.83261,-0.738992 1.17282,-1.188362 0.49766,-0.368722 0.93906,-0.831226 1.35798,-1.284586 0.3627,-0.589509 0.84209,-1.097037 1.03494,-1.787697 0.25622,-0.732574 0.59543,-1.430703 0.73404,-2.203403 0.11828,-1.008097 0.0351,-2.030067 0.0659,-3.043148 0.001,-1.180979 0.001,-2.363022 -0.0682,-3.542383 -0.092,-1.188802 -0.24805,-2.373743 -0.6148,-3.513503 -0.25042,-0.959098 -0.59162,-1.891347 -0.81906,-2.856991 -0.23951,-0.731481 -0.47066,-1.476777 -0.56354,-2.242236 -0.006,-0.713363 -0.004,-1.42677 -0.006,-2.140162 -0.001,-0.878493 -0.004,-1.75717 0.0206,-2.635422 0.0328,-0.926044 0.0635,-1.884106 0.44927,-2.742564 1.17965,-2.12099 3.91102,-2.938868 6.13266,-3.743181 1.04477,-0.226473 2.09543,-0.217336 3.16086,-0.210458 0,0 -4.08942,2.971144 -4.08942,2.971144 z"
       id="path969"
       style="fill:#1a1a1a;fill-opacity:1;stroke:none;stroke-width:5.05704212;stroke-miterlimit:4;stroke-dasharray:none;stroke-opacity:1" />
    <path
       inkscape:connector-curvature="0"
       d="m 257.13954,103.68522 c -1.54084,0.75724 -2.55902,1.27017 3.19759,-1.85087 0.20403,-0.1106 -0.38341,0.2619 -0.56992,0.40003 -0.52339,0.38767 -0.94909,0.79805 -1.36369,1.29708 -0.59216,0.76197 -0.7374,1.6608 -0.81303,2.59293 -0.10167,1.22211 0.18265,2.39266 0.56256,3.54201 0.53249,1.59293 1.32434,3.08153 2.10272,4.56439 0.77592,1.62492 1.65624,3.19409 2.39771,4.83493 0.7379,1.34318 1.06228,2.82892 1.36062,4.31591 0.27353,1.41866 0.32564,2.86319 0.35824,4.30331 -0.0143,1.30744 -0.24295,2.60457 -0.56145,3.86954 -0.26195,0.76357 -0.49274,1.53684 -0.74185,2.30463 -0.18911,0.67628 -0.36091,1.35721 -0.55647,2.03197 -0.25178,0.67227 -0.37782,1.37111 -0.44153,2.08305 -0.0578,0.88246 -0.0574,1.7674 -0.0559,2.65133 -0.0757,0.90203 0.15245,1.72761 0.4999,2.54982 0.37743,0.93164 0.78964,1.85727 1.32034,2.71257 0.45182,0.76781 0.81701,1.5768 1.15423,2.3998 0.29724,0.72214 0.37853,1.49079 0.42112,2.26226 0.0182,0.53382 0.0114,0.26831 0.0217,0.79649 0,0 -4.49086,2.29673 -4.49086,2.29673 v 0 c -0.006,-0.51952 -0.001,-0.25895 -0.0128,-0.78167 -0.031,-0.71667 -0.0819,-1.43695 -0.34163,-2.11397 -0.31703,-0.80142 -0.66307,-1.58896 -1.10297,-2.33204 -0.53435,-0.88079 -0.95665,-1.82782 -1.35051,-2.7784 -0.38226,-0.872 -0.68976,-1.76052 -0.60347,-2.72659 0.003,-0.89343 -0.007,-1.78753 0.0307,-2.6803 0.0446,-0.74343 0.11742,-1.48489 0.38285,-2.18816 0.23753,-0.6608 0.38225,-1.35281 0.55787,-2.03164 0.24433,-0.76889 0.46657,-1.54467 0.77448,-2.29207 0.34497,-1.2263 0.62215,-2.4812 0.6583,-3.75989 -0.0294,-1.4129 -0.0737,-2.83108 -0.32052,-4.22609 -0.2794,-1.4538 -0.58499,-2.90687 -1.28768,-4.22665 -0.72826,-1.63616 -1.59833,-3.19938 -2.3765,-4.81211 -0.78761,-1.50516 -1.61778,-3.00386 -2.15555,-4.62119 -0.42536,-1.19333 -0.77492,-2.4085 -0.69499,-3.69151 0.0338,-1.0045 0.1448,-2.00287 0.70073,-2.87042 1.72489,-2.44469 4.76986,-3.5675 7.28216,-4.97875 0,0 -3.94239,3.15354 -3.94239,3.15354 z"
       id="path971"
       style="fill:#1a1a1a;fill-opacity:1;stroke:none;stroke-width:5.05704212;stroke-miterlimit:4;stroke-dasharray:none;stroke-opacity:1" />
    <path
       inkscape:connector-curvature="0"
       d="m 250.5954,129.65412 c -0.16486,0.0341 -0.3307,0.0635 -0.49458,0.10195 -0.34175,0.0802 -1.01859,0.25922 -1.33361,0.38119 -0.23462,0.0909 -0.90157,0.44521 -0.6845,0.31802 4.36221,-2.5558 4.56158,-2.75611 2.87589,-1.48209 -1.55906,1.36672 -2.59692,3.18681 -3.55058,5.00044 -0.63626,1.21221 -0.93324,2.51235 -1.04613,3.86394 -0.0638,1.39304 0.34708,2.70389 0.84728,3.98264 0.4889,1.16367 1.18123,2.20377 1.97138,3.18036 0.62045,0.64418 1.31354,1.21199 1.93253,1.85724 0.37818,0.39418 0.78565,0.73557 1.24856,1.02511 0.48911,0.40459 0.80357,0.9386 1.13356,1.46955 0.4907,0.86614 1.01383,1.71696 1.44111,2.61678 0.46741,0.84656 0.71214,1.76775 0.86015,2.71603 0.18179,1.04497 -0.16963,2.02647 -0.599,2.96243 -0.39717,0.84911 -0.92657,1.62311 -1.36759,2.44848 -0.40183,0.64016 -0.68781,1.34114 -1.0915,1.97924 -0.35979,0.51116 -0.48428,1.09814 -0.55104,1.70691 0,0 -4.52375,2.25569 -4.52375,2.25569 v 0 c 0.0439,-0.66476 0.11373,-1.33576 0.44988,-1.92656 0.1214,-0.19081 0.26725,-0.36554 0.38498,-0.55864 0.27271,-0.44734 0.39238,-0.98199 0.73208,-1.39352 0.4513,-0.82458 0.94444,-1.61812 1.39661,-2.44184 0.44315,-0.82801 0.84163,-1.72015 0.71244,-2.68189 -0.11401,-0.90627 -0.327,-1.78368 -0.77693,-2.58869 -0.41524,-0.88183 -0.92364,-1.7162 -1.41885,-2.55489 -0.30509,-0.46164 -0.60013,-0.94114 -1.05031,-1.27803 -0.46946,-0.33453 -0.90504,-0.69661 -1.29137,-1.12682 -0.62679,-0.65402 -1.32115,-1.23886 -1.92417,-1.91559 -0.8086,-1.02623 -1.5226,-2.11267 -2.03277,-3.32152 -0.51184,-1.34645 -0.97669,-2.71063 -0.95613,-4.17299 0.0826,-1.4237 0.34339,-2.78682 1.00437,-4.07072 0.95806,-1.84226 1.9794,-3.70233 3.46176,-5.18013 2.31938,-2.04628 5.2154,-3.77642 8.32967,-4.14325 0,0 -4.08944,2.97114 -4.08944,2.97114 z"
       id="path973"
       style="fill:#1a1a1a;fill-opacity:1;stroke:none;stroke-width:5.05704212;stroke-miterlimit:4;stroke-dasharray:none;stroke-opacity:1" />
    <circle
       r="9.2472687"
       cy="72.220993"
       cx="208.14867"
       id="circle975"
       style="fill:#008000;fill-opacity:1;stroke:#000000;stroke-width:1.57833254;stroke-miterlimit:4;stroke-dasharray:none;stroke-opacity:1" />
    <circle
       style="fill:#008000;fill-opacity:1;stroke:#000000;stroke-width:1.57833254;stroke-miterlimit:4;stroke-dasharray:none;stroke-opacity:1"
       id="circle977"
       cx="227.53398"
       cy="64.185997"
       r="9.2472687" />
    <circle
       r="9.2472687"
       cy="67.055824"
       cx="238.05672"
       id="circle979"
       style="fill:#008000;fill-opacity:1;stroke:#000000;stroke-width:1.57833254;stroke-miterlimit:4;stroke-dasharray:none;stroke-opacity:1" />
    <circle
       style="fill:#008000;fill-opacity:1;stroke:#000000;stroke-width:1.57833254;stroke-miterlimit:4;stroke-dasharray:none;stroke-opacity:1"
       id="circle981"
       cx="237.10011"
       cy="53.982094"
       r="9.2472687" />
    <circle
       r="9.2472687"
       cy="57.489681"
       cx="253.68141"
       id="circle983"
       style="fill:#008000;fill-opacity:1;stroke:#000000;stroke-width:1.57833254;stroke-miterlimit:4;stroke-dasharray:none;stroke-opacity:1" />
    <circle
       inkscape:transform-center-y="-12.117108"
       inkscape:transform-center-x="-1.9132184"
       style="fill:#008000;fill-opacity:1;stroke:#000000;stroke-width:1.57833254;stroke-miterlimit:4;stroke-dasharray:none;stroke-opacity:1"
       id="circle985"
       cx="253.68141"
       cy="57.489681"
       r="9.2472687" />
    <circle
       r="9.2472687"
       cy="68.650169"
       cx="250.17383"
       id="circle987"
       style="fill:#008000;fill-opacity:1;stroke:#000000;stroke-width:1.57833254;stroke-miterlimit:4;stroke-dasharray:none;stroke-opacity:1"
       inkscape:transform-center-x="-1.913224"
       inkscape:transform-center-y="-12.117114" />
    <circle
       inkscape:transform-center-y="-12.117121"
       inkscape:transform-center-x="-1.9132319"
       style="fill:#008000;fill-opacity:1;stroke:#000000;stroke-width:1.57833254;stroke-miterlimit:4;stroke-dasharray:none;stroke-opacity:1"
       id="circle989"
       cx="290.97891"
       cy="66.209839"
       r="9.2472687" />
    <circle
       r="9.2472687"
       cy="51.272949"
       cx="237.13171"
       id="circle991"
       style="fill:#008000;fill-opacity:1;stroke:#000000;stroke-width:1.57833254;stroke-miterlimit:4;stroke-dasharray:none;stroke-opacity:1"
       inkscape:transform-center-x="-1.9132148"
       inkscape:transform-center-y="-12.1171" />
    <circle
       inkscape:transform-center-y="-12.117111"
       inkscape:transform-center-x="-1.91323"
       style="fill:#008000;fill-opacity:1;stroke:#000000;stroke-width:1.57833254;stroke-miterlimit:4;stroke-dasharray:none;stroke-opacity:1"
       id="circle993"
       cx="215.47748"
       cy="65.993782"
       r="9.2472687" />
    <circle
       r="9.2472687"
       cy="49.061989"
       cx="220.79025"
       id="circle995"
       style="fill:#008000;fill-opacity:1;stroke:#000000;stroke-width:1.57833254;stroke-miterlimit:4;stroke-dasharray:none;stroke-opacity:1"
       inkscape:transform-center-x="-1.9132243"
       inkscape:transform-center-y="-12.117112" />
    <circle
       inkscape:transform-center-y="-12.117119"
       inkscape:transform-center-x="-1.9132309"
       style="fill:#008000;fill-opacity:1;stroke:#000000;stroke-width:1.57833254;stroke-miterlimit:4;stroke-dasharray:none;stroke-opacity:1"
       id="circle997"
       cx="232.63591"
       cy="39.313999"
       r="9.2472687" />
    <circle
       inkscape:transform-center-y="-12.117115"
       inkscape:transform-center-x="-1.9132328"
       style="fill:#008000;fill-opacity:1;stroke:#000000;stroke-width:1.57833254;stroke-miterlimit:4;stroke-dasharray:none;stroke-opacity:1"
       id="circle1001"
       cx="206.48846"
       cy="56.851933"
       r="9.2472687" />
    <circle
       inkscape:transform-center-y="-12.11711"
       inkscape:transform-center-x="-1.91323"
       style="fill:#008000;fill-opacity:1;stroke:#000000;stroke-width:1.57833254;stroke-miterlimit:4;stroke-dasharray:none;stroke-opacity:1"
       id="circle1005"
       cx="246.66626"
       cy="41.546108"
       r="9.2472687" />
    <circle
       r="9.2472687"
       cy="32.923382"
       cx="256.38522"
       id="circle1007"
       style="fill:#008000;fill-opacity:1;stroke:#000000;stroke-width:1.57833254;stroke-miterlimit:4;stroke-dasharray:none;stroke-opacity:1"
       inkscape:transform-center-x="-1.9132088"
       inkscape:transform-center-y="-12.117113" />
    <circle
       inkscape:transform-center-y="-12.117108"
       inkscape:transform-center-x="-1.9132134"
       style="fill:#008000;fill-opacity:1;stroke:#000000;stroke-width:1.57833254;stroke-miterlimit:4;stroke-dasharray:none;stroke-opacity:1"
       id="circle1009"
       cx="262.92868"
       cy="48.561279"
       r="9.2472687" />
    <circle
       r="9.2472687"
       cy="59.721767"
       cx="267.71176"
       id="circle1011"
       style="fill:#008000;fill-opacity:1;stroke:#000000;stroke-width:1.57833254;stroke-miterlimit:4;stroke-dasharray:none;stroke-opacity:1"
       inkscape:transform-center-x="-1.9132365"
       inkscape:transform-center-y="-12.117113" />
    <circle
       inkscape:transform-center-y="-12.117102"
       inkscape:transform-center-x="-1.9132365"
       style="fill:#008000;fill-opacity:1;stroke:#000000;stroke-width:1.57833254;stroke-miterlimit:4;stroke-dasharray:none;stroke-opacity:1"
       id="circle1013"
       cx="267.71176"
       cy="68.969048"
       r="9.2472687" />
    <circle
       r="9.2472687"
       cy="75.847168"
       cx="277.12509"
       id="circle1015"
       style="fill:#008000;fill-opacity:1;stroke:#000000;stroke-width:1.57833254;stroke-miterlimit:4;stroke-dasharray:none;stroke-opacity:1"
       inkscape:transform-center-x="-1.9132405"
       inkscape:transform-center-y="-12.117112" />
    <circle
       inkscape:transform-center-y="-12.117119"
       inkscape:transform-center-x="-1.9132372"
       style="fill:#008000;fill-opacity:1;stroke:#000000;stroke-width:1.57833254;stroke-miterlimit:4;stroke-dasharray:none;stroke-opacity:1"
       id="circle1017"
       cx="246.17603"
       cy="57.173401"
       r="9.2472687" />
    <circle
       r="9.2472687"
       cy="57.336834"
       cx="282.6539"
       id="circle1019"
       style="fill:#008000;fill-opacity:1;stroke:#000000;stroke-width:1.57833254;stroke-miterlimit:4;stroke-dasharray:none;stroke-opacity:1"
       inkscape:transform-center-x="-1.9132332"
       inkscape:transform-center-y="-12.117108" />
    <circle
       inkscape:transform-center-y="-12.11711"
       inkscape:transform-center-x="-1.9132262"
       style="fill:#008000;fill-opacity:1;stroke:#000000;stroke-width:1.57833254;stroke-miterlimit:4;stroke-dasharray:none;stroke-opacity:1"
       id="circle1021"
       cx="280.46661"
       cy="39.313999"
       r="9.2472687" />
    <circle
       r="9.2472687"
       cy="43.108845"
       cx="272.55545"
       id="circle1023"
       style="fill:#008000;fill-opacity:1;stroke:#000000;stroke-width:1.57833254;stroke-miterlimit:4;stroke-dasharray:none;stroke-opacity:1"
       inkscape:transform-center-x="-1.9132354"
       inkscape:transform-center-y="-12.11711" />
    <circle
       r="9.2472687"
       cy="24.827763"
       cx="243.30093"
       id="circle1027"
       style="fill:#008000;fill-opacity:1;stroke:#000000;stroke-width:1.57833254;stroke-miterlimit:4;stroke-dasharray:none;stroke-opacity:1"
       inkscape:transform-center-x="-1.9132293"
       inkscape:transform-center-y="-12.117107" />
    <circle
       inkscape:transform-center-y="-12.117107"
       inkscape:transform-center-x="-1.9132359"
       style="fill:#008000;fill-opacity:1;stroke:#000000;stroke-width:1.57833254;stroke-miterlimit:4;stroke-dasharray:none;stroke-opacity:1"
       id="circle1033"
       cx="206.63869"
       cy="44.415936"
       r="9.2472687" />
    <circle
       r="9.2472687"
       cy="23.53908"
       cx="226.51674"
       id="circle1035"
       style="fill:#008000;fill-opacity:1;stroke:#000000;stroke-width:1.57833254;stroke-miterlimit:4;stroke-dasharray:none;stroke-opacity:1"
       inkscape:transform-center-x="-1.9132336"
       inkscape:transform-center-y="-12.11711" />
    <circle
       r="9.2472687"
       cy="35.516544"
       cx="216.90318"
       id="circle1037"
       style="fill:#008000;fill-opacity:1;stroke:#000000;stroke-width:1.57833254;stroke-miterlimit:4;stroke-dasharray:none;stroke-opacity:1"
       inkscape:transform-center-x="-1.9132349"
       inkscape:transform-center-y="-12.117104" />
    <circle
       inkscape:transform-center-y="-12.117108"
       inkscape:transform-center-x="-1.9132459"
       style="fill:#008000;fill-opacity:1;stroke:#000000;stroke-width:1.57833254;stroke-miterlimit:4;stroke-dasharray:none;stroke-opacity:1"
       id="circle1041"
       cx="267.46933"
       cy="28.221975"
       r="9.2472687" />
    <path
       style="fill:#c87137;stroke:#000000;stroke-width:6.00390005;stroke-linecap:butt;stroke-linejoin:miter;stroke-miterlimit:4;stroke-dasharray:none;stroke-opacity:1"
       d="m 386.73351,35.466534 c 10.27956,-21.056385 18.95651,-19.673755 30.87721,1.715405 10.93651,19.623191 20.01301,134.373001 13.72322,136.660191 -6.2898,2.2872 -46.31581,5.71798 -53.17741,-1.14358 -6.8616,-6.86161 0.32149,-120.321616 8.57698,-137.232016 z"
       id="path1045"
       inkscape:connector-curvature="0"
       sodipodi:nodetypes="sscss" />
    <path
       style="fill:#1a1a1a;fill-opacity:1;stroke:none;stroke-width:6.00390005;stroke-miterlimit:4;stroke-dasharray:none;stroke-opacity:1"
       id="path1047"
       d="m 394.43313,30.604501 c -0.77434,0.945814 -1.48075,1.950689 -2.0685,3.022914 -0.4334,0.816564 -0.5538,1.714007 -0.60855,2.622162 -0.0767,0.888264 10e-4,1.758458 0.14819,2.633068 0.18051,0.829759 0.48937,1.622088 0.90141,2.362669 0.47346,0.817784 1.04795,1.545889 1.6643,2.25606 0.64463,0.714805 1.26682,1.450429 1.91985,2.156889 0.88551,1.03945 1.7921,2.058814 2.66475,3.109133 0.87728,1.00588 1.62692,2.11769 2.34424,3.241201 0.47186,0.949869 0.84572,1.946394 1.05662,2.986475 0.19538,1.15723 0.19063,2.334775 0.20405,3.504637 0.0114,1.402508 -0.53209,2.671745 -1.15731,3.89637 -0.6888,1.358035 -1.67456,2.520968 -2.57464,3.737684 -0.981,1.246264 -1.92752,2.518952 -2.8744,3.791185 -0.79893,1.122935 -1.65654,2.202082 -2.43184,3.341573 -0.69346,0.96269 -1.14754,2.061673 -1.60726,3.147592 -0.55352,1.224512 -0.82018,2.529359 -0.9781,3.854993 -0.11955,1.380298 -0.11543,2.767597 -0.12154,4.151984 -0.007,1.380526 -0.0183,2.757331 0.10876,4.132873 0.18474,1.743057 0.82247,3.387562 1.42173,5.020637 0.66193,1.750384 1.28344,3.51728 1.96872,5.258378 0.72934,1.717512 1.18349,3.523982 1.63116,5.329302 0.34291,1.44562 0.46361,2.92991 0.52583,4.41047 0.10024,1.23933 0.0169,2.44814 -0.24378,3.66043 -0.24154,1.18451 -0.85268,2.21307 -1.5143,3.20467 -0.57504,0.74095 -1.17997,1.45775 -1.77344,2.18379 -0.51229,0.61974 -1.03563,1.22319 -1.37394,1.95784 -0.27362,0.72122 -0.29691,1.49693 -0.3188,2.25855 -0.01,0.88549 -0.007,1.77113 -0.009,2.65668 0.029,1.20727 0.48688,2.33151 0.93002,3.43565 0.4954,1.09741 1.14433,2.10951 1.82049,3.1018 0.71139,0.98344 1.39028,1.99043 2.09554,2.97921 0.71557,0.74628 1.05061,1.72527 1.5778,2.58752 0.45935,0.85778 0.77775,1.78075 1.11249,2.692 0.35885,0.93638 0.46388,1.92573 0.5273,2.91771 0.0504,0.94892 0.038,1.89939 0.0373,2.84921 -0.004,0.97973 -0.007,1.95945 -0.004,2.93923 0.0358,0.97698 -0.0549,1.94612 -0.2536,2.90201 -0.1964,0.76835 -0.48607,1.50468 -0.80666,2.22825 -0.34809,0.66482 -0.65427,1.35612 -1.07665,1.97833 -0.44231,0.67595 -0.92241,1.32441 -1.38325,1.98718 -0.47042,0.62791 -1.00331,1.20606 -1.41929,1.8724 -0.43781,0.64789 -0.88005,1.29256 -1.29931,1.95296 -0.2972,0.62772 -0.653,1.2187 -1.01631,1.80859 -0.24873,0.579 -0.4552,1.18606 -0.62463,1.79457 -0.16841,0.72016 -0.18351,1.46305 -0.20008,2.19886 -0.074,0.80814 0.0698,1.57156 0.3086,2.33777 0.16023,0.71351 0.4007,1.37701 0.75744,2.01234 0.26527,0.65732 0.67684,1.21694 1.17977,1.7104 0.54838,0.59806 1.26494,0.73946 2.03383,0.83077 0,0 -4.90039,3.44457 -4.90039,3.44457 v 0 c -0.87046,-0.16878 -1.64577,-0.47388 -2.25809,-1.14501 -0.51213,-0.54888 -0.98267,-1.13927 -1.26664,-1.84207 -0.37327,-0.67317 -0.64445,-1.37012 -0.80174,-2.12713 -0.26237,-0.8193 -0.48323,-1.63568 -0.40303,-2.50695 0.009,-0.77087 0.0145,-1.54557 0.13432,-2.30907 0.12921,-0.66594 0.40272,-1.27168 0.55869,-1.92911 0.28422,-0.64692 0.79476,-1.15956 1.01681,-1.84133 0.37027,-0.68835 0.8224,-1.3451 1.29121,-1.9617 0.41087,-0.69042 0.85366,-1.33429 1.40249,-1.92625 0.50125,-0.62598 0.92823,-1.29769 1.38623,-1.95698 0.13134,-0.19654 0.29388,-0.37096 0.42471,-0.56782 0.27471,-0.41336 0.36388,-0.93561 0.70547,-1.31227 0.29824,-0.7118 0.64056,-1.40347 0.84234,-2.15223 0.30775,-0.88004 0.35066,-1.83776 0.33188,-2.76303 0.003,-0.98042 0.007,-1.96082 0.007,-2.94124 0.003,-0.93956 0.004,-1.87944 -0.0213,-2.8187 -0.0437,-0.93652 -0.11927,-1.875 -0.44055,-2.76471 -0.31665,-0.87693 -0.63802,-1.75795 -1.06869,-2.58597 -0.50497,-0.8591 -0.83219,-1.81916 -1.5308,-2.56044 -0.70459,-0.9935 -1.38352,-2.00501 -2.09613,-2.9925 -0.70228,-1.02921 -1.36937,-2.07904 -1.89251,-3.21322 -0.45629,-1.17255 -0.94319,-2.36027 -1.04424,-3.62743 -0.009,-0.88689 -0.0197,-1.77383 -0.0128,-2.66078 0.01,-0.81854 0.0219,-1.64614 0.2266,-2.44409 0.26019,-0.81533 0.70984,-1.51412 1.31602,-2.12125 0.54758,-0.75831 1.18791,-1.45343 1.78219,-2.17446 0.71792,-0.8831 1.32536,-1.88588 1.63831,-2.9866 0.0887,-0.39458 0.20381,-0.78397 0.26877,-1.18313 0.12622,-0.77428 0.0247,-1.56471 0.0443,-2.34376 -0.044,-1.44871 -0.12183,-2.90213 -0.44271,-4.32083 -0.41261,-1.78764 -0.85838,-3.56858 -1.57548,-5.26353 -0.69599,-1.741373 -1.32006,-3.513054 -1.96681,-5.273575 -0.63234,-1.671014 -1.29748,-3.352336 -1.53715,-5.134453 -0.13716,-1.392822 -0.16619,-2.783073 -0.13687,-4.182937 -0.003,-1.402221 0.003,-2.805052 0.0953,-4.204931 0.11444,-1.368272 0.357,-2.725228 0.89281,-3.998085 0.42243,-1.126471 0.90488,-2.250216 1.55403,-3.265853 0.78127,-1.151999 1.62505,-2.251308 2.44881,-3.372966 0.93101,-1.283038 1.88145,-2.55591 2.8784,-3.788117 0.86412,-1.221033 1.87765,-2.337295 2.59165,-3.659777 0.63818,-1.118988 1.21906,-2.310758 1.27558,-3.620376 -0.007,-1.134195 -0.01,-2.274239 -0.16971,-3.39947 -0.17942,-0.972339 -0.51701,-1.905669 -0.94012,-2.797969 -0.68958,-1.11001 -1.42012,-2.202068 -2.28068,-3.188082 -0.86746,-1.044181 -1.78033,-2.047135 -2.67916,-3.064185 -0.65711,-0.713129 -1.29553,-1.444082 -1.94152,-2.167737 -0.63614,-0.744379 -1.21943,-1.517763 -1.72237,-2.360598 -0.45153,-0.798146 -0.78835,-1.649477 -1.00681,-2.541314 -0.15252,-0.914678 -0.28522,-1.818031 -0.1992,-2.749841 0.0332,-0.97705 0.10024,-1.953899 0.51011,-2.85924 0.54179,-1.118025 1.27398,-2.11869 1.98844,-3.131104 0,0 5.52477,-2.347339 5.52477,-2.347339 z"
       inkscape:connector-curvature="0" />
    <path
       style="fill:#1a1a1a;fill-opacity:1;stroke:none;stroke-width:6.00390005;stroke-miterlimit:4;stroke-dasharray:none;stroke-opacity:1"
       id="path1049"
       d="m 410.93154,34.869003 c -0.83678,0.01697 -1.68652,-0.09164 -2.51705,0.05424 -0.17488,0.03074 -0.94513,0.243313 -1.12614,0.292351 -0.27592,0.152394 -0.57793,0.251574 -0.85647,0.398366 -0.12807,0.0676 -0.49847,0.295182 -0.3726,0.22354 8.53448,-4.857433 5.61413,-3.702325 4.19116,-2.185032 -0.59484,0.868521 -0.63927,1.938954 -0.70123,2.955667 -0.0405,1.02946 -0.026,2.059998 -0.0175,3.089932 0.007,0.847623 0.0128,1.695261 0.009,2.542901 0.0619,0.855832 0.32655,1.685585 0.57857,2.502055 0.27744,1.156089 0.65569,2.283583 0.96242,3.431315 0.4221,1.390916 0.64402,2.824872 0.76925,4.269356 0.10337,1.412837 0.10024,2.830674 0.10607,4.246453 -0.0244,1.216712 0.0524,2.435992 -0.0302,3.650664 -0.12963,0.950693 -0.43859,1.855126 -0.78141,2.745617 -0.27963,0.815409 -0.67311,1.561486 -1.17898,2.25652 -0.40148,0.650577 -0.98653,1.143949 -1.52876,1.669806 -0.48837,0.434263 -0.92995,0.917426 -1.4143,1.356871 -0.50661,0.464307 -0.60715,1.106735 -0.67708,1.756659 -0.0568,0.789838 -0.047,1.582571 -0.0446,2.373914 0.0271,0.840029 0.33191,1.614631 0.67625,2.368233 0.5261,0.996213 1.01453,2.013668 1.49366,3.033564 0.5029,0.981816 0.79661,2.023479 0.95272,3.109597 0.116,1.042032 0.12197,2.09318 0.12154,3.14055 -0.15269,1.422752 -0.76333,2.755471 -1.43519,4.002899 -0.62114,1.085508 -1.22952,2.181296 -1.72952,3.328695 -0.22924,0.474275 -0.26807,0.892308 -0.16072,1.393929 0,0 -5.28407,2.854009 -5.28407,2.854009 v 0 c -0.16353,-0.606747 -0.25439,-1.143097 0.0169,-1.744363 0.46466,-1.189186 1.1014,-2.303418 1.73186,-3.411118 0.68692,-1.152142 1.25498,-2.390313 1.53459,-3.708875 -0.004,-1.024057 0.009,-2.050428 -0.0863,-3.071276 -0.12395,-1.031794 -0.37572,-2.026077 -0.86469,-2.952092 -0.46615,-1.023815 -0.95194,-2.04198 -1.49543,-3.026919 -0.4009,-0.822139 -0.7293,-1.672306 -0.81435,-2.591691 -0.003,-0.805966 -0.0128,-1.612388 0.0172,-2.417971 0.0435,-0.732816 0.0912,-1.491672 0.49699,-2.127824 0.43123,-0.504063 0.98851,-0.877371 1.39241,-1.410867 0.59085,-0.43777 1.1149,-0.986871 1.61225,-1.52511 0.43061,-0.699889 0.99975,-1.302447 1.22872,-2.122414 0.30418,-0.869747 0.70693,-1.698587 0.87149,-2.615956 0.14042,-1.196853 0.0416,-2.410176 0.0782,-3.612936 10e-4,-1.402101 10e-4,-2.805474 -0.0808,-4.205647 -0.10933,-1.411392 -0.29449,-2.818203 -0.7299,-4.171365 -0.29732,-1.138667 -0.70241,-2.245463 -0.97242,-3.391909 -0.28435,-0.868447 -0.55878,-1.753291 -0.66906,-2.662071 -0.007,-0.846931 -0.004,-1.693912 -0.007,-2.540877 -0.001,-1.042977 -0.004,-2.086175 0.0244,-3.128871 0.0389,-1.099433 0.0754,-2.236876 0.53338,-3.25607 1.40052,-2.518113 4.6433,-3.489128 7.28091,-4.444037 1.24038,-0.268875 2.48778,-0.258028 3.75269,-0.249861 0,0 -4.8551,3.527446 -4.8551,3.527446 z"
       inkscape:connector-curvature="0" />
    <path
       style="fill:#1a1a1a;fill-opacity:1;stroke:none;stroke-width:6.00390005;stroke-miterlimit:4;stroke-dasharray:none;stroke-opacity:1"
       id="path1051"
       d="m 416.27504,88.541468 c -1.82934,0.899024 -3.03815,1.507986 3.79629,-2.197425 0.24223,-0.131337 -0.45519,0.310934 -0.67663,0.474927 -0.62137,0.460261 -1.12678,0.947484 -1.619,1.539947 -0.70306,0.904633 -0.87549,1.971754 -0.96528,3.078417 -0.12068,1.450922 0.21684,2.840634 0.66789,4.2052 0.63219,1.891163 1.5723,3.658499 2.49643,5.418996 0.92119,1.92917 1.96636,3.79215 2.84666,5.74022 0.87605,1.59465 1.26115,3.35858 1.61537,5.12397 0.32474,1.6843 0.38661,3.39931 0.42531,5.10905 -0.017,1.55226 -0.28844,3.09223 -0.66659,4.59407 -0.31099,0.90654 -0.58498,1.82459 -0.88074,2.73614 -0.2245,0.80288 -0.42848,1.61132 -0.66066,2.41241 -0.29892,0.79815 -0.44856,1.62784 -0.52419,2.4731 -0.0686,1.04766 -0.0682,2.0983 -0.0663,3.14773 -0.0899,1.07093 0.181,2.05108 0.5935,3.02724 0.44811,1.10607 0.9375,2.20501 1.56756,3.22046 0.53642,0.91157 0.96998,1.87203 1.37033,2.84913 0.35291,0.85735 0.44942,1.76993 0.49999,2.68584 0.0216,0.63377 0.0128,0.31854 0.0258,0.94562 0,0 -5.33171,2.72675 -5.33171,2.72675 v 0 c -0.007,-0.61678 -10e-4,-0.30744 -0.0145,-0.92802 -0.0368,-0.85087 -0.0973,-1.70601 -0.40558,-2.50979 -0.37639,-0.95147 -0.78723,-1.88646 -1.30951,-2.76868 -0.63439,-1.0457 -1.13576,-2.17005 -1.60337,-3.2986 -0.45381,-1.03528 -0.8189,-2.09017 -0.71646,-3.2371 0.003,-1.06072 -0.009,-2.12223 0.0365,-3.18217 0.0528,-0.88261 0.13929,-1.76291 0.45452,-2.59785 0.28202,-0.78452 0.45383,-1.6061 0.66234,-2.41202 0.29008,-0.91289 0.55391,-1.8339 0.91947,-2.72126 0.40957,-1.45589 0.73865,-2.94576 0.78157,-4.46387 -0.0349,-1.67743 -0.0875,-3.36115 -0.38052,-5.01735 -0.33173,-1.72601 -0.69454,-3.45115 -1.52879,-5.01803 -0.86462,-1.9425 -1.89759,-3.79841 -2.82146,-5.7131 -0.93508,-1.78697 -1.9207,-3.56629 -2.55915,-5.486434 -0.505,-1.416775 -0.92001,-2.859462 -0.82512,-4.382697 0.0402,-1.192593 0.1719,-2.377903 0.83194,-3.407866 2.04785,-2.90244 5.66293,-4.235457 8.64562,-5.910943 0,0 -4.68054,3.743988 -4.68054,3.743988 z"
       inkscape:connector-curvature="0" />
    <path
       style="fill:#1a1a1a;fill-opacity:1;stroke:none;stroke-width:6.00390005;stroke-miterlimit:4;stroke-dasharray:none;stroke-opacity:1"
       id="path1053"
       d="m 408.5056,119.37265 c -0.19571,0.0405 -0.39261,0.0754 -0.58718,0.12097 -0.40574,0.0953 -1.2093,0.30776 -1.58331,0.45257 -0.27854,0.10791 -1.07037,0.52855 -0.81267,0.37756 5.17898,-3.03434 5.41567,-3.27215 3.41436,-1.75959 -1.85095,1.62262 -3.08315,3.78348 -4.21537,5.93671 -0.75539,1.43917 -1.10797,2.98275 -1.242,4.58741 -0.0757,1.65385 0.41207,3.21015 1.00592,4.72832 0.58044,1.38155 1.40241,2.61641 2.34049,3.77583 0.73664,0.76481 1.55949,1.43893 2.29438,2.205 0.44898,0.46798 0.93273,0.87328 1.48233,1.21703 0.5807,0.48035 0.95401,1.11433 1.34581,1.74471 0.58256,1.02832 1.20365,2.03843 1.71094,3.10672 0.55493,1.00509 0.84548,2.09874 1.02118,3.22458 0.21584,1.24062 -0.20139,2.4059 -0.71114,3.51709 -0.47154,1.00811 -1.10007,1.92702 -1.62365,2.90693 -0.47707,0.76002 -0.81659,1.59225 -1.29588,2.34982 -0.42716,0.60687 -0.57495,1.30375 -0.65422,2.02651 0,0 -5.37075,2.67804 -5.37075,2.67804 v 0 c 0.0521,-0.78923 0.13503,-1.58587 0.53412,-2.28728 0.14416,-0.22654 0.3173,-0.43399 0.45707,-0.66324 0.32377,-0.5311 0.46583,-1.16584 0.86914,-1.65443 0.53581,-0.97898 1.12128,-1.92111 1.65812,-2.89905 0.52611,-0.98305 0.99921,-2.04222 0.84583,-3.18404 -0.13531,-1.07595 -0.38824,-2.11764 -0.92241,-3.07339 -0.49298,-1.04694 -1.09658,-2.03752 -1.6845,-3.03323 -0.36223,-0.54808 -0.7125,-1.11736 -1.24697,-1.51733 -0.55737,-0.39718 -1.07449,-0.82706 -1.53315,-1.33782 -0.74417,-0.77646 -1.56851,-1.47081 -2.28446,-2.27424 -0.95999,-1.21838 -1.80768,-2.50824 -2.41336,-3.94343 -0.60768,-1.59856 -1.15956,-3.21816 -1.13517,-4.95432 0.0981,-1.69027 0.4077,-3.3086 1.19244,-4.8329 1.13744,-2.18721 2.35,-4.39554 4.10991,-6.15004 2.75364,-2.42941 6.19192,-4.48349 9.88928,-4.91902 0,0 -4.85513,3.52745 -4.85513,3.52745 z"
       inkscape:connector-curvature="0" />
    <circle
       style="fill:#008000;fill-opacity:1;stroke:#000000;stroke-width:1.87385237;stroke-miterlimit:4;stroke-dasharray:none;stroke-opacity:1"
       id="circle1055"
       cx="448.30585"
       cy="26.043152"
       r="10.978686" />
    <circle
       r="10.978686"
       cy="45.820896"
       cx="373.91608"
       id="circle1057"
       style="fill:#008000;fill-opacity:1;stroke:#000000;stroke-width:1.87385237;stroke-miterlimit:4;stroke-dasharray:none;stroke-opacity:1" />
    <circle
       style="fill:#008000;fill-opacity:1;stroke:#000000;stroke-width:1.87385237;stroke-miterlimit:4;stroke-dasharray:none;stroke-opacity:1"
       id="circle1059"
       cx="392.10126"
       cy="34.048687"
       r="10.978686" />
    <circle
       r="10.978686"
       cy="21.942446"
       cx="402.3501"
       id="circle1061"
       style="fill:#008000;fill-opacity:1;stroke:#000000;stroke-width:1.87385237;stroke-miterlimit:4;stroke-dasharray:none;stroke-opacity:1" />
    <circle
       style="fill:#008000;fill-opacity:1;stroke:#000000;stroke-width:1.87385237;stroke-miterlimit:4;stroke-dasharray:none;stroke-opacity:1"
       id="circle1063"
       cx="412.16943"
       cy="33.696465"
       r="10.978686" />
    <circle
       r="10.978686"
       cy="33.696465"
       cx="412.16943"
       id="circle1065"
       style="fill:#008000;fill-opacity:1;stroke:#000000;stroke-width:1.87385237;stroke-miterlimit:4;stroke-dasharray:none;stroke-opacity:1"
       inkscape:transform-center-x="-2.2714418"
       inkscape:transform-center-y="-14.385862" />
    <circle
       inkscape:transform-center-y="-14.385872"
       inkscape:transform-center-x="-2.2714636"
       style="fill:#008000;fill-opacity:1;stroke:#000000;stroke-width:1.87385237;stroke-miterlimit:4;stroke-dasharray:none;stroke-opacity:1"
       id="circle1067"
       cx="430.39468"
       cy="45.428654"
       r="10.978686" />
    <circle
       r="10.978686"
       cy="-8.1095219"
       cx="350.29803"
       id="circle1069"
       style="fill:#008000;fill-opacity:1;stroke:#000000;stroke-width:1.87385237;stroke-miterlimit:4;stroke-dasharray:none;stroke-opacity:1"
       inkscape:transform-center-x="-2.2714434"
       inkscape:transform-center-y="-14.385891" />
    <circle
       inkscape:transform-center-y="-14.385854"
       inkscape:transform-center-x="-2.2714323"
       style="fill:#008000;fill-opacity:1;stroke:#000000;stroke-width:1.87385237;stroke-miterlimit:4;stroke-dasharray:none;stroke-opacity:1"
       id="circle1071"
       cx="381.46756"
       cy="20.734932"
       r="10.978686" />
    <circle
       r="10.978686"
       cy="37.080006"
       cx="397.47955"
       id="circle1073"
       style="fill:#008000;fill-opacity:1;stroke:#000000;stroke-width:1.87385237;stroke-miterlimit:4;stroke-dasharray:none;stroke-opacity:1"
       inkscape:transform-center-x="-2.2714779"
       inkscape:transform-center-y="-14.385872" />
    <circle
       inkscape:transform-center-y="-14.38587"
       inkscape:transform-center-x="-2.2714763"
       style="fill:#008000;fill-opacity:1;stroke:#000000;stroke-width:1.87385237;stroke-miterlimit:4;stroke-dasharray:none;stroke-opacity:1"
       id="circle1075"
       cx="366.36185"
       cy="22.339191"
       r="10.978686" />
    <circle
       r="10.978686"
       cy="13.63559"
       cx="391.35776"
       id="circle1077"
       style="fill:#008000;fill-opacity:1;stroke:#000000;stroke-width:1.87385237;stroke-miterlimit:4;stroke-dasharray:none;stroke-opacity:1"
       inkscape:transform-center-x="-2.2714369"
       inkscape:transform-center-y="-14.38587" />
    <circle
       inkscape:transform-center-y="-14.385875"
       inkscape:transform-center-x="-2.2714772"
       style="fill:#008000;fill-opacity:1;stroke:#000000;stroke-width:1.87385237;stroke-miterlimit:4;stroke-dasharray:none;stroke-opacity:1"
       id="circle1079"
       cx="370.12759"
       cy="-11.439442"
       r="10.978686" />
    <circle
       r="10.978686"
       cy="32.939308"
       cx="356.14029"
       id="circle1081"
       style="fill:#008000;fill-opacity:1;stroke:#000000;stroke-width:1.87385237;stroke-miterlimit:4;stroke-dasharray:none;stroke-opacity:1"
       inkscape:transform-center-x="-2.271455"
       inkscape:transform-center-y="-14.385868" />
    <circle
       inkscape:transform-center-y="-14.385869"
       inkscape:transform-center-x="-2.2714513"
       style="fill:#008000;fill-opacity:1;stroke:#000000;stroke-width:1.87385237;stroke-miterlimit:4;stroke-dasharray:none;stroke-opacity:1"
       id="circle1083"
       cx="374.69775"
       cy="30.275648"
       r="10.978686" />
    <circle
       r="10.978686"
       cy="4.9011097"
       cx="404.22025"
       id="circle1085"
       style="fill:#008000;fill-opacity:1;stroke:#000000;stroke-width:1.87385237;stroke-miterlimit:4;stroke-dasharray:none;stroke-opacity:1"
       inkscape:transform-center-x="-2.2714414"
       inkscape:transform-center-y="-14.385856" />
    <circle
       inkscape:transform-center-y="-14.385857"
       inkscape:transform-center-x="-2.2714405"
       style="fill:#008000;fill-opacity:1;stroke:#000000;stroke-width:1.87385237;stroke-miterlimit:4;stroke-dasharray:none;stroke-opacity:1"
       id="circle1087"
       cx="418.9838"
       cy="11.739088"
       r="10.978686" />
    <circle
       r="10.978686"
       cy="23.096361"
       cx="423.14813"
       id="circle1089"
       style="fill:#008000;fill-opacity:1;stroke:#000000;stroke-width:1.87385237;stroke-miterlimit:4;stroke-dasharray:none;stroke-opacity:1"
       inkscape:transform-center-x="-2.2714752"
       inkscape:transform-center-y="-14.385849" />
    <circle
       inkscape:transform-center-y="-14.385858"
       inkscape:transform-center-x="-2.271479"
       style="fill:#008000;fill-opacity:1;stroke:#000000;stroke-width:1.87385237;stroke-miterlimit:4;stroke-dasharray:none;stroke-opacity:1"
       id="circle1091"
       cx="431.10367"
       cy="31.792673"
       r="10.978686" />
    <circle
       r="10.978686"
       cy="-28.951138"
       cx="394.2937"
       id="circle1093"
       style="fill:#008000;fill-opacity:1;stroke:#000000;stroke-width:1.87385237;stroke-miterlimit:4;stroke-dasharray:none;stroke-opacity:1"
       inkscape:transform-center-x="-2.2714644"
       inkscape:transform-center-y="-14.385862" />
    <circle
       inkscape:transform-center-y="-14.385862"
       inkscape:transform-center-x="-2.27143"
       style="fill:#008000;fill-opacity:1;stroke:#000000;stroke-width:1.87385237;stroke-miterlimit:4;stroke-dasharray:none;stroke-opacity:1"
       id="circle1095"
       cx="439.05463"
       cy="-25.931622"
       r="10.978686" />
    <circle
       r="10.978686"
       cy="-28.560766"
       cx="376.04572"
       id="circle1097"
       style="fill:#008000;fill-opacity:1;stroke:#000000;stroke-width:1.87385237;stroke-miterlimit:4;stroke-dasharray:none;stroke-opacity:1"
       inkscape:transform-center-x="-2.2714508"
       inkscape:transform-center-y="-14.385878" />
    <circle
       inkscape:transform-center-y="-14.38586"
       inkscape:transform-center-x="-2.2714485"
       style="fill:#008000;fill-opacity:1;stroke:#000000;stroke-width:1.87385237;stroke-miterlimit:4;stroke-dasharray:none;stroke-opacity:1"
       id="circle1099"
       cx="412.83936"
       cy="-28.150372"
       r="10.978686" />
    <circle
       r="10.978686"
       cy="-0.025833743"
       cx="448.14413"
       id="circle1101"
       style="fill:#008000;fill-opacity:1;stroke:#000000;stroke-width:1.87385237;stroke-miterlimit:4;stroke-dasharray:none;stroke-opacity:1"
       inkscape:transform-center-x="-2.2714753"
       inkscape:transform-center-y="-14.385858" />
    <circle
       inkscape:transform-center-y="-14.385858"
       inkscape:transform-center-x="-2.2714463"
       style="fill:#008000;fill-opacity:1;stroke:#000000;stroke-width:1.87385237;stroke-miterlimit:4;stroke-dasharray:none;stroke-opacity:1"
       id="circle1103"
       cx="440.578"
       cy="12.876623"
       r="10.978686" />
    <circle
       r="10.978686"
       cy="-19.027304"
       cx="408.41"
       id="circle1105"
       style="fill:#008000;fill-opacity:1;stroke:#000000;stroke-width:1.87385237;stroke-miterlimit:4;stroke-dasharray:none;stroke-opacity:1"
       inkscape:transform-center-x="-2.271427"
       inkscape:transform-center-y="-14.385862" />
    <circle
       inkscape:transform-center-y="-14.385859"
       inkscape:transform-center-x="-2.271449"
       style="fill:#008000;fill-opacity:1;stroke:#000000;stroke-width:1.87385237;stroke-miterlimit:4;stroke-dasharray:none;stroke-opacity:1"
       id="circle1107"
       cx="425.43228"
       cy="-4.5351086"
       r="10.978686" />
    <circle
       r="10.978686"
       cy="-8.7039948"
       cx="436.39825"
       id="circle1109"
       style="fill:#008000;fill-opacity:1;stroke:#000000;stroke-width:1.87385237;stroke-miterlimit:4;stroke-dasharray:none;stroke-opacity:1"
       inkscape:transform-center-x="-2.2714374"
       inkscape:transform-center-y="-14.385869" />
    <circle
       inkscape:transform-center-y="-14.385868"
       inkscape:transform-center-x="-2.2714518"
       style="fill:#008000;fill-opacity:1;stroke:#000000;stroke-width:1.87385237;stroke-miterlimit:4;stroke-dasharray:none;stroke-opacity:1"
       id="circle1111"
       cx="402.33014"
       cy="-3.782522"
       r="10.978686" />
    <circle
       r="10.978686"
       cy="18.174845"
       cx="350.46167"
       id="circle1113"
       style="fill:#008000;fill-opacity:1;stroke:#000000;stroke-width:1.87385237;stroke-miterlimit:4;stroke-dasharray:none;stroke-opacity:1"
       inkscape:transform-center-x="-2.2714681"
       inkscape:transform-center-y="-14.385866" />
    <circle
       inkscape:transform-center-y="-14.385866"
       inkscape:transform-center-x="-2.2714517"
       style="fill:#008000;fill-opacity:1;stroke:#000000;stroke-width:1.87385237;stroke-miterlimit:4;stroke-dasharray:none;stroke-opacity:1"
       id="circle1115"
       cx="380.36908"
       cy="-0.75391155"
       r="10.978686" />
    <circle
       inkscape:transform-center-y="-14.385855"
       inkscape:transform-center-x="-2.2714455"
       style="fill:#008000;fill-opacity:1;stroke:#000000;stroke-width:1.87385237;stroke-miterlimit:4;stroke-dasharray:none;stroke-opacity:1"
       id="circle1117"
       cx="362.19748"
       cy="2.6532779"
       r="10.978686" />
    <circle
       r="10.978686"
       cy="4.1393857"
       cx="370.13669"
       id="circle1119"
       style="fill:#008000;fill-opacity:1;stroke:#000000;stroke-width:1.87385237;stroke-miterlimit:4;stroke-dasharray:none;stroke-opacity:1"
       inkscape:transform-center-x="-2.2714697"
       inkscape:transform-center-y="-14.385871" />
    <circle
       r="10.978686"
       cy="-18.655993"
       cx="420.47446"
       id="circle1121"
       style="fill:#008000;fill-opacity:1;stroke:#000000;stroke-width:1.87385237;stroke-miterlimit:4;stroke-dasharray:none;stroke-opacity:1"
       inkscape:transform-center-x="-2.2714559"
       inkscape:transform-center-y="-14.385861" />
    <circle
       r="10.978686"
       cy="-17.032646"
       cx="388.69778"
       id="circle1123"
       style="fill:#008000;fill-opacity:1;stroke:#000000;stroke-width:1.87385237;stroke-miterlimit:4;stroke-dasharray:none;stroke-opacity:1"
       inkscape:transform-center-x="-2.2714568"
       inkscape:transform-center-y="-14.385859" />
  </g>
</svg>
