<?xml version="1.0" encoding="UTF-8" standalone="no"?>
<!-- Created with Inkscape (http://www.inkscape.org/) -->

<svg
   xmlns:dc="http://purl.org/dc/elements/1.1/"
   xmlns:cc="http://creativecommons.org/ns#"
   xmlns:rdf="http://www.w3.org/1999/02/22-rdf-syntax-ns#"
   xmlns:svg="http://www.w3.org/2000/svg"
   xmlns="http://www.w3.org/2000/svg"
   xmlns:sodipodi="http://sodipodi.sourceforge.net/DTD/sodipodi-0.dtd"
   xmlns:inkscape="http://www.inkscape.org/namespaces/inkscape"
   width="1024"
   height="1024"
   viewBox="0 0 270.93333 270.93334"
   version="1.1"
   id="svg1555"
   inkscape:version="0.92.2 (5c3e80d, 2017-08-06)"
   sodipodi:docname="Merlin_Staff.svg"
   inkscape:export-filename="G:\Documents\Digipen\Semester 02\GAM150\drqst\Production\Illustrations\Merlin\Merlin_Staff.png"
   inkscape:export-xdpi="96"
   inkscape:export-ydpi="96">
  <defs
     id="defs1549" />
  <sodipodi:namedview
     id="base"
     pagecolor="#ffffff"
     bordercolor="#666666"
     borderopacity="1.0"
     inkscape:pageopacity="0.0"
     inkscape:pageshadow="2"
     inkscape:zoom="0.49497475"
     inkscape:cx="-54.884275"
     inkscape:cy="528.01439"
     inkscape:document-units="mm"
     inkscape:current-layer="layer1"
     showgrid="false"
     units="px"
     inkscape:pagecheckerboard="true"
     inkscape:window-width="1920"
     inkscape:window-height="1057"
     inkscape:window-x="-32000"
     inkscape:window-y="-32000"
     inkscape:window-maximized="0" />
  <metadata
     id="metadata1552">
    <rdf:RDF>
      <cc:Work
         rdf:about="">
        <dc:format>image/svg+xml</dc:format>
        <dc:type
           rdf:resource="http://purl.org/dc/dcmitype/StillImage" />
        <dc:title />
      </cc:Work>
    </rdf:RDF>
  </metadata>
  <g
     inkscape:label="Layer 1"
     inkscape:groupmode="layer"
     id="layer1"
     transform="translate(0,-26.06665)">
    <path
       style="fill:#a05a2c;stroke:#000000;stroke-width:3.96875;stroke-linecap:butt;stroke-linejoin:miter;stroke-miterlimit:4;stroke-dasharray:none;stroke-opacity:1"
       d="M 112.12251,69.194979 C 120.10442,75.658028 108.02295,95.21193 97.832613,96.492157 77.252082,99.07772 52.414757,55.467005 56.232582,50.214432 59.076225,46.302142 127.45205,15.44213 145.6171,39.335903 c 4.57207,6.013965 -11.5819,15.011244 -8.65541,20.945841 30.72169,62.300346 59.48758,227.392736 45.38726,230.309726 -16.61964,3.43817 -35.92486,-157.38537 -59.97915,-212.345209 -2.94798,-6.362013 -6.51871,-14.7629 -13.13468,-18.331844 -7.12177,-3.841793 -19.88276,-7.786872 -24.256004,-0.978512 -4.657528,7.250939 3.252297,21.306419 11.689929,23.060003 6.548965,1.361066 10.255025,-17.010169 15.453465,-12.800929 z"
       id="path2100"
       inkscape:connector-curvature="0"
       sodipodi:nodetypes="aasasscaaaa" />
    <path
       sodipodi:type="star"
       style="opacity:1;fill:#ffff00;fill-opacity:1;stroke:none;stroke-width:4.6537447;stroke-miterlimit:4;stroke-dasharray:none;stroke-opacity:1;paint-order:markers stroke fill"
       id="path2102"
       sodipodi:sides="5"
       sodipodi:cx="116.4279"
       sodipodi:cy="41.747402"
       sodipodi:r1="9.202692"
       sodipodi:r2="4.7650523"
       sodipodi:arg1="0.74926931"
       sodipodi:arg2="1.3775878"
       inkscape:flatsided="false"
       inkscape:rounded="0.05"
       inkscape:randomized="0.004"
       d="m 123.18085,47.988965 c -0.20453,0.221198 -5.5729,-1.636035 -5.86968,-1.577982 -0.29678,0.05805 -4.48163,3.791612 -4.75604,3.665517 -0.27442,-0.126096 -0.13843,-5.723986 -0.28643,-5.986997 -0.148,-0.263011 -5.03075,-3.149959 -4.99469,-3.449179 0.0361,-0.29922 5.44274,-1.93112 5.6499,-2.151109 0.20717,-0.219989 1.41263,-5.730424 1.70803,-5.789789 0.29539,-0.05937 3.5318,4.599198 3.80489,4.726809 0.27308,0.12761 5.91378,-0.434801 6.06085,-0.171304 0.14707,0.263498 -3.3138,4.796826 -3.34833,5.096352 -0.0345,0.299526 2.23602,5.416484 2.0315,5.637682 z"
       transform="translate(-20.289672,25.042891)"
       inkscape:transform-center-x="0.51132756"
       inkscape:transform-center-y="-0.33778502" />
  </g>
</svg>
