<?xml version="1.0" encoding="UTF-8" standalone="no"?>
<!-- Created with Inkscape (http://www.inkscape.org/) -->

<svg
   xmlns:dc="http://purl.org/dc/elements/1.1/"
   xmlns:cc="http://creativecommons.org/ns#"
   xmlns:rdf="http://www.w3.org/1999/02/22-rdf-syntax-ns#"
   xmlns:svg="http://www.w3.org/2000/svg"
   xmlns="http://www.w3.org/2000/svg"
   xmlns:sodipodi="http://sodipodi.sourceforge.net/DTD/sodipodi-0.dtd"
   xmlns:inkscape="http://www.inkscape.org/namespaces/inkscape"
   width="1024"
   height="1024"
   viewBox="0 0 270.93333 270.93334"
   version="1.1"
   id="svg968"
   inkscape:version="0.92.2 (5c3e80d, 2017-08-06)"
   sodipodi:docname="Merlin_Body.svg"
   inkscape:export-filename="G:\Documents\Digipen\Semester 02\GAM150\drqst\Production\Illustrations\Merlin\Merlin_Body.png"
   inkscape:export-xdpi="96"
   inkscape:export-ydpi="96">
  <defs
     id="defs962" />
  <sodipodi:namedview
     id="base"
     pagecolor="#ffffff"
     bordercolor="#666666"
     borderopacity="1.0"
     inkscape:pageopacity="0.0"
     inkscape:pageshadow="2"
     inkscape:zoom="0.49497475"
     inkscape:cx="46.401395"
     inkscape:cy="763.14122"
     inkscape:document-units="mm"
     inkscape:current-layer="layer1"
     showgrid="false"
     units="px"
     inkscape:pagecheckerboard="true"
     inkscape:window-width="1920"
     inkscape:window-height="1057"
     inkscape:window-x="-32000"
     inkscape:window-y="-32000"
     inkscape:window-maximized="0" />
  <metadata
     id="metadata965">
    <rdf:RDF>
      <cc:Work
         rdf:about="">
        <dc:format>image/svg+xml</dc:format>
        <dc:type
           rdf:resource="http://purl.org/dc/dcmitype/StillImage" />
        <dc:title />
      </cc:Work>
    </rdf:RDF>
  </metadata>
  <g
     inkscape:groupmode="layer"
     id="layer5"
     inkscape:label="Layer 2">
    <path
       sodipodi:nodetypes="zzsssssssssssz"
       inkscape:connector-curvature="0"
       id="path1516"
       d="m 107.12805,56.854037 c 14.56332,-7.132557 4.09968,8.386744 27.47963,8.386744 23.37994,0 12.68841,-20.204979 26.64097,-10.023385 13.95254,10.18159 4.70177,74.136704 15.63756,92.237304 6.78317,11.22731 76.50845,112.71484 48.60335,88.58071 -27.9051,-24.13414 -49.3683,-51.24054 -50.12249,-30.12317 -0.75421,21.11737 -8.13329,81.23845 -15.67522,54.84174 -7.54191,-26.39672 -9.09791,-76.6749 -25.31304,-46.13012 -16.21514,30.54478 -15.79042,75.87308 -17.67589,41.18025 -1.88548,-34.69282 -7.73777,-71.40091 -16.41098,-44.62711 -8.673198,26.77381 -29.322079,74.89924 -22.534349,30.77902 6.78773,-44.12024 -60.020468,12.11083 -56.249509,1.17506 3.77096,-10.93579 75.108199,-83.13667 82.558668,-94.13497 7.91901,-11.68999 -11.502015,-85.009519 3.0613,-92.142073 z"
       style="fill:#000027;stroke:#000000;stroke-width:3.95950747;stroke-linecap:butt;stroke-linejoin:miter;stroke-miterlimit:4;stroke-dasharray:none;stroke-opacity:1;fill-opacity:1" />
  </g>
  <g
     inkscape:label="Layer 1"
     inkscape:groupmode="layer"
     id="layer1"
     transform="translate(0,-26.06665)">
    <path
       style="fill:#000080;stroke:#000000;stroke-width:3.96875;stroke-linecap:butt;stroke-linejoin:miter;stroke-opacity:1;stroke-miterlimit:4;stroke-dasharray:none"
       d="m 78.24107,37.708316 c 14.597309,-7.149203 32.50596,40.821428 55.94048,40.821425 23.43451,-3e-6 51.02678,-48.380948 65.0119,-38.175591 13.98512,10.205356 -27.97024,117.17262 -17.00892,135.31547 6.799,11.25352 70.30356,111.125 42.33332,86.93453 -27.97023,-24.19048 -51.40476,-62.36607 -52.16071,-41.19941 -0.75596,21.16667 -4.53571,85.04464 -12.09524,58.58632 -7.55952,-26.45834 -8.31547,-78.99703 -24.56845,-48.38096 -16.25298,30.61608 -16.63095,78.99701 -18.52083,44.22321 -1.88988,-34.77381 -8.69345,-77.86309 -17.38691,-51.02678 -8.69345,26.83631 -24.568448,77.48512 -17.764877,33.26191 C 88.824405,213.84522 20.78869,275.83331 24.568452,264.872 28.348214,253.91069 89.672031,185.55967 97.139881,174.5357 105.07738,162.81843 63.64376,44.857519 78.24107,37.708316 Z"
       id="path1513"
       inkscape:connector-curvature="0"
       sodipodi:nodetypes="zzsssssssssssz" />
    <path
       sodipodi:type="star"
       style="opacity:1;fill:#ffff00;fill-opacity:1;stroke:none;stroke-width:3.96875;stroke-miterlimit:4;stroke-dasharray:none;stroke-opacity:1;paint-order:markers stroke fill"
       id="path1523"
       sodipodi:sides="5"
       sodipodi:cx="121.70833"
       sodipodi:cy="88.370834"
       sodipodi:r1="10.59008"
       sodipodi:r2="5.4834275"
       sodipodi:arg1="1.6064954"
       sodipodi:arg2="2.234814"
       inkscape:flatsided="false"
       inkscape:rounded="0.05"
       inkscape:randomized="0.004"
       d="m 121.30134,98.968624 c -0.34712,-0.01244 -2.6798,-6.079797 -2.95467,-6.293246 -0.27487,-0.213448 -6.68856,-1.032552 -6.78273,-1.366536 -0.0942,-0.333984 4.8997,-4.523114 5.02041,-4.849202 0.12071,-0.326088 -1.08372,-6.714859 -0.79651,-6.910593 0.28721,-0.195734 5.78584,3.356804 6.1324,3.368158 0.34656,0.01135 6.03116,-3.089521 6.30586,-2.875989 0.2747,0.213532 -1.38224,6.518318 -1.28581,6.852192 0.0964,0.333875 4.82513,4.807901 4.70407,5.133804 -0.12107,0.325904 -6.61075,0.677202 -6.89961,0.869247 -0.28885,0.192045 -3.0963,6.08461 -3.44341,6.072165 z"
       transform="translate(-21.922619,-9.8410881)"
       inkscape:transform-center-x="0.094549106"
       inkscape:transform-center-y="0.90281441" />
    <path
       inkscape:transform-center-y="0.90281441"
       inkscape:transform-center-x="0.094549106"
       transform="translate(9.827381,41.563674)"
       d="m 121.30134,98.968624 c -0.34712,-0.01244 -2.6798,-6.079797 -2.95467,-6.293246 -0.27487,-0.213448 -6.68856,-1.032552 -6.78273,-1.366536 -0.0942,-0.333984 4.8997,-4.523114 5.02041,-4.849202 0.12071,-0.326088 -1.08372,-6.714859 -0.79651,-6.910593 0.28721,-0.195734 5.78584,3.356804 6.1324,3.368158 0.34656,0.01135 6.03116,-3.089521 6.30586,-2.875989 0.2747,0.213532 -1.38224,6.518318 -1.28581,6.852192 0.0964,0.333875 4.82513,4.807901 4.70407,5.133804 -0.12107,0.325904 -6.61075,0.677202 -6.89961,0.869247 -0.28885,0.192045 -3.0963,6.08461 -3.44341,6.072165 z"
       inkscape:randomized="0.004"
       inkscape:rounded="0.05"
       inkscape:flatsided="false"
       sodipodi:arg2="2.234814"
       sodipodi:arg1="1.6064954"
       sodipodi:r2="5.4834275"
       sodipodi:r1="10.59008"
       sodipodi:cy="88.370834"
       sodipodi:cx="121.70833"
       sodipodi:sides="5"
       id="path1525"
       style="opacity:1;fill:#ffff00;fill-opacity:1;stroke:none;stroke-width:3.96875;stroke-miterlimit:4;stroke-dasharray:none;stroke-opacity:1;paint-order:markers stroke fill"
       sodipodi:type="star" />
    <path
       sodipodi:type="star"
       style="opacity:1;fill:#ffff00;fill-opacity:1;stroke:none;stroke-width:3.96875;stroke-miterlimit:4;stroke-dasharray:none;stroke-opacity:1;paint-order:markers stroke fill"
       id="path1527"
       sodipodi:sides="5"
       sodipodi:cx="121.70833"
       sodipodi:cy="88.370834"
       sodipodi:r1="10.59008"
       sodipodi:r2="5.4834275"
       sodipodi:arg1="1.6064954"
       sodipodi:arg2="2.234814"
       inkscape:flatsided="false"
       inkscape:rounded="0.05"
       inkscape:randomized="0.004"
       d="m 121.30134,98.968624 c -0.34712,-0.01244 -2.6798,-6.079797 -2.95467,-6.293246 -0.27487,-0.213448 -6.68856,-1.032552 -6.78273,-1.366536 -0.0942,-0.333984 4.8997,-4.523114 5.02041,-4.849202 0.12071,-0.326088 -1.08372,-6.714859 -0.79651,-6.910593 0.28721,-0.195734 5.78584,3.356804 6.1324,3.368158 0.34656,0.01135 6.03116,-3.089521 6.30586,-2.875989 0.2747,0.213532 -1.38224,6.518318 -1.28581,6.852192 0.0964,0.333875 4.82513,4.807901 4.70407,5.133804 -0.12107,0.325904 -6.61075,0.677202 -6.89961,0.869247 -0.28885,0.192045 -3.0963,6.08461 -3.44341,6.072165 z"
       transform="translate(60.098214,-6.8172789)"
       inkscape:transform-center-x="0.094549106"
       inkscape:transform-center-y="0.90281441" />
    <path
       inkscape:transform-center-y="0.90281441"
       inkscape:transform-center-x="0.094549106"
       transform="translate(24.190476,5.6559354)"
       d="m 121.30134,98.968624 c -0.34712,-0.01244 -2.6798,-6.079797 -2.95467,-6.293246 -0.27487,-0.213448 -6.68856,-1.032552 -6.78273,-1.366536 -0.0942,-0.333984 4.8997,-4.523114 5.02041,-4.849202 0.12071,-0.326088 -1.08372,-6.714859 -0.79651,-6.910593 0.28721,-0.195734 5.78584,3.356804 6.1324,3.368158 0.34656,0.01135 6.03116,-3.089521 6.30586,-2.875989 0.2747,0.213532 -1.38224,6.518318 -1.28581,6.852192 0.0964,0.333875 4.82513,4.807901 4.70407,5.133804 -0.12107,0.325904 -6.61075,0.677202 -6.89961,0.869247 -0.28885,0.192045 -3.0963,6.08461 -3.44341,6.072165 z"
       inkscape:randomized="0.004"
       inkscape:rounded="0.05"
       inkscape:flatsided="false"
       sodipodi:arg2="2.234814"
       sodipodi:arg1="1.6064954"
       sodipodi:r2="5.4834275"
       sodipodi:r1="10.59008"
       sodipodi:cy="88.370834"
       sodipodi:cx="121.70833"
       sodipodi:sides="5"
       id="path1529"
       style="opacity:1;fill:#ffff00;fill-opacity:1;stroke:none;stroke-width:3.96875;stroke-miterlimit:4;stroke-dasharray:none;stroke-opacity:1;paint-order:markers stroke fill"
       sodipodi:type="star" />
    <path
       sodipodi:type="star"
       style="opacity:1;fill:#ffff00;fill-opacity:1;stroke:none;stroke-width:3.96875;stroke-miterlimit:4;stroke-dasharray:none;stroke-opacity:1;paint-order:markers stroke fill"
       id="path1531"
       sodipodi:sides="5"
       sodipodi:cx="121.70833"
       sodipodi:cy="88.370834"
       sodipodi:r1="10.59008"
       sodipodi:r2="5.4834275"
       sodipodi:arg1="1.6064954"
       sodipodi:arg2="2.234814"
       inkscape:flatsided="false"
       inkscape:rounded="0.05"
       inkscape:randomized="0.004"
       d="m 121.30134,98.968624 c -0.34712,-0.01244 -2.6798,-6.079797 -2.95467,-6.293246 -0.27487,-0.213448 -6.68856,-1.032552 -6.78273,-1.366536 -0.0942,-0.333984 4.8997,-4.523114 5.02041,-4.849202 0.12071,-0.326088 -1.08372,-6.714859 -0.79651,-6.910593 0.28721,-0.195734 5.78584,3.356804 6.1324,3.368158 0.34656,0.01135 6.03116,-3.089521 6.30586,-2.875989 0.2747,0.213532 -1.38224,6.518318 -1.28581,6.852192 0.0964,0.333875 4.82513,4.807901 4.70407,5.133804 -0.12107,0.325904 -6.61075,0.677202 -6.89961,0.869247 -0.28885,0.192045 -3.0963,6.08461 -3.44341,6.072165 z"
       transform="translate(43.467262,47.233317)"
       inkscape:transform-center-x="0.094549106"
       inkscape:transform-center-y="0.90281441" />
    <path
       inkscape:transform-center-y="0.90281441"
       inkscape:transform-center-x="0.094549106"
       transform="translate(-15.497024,103.55177)"
       d="m 121.30134,98.968624 c -0.34712,-0.01244 -2.6798,-6.079797 -2.95467,-6.293246 -0.27487,-0.213448 -6.68856,-1.032552 -6.78273,-1.366536 -0.0942,-0.333984 4.8997,-4.523114 5.02041,-4.849202 0.12071,-0.326088 -1.08372,-6.714859 -0.79651,-6.910593 0.28721,-0.195734 5.78584,3.356804 6.1324,3.368158 0.34656,0.01135 6.03116,-3.089521 6.30586,-2.875989 0.2747,0.213532 -1.38224,6.518318 -1.28581,6.852192 0.0964,0.333875 4.82513,4.807901 4.70407,5.133804 -0.12107,0.325904 -6.61075,0.677202 -6.89961,0.869247 -0.28885,0.192045 -3.0963,6.08461 -3.44341,6.072165 z"
       inkscape:randomized="0.004"
       inkscape:rounded="0.05"
       inkscape:flatsided="false"
       sodipodi:arg2="2.234814"
       sodipodi:arg1="1.6064954"
       sodipodi:r2="5.4834275"
       sodipodi:r1="10.59008"
       sodipodi:cy="88.370834"
       sodipodi:cx="121.70833"
       sodipodi:sides="5"
       id="path1533"
       style="opacity:1;fill:#ffff00;fill-opacity:1;stroke:none;stroke-width:3.96875;stroke-miterlimit:4;stroke-dasharray:none;stroke-opacity:1;paint-order:markers stroke fill"
       sodipodi:type="star" />
    <path
       sodipodi:type="star"
       style="opacity:1;fill:#ffff00;fill-opacity:1;stroke:none;stroke-width:2.19279718;stroke-miterlimit:4;stroke-dasharray:none;stroke-opacity:1;paint-order:markers stroke fill"
       id="path1535"
       sodipodi:sides="5"
       sodipodi:cx="67.245781"
       sodipodi:cy="48.826286"
       sodipodi:r1="5.8511872"
       sodipodi:r2="3.0296805"
       sodipodi:arg1="1.6064954"
       sodipodi:arg2="2.234814"
       inkscape:flatsided="false"
       inkscape:rounded="0.05"
       inkscape:randomized="0.004"
       d="m 67.035104,54.665606 c -0.191531,-0.0078 -1.48554,-3.33737 -1.637306,-3.454831 -0.151767,-0.11746 -3.744642,-0.581455 -3.797231,-0.766371 -0.05259,-0.184916 2.742273,-2.494297 2.809006,-2.674477 0.06673,-0.18018 -0.598886,-3.691611 -0.440386,-3.799759 0.1585,-0.108148 3.207468,1.813733 3.399509,1.821614 0.192041,0.0079 3.345304,-1.690186 3.496275,-1.571765 0.150971,0.118421 -0.778514,3.572198 -0.725379,3.756251 0.05313,0.184053 2.653015,2.651925 2.586884,2.832489 -0.06613,0.180563 -3.650537,0.42023 -3.81008,0.527216 -0.159543,0.106986 -1.689761,3.337424 -1.881292,3.329633 z"
       transform="translate(135.91209,178.07676)"
       inkscape:transform-center-x="0.076951612"
       inkscape:transform-center-y="0.49974271" />
    <path
       inkscape:transform-center-y="0.90281441"
       inkscape:transform-center-x="0.094549106"
       transform="translate(11.150298,74.069624)"
       d="m 121.30134,98.968624 c -0.34712,-0.01244 -2.6798,-6.079797 -2.95467,-6.293246 -0.27487,-0.213448 -6.68856,-1.032552 -6.78273,-1.366536 -0.0942,-0.333984 4.8997,-4.523114 5.02041,-4.849202 0.12071,-0.326088 -1.08372,-6.714859 -0.79651,-6.910593 0.28721,-0.195734 5.78584,3.356804 6.1324,3.368158 0.34656,0.01135 6.03116,-3.089521 6.30586,-2.875989 0.2747,0.213532 -1.38224,6.518318 -1.28581,6.852192 0.0964,0.333875 4.82513,4.807901 4.70407,5.133804 -0.12107,0.325904 -6.61075,0.677202 -6.89961,0.869247 -0.28885,0.192045 -3.0963,6.08461 -3.44341,6.072165 z"
       inkscape:randomized="0.004"
       inkscape:rounded="0.05"
       inkscape:flatsided="false"
       sodipodi:arg2="2.234814"
       sodipodi:arg1="1.6064954"
       sodipodi:r2="5.4834275"
       sodipodi:r1="10.59008"
       sodipodi:cy="88.370834"
       sodipodi:cx="121.70833"
       sodipodi:sides="5"
       id="path1537"
       style="opacity:1;fill:#ffff00;fill-opacity:1;stroke:none;stroke-width:3.96875;stroke-miterlimit:4;stroke-dasharray:none;stroke-opacity:1;paint-order:markers stroke fill"
       sodipodi:type="star" />
    <path
       sodipodi:type="star"
       style="opacity:1;fill:#ffff00;fill-opacity:1;stroke:none;stroke-width:3.96875;stroke-miterlimit:4;stroke-dasharray:none;stroke-opacity:1;paint-order:markers stroke fill"
       id="path1539"
       sodipodi:sides="5"
       sodipodi:cx="121.70833"
       sodipodi:cy="88.370834"
       sodipodi:r1="10.59008"
       sodipodi:r2="5.4834275"
       sodipodi:arg1="1.6064954"
       sodipodi:arg2="2.234814"
       inkscape:flatsided="false"
       inkscape:rounded="0.05"
       inkscape:randomized="0.004"
       d="m 121.30134,98.968624 c -0.34712,-0.01244 -2.6798,-6.079797 -2.95467,-6.293246 -0.27487,-0.213448 -6.68856,-1.032552 -6.78273,-1.366536 -0.0942,-0.333984 4.8997,-4.523114 5.02041,-4.849202 0.12071,-0.326088 -1.08372,-6.714859 -0.79651,-6.910593 0.28721,-0.195734 5.78584,3.356804 6.1324,3.368158 0.34656,0.01135 6.03116,-3.089521 6.30586,-2.875989 0.2747,0.213532 -1.38224,6.518318 -1.28581,6.852192 0.0964,0.333875 4.82513,4.807901 4.70407,5.133804 -0.12107,0.325904 -6.61075,0.677202 -6.89961,0.869247 -0.28885,0.192045 -3.0963,6.08461 -3.44341,6.072165 z"
       transform="translate(24.001488,115.08004)"
       inkscape:transform-center-x="0.094549106"
       inkscape:transform-center-y="0.90281441" />
    <path
       inkscape:transform-center-y="0.90281441"
       inkscape:transform-center-x="0.094549106"
       transform="translate(-42.333334,135.67974)"
       d="m 121.30134,98.968624 c -0.34712,-0.01244 -2.6798,-6.079797 -2.95467,-6.293246 -0.27487,-0.213448 -6.68856,-1.032552 -6.78273,-1.366536 -0.0942,-0.333984 4.8997,-4.523114 5.02041,-4.849202 0.12071,-0.326088 -1.08372,-6.714859 -0.79651,-6.910593 0.28721,-0.195734 5.78584,3.356804 6.1324,3.368158 0.34656,0.01135 6.03116,-3.089521 6.30586,-2.875989 0.2747,0.213532 -1.38224,6.518318 -1.28581,6.852192 0.0964,0.333875 4.82513,4.807901 4.70407,5.133804 -0.12107,0.325904 -6.61075,0.677202 -6.89961,0.869247 -0.28885,0.192045 -3.0963,6.08461 -3.44341,6.072165 z"
       inkscape:randomized="0.004"
       inkscape:rounded="0.05"
       inkscape:flatsided="false"
       sodipodi:arg2="2.234814"
       sodipodi:arg1="1.6064954"
       sodipodi:r2="5.4834275"
       sodipodi:r1="10.59008"
       sodipodi:cy="88.370834"
       sodipodi:cx="121.70833"
       sodipodi:sides="5"
       id="path1541"
       style="opacity:1;fill:#ffff00;fill-opacity:1;stroke:none;stroke-width:3.96875;stroke-miterlimit:4;stroke-dasharray:none;stroke-opacity:1;paint-order:markers stroke fill"
       sodipodi:type="star" />
    <path
       sodipodi:type="star"
       style="opacity:1;fill:#ffff00;fill-opacity:1;stroke:none;stroke-width:3.96875;stroke-miterlimit:4;stroke-dasharray:none;stroke-opacity:1;paint-order:markers stroke fill"
       id="path1543"
       sodipodi:sides="5"
       sodipodi:cx="121.70833"
       sodipodi:cy="88.370834"
       sodipodi:r1="10.59008"
       sodipodi:r2="5.4834275"
       sodipodi:arg1="1.6064954"
       sodipodi:arg2="2.234814"
       inkscape:flatsided="false"
       inkscape:rounded="0.05"
       inkscape:randomized="0.004"
       d="m 121.30134,98.968624 c -0.34712,-0.01244 -2.6798,-6.079797 -2.95467,-6.293246 -0.27487,-0.213448 -6.68856,-1.032552 -6.78273,-1.366536 -0.0942,-0.333984 4.8997,-4.523114 5.02041,-4.849202 0.12071,-0.326088 -1.08372,-6.714859 -0.79651,-6.910593 0.28721,-0.195734 5.78584,3.356804 6.1324,3.368158 0.34656,0.01135 6.03116,-3.089521 6.30586,-2.875989 0.2747,0.213532 -1.38224,6.518318 -1.28581,6.852192 0.0964,0.333875 4.82513,4.807901 4.70407,5.133804 -0.12107,0.325904 -6.61075,0.677202 -6.89961,0.869247 -0.28885,0.192045 -3.0963,6.08461 -3.44341,6.072165 z"
       transform="translate(-42.333334,135.67974)"
       inkscape:transform-center-x="0.094549106"
       inkscape:transform-center-y="0.90281441" />
    <path
       inkscape:transform-center-y="0.90281441"
       inkscape:transform-center-x="0.094549106"
       transform="translate(47.436012,97.693136)"
       d="m 121.30134,98.968624 c -0.34712,-0.01244 -2.6798,-6.079797 -2.95467,-6.293246 -0.27487,-0.213448 -6.68856,-1.032552 -6.78273,-1.366536 -0.0942,-0.333984 4.8997,-4.523114 5.02041,-4.849202 0.12071,-0.326088 -1.08372,-6.714859 -0.79651,-6.910593 0.28721,-0.195734 5.78584,3.356804 6.1324,3.368158 0.34656,0.01135 6.03116,-3.089521 6.30586,-2.875989 0.2747,0.213532 -1.38224,6.518318 -1.28581,6.852192 0.0964,0.333875 4.82513,4.807901 4.70407,5.133804 -0.12107,0.325904 -6.61075,0.677202 -6.89961,0.869247 -0.28885,0.192045 -3.0963,6.08461 -3.44341,6.072165 z"
       inkscape:randomized="0.004"
       inkscape:rounded="0.05"
       inkscape:flatsided="false"
       sodipodi:arg2="2.234814"
       sodipodi:arg1="1.6064954"
       sodipodi:r2="5.4834275"
       sodipodi:r1="10.59008"
       sodipodi:cy="88.370834"
       sodipodi:cx="121.70833"
       sodipodi:sides="5"
       id="path1545"
       style="opacity:1;fill:#ffff00;fill-opacity:1;stroke:none;stroke-width:3.96875;stroke-miterlimit:4;stroke-dasharray:none;stroke-opacity:1;paint-order:markers stroke fill"
       sodipodi:type="star" />
    <path
       sodipodi:type="star"
       style="opacity:1;fill:#ffff00;fill-opacity:1;stroke:none;stroke-width:3.96875;stroke-miterlimit:4;stroke-dasharray:none;stroke-opacity:1;paint-order:markers stroke fill"
       id="path1547"
       sodipodi:sides="5"
       sodipodi:cx="121.70833"
       sodipodi:cy="88.370834"
       sodipodi:r1="10.59008"
       sodipodi:r2="5.4834275"
       sodipodi:arg1="1.6064954"
       sodipodi:arg2="2.234814"
       inkscape:flatsided="false"
       inkscape:rounded="0.05"
       inkscape:randomized="0.004"
       d="m 121.30134,98.968624 c -0.34712,-0.01244 -2.6798,-6.079797 -2.95467,-6.293246 -0.27487,-0.213448 -6.68856,-1.032552 -6.78273,-1.366536 -0.0942,-0.333984 4.8997,-4.523114 5.02041,-4.849202 0.12071,-0.326088 -1.08372,-6.714859 -0.79651,-6.910593 0.28721,-0.195734 5.78584,3.356804 6.1324,3.368158 0.34656,0.01135 6.03116,-3.089521 6.30586,-2.875989 0.2747,0.213532 -1.38224,6.518318 -1.28581,6.852192 0.0964,0.333875 4.82513,4.807901 4.70407,5.133804 -0.12107,0.325904 -6.61075,0.677202 -6.89961,0.869247 -0.28885,0.192045 -3.0963,6.08461 -3.44341,6.072165 z"
       transform="translate(-14.741072,19.263078)"
       inkscape:transform-center-x="0.094549106"
       inkscape:transform-center-y="0.90281441" />
  </g>
</svg>
