<?xml version="1.0" encoding="UTF-8" standalone="no"?>
<!-- Created with Inkscape (http://www.inkscape.org/) -->

<svg
   xmlns:dc="http://purl.org/dc/elements/1.1/"
   xmlns:cc="http://creativecommons.org/ns#"
   xmlns:rdf="http://www.w3.org/1999/02/22-rdf-syntax-ns#"
   xmlns:svg="http://www.w3.org/2000/svg"
   xmlns="http://www.w3.org/2000/svg"
   xmlns:sodipodi="http://sodipodi.sourceforge.net/DTD/sodipodi-0.dtd"
   xmlns:inkscape="http://www.inkscape.org/namespaces/inkscape"
   width="1024"
   height="1024"
   viewBox="0 0 270.93333 270.93334"
   version="1.1"
   id="svg8"
   inkscape:version="0.92.2 (5c3e80d, 2017-08-06)"
   sodipodi:docname="Lancelot_Head.svg"
   inkscape:export-filename="G:\Documents\Digipen\Semester 02\GAM150\drqst\Production\Illustrations\Lancelot\Lancelot_Head.png"
   inkscape:export-xdpi="96"
   inkscape:export-ydpi="96">
  <defs
     id="defs2" />
  <sodipodi:namedview
     id="base"
     pagecolor="#ffffff"
     bordercolor="#666666"
     borderopacity="1.0"
     inkscape:pageopacity="0.0"
     inkscape:pageshadow="2"
     inkscape:zoom="0.49497475"
     inkscape:cx="-55.278885"
     inkscape:cy="586.23854"
     inkscape:document-units="mm"
     inkscape:current-layer="layer1"
     showgrid="false"
     units="px"
     inkscape:pagecheckerboard="true"
     inkscape:window-width="1920"
     inkscape:window-height="1057"
     inkscape:window-x="-32000"
     inkscape:window-y="-32000"
     inkscape:window-maximized="0" />
  <metadata
     id="metadata5">
    <rdf:RDF>
      <cc:Work
         rdf:about="">
        <dc:format>image/svg+xml</dc:format>
        <dc:type
           rdf:resource="http://purl.org/dc/dcmitype/StillImage" />
        <dc:title />
      </cc:Work>
    </rdf:RDF>
  </metadata>
  <g
     inkscape:label="Layer 1"
     inkscape:groupmode="layer"
     id="layer1"
     transform="translate(0,-26.06665)">
    <path
       style="fill:#ffffff;stroke:#000000;stroke-width:4.53255224;stroke-linecap:butt;stroke-linejoin:miter;stroke-miterlimit:4;stroke-dasharray:none;stroke-opacity:1"
       d="m 190.6339,154.02361 a 23.655938,12.819992 8.3085718 0 0 -0.85044,-0.30099 23.655938,12.819992 8.3085718 0 0 -2.22083,-0.64507 23.655938,12.819992 8.3085718 0 0 -2.28635,-0.52702 23.655938,12.819992 8.3085718 0 0 -2.32705,-0.40486 23.655938,12.819992 8.3085718 0 0 -1.66077,-0.2101 23.655938,12.819992 8.3085718 0 0 -2.34477,-0.1859 23.655938,12.819992 8.3085718 0 0 -2.32352,-0.0561 23.655938,12.819992 8.3085718 0 0 -2.27925,0.0755 23.655938,12.819992 8.3085718 0 0 -2.2114,0.20596 23.655938,12.819992 8.3085718 0 0 -2.12169,0.33464 23.655938,12.819992 8.3085718 0 0 -2.01072,0.45974 23.655938,12.819992 8.3085718 0 0 -1.8803,0.58015 23.655938,12.819992 8.3085718 0 0 -1.73039,0.69463 23.655938,12.819992 8.3085718 0 0 -1.56338,0.80323 23.655938,12.819992 8.3085718 0 0 -1.38044,0.90238 23.655938,12.819992 8.3085718 0 0 -1.18447,0.99267 23.655938,12.819992 8.3085718 0 0 -0.97615,1.07412 23.655938,12.819992 8.3085718 0 0 -0.75838,1.14435 23.655938,12.819992 8.3085718 0 0 -0.53293,1.20278 23.655938,12.819992 8.3085718 0 0 -0.30218,1.24882 23.655938,12.819992 8.3085718 0 0 -0.072,0.90592 23.655938,12.819992 8.3085718 0 0 0.098,1.30016 23.655938,12.819992 8.3085718 0 0 0.33168,1.31196 23.655938,12.819992 8.3085718 0 0 0.56184,1.31138 23.655938,12.819992 8.3085718 0 0 0.7873,1.2966 23.655938,12.819992 8.3085718 0 0 1.00329,1.27006 23.655938,12.819992 8.3085718 0 0 1.21046,1.23053 23.655938,12.819992 8.3085718 0 0 1.40521,1.17799 23.655938,12.819992 8.3085718 0 0 1.5858,1.11424 23.655938,12.819992 8.3085718 0 0 1.75047,1.0393 23.655938,12.819992 8.3085718 0 0 1.898,0.95433 23.655938,12.819992 8.3085718 0 0 2.02608,0.85929 23.655938,12.819992 8.3085718 0 0 2.13466,0.75543 23.655938,12.819992 8.3085718 0 0 2.22142,0.64505 23.655938,12.819992 8.3085718 0 0 2.28576,0.52703 23.655938,12.819992 8.3085718 0 0 2.32766,0.40486 23.655938,12.819992 8.3085718 0 0 1.66015,0.21011 23.655938,12.819992 8.3085718 0 0 2.34536,0.18648 23.655938,12.819992 8.3085718 0 0 2.32353,0.0554 23.655938,12.819992 8.3085718 0 0 2.27866,-0.0755 23.655938,12.819992 8.3085718 0 0 2.21139,-0.20597 23.655938,12.819992 8.3085718 0 0 2.12169,-0.33462 23.655938,12.819992 8.3085718 0 0 1.02042,-0.23312 c -0.21671,-8.29725 -0.65468,-16.36109 -2.5714,-23.09596 z"
       id="path820"
       inkscape:connector-curvature="0" />
    <path
       style="fill:#a05a2c;stroke:#000000;stroke-width:4.53255224;stroke-linecap:butt;stroke-linejoin:miter;stroke-miterlimit:4;stroke-dasharray:none;stroke-opacity:1"
       d="m 135.9169,129.1648 c -19.25007,-0.41458 -38.180525,4.42816 -50.534992,16.83536 -29.889469,30.0171 -23.536442,103.84403 -9.547869,126.72261 11.943024,19.53305 84.374931,23.25765 121.930371,17.21425 37.55543,-6.0434 14.41171,-34.11097 -0.31811,-35.31376 -14.72982,-1.20281 -0.0826,-9.90738 5.09735,-6.99359 8.1392,4.57829 11.61508,-4.65017 3.845,-7.8877 -6.237,-2.59874 -22.2541,2.93215 -25.70748,-1.38455 -3.45337,-4.31674 17.48296,-6.00682 24.05498,-5.53172 8.95719,0.64751 7.83078,-6.29622 2.30347,-8.16451 -13.96151,-7.95974 -13.33321,-28.35523 -13.83432,-47.54163 a 23.655938,12.819992 8.3085718 0 1 -1.02042,0.23312 23.655938,12.819992 8.3085718 0 1 -2.12169,0.33463 23.655938,12.819992 8.3085718 0 1 -2.21138,0.20598 23.655938,12.819992 8.3085718 0 1 -2.27867,0.0755 23.655938,12.819992 8.3085718 0 1 -2.32353,-0.0554 23.655938,12.819992 8.3085718 0 1 -2.34536,-0.1865 23.655938,12.819992 8.3085718 0 1 -1.66015,-0.21009 23.655938,12.819992 8.3085718 0 1 -2.32766,-0.40488 23.655938,12.819992 8.3085718 0 1 -2.28575,-0.52702 23.655938,12.819992 8.3085718 0 1 -2.22142,-0.64506 23.655938,12.819992 8.3085718 0 1 -2.13467,-0.75543 23.655938,12.819992 8.3085718 0 1 -2.02608,-0.85929 23.655938,12.819992 8.3085718 0 1 -1.898,-0.95432 23.655938,12.819992 8.3085718 0 1 -1.75046,-1.0393 23.655938,12.819992 8.3085718 0 1 -1.58581,-1.11425 23.655938,12.819992 8.3085718 0 1 -1.40521,-1.17799 23.655938,12.819992 8.3085718 0 1 -1.21045,-1.23052 23.655938,12.819992 8.3085718 0 1 -1.0033,-1.27005 23.655938,12.819992 8.3085718 0 1 -0.78729,-1.29662 23.655938,12.819992 8.3085718 0 1 -0.56184,-1.31138 23.655938,12.819992 8.3085718 0 1 -0.33169,-1.31195 23.655938,12.819992 8.3085718 0 1 -0.098,-1.30017 23.655938,12.819992 8.3085718 0 1 0.072,-0.90592 23.655938,12.819992 8.3085718 0 1 0.30217,-1.24881 23.655938,12.819992 8.3085718 0 1 0.53293,-1.20278 23.655938,12.819992 8.3085718 0 1 0.75838,-1.14435 23.655938,12.819992 8.3085718 0 1 0.97615,-1.07411 23.655938,12.819992 8.3085718 0 1 1.18448,-0.99269 23.655938,12.819992 8.3085718 0 1 1.38043,-0.90238 23.655938,12.819992 8.3085718 0 1 1.56338,-0.80322 23.655938,12.819992 8.3085718 0 1 1.73039,-0.69463 23.655938,12.819992 8.3085718 0 1 1.8803,-0.58014 23.655938,12.819992 8.3085718 0 1 2.01073,-0.45976 23.655938,12.819992 8.3085718 0 1 2.12168,-0.33464 23.655938,12.819992 8.3085718 0 1 2.2114,-0.20596 23.655938,12.819992 8.3085718 0 1 2.27925,-0.0755 23.655938,12.819992 8.3085718 0 1 2.32353,0.056 23.655938,12.819992 8.3085718 0 1 2.34477,0.1859 23.655938,12.819992 8.3085718 0 1 1.66076,0.21011 23.655938,12.819992 8.3085718 0 1 2.32706,0.40485 23.655938,12.819992 8.3085718 0 1 2.28634,0.52703 23.655938,12.819992 8.3085718 0 1 2.22083,0.64506 23.655938,12.819992 8.3085718 0 1 0.85044,0.30099 c -1.98817,-6.98593 -5.55654,-12.55388 -12.1647,-15.43545 -12.41466,-5.59763 -27.58,-9.10089 -42.55229,-9.42336 z"
       id="path815"
       inkscape:connector-curvature="0" />
    <ellipse
       style="opacity:1;fill:#000000;fill-opacity:1;stroke:none;stroke-width:4.53255224;stroke-miterlimit:4;stroke-dasharray:none;stroke-opacity:1;paint-order:markers stroke fill"
       id="path822"
       cx="187.32393"
       cy="165.3717"
       rx="4.5325522"
       ry="3.8850448" />
    <path
       style="opacity:1;fill:#000000;fill-opacity:1;stroke:none;stroke-width:4.53255224;stroke-miterlimit:4;stroke-dasharray:none;stroke-opacity:1;paint-order:markers stroke fill"
       id="path842"
       d="m 195.90661,220.37056 c -0.46431,-0.005 -0.9287,-0.003 -1.39305,-0.002 -0.33107,-0.003 -0.65531,-0.016 -0.97878,0.0575 -0.53809,0.26061 -1.56694,0.87437 0.70263,-0.42434 -0.17393,0.13434 -0.27582,0.32687 -0.38692,0.51088 -0.10643,0.20052 -0.19933,0.40778 -0.30668,0.6077 -0.12599,0.22448 -0.13579,0.4818 -0.17774,0.7293 -0.0713,0.25536 -0.111,0.51559 -0.13263,0.7793 -0.0189,0.29783 -0.0186,0.59644 -0.0193,0.89476 0.0133,0.23161 0.10481,0.44685 0.21928,0.64589 0.11818,0.19864 0.16748,0.42612 0.29056,0.62217 0.0967,0.19466 0.29405,0.29388 0.45067,0.43326 0.18761,0.11136 0.3622,0.24024 0.54126,0.36496 0.16976,0.13901 0.31667,0.30224 0.48116,0.44677 0.18757,0.10643 0.33731,0.26474 0.52916,0.3634 0.20537,0.11408 0.35797,0.27522 0.49628,0.46243 0.1342,0.16769 0.28766,0.31771 0.42763,0.4802 0.1354,0.18383 0.24585,0.3815 0.35685,0.58065 0.14997,0.17558 0.22809,0.39306 0.3237,0.59983 0.10393,0.25178 0.14423,0.52399 0.13655,0.79496 -0.0468,0.22871 -0.15882,0.43492 -0.32291,0.59943 -0.43762,0.4356 -1.02237,0.6959 -1.58706,0.92471 -0.11123,0.0451 -0.20713,0.0993 -0.32379,0.13474 -0.16816,0.0359 -0.0826,0.0203 -0.25668,0.0458 0,0 1.20662,-0.91088 1.20662,-0.91088 v 0 c 0.16576,-0.0375 0.0848,-0.0155 0.24313,-0.0654 0.10773,-0.044 0.21547,-0.0897 0.32108,-0.13845 0.0351,-0.0162 0.13665,-0.0717 0.1035,-0.0519 -1.33717,0.79807 -1.56556,0.95762 -1.10541,0.64216 0.0253,-0.026 0.0504,-0.0519 0.0756,-0.0779 0.0277,-0.0203 0.0585,-0.037 0.083,-0.0611 0.10185,-0.0998 0.12459,-0.25337 0.2098,-0.3656 0.0355,-0.24374 -0.016,-0.49625 -0.10123,-0.72569 -0.0939,-0.20393 -0.1719,-0.41549 -0.31826,-0.58963 -0.10587,-0.1898 -0.20999,-0.37895 -0.341,-0.55294 -0.14529,-0.16281 -0.29715,-0.3194 -0.43346,-0.49013 -0.12921,-0.16949 -0.27203,-0.30985 -0.46309,-0.40964 -0.19129,-0.1174 -0.36133,-0.2658 -0.54744,-0.39142 -0.15595,-0.14544 -0.30437,-0.29887 -0.47165,-0.43186 -0.17961,-0.13104 -0.36916,-0.24599 -0.54869,-0.3765 -0.17301,-0.14317 -0.37053,-0.26569 -0.47433,-0.47316 -0.12186,-0.19938 -0.18045,-0.42332 -0.29312,-0.62686 -0.1261,-0.2221 -0.22852,-0.46055 -0.25291,-0.71712 1.9e-4,-0.30127 -6.1e-4,-0.60272 0.0136,-0.90373 0.0167,-0.26909 0.0426,-0.53848 0.1219,-0.79759 0.067,-0.25173 0.0427,-0.52469 0.15899,-0.76544 0.10318,-0.2039 0.21321,-0.40337 0.3044,-0.61244 0.10622,-0.20005 0.21909,-0.3921 0.36266,-0.56743 0.55188,-0.32872 1.23158,-0.84289 1.90994,-1.04759 0.32742,-0.052 0.65885,-0.0245 0.9892,-0.0296 0.46621,0.001 0.93244,0.003 1.39863,-0.002 0,0 -1.22177,0.88766 -1.22177,0.88766 z"
       inkscape:connector-curvature="0" />
    <path
       style="opacity:1;fill:#000000;fill-opacity:1;stroke:none;stroke-width:4.53255224;stroke-miterlimit:4;stroke-dasharray:none;stroke-opacity:1;paint-order:markers stroke fill"
       id="path844"
       d="m 189.64925,219.91272 c -0.46434,-0.005 -0.92873,-0.003 -1.39307,-0.002 -0.16379,-0.002 -0.3406,0.003 -0.49852,0.0557 -0.04,0.0131 -0.14989,0.0761 -0.1134,0.0553 1.27835,-0.72712 1.5594,-0.96728 1.11428,-0.60126 -0.18341,0.22559 -0.29758,0.49112 -0.36672,0.77108 -0.0864,0.29987 -0.14319,0.60651 -0.22325,0.9079 -0.0843,0.29415 -0.11499,0.59807 -0.13241,0.9023 -0.0129,0.30396 -0.0118,0.60828 -0.0114,0.91244 -0.0181,0.30581 0.0139,0.60402 0.0645,0.90463 0.0326,0.25907 0.119,0.50688 0.22527,0.74391 0.0745,0.20491 0.18649,0.39601 0.33401,0.55663 0.14008,0.20129 0.29462,0.37826 0.46818,0.54964 0.20634,0.13548 0.31182,0.35466 0.42366,0.56576 0.0846,0.23135 0.18124,0.45883 0.24334,0.69783 0.0711,0.27023 0.0609,0.5367 0.0124,0.80822 -0.0493,0.23206 -0.17311,0.42821 -0.3216,0.60866 -0.14141,0.16473 -0.29518,0.31877 -0.45114,0.46972 -0.17494,0.17857 -0.29518,0.40195 -0.40433,0.6248 0,0 -1.37467,0.63033 -1.37467,0.63033 v 0 c 0.0935,-0.238 0.22523,-0.46977 0.38207,-0.67047 0.13858,-0.16514 0.30734,-0.30286 0.45604,-0.45841 0.13168,-0.17454 0.28817,-0.32605 0.35379,-0.54281 0.0483,-0.25362 0.0893,-0.49436 0.0173,-0.75054 -0.055,-0.2289 -0.15108,-0.44326 -0.22671,-0.66539 -0.10579,-0.2004 -0.20594,-0.39489 -0.39921,-0.52599 -0.17704,-0.17269 -0.3266,-0.36043 -0.47501,-0.55811 -0.15133,-0.17707 -0.2782,-0.37619 -0.35604,-0.59678 -0.11113,-0.24851 -0.20534,-0.50792 -0.24025,-0.77941 -0.0522,-0.30829 -0.0997,-0.61245 -0.0764,-0.9268 -3e-4,-0.30649 -0.002,-0.61308 0.007,-0.91944 0.014,-0.31308 0.0378,-0.62696 0.11894,-0.93105 0.0806,-0.29963 0.13662,-0.60366 0.22524,-0.9013 0.0592,-0.30603 0.17526,-0.57774 0.3294,-0.84764 0.52395,-0.64261 1.31551,-0.99372 2.11095,-0.97309 0.46622,10e-4 0.93246,0.003 1.39865,-0.002 0,0 -1.22177,0.88766 -1.22177,0.88766 z"
       inkscape:connector-curvature="0" />
    <path
       style="opacity:1;fill:#000000;fill-opacity:1;stroke:none;stroke-width:4.53255224;stroke-miterlimit:4;stroke-dasharray:none;stroke-opacity:1;paint-order:markers stroke fill"
       id="path846"
       d="m 183.70272,219.78586 c -0.43713,-0.007 -0.82282,0.14417 -1.22334,0.29113 -0.46616,0.25991 -1.21769,0.66371 0.93725,-0.53937 0.16167,-0.0903 -0.17985,0.12778 -0.25975,0.21004 -0.13795,0.17506 -0.27542,0.34906 -0.38476,0.54352 -0.12172,0.24838 -0.22158,0.50659 -0.34386,0.75506 -0.117,0.26162 -0.18227,0.54411 -0.25316,0.82119 -0.0599,0.28405 -0.1048,0.57703 -0.0826,0.86766 0.0301,0.22344 0.14564,0.42351 0.25357,0.61785 0.0922,0.22522 0.19537,0.44612 0.26078,0.68119 0.0815,0.20888 0.14373,0.425 0.2709,0.6117 0.10513,0.19462 0.23053,0.37357 0.35902,0.55292 0.0884,0.20265 0.26954,0.32621 0.42036,0.47763 0.12389,0.1911 0.23206,0.3912 0.35541,0.58346 0.14381,0.17004 0.27099,0.35877 0.369,0.55903 0.11796,0.20877 0.2183,0.42034 0.35001,0.62119 0.11841,0.23095 0.23808,0.46252 0.31308,0.71187 0.0601,0.25032 0.14486,0.49092 0.18853,0.74546 0.0513,0.269 0.0333,0.52493 -0.0726,0.7765 -0.0787,0.21526 -0.206,0.40277 -0.34628,0.58167 -0.12,0.13859 -0.21408,0.29145 -0.34631,0.41959 0,0 -1.39871,0.58042 -1.39871,0.58042 v 0 c 0.12693,-0.13429 0.26458,-0.2433 0.34857,-0.41429 0.15852,-0.14722 0.28601,-0.33756 0.36597,-0.53803 0.11124,-0.22876 0.17187,-0.43905 0.11375,-0.69792 -0.0385,-0.25 -0.12238,-0.48422 -0.18044,-0.72904 -0.066,-0.23671 -0.1813,-0.45396 -0.2907,-0.6727 -0.13547,-0.20618 -0.24084,-0.42261 -0.36115,-0.6373 -0.0942,-0.19592 -0.22366,-0.37478 -0.36031,-0.5431 -0.11769,-0.18248 -0.2202,-0.37338 -0.33825,-0.5543 -0.16023,-0.15313 -0.33797,-0.29377 -0.43357,-0.49987 -0.13058,-0.18015 -0.25398,-0.36287 -0.36175,-0.5577 -0.13295,-0.20303 -0.20741,-0.42998 -0.29372,-0.65539 -0.0581,-0.22486 -0.15968,-0.4328 -0.24386,-0.64822 -0.11777,-0.21195 -0.24077,-0.43107 -0.28089,-0.67278 -0.0379,-0.30449 0.008,-0.61382 0.0613,-0.91446 0.066,-0.28647 0.14252,-0.5726 0.2384,-0.84998 0.12094,-0.25163 0.24199,-0.49999 0.33869,-0.76221 0.1109,-0.19963 0.22048,-0.3925 0.37482,-0.56262 0.0679,-0.11157 0.12918,-0.18625 0.24326,-0.25402 0.53778,-0.31943 1.07338,-0.69384 1.65767,-0.94313 0.40477,-0.1491 0.81337,-0.24139 1.24627,-0.26535 0,0 -1.21053,0.9027 -1.21053,0.9027 z"
       inkscape:connector-curvature="0" />
    <path
       style="opacity:1;fill:#000000;fill-opacity:1;stroke:none;stroke-width:4.53255224;stroke-miterlimit:4;stroke-dasharray:none;stroke-opacity:1;paint-order:markers stroke fill"
       id="path848"
       d="m 179.12978,220.727 c -0.22636,0.0465 -0.45383,0.10964 -0.67033,0.19137 -0.0665,0.0252 -0.25552,0.12329 -0.19436,0.0872 1.93568,-1.14117 1.40588,-0.81176 0.99413,-0.55346 -0.18655,0.16069 -0.41184,0.28187 -0.56272,0.47892 -0.12283,0.18747 -0.22209,0.38958 -0.31488,0.59328 -0.12329,0.25871 -0.24968,0.51683 -0.38317,0.77069 -0.10918,0.23282 -0.17096,0.48467 -0.24791,0.72972 -0.0766,0.26345 -0.0887,0.53853 -0.0984,0.81092 -0.004,0.24117 -0.0368,0.51306 0.12658,0.71063 0.18206,0.10773 0.34369,0.24615 0.53669,0.33443 0.23427,0.10577 0.35426,0.27739 0.48615,0.48636 0.11969,0.20338 0.15809,0.43854 0.27719,0.64226 0.11386,0.19428 0.20754,0.39991 0.32143,0.59393 0.12925,0.21088 0.16994,0.45634 0.24859,0.68755 0.13273,0.21114 0.2058,0.43983 0.24871,0.68359 0.04,0.29464 0.0401,0.59271 0.042,0.88948 6.1e-4,0.30587 -6e-4,0.61177 -0.001,0.91764 -0.006,0.30217 0.0136,0.60546 -0.0136,0.90672 -0.0249,0.26219 -0.12513,0.49649 -0.24211,0.72845 -0.0973,0.25592 -0.25236,0.48036 -0.41656,0.69702 -0.0227,0.0347 -0.0456,0.0692 -0.0683,0.10382 0,0 -1.38194,0.61375 -1.38194,0.61375 v 0 c 0.0209,-0.0393 0.0415,-0.0785 0.0624,-0.11779 0.15383,-0.21606 0.34379,-0.41544 0.42764,-0.67257 0.10655,-0.22343 0.23764,-0.43213 0.2631,-0.68477 0.0549,-0.29187 0.008,-0.59393 0.0243,-0.88957 5.9e-4,-0.30554 0.002,-0.6111 0.001,-0.91665 -0.001,-0.28923 2e-5,-0.57946 -0.0327,-0.86723 -0.0366,-0.23816 -0.10784,-0.45609 -0.23807,-0.66105 -0.0758,-0.22188 -0.11448,-0.45686 -0.23455,-0.66075 -0.11307,-0.19478 -0.20854,-0.39947 -0.32169,-0.59437 -0.11694,-0.20361 -0.16504,-0.43115 -0.2745,-0.63743 -0.11764,-0.18776 -0.22939,-0.32726 -0.44268,-0.4168 -0.20248,-0.11102 -0.39529,-0.24454 -0.57308,-0.39161 -0.17383,-0.23784 -0.18987,-0.51585 -0.17277,-0.80351 0.006,-0.28273 0.0146,-0.56783 0.079,-0.84451 0.07,-0.25514 0.15553,-0.50552 0.23701,-0.75665 0.12885,-0.25281 0.2562,-0.50499 0.38689,-0.75692 0.0771,-0.21463 0.18712,-0.42077 0.30492,-0.61473 0.12605,-0.26508 0.33889,-0.34657 0.54162,-0.5444 0.78148,-0.52491 1.55453,-1.00788 2.47478,-1.18996 0,0 -1.19926,0.91703 -1.19926,0.91703 z"
       inkscape:connector-curvature="0" />
    <path
       style="opacity:1;fill:#000000;fill-opacity:1;stroke:none;stroke-width:4.53255224;stroke-miterlimit:4;stroke-dasharray:none;stroke-opacity:1;paint-order:markers stroke fill"
       id="path850"
       d="m 191.64454,219.9639 c -0.44349,0.0717 -0.86549,0.226 -1.30279,0.32414 -0.61243,0.17498 -1.73516,0.87302 0.54716,-0.4241 -0.1881,0.1284 -0.30083,0.30645 -0.36411,0.52109 -0.0997,0.26588 -0.15195,0.53958 -0.18182,0.82103 -0.0102,0.28482 -0.091,0.55945 -0.13416,0.83992 -0.0381,0.28818 -0.042,0.5793 -0.0457,0.86951 -0.002,0.30459 -0.001,0.60922 -9e-4,0.91382 0.0102,0.29583 -0.019,0.59413 0.015,0.88855 0.005,0.25038 0.13939,0.40995 0.26384,0.60864 0.12942,0.16281 0.24137,0.34254 0.41876,0.45676 0.18076,0.12457 0.34088,0.27378 0.51222,0.4102 0.20729,0.10133 0.41589,0.17859 0.57628,0.35058 0.16699,0.15073 0.28422,0.33926 0.4123,0.52092 0.15732,0.20962 0.17702,0.46814 0.23871,0.71277 0.0788,0.25467 0.13128,0.51646 0.1287,0.7834 -0.0102,0.2451 -0.13176,0.44276 -0.27678,0.63079 -0.48941,0.59113 -1.03526,0.75654 -1.78925,1.18289 -0.2103,0.14445 -0.4599,0.17851 -0.70747,0.20329 -0.14552,0.0121 -0.29156,0.0147 -0.43749,0.0179 0,0 1.2188,-0.89134 1.2188,-0.89134 v 0 c 0.14347,-0.005 0.28721,-0.0113 0.42964,-0.0307 0.24358,-0.0398 0.46786,-0.11535 0.68218,-0.23979 -2.24559,1.31517 -1.16049,0.81245 -0.79305,0.34327 0.15609,-0.14107 0.28791,-0.32724 0.32136,-0.53812 0.032,-0.25024 -0.0376,-0.5006 -0.1061,-0.74023 -0.0624,-0.22604 -0.0663,-0.47089 -0.21409,-0.66584 -0.1215,-0.17607 -0.23906,-0.35375 -0.39931,-0.49891 -0.16352,-0.15442 -0.38736,-0.20592 -0.56769,-0.33687 -0.16529,-0.13899 -0.33077,-0.27684 -0.50698,-0.40203 -0.18021,-0.14062 -0.31431,-0.32371 -0.44906,-0.50685 -0.1356,-0.21412 -0.28137,-0.39867 -0.29274,-0.66639 -0.0461,-0.29965 -0.012,-0.60507 -0.0227,-0.90739 -3e-4,-0.30509 -10e-4,-0.61019 -4e-5,-0.91529 0.002,-0.29565 0.004,-0.592 0.0356,-0.88634 0.036,-0.28125 0.11988,-0.55285 0.13936,-0.83506 0.0244,-0.28488 0.05,-0.57483 0.16891,-0.83869 0.0491,-0.24922 0.1394,-0.4422 0.31743,-0.62519 0.71804,-0.4164 1.2853,-0.84497 2.06005,-1.03882 0.43562,-0.10751 0.86468,-0.24014 1.30506,-0.32851 0,0 -1.19927,0.91704 -1.19927,0.91704 z"
       inkscape:connector-curvature="0" />
    <path
       style="opacity:1;fill:#000000;fill-opacity:1;stroke:none;stroke-width:4.53255224;stroke-miterlimit:4;stroke-dasharray:none;stroke-opacity:1;paint-order:markers stroke fill"
       id="path852"
       d="m 185.37592,220.98103 c -0.45619,0.012 -0.91807,-0.0379 -1.37134,0.0226 -0.52903,0.0865 -1.3167,0.6142 0.89808,-0.58643 0.0317,-0.0172 -0.0601,0.0409 -0.0848,0.0673 -0.0628,0.0672 -0.0704,0.11294 -0.10241,0.19748 -0.0649,0.27892 -0.0551,0.56847 -0.0544,0.853 -0.003,0.29806 -0.007,0.59435 0.083,0.88075 0.0894,0.27679 0.21055,0.54142 0.29037,0.82143 0.0978,0.23035 0.15916,0.47199 0.24886,0.70511 0.0908,0.19401 0.24103,0.34291 0.37687,0.50395 0.17756,0.12784 0.33617,0.27024 0.47536,0.44099 0.12994,0.17786 0.32348,0.2817 0.466,0.44548 0.14891,0.16015 0.28777,0.32659 0.4492,0.47497 0.2019,0.18781 0.35141,0.38359 0.43969,0.64622 0.075,0.28805 0.0768,0.58762 0.0808,0.88328 0.0239,0.30574 -0.0671,0.58913 -0.16937,0.87133 -0.0962,0.22076 -0.19774,0.43955 -0.32361,0.64519 -0.15705,0.1946 -0.26887,0.41628 -0.38987,0.63338 -0.0177,0.0369 -0.0354,0.0737 -0.0531,0.11055 0,0 -1.37435,0.63099 -1.37435,0.63099 v 0 c 0.0159,-0.0408 0.0318,-0.0816 0.0478,-0.12226 0.116,-0.22373 0.22906,-0.44837 0.38011,-0.65124 0.15502,-0.17946 0.22262,-0.40522 0.34397,-0.60648 0.0925,-0.27042 0.2219,-0.52894 0.19417,-0.82464 -0.002,-0.28127 -5.9e-4,-0.56599 -0.0617,-0.84204 -0.0737,-0.24049 -0.21744,-0.40947 -0.40133,-0.57858 -0.1641,-0.15169 -0.30495,-0.32354 -0.45767,-0.4861 -0.14888,-0.15766 -0.34061,-0.27111 -0.46914,-0.45073 -0.14215,-0.16703 -0.30949,-0.29711 -0.47433,-0.43926 -0.1492,-0.17228 -0.30313,-0.34038 -0.40159,-0.54907 -0.0914,-0.23804 -0.15389,-0.48401 -0.25366,-0.71927 -0.0747,-0.2792 -0.19742,-0.5406 -0.28694,-0.81489 -0.10175,-0.29995 -0.1133,-0.60834 -0.10426,-0.92315 -0.002,-0.29697 -0.0102,-0.59599 0.0325,-0.89073 0.17127,-0.78677 1.10835,-1.13122 1.86471,-1.22282 0.4606,-0.027 0.92273,-2e-5 1.38387,-0.0139 0,0 -1.22176,0.88766 -1.22176,0.88766 z"
       inkscape:connector-curvature="0" />
    <path
       style="opacity:1;fill:#000000;fill-opacity:1;stroke:none;stroke-width:4.53255224;stroke-miterlimit:4;stroke-dasharray:none;stroke-opacity:1;paint-order:markers stroke fill"
       id="path854"
       d="m 179.27678,222.99088 c -0.42337,0.0894 -0.8307,0.24271 -1.22803,0.41132 -0.55939,0.35736 0.23135,-0.15111 1.05169,-0.585 0.0354,-0.0187 -0.0586,0.055 -0.0828,0.0869 -0.078,0.10318 -0.10154,0.22213 -0.12676,0.34542 -0.0379,0.29218 -0.03,0.58789 -0.028,0.88183 -0.0278,0.26133 0.0766,0.48 0.1731,0.71233 0.11387,0.21222 0.24322,0.41399 0.37387,0.61581 0.14798,0.17687 0.35118,0.28727 0.49452,0.46916 0.13435,0.17003 0.324,0.2691 0.49706,0.39062 0.18225,0.12289 0.36393,0.24402 0.55438,0.35511 0.18265,0.12666 0.33513,0.28743 0.50345,0.43084 0.15665,0.16027 0.31846,0.31289 0.46409,0.48387 0.20401,0.16215 0.31709,0.39491 0.43655,0.61995 0.16488,0.18711 0.21794,0.42249 0.29847,0.64981 0.0962,0.21972 0.20832,0.42328 0.2679,0.65826 0.0482,0.25359 0.12957,0.49721 0.17116,0.75261 0.0394,0.29309 0.0422,0.58933 0.0454,0.88454 0.0122,0.31128 0.004,0.61738 -0.0761,0.91938 -0.0468,0.12636 -0.0909,0.25328 -0.13089,0.38193 0,0 -1.36529,0.64824 -1.36529,0.64824 v 0 c 0.035,-0.13185 0.0718,-0.26294 0.1291,-0.38735 0.11215,-0.28075 0.10686,-0.5772 0.0988,-0.87561 -0.002,-0.28831 -0.003,-0.57751 -0.0371,-0.86428 -0.037,-0.25255 -0.11837,-0.49152 -0.16591,-0.74109 -0.0531,-0.23182 -0.16751,-0.42728 -0.26059,-0.64333 -0.0812,-0.22031 -0.12527,-0.44929 -0.28801,-0.63151 -0.11426,-0.21691 -0.22382,-0.43304 -0.41904,-0.59026 -0.14382,-0.16291 -0.30071,-0.31225 -0.45452,-0.46549 -0.15786,-0.1422 -0.31055,-0.29064 -0.48871,-0.40824 -0.18899,-0.11709 -0.37549,-0.23616 -0.55879,-0.36167 -0.18982,-0.12276 -0.37666,-0.25107 -0.52057,-0.42881 -0.14991,-0.17898 -0.36766,-0.28849 -0.50114,-0.48385 -0.13576,-0.20951 -0.27057,-0.41903 -0.38858,-0.63945 -0.10175,-0.24864 -0.22339,-0.48584 -0.19699,-0.76522 -0.002,-0.30134 -0.0102,-0.60346 0.0148,-0.90414 0.11728,-0.90969 0.73601,-0.99577 1.6983,-1.44431 0.40468,-0.16532 0.82459,-0.30502 1.25559,-0.38108 0,0 -1.21055,0.90271 -1.21055,0.90271 z"
       inkscape:connector-curvature="0" />
    <ellipse
       style="opacity:1;fill:#ff5599;fill-opacity:1;stroke:#000000;stroke-width:5.23970509;stroke-miterlimit:4;stroke-dasharray:none;stroke-opacity:1;paint-order:markers stroke fill"
       id="path858"
       cx="133.53932"
       cy="133.75185"
       rx="102.5485"
       ry="11.976468" />
    <path
       style="fill:#ffaacc;stroke:#000000;stroke-width:4.53255224;stroke-linecap:butt;stroke-linejoin:miter;stroke-miterlimit:4;stroke-dasharray:none;stroke-opacity:1"
       d="M 78.226611,130.83795 C 40.115842,131.92882 94.713856,30.490368 132.71748,30.690134 170.35573,30.887979 222.05666,131.38325 185.63878,130.43696 136.68,129.16481 136.68,129.16481 78.226611,130.83795 Z"
       id="path860"
       inkscape:connector-curvature="0"
       sodipodi:nodetypes="sass" />
  </g>
</svg>
