<?xml version="1.0" encoding="UTF-8" standalone="no"?>
<!-- Created with Inkscape (http://www.inkscape.org/) -->

<svg
   xmlns:dc="http://purl.org/dc/elements/1.1/"
   xmlns:cc="http://creativecommons.org/ns#"
   xmlns:rdf="http://www.w3.org/1999/02/22-rdf-syntax-ns#"
   xmlns:svg="http://www.w3.org/2000/svg"
   xmlns="http://www.w3.org/2000/svg"
   xmlns:sodipodi="http://sodipodi.sourceforge.net/DTD/sodipodi-0.dtd"
   xmlns:inkscape="http://www.inkscape.org/namespaces/inkscape"
   width="1024"
   height="1024"
   viewBox="0 0 270.93333 270.93334"
   version="1.1"
   id="svg868"
   inkscape:version="0.92.2 (5c3e80d, 2017-08-06)"
   sodipodi:docname="Lancelot_Body.svg"
   inkscape:export-filename="G:\Documents\Digipen\Semester 02\GAM150\drqst\Production\Illustrations\Lancelot\Lancelot_Body.png"
   inkscape:export-xdpi="96"
   inkscape:export-ydpi="96">
  <defs
     id="defs862" />
  <sodipodi:namedview
     id="base"
     pagecolor="#ffffff"
     bordercolor="#666666"
     borderopacity="1.0"
     inkscape:pageopacity="0.0"
     inkscape:pageshadow="2"
     inkscape:zoom="0.49497475"
     inkscape:cx="482.35907"
     inkscape:cy="515.22747"
     inkscape:document-units="mm"
     inkscape:current-layer="layer1"
     showgrid="false"
     units="px"
     inkscape:pagecheckerboard="true"
     inkscape:window-width="1920"
     inkscape:window-height="1057"
     inkscape:window-x="1912"
     inkscape:window-y="-8"
     inkscape:window-maximized="1" />
  <metadata
     id="metadata865">
    <rdf:RDF>
      <cc:Work
         rdf:about="">
        <dc:format>image/svg+xml</dc:format>
        <dc:type
           rdf:resource="http://purl.org/dc/dcmitype/StillImage" />
        <dc:title />
      </cc:Work>
    </rdf:RDF>
  </metadata>
  <g
     inkscape:label="Layer 1"
     inkscape:groupmode="layer"
     id="layer1"
     transform="translate(0,-26.06665)">
    <path
       style="fill:#ff8080;stroke:#000000;stroke-width:4.71005058;stroke-linecap:butt;stroke-linejoin:miter;stroke-miterlimit:4;stroke-dasharray:none;stroke-opacity:1"
       d="m 71.143475,45.773178 c 6.38348,0.09728 36.069235,33.362673 41.944415,33.561758 5.87518,0.199083 50.9432,0.448196 55.97252,0.262769 5.02933,-0.185427 34.53746,-38.046416 40.97612,-38.232224 6.43867,-0.185807 -15.4725,139.930409 -17.54597,156.076409 -1.92792,15.01268 67.93402,62.50602 72.22077,74.01507 4.28675,11.50906 -259.3540231,15.18783 -256.1370252,1.7943 C 11.791302,259.85775 87.185694,214.82316 85.280847,196.08295 83.375999,177.34272 64.759985,45.675899 71.143475,45.773178 Z"
       id="path1413"
       inkscape:connector-curvature="0"
       sodipodi:nodetypes="zzzzszzzz" />
    <path
       style="opacity:1;fill:#000000;fill-opacity:1;stroke:#000000;stroke-width:2.51202703;stroke-miterlimit:4;stroke-dasharray:none;stroke-opacity:1;paint-order:markers stroke fill"
       id="path1427"
       d="m 87.725511,197.15615 c 0.25587,0.52886 0.510085,1.04354 0.857262,1.5178 0.233087,0.324 0.439936,0.66818 0.675349,0.99026 0.273972,0.28653 0.563596,0.5552 0.84807,0.83049 0.284129,0.24028 0.545657,0.50357 0.829339,0.74463 0.360199,0.21843 0.696193,0.46558 1.039256,0.70882 0.341418,0.16887 0.621037,0.43376 0.955608,0.61166 0.342027,0.20457 0.637533,0.46958 0.997915,0.64517 0.314327,0.20144 0.667426,0.32338 0.970022,0.54354 0.279395,0.18755 0.57683,0.33828 0.87649,0.49024 0.353384,0.15191 0.722796,0.27371 1.063777,0.45273 0.317618,0.13742 0.610554,0.3161 0.944841,0.41213 0.338076,0.15813 0.698293,0.25727 1.026273,0.43669 0.35572,0.18028 0.73818,0.31334 1.122,0.42164 0.355947,0.19319 0.754167,0.24824 1.136707,0.3582 0.43278,0.13969 0.85354,0.29624 1.30276,0.37857 0.4139,0.0197 0.80685,0.14686 1.21205,0.22003 0.40321,0.0501 0.80151,0.0582 1.19776,0.1512 0.38907,0.0967 0.78937,0.12261 1.18835,0.13988 0.43544,0.0308 0.8764,-0.0251 1.30761,0.0461 0.38502,0.0951 0.77734,0.14152 1.17222,0.16765 0.43834,0.0225 0.87742,0.0222 1.3162,0.0229 0.44886,1e-5 0.89772,-6.3e-4 1.34658,-0.001 0.44876,-3.1e-4 0.8975,-3.1e-4 1.34624,-3.1e-4 0.38393,-0.0819 0.76744,-0.15301 1.15856,-0.18959 0.44121,-6.3e-4 0.86751,-0.11393 1.30153,-0.17902 0.41175,-0.0295 0.81727,-0.11405 1.20459,-0.25742 0.39287,-0.13877 0.80127,-0.19896 1.19763,-0.32466 0.52043,-0.15311 1.03787,-0.3185 1.56242,-0.45762 0.45787,-0.18744 0.92946,-0.33927 1.38904,-0.52196 0.45142,-0.15031 0.90935,-0.28767 1.3715,-0.40272 0.35879,-0.15549 0.73261,-0.25557 1.0953,-0.39866 0.38778,-0.10989 0.76719,-0.24083 1.16361,-0.31903 0.40946,-0.0554 0.79546,-0.21553 1.19013,-0.3309 0.48596,-0.13672 0.96354,-0.28578 1.46358,-0.36488 0.43968,-0.0731 0.86707,-0.18585 1.3123,-0.23768 0.51282,-0.0306 0.99998,-0.208 1.49528,-0.33025 0.45659,-0.0587 0.88683,-0.22052 1.33629,-0.31147 0.37334,-0.0733 0.72853,-0.20004 1.10771,-0.25544 0.38318,-0.14936 0.78184,-0.25939 1.16039,-0.41959 0.40133,-0.17095 0.83203,-0.24531 1.25151,-0.358 0.44711,-0.0778 0.88686,-0.18086 1.33095,-0.27439 0.36753,-0.18062 0.77365,-0.22909 1.16104,-0.34209 0.43081,-0.11831 0.87129,-0.17735 1.30508,-0.28277 0.44091,-0.12357 0.90298,-0.10776 1.34878,-0.19404 0.44392,-0.10385 0.89623,-0.15337 1.35039,-0.18125 0.41299,0.0229 0.8047,-0.0986 1.20718,-0.16643 0.46314,-0.0665 0.93243,-0.0684 1.39935,-0.0753 0.47635,-0.005 0.95274,-0.004 1.42912,-0.004 0.45036,6.3e-4 0.90072,9.5e-4 1.35108,9.5e-4 0.44825,10e-5 0.8965,10e-5 1.34476,10e-5 0.44853,0 0.89706,-10e-6 1.34558,-10e-6 0.44858,0 0.89716,0 1.34574,0 0.43602,-0.008 0.86288,-0.0166 1.2903,0.0738 0.38402,0.1061 0.78778,0.0846 1.17312,0.17291 0.37611,0.12297 0.77416,0.12976 1.15686,0.21567 0.44511,0.0702 0.85916,0.2208 1.26531,0.40936 0.3473,0.13715 0.70912,0.24778 1.04114,0.42027 0.34187,0.14852 0.63646,0.37953 0.97006,0.54222 0.30697,0.21754 0.66879,0.33096 0.99172,0.51933 0.31441,0.19888 0.6225,0.39972 0.96049,0.55982 0.36616,0.15055 0.72539,0.31681 1.09437,0.46253 0.39476,0.16696 0.78162,0.35579 1.18326,0.50592 0.35295,0.12298 0.68994,0.26073 1.06105,0.32371 0.34689,0.0852 0.66425,0.24207 0.99829,0.36176 0.3881,0.13105 0.77416,0.24688 1.18024,0.30865 0.42608,0.14157 0.86897,0.20812 1.31434,0.24936 0.44882,0.0529 0.91337,0.10907 1.34784,0.23915 0.37607,0.13943 0.77078,0.19208 1.16813,0.22211 0.43658,-0.0149 0.85625,0.0613 1.28387,0.1338 0.45361,0.0745 0.91319,0.0939 1.37189,0.10598 0.45072,0.008 0.90156,0.007 1.35234,0.007 0.44858,-6.3e-4 0.89716,-9.5e-4 1.34574,-0.001 0.44854,-1.9e-4 0.89708,-1.9e-4 1.34563,-2e-4 0.44857,0 0.89715,1e-5 1.34571,1e-5 0.37174,-0.0606 0.73267,-0.13871 1.08603,-0.26637 0.37655,-0.12767 0.77458,-0.15281 1.16853,-0.17191 0.44446,-0.0791 0.88505,-0.15894 1.32153,-0.27341 0.42765,-0.10206 0.86074,-0.13461 1.28468,-0.25031 0.36795,-0.0581 0.70338,-0.215 1.06591,-0.29589 0.36415,-0.0806 0.71167,-0.20386 1.08371,-0.25867 0.37172,-0.064 0.75276,-0.14482 1.11393,-0.25938 0.35656,-0.15231 0.73941,-0.26401 1.09058,-0.42974 0.31663,-0.13631 0.65003,-0.25023 0.94664,-0.42751 0.0496,-0.0252 0.19696,-0.10314 0.14873,-0.0755 -0.33539,0.19235 -0.67092,0.38458 -1.01042,0.56961 -0.0473,0.0258 0.0868,-0.0643 0.13337,-0.0916 0.42731,-0.24993 0.8628,-0.48582 1.28777,-0.73967 0.33146,-0.19798 -0.67003,0.38376 -1.00709,0.57203 -0.0478,0.0266 0.0925,-0.058 0.13876,-0.087 3.60254,-2.04038 0.19751,-0.0995 0.29268,-0.15584 0.42587,-0.25154 0.86479,-0.48089 1.28686,-0.73877 0.3301,-0.20168 -0.66715,0.39258 -1.01084,0.57013 -0.0925,0.0478 0.14876,-0.14587 0.21947,-0.2223 0.25005,-0.22131 0.50905,-0.42647 0.72109,-0.68585 0.21689,-0.27928 0.44591,-0.54787 0.68029,-0.81248 0.204,-0.2592 0.35827,-0.54843 0.52171,-0.8333 0.19106,-0.26403 0.34249,-0.55277 0.53139,-0.81818 0,0 1.22723,-0.52606 1.22723,-0.52606 v 0 c -0.21184,0.24692 -0.32954,0.5515 -0.54001,0.79936 -0.15881,0.29417 -0.32426,0.58062 -0.51143,0.85722 -0.22199,0.27385 -0.47223,0.52348 -0.68443,0.80609 -0.19353,0.27736 -0.44158,0.50026 -0.71372,0.6985 -0.59157,0.61716 0.11524,-0.0563 -1.47979,1.00489 -0.32023,0.21304 1.33389,-0.76643 0.99782,-0.5794 -0.67682,0.37668 -2.44236,1.42059 -0.29293,0.15515 -0.74851,0.43454 -2.60472,1.50414 -0.42169,0.24851 0.0465,-0.0267 -0.0884,0.0609 -0.13452,0.0887 -1.21168,0.72671 -0.8481,0.53283 -1.4202,0.8327 -0.31288,0.15036 -0.63032,0.29008 -0.95313,0.41763 -0.36567,0.14142 -0.72625,0.29755 -1.09961,0.41603 -0.37047,0.0975 -0.74384,0.197 -1.1239,0.24714 -0.366,0.0671 -0.71326,0.19559 -1.07803,0.26719 -0.35619,0.0952 -0.69943,0.23349 -1.06427,0.29712 -0.42385,0.10551 -0.86144,0.1299 -1.28289,0.24856 -0.4403,0.11203 -0.88835,0.19052 -1.3382,0.2533 -0.38931,0.0254 -0.77971,0.0647 -1.14794,0.20309 -0.35848,0.12141 -0.734,0.19228 -1.11044,0.22863 -0.44858,0 -0.89715,0 -1.34573,0 -0.44852,1e-5 -0.89705,2e-5 -1.34557,2.3e-4 -0.44857,2.5e-4 -0.89715,6.3e-4 -1.34572,0.001 -0.45152,2e-4 -0.90314,0.001 -1.35455,-0.009 -0.46267,-0.0155 -0.92583,-0.0414 -1.38269,-0.12088 -0.4249,-0.0726 -0.84616,-0.12285 -1.27829,-0.12402 -0.40294,-0.0378 -0.79978,-0.10598 -1.18252,-0.24233 -0.43554,-0.11085 -0.88651,-0.17942 -1.33347,-0.2215 -0.44713,-0.0486 -0.88739,-0.13006 -1.31982,-0.25563 -0.41021,-0.0719 -0.80349,-0.19439 -1.19734,-0.3283 -0.32474,-0.12552 -0.64232,-0.26739 -0.98425,-0.34354 -0.37278,-0.0756 -0.71678,-0.22013 -1.07478,-0.3443 -0.39823,-0.15999 -0.78784,-0.34111 -1.18346,-0.50751 -0.36986,-0.15017 -0.7337,-0.3123 -1.10005,-0.47008 -0.33651,-0.16705 -0.64682,-0.36985 -0.96537,-0.56648 -0.32654,-0.17748 -0.68008,-0.30364 -0.98893,-0.51421 -0.32757,-0.17267 -0.62932,-0.3915 -0.97015,-0.54044 -0.33794,-0.15811 -0.69215,-0.27804 -1.0373,-0.41863 -0.39913,-0.18368 -0.81299,-0.31174 -1.24749,-0.38397 -0.38635,-0.0697 -0.77948,-0.10265 -1.15796,-0.21463 -0.38921,-0.0668 -0.78849,-0.0717 -1.17285,-0.17257 -0.42145,-0.0774 -0.84644,-0.0527 -1.27343,-0.0538 -0.44858,0 -0.89715,0 -1.34573,0 -0.44853,0 -0.89707,1e-5 -1.34559,1e-5 -0.44826,0 -0.89653,0 -1.34479,-1.4e-4 -0.4503,-2e-4 -0.9006,-6.3e-4 -1.35091,-0.001 -0.47546,-6.3e-4 -0.95096,-0.002 -1.4264,0.005 -0.46425,0.008 -0.93107,0.0154 -1.38988,0.0946 -0.40274,0.0754 -0.80078,0.16654 -1.21414,0.15367 -0.45173,0.0338 -0.89933,0.0958 -1.3424,0.19166 -0.44807,0.0643 -0.90421,0.079 -1.34316,0.20128 -0.43353,0.10254 -0.87641,0.15763 -1.3038,0.28648 -0.39314,0.0975 -0.78342,0.19522 -1.16413,0.33603 -0.4419,0.0981 -0.88559,0.18217 -1.32728,0.27992 -0.41742,0.11262 -0.84576,0.18985 -1.24199,0.36973 -0.38914,0.14317 -0.77806,0.2945 -1.17947,0.39826 -0.37341,0.0677 -0.72897,0.198 -1.10319,0.26058 -0.44388,0.10254 -0.87884,0.24007 -1.32979,0.31219 -0.49735,0.12833 -0.99042,0.28857 -1.50697,0.31884 -0.44137,0.0601 -0.86791,0.18145 -1.30873,0.24208 -0.4946,0.0898 -0.9703,0.24286 -1.45349,0.37882 -0.39369,0.12637 -0.78769,0.26129 -1.19814,0.32228 -0.39041,0.0891 -0.77201,0.21354 -1.15226,0.3379 -0.36268,0.14144 -0.7389,0.24374 -1.1023,0.38381 -0.45777,0.12321 -0.91659,0.24971 -1.36134,0.41397 -0.4646,0.17274 -0.92795,0.34883 -1.39649,0.51074 -0.52346,0.1465 -1.04466,0.3023 -1.56348,0.46418 -0.39601,0.11962 -0.80807,0.17553 -1.195,0.32697 -0.39763,0.12214 -0.80193,0.2051 -1.21714,0.23838 -0.43434,0.0707 -0.86484,0.16532 -1.30677,0.17435 -0.39152,0.0447 -0.77411,0.13694 -1.16564,0.17772 -0.44873,4e-5 -0.89745,1.1e-4 -1.34617,6.3e-4 -0.44896,3.1e-4 -0.89793,0.001 -1.34688,9.4e-4 -0.4409,-0.001 -0.88223,-0.002 -1.32245,-0.0299 -0.39666,-0.0316 -0.78843,-0.0903 -1.17758,-0.17403 -0.4314,-0.0452 -0.86727,-0.007 -1.30013,-0.0374 -0.40458,-0.0218 -0.80894,-0.0577 -1.20299,-0.15756 -0.39497,-0.0841 -0.79739,-0.0777 -1.19487,-0.14787 -0.40306,-0.0802 -0.79941,-0.1886 -1.2107,-0.22191 -0.44833,-0.0932 -0.87119,-0.25643 -1.309127,-0.38577 -0.38716,-0.0987 -0.77447,-0.18723 -1.13786,-0.36065 -0.38897,-0.1182 -0.778817,-0.25042 -1.137919,-0.44271 -0.327218,-0.16388 -0.677981,-0.2709 -1.013619,-0.41603 -0.333505,-0.11133 -0.636557,-0.28782 -0.957101,-0.43034 -0.347319,-0.16662 -0.710373,-0.29829 -1.063025,-0.4526 -0.306933,-0.15012 -0.604561,-0.31586 -0.888466,-0.50631 -0.303723,-0.20479 -0.647569,-0.334 -0.957325,-0.52916 -0.354786,-0.18712 -0.656192,-0.44873 -1.00273,-0.64827 -0.330407,-0.19257 -0.623169,-0.44417 -0.961367,-0.6258 -0.343653,-0.24872 -0.69276,-0.48353 -1.046854,-0.71701 -0.285531,-0.2423 -0.547658,-0.5092 -0.832193,-0.75257 -0.291808,-0.27892 -0.587253,-0.55299 -0.861478,-0.85009 -0.232782,-0.32402 -0.443908,-0.66469 -0.672475,-0.9918 -0.349137,-0.48481 -0.600569,-1.01223 -0.874235,-1.54229 0,0 1.161635,-0.6524 1.161635,-0.6524 z"
       inkscape:connector-curvature="0" />
    <path
       style="opacity:1;fill:#000000;fill-opacity:1;stroke:#000000;stroke-width:2.51202703;stroke-miterlimit:4;stroke-dasharray:none;stroke-opacity:1;paint-order:markers stroke fill"
       id="path1429"
       d="m 95.731033,207.3303 c -0.682948,-0.005 -1.365925,-0.002 -2.048893,-0.002 -0.503991,9.4e-4 -1.007981,10e-4 -1.511971,10e-4 -0.455895,-0.009 -0.900239,0.11405 -1.333817,0.2413 -0.42211,0.0787 -0.828852,0.19947 -1.24314,0.3089 -0.434695,0.18901 -1.179787,0.61129 0.688402,-0.42137 0.04774,-0.0263 -0.09335,0.0565 -0.138154,0.0875 -0.07781,0.0537 -0.176356,0.13589 -0.249532,0.19514 -0.230273,0.21342 -0.473345,0.41808 -0.662043,0.67028 -0.194803,0.26144 -0.358868,0.54723 -0.497723,0.84208 -0.179881,0.29261 -0.279527,0.61956 -0.410977,0.93424 -0.127895,0.3349 -0.281508,0.65938 -0.420647,0.99006 -0.111897,0.37799 -0.259863,0.74511 -0.360017,1.12666 -0.08075,0.40821 -0.180846,0.81283 -0.324647,1.20347 -0.123385,0.39404 -0.25715,0.78547 -0.348874,1.1885 -0.139108,0.36536 -0.209968,0.74827 -0.309472,1.12424 -0.08207,0.34531 -0.246891,0.66005 -0.351006,0.99765 -0.101475,0.39777 -0.11016,0.81045 -0.119911,1.21851 0.0091,0.40208 -0.103913,0.79177 -0.160917,1.18721 -0.05292,0.42413 -0.05881,0.85208 -0.0642,1.27888 0.0041,0.45503 -0.104238,0.90111 -0.160612,1.35108 -0.05038,0.44487 -0.0582,0.89288 -0.06369,1.34008 -0.003,0.44834 -0.002,0.8967 -0.002,1.34506 6.3e-4,0.44859 6.3e-4,0.89718 9.44e-4,1.34578 9.2e-5,0.44858 8.2e-5,0.89716 8.2e-5,1.34574 -10e-6,0.44857 -10e-6,0.89716 -10e-6,1.34574 0,0.44856 0,0.89714 0,1.34572 0,0.44857 0,0.89715 0,1.34572 0,0.44858 0,0.89715 0,1.34573 0,0.44858 0,0.89715 0,1.34573 -0.02814,0.41894 0.01392,0.82273 0.0964,1.23187 0.09487,0.39578 0.07588,0.80629 0.142766,1.205 0.08776,0.36464 0.133003,0.73443 0.241578,1.09358 0.07964,0.36216 0.173381,0.71717 0.273657,1.07418 0.08989,0.39029 0.205163,0.77361 0.352845,1.1457 0.119027,0.33114 0.276267,0.64785 0.43822,0.96003 0.131449,0.3303 0.252924,0.66459 0.387198,0.99422 0.168088,0.34475 0.306983,0.70199 0.462344,1.05251 0.130261,0.33476 0.253107,0.67334 0.366842,1.01459 0.109347,0.37384 0.225002,0.74613 0.365116,1.11005 0.153796,0.39535 0.196316,0.81655 0.222848,1.23614 0.0081,0.39508 0.12118,0.77685 0.176305,1.16688 0.05191,0.42909 0.05729,0.86185 0.06217,1.29346 0.01747,0.45336 0.0091,0.89942 -0.117442,1.33719 -0.12756,0.37916 -0.274652,0.752 -0.391221,1.13468 -0.152517,0.36205 -0.253646,0.74113 -0.394908,1.10703 -0.18753,0.34501 -0.385847,0.68359 -0.574413,1.02848 -0.217728,0.35919 -0.480069,0.68763 -0.730505,1.02414 -0.245652,0.3189 -0.485727,0.64115 -0.723456,0.966 -0.293281,0.31394 -0.500933,0.69416 -0.791146,1.00903 -0.260614,0.23488 -0.495347,0.48518 -0.707935,0.76416 -0.191268,0.26022 -0.48071,0.41706 -0.696325,0.65321 -0.189064,0.26529 -0.416473,0.4819 -0.671337,0.68216 -0.26806,0.23169 -0.531518,0.47024 -0.78817,0.71488 -0.60513,0.57954 -3.26034,1.96235 -0.835089,0.58036 -0.301071,0.20881 -0.589282,0.43188 -0.894921,0.63392 -0.04858,0.0318 -0.09538,0.0666 -0.145758,0.0956 -4.273993,2.45271 2.653617,-1.56138 -1.590197,0.90622 -0.326665,0.18995 0.652989,-0.38059 0.983619,-0.56353 0.06063,-0.0336 -0.115415,0.0767 -0.173116,0.11511 -0.597405,0.38639 -0.228778,0.153 -1.51847,0.876 -0.322301,0.18067 1.280835,-0.73733 0.963044,-0.54885 -0.624043,0.37014 -1.05583,0.69886 -1.686578,0.89318 -0.0549,0.0262 -0.217187,0.10954 -0.164683,0.0788 2.348335,-1.37598 -0.143562,0.13321 -0.905265,0.4656 -0.383708,0.14873 -0.756714,0.32357 -1.141128,0.4733 -0.418253,0.2127 -0.854668,0.38172 -1.2842,0.56848 -0.424054,0.12417 -0.811019,0.33001 -1.208982,0.51643 -0.375487,0.22418 -0.796039,0.34384 -1.199643,0.50462 -0.363424,0.11321 -0.677568,0.33305 -1.032628,0.46918 -0.447892,0.21893 -0.911128,0.39781 -1.365996,0.6005 2.344973,-1.37489 -0.26519,0.25686 -1.080815,0.53902 -0.515482,0.20096 -1.888496,0.98855 0.167225,-0.17062 -0.607536,0.52126 -1.37698,0.74084 -2.056452,1.12497 -0.506181,0.19364 -2.084177,1.10507 -0.0501,-0.0472 -0.05893,0.0358 -0.116885,0.0732 -0.176802,0.1073 -3.796967,2.16066 -0.161528,0.079 -0.339052,0.18619 -0.427562,0.25819 -0.874299,0.48418 -1.297553,0.74937 -0.32466,0.20341 0.664312,-0.38206 1.001529,-0.5639 0.04927,-0.0266 -0.09114,0.065 -0.136719,0.0975 -0.429558,0.24815 -0.858832,0.49678 -1.288666,0.74444 -0.820031,0.47247 1.700076,-1.00754 0.513058,-0.25128 -0.05034,0.032 -0.100043,0.0651 -0.150068,0.0976 -0.535307,0.40478 -1.134908,0.68597 -1.705626,1.04715 -0.325427,0.20593 0.664117,-0.39065 1.004544,-0.5707 0.0459,-0.0244 -0.07865,0.0679 -0.117966,0.10171 -0.215258,0.24054 -0.450563,0.45065 -0.707616,0.64535 -0.270595,0.22826 -0.533398,0.46752 -0.789675,0.7121 -0.282449,0.24046 -0.540559,0.50613 -0.803223,0.76753 -0.221897,0.24474 -0.478974,0.45766 -0.677159,0.72267 -0.199787,0.24896 -0.421193,0.47652 -0.61804,0.72957 -0.198855,0.27366 -0.325322,0.57658 -0.450449,0.88724 -0.151058,0.30223 -0.301783,0.59966 -0.436418,0.91009 -0.1377,0.3192 -0.249546,0.64983 -0.363749,0.97849 -0.0726,0.35531 -0.166223,0.69376 -0.335015,1.01571 -0.181689,0.3343 -0.222851,0.71001 -0.251817,1.08266 -0.02596,0.35996 -0.0041,0.72096 -0.0433,1.07963 0,0 -1.195524,0.58878 -1.195524,0.58878 v 0 c 0.05909,-0.35424 0.02135,-0.71429 0.04787,-1.07208 0.02433,-0.38559 0.05539,-0.77797 0.225342,-1.13165 0.170051,-0.31749 0.30084,-0.63288 0.345071,-0.99566 0.105552,-0.33568 0.23585,-0.66292 0.356522,-0.99272 0.07903,-0.15563 0.12079,-0.32026 0.200516,-0.47531 0.02503,-0.0486 0.05535,-0.0944 0.08303,-0.14153 0.02952,-0.0437 0.06377,-0.0846 0.08858,-0.13119 0.02694,-0.0506 0.04396,-0.10586 0.06594,-0.15872 0.144548,-0.30663 0.232812,-0.63637 0.437765,-0.91409 0.183444,-0.26447 0.396972,-0.49617 0.620615,-0.72417 0.174723,-0.2925 0.447251,-0.49337 0.666536,-0.7505 0.274561,-0.24817 0.505824,-0.54121 0.80467,-0.76367 0.244627,-0.26067 0.530908,-0.47617 0.779964,-0.73308 0.268601,-0.17795 0.505209,-0.38178 0.715946,-0.62469 0.441134,-0.50387 0.0041,-0.0308 1.384783,-0.88102 0.32639,-0.20101 -0.65855,0.39259 -0.991968,0.58171 -0.367042,0.20819 0.742266,-0.5371 0.418563,-0.30145 0.709503,-0.52158 3.335491,-1.978 0.924987,-0.59027 0.549184,-0.37237 0.09065,-0.0652 1.414247,-0.86127 0.314223,-0.2117 -1.311529,0.75944 -0.983235,0.5703 4.343938,-2.50282 -0.738891,0.41999 0.518118,-0.29307 0.764807,-0.44517 1.519284,-0.91215 2.330425,-1.27018 0.155857,-0.0797 0.312239,-0.15551 0.472453,-0.22616 0.05258,-0.0232 0.207041,-0.0987 0.15811,-0.0686 -2.050529,1.26167 -1.172285,0.69795 -0.855524,0.49362 0.70382,-0.4147 1.367234,-0.84264 2.124327,-1.13794 0.216098,-0.0865 0.169338,-0.0626 0.376755,-0.1661 0.05988,-0.0299 0.235747,-0.12653 0.178463,-0.092 -1.561295,0.94275 -1.204483,0.70297 -0.803384,0.47222 0.440559,-0.25344 0.881668,-0.50593 1.3225,-0.7589 0.454945,-0.2041 0.920518,-0.38222 1.370057,-0.59864 0.346254,-0.15267 0.670002,-0.35581 1.033695,-0.46831 0.402139,-0.16149 0.819133,-0.28632 1.193465,-0.51085 0.395014,-0.19269 0.79555,-0.36666 1.211152,-0.51057 0.433708,-0.17962 0.860241,-0.37294 1.287464,-0.56756 0.380435,-0.15636 0.756428,-0.32222 1.137116,-0.47757 0.233932,-0.10941 0.160264,-0.0731 0.389361,-0.18757 0.05923,-0.0296 0.234291,-0.12319 0.177422,-0.0893 -2.139221,1.27525 -0.273554,0.0751 0.512048,-0.25855 0.121439,-0.046 0.468707,-0.22204 0.357368,-0.15519 -0.318968,0.19152 -1.287625,0.74612 -0.965197,0.5605 0.440126,-0.2534 0.873975,-0.51783 1.318294,-0.7638 0.256697,-0.14209 -1.506133,0.89242 -0.759855,0.44431 0.578108,-0.41737 0.08576,-0.0704 1.467759,-0.8773 0.331176,-0.19337 -1.328692,0.76661 -0.994854,0.57786 4.320477,-2.44261 -0.740721,0.3897 0.450837,-0.2524 0.294102,-0.21784 0.612187,-0.40104 0.891251,-0.64133 0.428094,-0.2479 0.849962,-0.50688 1.284281,-0.74374 0.336339,-0.1834 -0.659345,0.39029 -0.990213,0.58338 -0.471702,0.27529 1.063562,-0.63918 0.55372,-0.39061 0.24487,-0.26046 0.531711,-0.47536 0.779191,-0.73397 0.26679,-0.18085 0.496169,-0.38727 0.684766,-0.6493 0.188169,-0.26802 0.475427,-0.41407 0.699301,-0.64718 0.200318,-0.29495 0.433395,-0.55141 0.701607,-0.7854 0.318187,-0.28874 0.496067,-0.68633 0.797809,-0.99237 0.251726,-0.31346 0.467809,-0.6572 0.724837,-0.96695 0.259314,-0.32498 0.495712,-0.66737 0.739038,-1.00413 0.181943,-0.34477 0.365492,-0.68615 0.579015,-1.01258 0.141922,-0.36407 0.240349,-0.74031 0.402008,-1.09734 0.106462,-0.38748 0.258318,-0.75883 0.388711,-1.13865 0.154802,-0.4191 0.151552,-0.85647 0.137453,-1.29847 -0.0041,-0.42631 -0.0081,-0.85366 -0.05576,-1.27783 -0.05282,-0.39402 -0.169571,-0.77851 -0.180054,-1.17655 -0.02275,-0.40648 -0.05759,-0.81561 -0.204452,-1.1995 -0.140592,-0.3659 -0.260736,-0.73907 -0.369474,-1.11503 -0.110291,-0.33786 -0.234915,-0.6711 -0.360189,-1.00312 -0.156427,-0.35122 -0.291879,-0.7113 -0.463441,-1.05588 -0.136102,-0.3247 -0.255007,-0.65599 -0.382901,-0.98345 -0.163772,-0.31626 -0.323307,-0.6371 -0.44336,-0.97256 -0.148982,-0.37632 -0.269461,-0.76308 -0.360331,-1.15766 -0.09853,-0.35656 -0.198511,-0.70868 -0.272285,-1.07135 -0.11146,-0.36429 -0.160196,-0.73749 -0.248313,-1.10797 -0.07456,-0.39672 -0.04886,-0.80672 -0.141506,-1.20219 -0.08451,-0.4176 -0.13983,-0.82808 -0.106726,-1.25644 0,-0.44857 0,-0.89715 0,-1.34573 0,-0.44857 0,-0.89715 0,-1.34574 0,-0.44857 0,-0.89715 0,-1.34572 0,-0.44858 0,-0.89716 0,-1.34573 0,-0.44858 0,-0.89715 1e-5,-1.34573 0,-0.44856 10e-6,-0.89713 -7.1e-5,-1.3457 -1.02e-4,-0.44856 -2.74e-4,-0.89712 -9.45e-4,-1.34567 -6.19e-4,-0.44885 -0.002,-0.8977 9.45e-4,-1.34655 0.0041,-0.45143 0.01077,-0.90362 0.05729,-1.3531 0.05211,-0.44669 0.161323,-0.88811 0.166869,-1.33796 0.0041,-0.4314 0.0081,-0.86375 0.05536,-1.29308 0.05079,-0.39297 0.167093,-0.77743 0.168931,-1.17414 0.0081,-0.4174 0.01432,-0.83836 0.102531,-1.24819 0.09132,-0.34467 0.262737,-0.65326 0.350662,-0.99877 0.120479,-0.36652 0.146411,-0.76266 0.3158,-1.11637 0.08461,-0.41025 0.22234,-0.80384 0.339254,-1.20521 0.146503,-0.38568 0.26227,-0.78178 0.331149,-1.18948 0.0906,-0.39084 0.252467,-0.75632 0.352063,-1.14454 0.133013,-0.33348 0.29066,-0.6561 0.418686,-0.98979 0.130058,-0.3158 0.222076,-0.64791 0.409921,-0.93635 0.122999,-0.3053 0.292854,-0.5993 0.487616,-0.86322 0.166301,-0.2812 0.423096,-0.47491 0.645476,-0.70947 0.612119,-0.46623 1.25666,-0.92279 1.996033,-1.16946 0.410987,-0.11642 0.825235,-0.20745 1.23997,-0.3088 0.441217,-0.12522 0.894724,-0.22588 1.356357,-0.21148 0.502619,2.2e-4 1.005238,6.3e-4 1.507868,10e-4 0.684593,9.3e-4 1.369216,0.004 2.053799,-0.002 0,0 -1.077297,0.78269 -1.077297,0.78269 z"
       inkscape:connector-curvature="0" />
    <path
       style="opacity:1;fill:#000000;fill-opacity:1;stroke:#000000;stroke-width:2.51202703;stroke-miterlimit:4;stroke-dasharray:none;stroke-opacity:1;paint-order:markers stroke fill"
       id="path1431"
       d="m 132.97761,204.06523 c -0.69831,0.28745 -1.37458,0.62648 -2.06764,0.92754 -0.39307,0.24211 -0.82533,0.39727 -1.24638,0.57937 2.39094,-1.4067 -0.14079,0.20063 -0.97441,0.48342 -0.40688,0.13397 -0.76631,0.36389 -1.14502,0.55777 -0.53319,0.23187 -1.06518,0.46973 -1.58539,0.73008 -0.52925,0.25729 -1.04507,0.54189 -1.56383,0.82013 -0.35472,0.15611 -0.078,0.024 -0.39183,0.19996 -0.0566,0.0317 -0.22815,0.12313 -0.17216,0.0904 0.32145,-0.18748 1.2932,-0.73709 0.96866,-0.55501 -0.44177,0.24784 -0.88284,0.49701 -1.32034,0.75232 -0.32354,0.18881 0.65229,-0.36853 0.97845,-0.55281 -0.5388,0.34868 -1.10469,0.65833 -1.68183,0.93872 -0.12756,0.062 -0.50438,0.25898 -0.3816,0.18805 0.31215,-0.18034 0.62665,-0.35653 0.93997,-0.53479 -4.51709,2.56703 0.70319,-0.38554 -0.56829,0.36206 -0.43749,0.25723 -0.88425,0.49861 -1.31922,0.76006 -0.32165,0.19335 0.65139,-0.37292 0.97918,-0.55567 0.0536,-0.0299 -0.10444,0.0648 -0.15665,0.0971 -3.37783,1.9137 -0.41545,0.22362 -0.31211,0.16675 0.0535,-0.0294 -0.10137,0.0685 -0.15178,0.10313 -0.15508,0.10622 -0.30204,0.21998 -0.45008,0.33567 -0.55303,0.39069 -1.16704,0.67681 -1.7456,1.0277 -0.32444,0.19678 0.65829,-0.3783 0.99644,-0.55049 0.056,-0.0284 -0.0981,0.0787 -0.14715,0.11797 -0.53766,0.43569 -1.14768,0.71468 -1.74337,1.08238 -0.32506,0.20067 0.65997,-0.3852 0.99627,-0.56641 0.0543,-0.0294 -0.0994,0.0733 -0.14923,0.11001 -0.3162,0.25429 -0.62204,0.52027 -0.92562,0.78934 -0.25325,0.25103 -0.46233,0.54405 -0.69226,0.81699 -0.26874,0.30267 -0.41662,0.68426 -0.63536,1.02026 -0.21965,0.31497 -0.41117,0.64715 -0.60176,0.9799 -0.17893,0.3526 -0.37597,0.6975 -0.54299,1.05626 -0.20322,0.33586 -0.32377,0.70747 -0.47511,1.06694 -0.10419,0.34155 -0.2441,0.6716 -0.33703,1.01666 -0.13927,0.34145 -0.2364,0.68865 -0.28673,1.05369 -0.0457,0.42998 -0.0457,0.86307 -0.0479,1.29497 -6.3e-4,0.44903 6.3e-4,0.89805 0.001,1.3471 0.057,0.38667 0.14007,0.76728 0.18189,1.15653 0.0266,0.38616 0.14524,0.75665 0.20303,1.13902 0.0529,0.43236 0.16376,0.85382 0.22327,1.28576 0.0562,0.36385 0.25918,0.67095 0.37607,1.0145 0.1826,0.31327 0.23512,0.66941 0.33934,1.00953 0.0993,0.32695 0.21586,0.65185 0.37338,0.95572 0.14391,0.3132 0.31809,0.60832 0.42353,0.93778 0.12729,0.31856 0.2535,0.63303 0.42042,0.93334 0.17356,0.37708 0.41163,0.71824 0.59609,1.08886 0.21762,0.31959 0.37259,0.67255 0.55495,1.01099 0.16355,0.31702 0.29784,0.64964 0.46953,0.9623 0.26658,0.35359 0.47372,0.74323 0.69195,1.12686 0.27609,0.4226 0.59563,0.81457 0.88307,1.23025 0.1971,0.32046 0.37242,0.65714 0.58458,0.96796 0.25153,0.3154 0.44263,0.66671 0.65304,1.00947 0.20216,0.32577 0.41221,0.64547 0.61008,0.97447 0.22969,0.25424 0.34901,0.57432 0.49176,0.88 0.1806,0.27564 0.37654,0.53275 0.54306,0.81793 0.17789,0.32788 0.3598,0.65295 0.54049,0.97963 0.17732,0.30354 0.29161,0.6317 0.42841,0.95321 0.12758,0.35337 0.2706,0.69575 0.44386,1.02896 0.17369,0.33483 0.34075,0.65678 0.42817,1.02628 0.14689,0.33846 0.18978,0.70535 0.28835,1.0567 0.088,0.34904 0.20367,0.68678 0.31307,1.02925 0.1144,0.39708 0.13308,0.81142 0.14787,1.22178 0.0107,0.44684 0.008,0.89389 0.008,1.34082 -9.4e-4,0.44914 -0.001,0.89827 -0.002,1.34741 -2.3e-4,0.44864 -2.3e-4,0.89728 -2.5e-4,1.3459 0.0254,0.42595 -0.0107,0.83894 -0.0946,1.25556 -0.0388,0.37565 -0.16429,0.73084 -0.24981,1.09638 -0.0895,0.40973 -0.17137,0.8241 -0.28264,1.22863 -0.14892,0.4268 -0.28946,0.85665 -0.46063,1.27521 -0.11405,0.36741 -0.26967,0.72101 -0.37221,1.09197 -0.0409,0.35984 -0.2089,0.6711 -0.36044,0.99167 -0.14341,0.36439 -0.25673,0.73855 -0.40604,1.10048 -0.11882,0.34628 -0.23057,0.69527 -0.37579,1.03188 -0.13955,0.31563 -0.29312,0.6241 -0.43633,0.93815 -0.15546,0.34262 -0.3293,0.67781 -0.5113,1.00731 -0.17273,0.36664 -0.3763,0.71781 -0.56636,1.0756 -0.2274,0.35284 -0.40711,0.73305 -0.64304,1.08035 -0.18299,0.27678 -0.353,0.55995 -0.55136,0.8266 -0.22092,0.2934 -0.41916,0.60102 -0.61106,0.9136 -0.1899,0.32021 -0.42851,0.60769 -0.64514,0.90954 -0.24558,0.33475 -0.50254,0.65779 -0.79168,0.95602 -0.23633,0.25015 -0.42825,0.53838 -0.64037,0.80911 -0.21333,0.23952 -0.42643,0.47325 -0.61309,0.73415 -0.17781,0.26664 -0.38457,0.51221 -0.60287,0.74629 -0.22577,0.23159 -0.38522,0.5143 -0.54471,0.79267 -0.20321,0.24735 -0.41505,0.48884 -0.57898,0.76497 -0.18105,0.27685 -0.31157,0.58068 -0.49241,0.8576 -0.21113,0.26765 -0.40626,0.53732 -0.56655,0.83913 -0.20074,0.30042 -0.4289,0.56812 -0.6103,0.88294 -0.18838,0.28056 -0.34316,0.56961 -0.4813,0.8772 -0.15665,0.31084 -0.33589,0.60781 -0.48634,0.92264 -0.12459,0.3702 -0.27245,0.73432 -0.37269,1.11248 -0.0916,0.4092 -0.10005,0.83013 -0.10858,1.24753 0,0 -1.18723,0.60221 -1.18723,0.60221 v 0 c 0.007,-0.42567 0.0129,-0.85424 0.0937,-1.27372 0.0907,-0.38891 0.2523,-0.75211 0.36228,-1.13516 0.14172,-0.32036 0.3154,-0.61988 0.48358,-0.92413 0.0801,-0.15428 0.12322,-0.31953 0.20802,-0.47121 0.15827,-0.28307 0.0172,0.002 0.188,-0.26493 0.031,-0.0485 0.0535,-0.10182 0.0803,-0.1527 0.0959,-0.15054 0.15911,-0.31655 0.26786,-0.45879 0.30736,-0.40199 -0.0742,0.13023 0.24478,-0.25949 0.0395,-0.0481 0.0689,-0.10385 0.10325,-0.15585 0.15002,-0.31318 0.33254,-0.59412 0.55602,-0.85748 0.20664,-0.25882 0.30738,-0.57364 0.49978,-0.84169 0.14064,-0.28807 0.34677,-0.5489 0.57576,-0.77178 0.17895,-0.27261 0.30882,-0.578 0.53185,-0.82195 0.23323,-0.21344 0.43319,-0.4682 0.61039,-0.72867 0.1993,-0.25058 0.36843,-0.52071 0.61334,-0.73417 0.20384,-0.28163 0.42297,-0.55312 0.63441,-0.8286 0.30388,-0.28038 0.54864,-0.60877 0.80294,-0.933 0.20575,-0.30821 0.45484,-0.58697 0.64437,-0.90492 0.20782,-0.3025 0.3759,-0.63156 0.60747,-0.9191 0.1906,-0.2728 0.39199,-0.53487 0.55189,-0.82828 0.26155,-0.32774 0.41085,-0.72343 0.65569,-1.06345 0.18386,-0.3603 0.39429,-0.70826 0.56096,-1.07582 0.17711,-0.33083 0.36353,-0.65729 0.51537,-1.00021 0.14925,-0.31187 0.29133,-0.62455 0.43483,-0.93854 0.16949,-0.3229 0.26304,-0.68225 0.38,-1.02619 0.15052,-0.36241 0.27791,-0.7312 0.40308,-1.10328 0.13609,-0.32143 0.3446,-0.61158 0.37106,-0.9719 0.0917,-0.38093 0.25949,-0.73287 0.36607,-1.10931 0.17178,-0.41548 0.31598,-0.83894 0.46519,-1.26327 0.13126,-0.394 0.19011,-0.81558 0.28623,-1.21902 0.0769,-0.368 0.21806,-0.71746 0.251,-1.09424 0.0833,-0.41024 0.14451,-0.81115 0.10847,-1.23275 0,-0.44866 -1e-5,-0.89732 2.1e-4,-1.34599 2.6e-4,-0.44918 6.3e-4,-0.89836 0.001,-1.34754 9.5e-4,-0.44547 0.004,-0.891 -0.006,-1.33638 -0.0126,-0.39866 -0.0266,-0.80158 -0.13305,-1.1885 -0.10799,-0.34417 -0.22838,-0.68156 -0.3146,-1.03239 -0.10384,-0.35227 -0.13814,-0.72423 -0.29128,-1.06345 -0.0798,-0.36053 -0.24421,-0.67067 -0.41176,-0.99673 -0.17433,-0.33617 -0.32277,-0.68004 -0.44989,-1.03695 -0.13646,-0.31665 -0.24488,-0.64275 -0.42153,-0.94178 -0.17964,-0.32591 -0.35974,-0.6505 -0.53826,-0.97668 -0.17043,-0.28721 -0.3718,-0.54666 -0.55025,-0.82855 -0.14065,-0.30213 -0.25937,-0.61548 -0.48451,-0.86805 -0.19732,-0.32881 -0.40572,-0.64908 -0.60677,-0.97513 -0.20847,-0.34163 -0.40447,-0.68711 -0.65177,-1.00307 -0.20994,-0.31203 -0.3897,-0.6452 -0.58307,-0.96762 -0.28806,-0.41954 -0.60588,-0.81697 -0.88461,-1.24216 -0.22099,-0.38313 -0.43287,-0.77093 -0.69947,-1.12543 -0.17126,-0.3134 -0.30669,-0.64579 -0.46869,-0.96405 -0.18233,-0.34028 -0.34012,-0.69303 -0.55679,-1.01508 -0.18171,-0.3694 -0.41927,-0.70848 -0.59355,-1.08248 -0.17342,-0.30749 -0.30224,-0.63048 -0.43422,-0.95715 -0.0994,-0.32349 -0.27396,-0.61009 -0.41289,-0.9171 -0.16114,-0.3107 -0.28263,-0.64206 -0.38409,-0.97652 -0.10776,-0.33802 -0.15176,-0.69594 -0.33805,-1.00723 -0.11606,-0.35278 -0.32756,-0.66548 -0.38546,-1.03813 -0.0563,-0.43207 -0.16786,-0.85237 -0.224,-1.28345 -0.0551,-0.38504 -0.17608,-0.75664 -0.20526,-1.14424 -0.0396,-0.3941 -0.12036,-0.77936 -0.18695,-1.16923 -6.3e-4,-0.44925 -0.002,-0.89848 -0.002,-1.34771 0.001,-0.43643 6.3e-4,-0.87373 0.0392,-1.30882 0.0426,-0.36923 0.11441,-0.73066 0.27881,-1.0676 0.0827,-0.35501 0.23466,-0.68314 0.32822,-1.03471 0.15039,-0.36139 0.26534,-0.73773 0.47642,-1.07093 0.15697,-0.36739 0.3692,-0.70658 0.533,-1.07053 0.20985,-0.32265 0.37156,-0.67663 0.60109,-0.9884 0.24261,-0.32529 0.37185,-0.71666 0.62741,-1.03384 0.24615,-0.26348 0.44927,-0.5632 0.68504,-0.83414 0.31414,-0.25725 0.60445,-0.54284 0.92357,-0.79468 0.64751,-0.53434 2.64639,-1.55146 0.44733,-0.30043 -0.51481,0.29289 0.92858,-0.6367 0.44999,-0.32352 0.64972,-0.52915 2.64232,-1.60524 0.44452,-0.31659 -0.47476,0.27838 0.88092,-0.58145 0.44999,-0.28235 0.19903,-0.14644 0.38306,-0.32581 0.59562,-0.45256 0.10147,-0.0605 2.87848,-1.66033 0.31312,-0.16629 0.49693,-0.28979 0.89544,-0.5219 1.45866,-0.85784 0.31784,-0.18959 -0.63863,0.3742 -0.95794,0.56129 0.0597,-0.039 0.11796,-0.0803 0.17896,-0.11726 0.4388,-0.26575 0.88903,-0.51295 1.32034,-0.79068 0.30188,-0.1944 -0.62116,0.36029 -0.93174,0.54043 0.44647,-0.25932 0.89099,-0.52205 1.33942,-0.77798 0.0755,-0.0431 0.30216,-0.14835 0.38308,-0.18706 0.0633,-0.0303 0.24889,-0.12871 0.18952,-0.0914 -0.25922,0.16302 -1.39097,0.83799 -0.78907,0.47042 0.43377,-0.25589 0.87075,-0.50641 1.3013,-0.76768 0.31729,-0.19256 -1.28508,0.74335 -0.96153,0.5615 0.6225,-0.34987 1.22651,-0.74261 1.87421,-1.04801 0.516,-0.28121 1.03663,-0.55526 1.56414,-0.81382 0.52546,-0.25384 1.0584,-0.49147 1.58789,-0.73669 0.37574,-0.20295 0.74985,-0.40804 1.15656,-0.54444 0.21083,-0.0835 0.16235,-0.0592 0.36303,-0.15879 0.0557,-0.0276 0.21899,-0.11702 0.16579,-0.085 -0.32878,0.19783 -0.66162,0.38882 -0.9928,0.58262 -0.048,0.0281 0.0956,-0.0571 0.14333,-0.0855 0.43032,-0.24792 0.86065,-0.49583 1.29098,-0.74374 0.41679,-0.18414 0.84332,-0.34384 1.23892,-0.57368 0.69329,-0.30685 1.37434,-0.64209 2.07723,-0.92588 0,0 -1.04777,0.82025 -1.04777,0.82025 z"
       inkscape:connector-curvature="0" />
    <path
       style="opacity:1;fill:#000000;fill-opacity:1;stroke:#000000;stroke-width:2.51202703;stroke-miterlimit:4;stroke-dasharray:none;stroke-opacity:1;paint-order:markers stroke fill"
       id="path1433"
       d="m 164.37311,206.94833 c -0.75897,0.19309 -1.49467,0.45618 -2.22706,0.73035 -0.4125,0.13796 -0.18479,0.0509 -0.55094,0.21229 -0.0742,0.0326 -0.29222,0.1388 -0.22299,0.0967 1.81778,-1.10434 0.96544,-0.54349 0.56419,-0.30046 -0.45024,0.25226 -0.90048,0.50451 -1.35071,0.75678 -0.0621,0.0375 -0.1232,0.0768 -0.18628,0.11263 -0.23833,0.13554 -0.40807,0.19795 -0.37098,0.17572 1.02016,-0.57467 1.26338,-0.72812 0.7561,-0.4155 -0.5565,0.42808 -1.18788,0.72328 -1.78923,1.08937 -0.29485,0.17948 0.59541,-0.34999 0.90155,-0.50943 0.0232,-0.012 -0.15917,0.11215 -0.44114,0.30508 -0.62818,0.48038 -1.3233,0.82994 -2.00514,1.23521 -0.31122,0.18498 0.62377,-0.36826 0.94423,-0.53674 0.0599,-0.0315 -0.10682,0.0831 -0.16029,0.12457 -0.2833,0.25745 -0.57132,0.51367 -0.83665,0.79011 -0.27168,0.28386 -0.54905,0.56295 -0.7817,0.88041 -0.26386,0.31297 -0.46882,0.65844 -0.6478,1.0245 -0.21552,0.41478 -0.3649,0.85177 -0.50892,1.29444 -0.20291,0.43061 -0.36228,0.87044 -0.44832,1.3387 -0.0219,0.41151 -0.12352,0.80861 -0.20024,1.2115 -0.0707,0.41285 -0.0808,0.83243 -0.089,1.2502 0.032,0.41368 -0.0601,0.812 -0.13273,1.21527 -0.0692,0.41365 -0.0812,0.83351 -0.0904,1.25189 -0.007,0.44681 -0.005,0.89366 -0.005,1.34052 -0.0383,0.40955 0.0605,0.80205 0.13174,1.20098 0.0324,0.39218 0.0975,0.7722 0.18646,1.15486 0.13526,0.38177 0.22572,0.77481 0.36305,1.15551 0.0911,0.36117 0.24105,0.70205 0.33372,1.06265 0.0858,0.35039 0.16897,0.70851 0.28739,1.04984 0.11167,0.31981 0.23343,0.63923 0.39292,0.93865 0.14844,0.31377 0.27644,0.64007 0.39141,0.96825 0.14023,0.39278 0.39493,0.72559 0.58644,1.0919 0.12797,0.32847 0.28322,0.64888 0.50967,0.92082 0.17786,0.27069 0.3662,0.53232 0.55771,0.7937 0.16719,0.31183 0.40975,0.573 0.6259,0.85046 0.23956,0.34557 0.56223,0.61612 0.85149,0.91674 0.21881,0.30092 0.44738,0.59082 0.68437,0.87705 0.27742,0.26545 0.44871,0.61682 0.74429,0.86467 0.31631,0.29091 0.58083,0.63119 0.86226,0.95547 0.26182,0.34035 0.50747,0.69672 0.80337,1.00881 0.21489,0.28156 0.4147,0.57461 0.65101,0.84012 0.20202,0.28627 0.40207,0.57322 0.60779,0.85729 0.22977,0.22766 0.41818,0.48311 0.61293,0.73911 0.15963,0.28624 0.33163,0.56134 0.5167,0.83194 0.17728,0.31263 0.3828,0.60493 0.52886,0.93474 0.16079,0.32683 0.38283,0.61042 0.51469,0.95121 0.13643,0.3127 0.2926,0.6168 0.41992,0.93335 0.10266,0.32797 0.2352,0.64586 0.38268,0.95603 0.11488,0.33767 0.26277,0.6624 0.35462,1.00781 0.0449,0.37837 0.16177,0.74035 0.23828,1.11242 0.0625,0.39356 0.19712,0.77293 0.31013,1.15452 0.10657,0.48007 0.24977,0.95094 0.34805,1.43294 0.0474,0.42505 0.11062,0.84096 0.20461,1.25805 0.0895,0.40793 0.10883,0.82575 0.12237,1.24173 -0.0191,0.41634 0.0231,0.81803 0.10457,1.22474 0.0832,0.40887 0.10419,0.826 0.11831,1.24185 -0.0221,0.44997 0.0733,0.88847 0.13992,1.33042 0.0647,0.44863 0.0796,0.90201 0.089,1.3545 0.006,0.44903 0.005,0.89811 0.005,1.34715 0.007,0.45575 -0.10289,0.90254 -0.16006,1.35295 -0.0439,0.45364 -0.16076,0.89508 -0.2237,1.34638 -0.0987,0.3848 -0.19725,0.76575 -0.24622,1.16068 -0.0825,0.35979 -0.15907,0.72157 -0.28204,1.07003 -0.10056,0.35035 -0.18739,0.70263 -0.29003,1.05284 -0.0787,0.40591 -0.19063,0.8043 -0.26935,1.21028 -0.0472,0.44562 -0.22603,0.85931 -0.35497,1.28436 -0.17037,0.47237 -0.34155,0.94454 -0.52231,1.41309 -0.18834,0.4202 -0.40466,0.82744 -0.59208,1.2478 -0.16326,0.3183 -0.31454,0.64113 -0.49318,0.95134 -0.17983,0.33124 -0.32978,0.67782 -0.49759,1.01516 -0.16997,0.36141 -0.34128,0.71991 -0.55335,1.05923 -0.22209,0.31407 -0.33815,0.68296 -0.52913,1.01455 -0.18249,0.27 -0.37095,0.53481 -0.55065,0.80728 -0.22465,0.24808 -0.34777,0.55205 -0.49009,0.84931 -0.1595,0.28392 -0.36244,0.53788 -0.54234,0.80875 -0.17168,0.27201 -0.38019,0.51799 -0.59939,0.75245 -0.21351,0.23672 -0.38535,0.5077 -0.5802,0.76019 -0.16619,0.27817 -0.34649,0.54621 -0.55421,0.79503 0,0 -1.23126,0.51668 -1.23126,0.51668 v 0 c 0.22659,-0.22707 0.40613,-0.50231 0.55957,-0.78265 0.18722,-0.26252 0.38868,-0.51418 0.57217,-0.77893 0.23368,-0.21308 0.43538,-0.46774 0.6086,-0.73105 0.19345,-0.25573 0.35537,-0.53298 0.55251,-0.78716 0.13751,-0.30072 0.24763,-0.62363 0.48277,-0.86462 0.17047,-0.27996 0.36186,-0.54185 0.55114,-0.80754 0.22186,-0.31742 0.31036,-0.69931 0.53066,-1.01809 0.22841,-0.32561 0.39425,-0.68534 0.55612,-1.04699 0.18909,-0.32679 0.31739,-0.68753 0.49567,-1.02064 0.18613,-0.30397 0.32727,-0.62578 0.50155,-0.93581 0.17432,-0.4258 0.40414,-0.82759 0.59619,-1.24579 0.18816,-0.46282 0.3446,-0.93802 0.52731,-1.40214 0.12124,-0.4234 0.30826,-0.83137 0.35948,-1.27139 0.0732,-0.41053 0.19368,-0.80892 0.26171,-1.22017 0.0968,-0.35461 0.20632,-0.70186 0.28572,-1.06096 0.12474,-0.34177 0.20192,-0.69174 0.29707,-1.04326 0.0424,-0.39671 0.12188,-0.78382 0.24642,-1.16349 0.058,-0.4522 0.17439,-0.89283 0.22433,-1.34507 0.0529,-0.44675 0.16384,-0.88837 0.16718,-1.3385 6.2e-4,-0.44825 0.002,-0.89652 -0.004,-1.34475 -0.008,-0.44731 -0.0199,-0.89555 -0.081,-1.33941 -0.0656,-0.44676 -0.17097,-0.88908 -0.14759,-1.34377 -0.0123,-0.40881 -0.0299,-0.81912 -0.10954,-1.22145 -0.0832,-0.41384 -0.13844,-0.82092 -0.11333,-1.24532 -0.0119,-0.40794 -0.0274,-0.81793 -0.11216,-1.21857 -0.0932,-0.41881 -0.16527,-0.83419 -0.2034,-1.26219 -0.0937,-0.47919 -0.23898,-0.94524 -0.3421,-1.42224 -0.11512,-0.38466 -0.25688,-0.76627 -0.31871,-1.16355 -0.0732,-0.37053 -0.19612,-0.7286 -0.23514,-1.10566 -0.0861,-0.33873 -0.23441,-0.6541 -0.34328,-0.98527 -0.14862,-0.3127 -0.28463,-0.63259 -0.38665,-0.96365 -0.12568,-0.31791 -0.28442,-0.62179 -0.42054,-0.93537 -0.12722,-0.33977 -0.35522,-0.61891 -0.51027,-0.94591 -0.14133,-0.32288 -0.34706,-0.60557 -0.51861,-0.91199 -0.18457,-0.26853 -0.35406,-0.54306 -0.51367,-0.82668 -0.19328,-0.25806 -0.38987,-0.5078 -0.61388,-0.74138 -0.20408,-0.28019 -0.39833,-0.56625 -0.60027,-0.84731 -0.23229,-0.26729 -0.43625,-0.5554 -0.64936,-0.83675 -0.29105,-0.31843 -0.53969,-0.67257 -0.80113,-1.01511 -0.27945,-0.31854 -0.54268,-0.65266 -0.85706,-0.93741 -0.29047,-0.26238 -0.47737,-0.60857 -0.75513,-0.88309 -0.23589,-0.28286 -0.46004,-0.57211 -0.67875,-0.86871 -0.294,-0.30242 -0.61349,-0.58247 -0.85944,-0.92832 -0.21798,-0.27767 -0.45964,-0.54136 -0.62921,-0.85302 -0.19131,-0.25883 -0.37532,-0.52094 -0.5542,-0.78805 -0.22673,-0.28308 -0.3944,-0.60621 -0.52115,-0.94569 -0.19306,-0.37268 -0.45103,-0.71102 -0.59748,-1.10802 -0.1106,-0.32244 -0.2387,-0.64133 -0.38183,-0.94986 -0.16246,-0.30536 -0.28866,-0.63015 -0.40219,-0.95639 -0.12309,-0.3436 -0.20437,-0.70772 -0.29272,-1.06101 -0.0881,-0.3577 -0.24047,-0.69302 -0.32703,-1.05122 -0.13885,-0.38588 -0.22924,-0.7839 -0.37091,-1.16923 -0.0888,-0.38518 -0.16425,-0.76551 -0.18938,-1.1613 -0.0706,-0.40628 -0.18018,-0.80535 -0.14061,-1.22239 -6.2e-4,-0.44763 -0.002,-0.89527 0.004,-1.34286 0.007,-0.42391 0.0169,-0.84924 0.0798,-1.26931 0.067,-0.39872 0.18028,-0.78855 0.14342,-1.1976 0.007,-0.42373 0.0142,-0.84906 0.0778,-1.26887 0.0707,-0.40453 0.19198,-0.79791 0.20282,-1.21137 0.0773,-0.47486 0.21649,-0.9288 0.44008,-1.35704 0.15203,-0.44358 0.27917,-0.89302 0.50057,-1.31015 0.18085,-0.36811 0.35574,-0.73722 0.63852,-1.04207 0.2173,-0.33328 0.49684,-0.61558 0.77554,-0.8971 0.25191,-0.29202 0.55515,-0.537 0.82969,-0.80577 0.60291,-0.5573 2.6888,-1.58497 0.56845,-0.384 -0.75929,0.43008 1.41084,-0.85809 0.65067,-0.45426 0.14959,-0.0988 0.28775,-0.21493 0.4408,-0.30836 2.02657,-1.23732 1.58805,-0.90736 0.48376,-0.29039 -0.14393,0.0804 0.51516,-0.31664 0.40036,-0.29048 0.0655,-0.0402 0.13011,-0.0821 0.19652,-0.12086 0.44327,-0.25875 0.88593,-0.51859 1.33244,-0.77168 0.11785,-0.0668 0.24281,-0.12048 0.36149,-0.18584 0.0636,-0.0351 0.25336,-0.1425 0.19115,-0.10491 -0.30858,0.18632 -0.62022,0.36749 -0.93033,0.55124 0.8129,-0.46755 1.58329,-1.03508 2.49278,-1.30169 0.73686,-0.27445 1.48184,-0.524 2.2429,-0.72376 0,0 -1.05746,0.8086 -1.05746,0.8086 z"
       inkscape:connector-curvature="0" />
    <path
       style="opacity:1;fill:#000000;fill-opacity:1;stroke:#000000;stroke-width:2.51202703;stroke-miterlimit:4;stroke-dasharray:none;stroke-opacity:1;paint-order:markers stroke fill"
       id="path1435"
       d="m 187.73201,205.1896 c -0.0845,0.0468 -0.16818,0.0951 -0.25346,0.14047 -1.58142,0.84116 3.88455,-2.2381 -0.84499,0.46786 -0.29244,0.16732 0.5851,-0.33432 0.87902,-0.49904 0.0797,-0.0446 -0.15755,0.0925 -0.23634,0.1389 -0.36493,0.21431 -0.67758,0.49471 -0.9831,0.78423 -0.26225,0.23627 -0.50387,0.49393 -0.76869,0.72729 -0.30238,0.26323 -0.57752,0.55724 -0.85046,0.85063 -0.26969,0.31638 -0.54572,0.63204 -0.76926,0.9834 -0.21221,0.31823 -0.40639,0.64736 -0.61514,0.96778 -0.16381,0.32144 -0.32018,0.65201 -0.42304,0.99882 -0.0719,0.35278 -0.18103,0.69773 -0.32479,1.02755 -0.15828,0.35206 -0.19424,0.73558 -0.21956,1.11579 -0.0318,0.43529 0.006,0.87326 -0.0402,1.30708 -0.0827,0.3875 -0.1412,0.77738 -0.17209,1.17227 -0.0272,0.43791 -0.0275,0.87689 -0.0289,1.31545 0.0902,0.53641 0.21096,1.07786 0.36378,1.60137 0.11108,0.41138 0.24768,0.81225 0.37877,1.21718 0.1125,0.39436 0.28257,0.77816 0.46212,1.14716 0.16351,0.34017 0.30609,0.69206 0.48772,1.02309 0.15691,0.29719 0.28678,0.60904 0.45071,0.9024 0.16067,0.31069 0.25818,0.64516 0.41526,0.95854 0.27124,0.43456 0.53036,0.87421 0.75924,1.33265 0.26388,0.43995 0.49469,0.89693 0.76038,1.33585 0.22208,0.42021 0.47689,0.81704 0.74689,1.20724 0.23983,0.44469 0.53902,0.85268 0.80061,1.28441 0.29718,0.4456 0.57732,0.89512 0.90306,1.32078 0.26712,0.43027 0.61061,0.79861 0.9372,1.18171 0.32651,0.40085 0.6421,0.81104 0.99259,1.1918 0.29968,0.37187 0.63014,0.71681 0.95085,1.07091 0.37121,0.42877 0.75102,0.8496 1.12607,1.2751 0.38396,0.40171 0.76755,0.79296 1.12443,1.21915 0.32649,0.2783 0.62689,0.58384 0.94423,0.87193 0.39007,0.35384 0.78945,0.69575 1.19562,1.03074 0.33393,0.32796 0.70572,0.61676 1.03035,0.95385 0.35058,0.29764 0.66762,0.62817 0.99298,0.95162 0.31922,0.3617 0.6351,0.72899 0.98434,1.06244 0.38926,0.42235 0.80205,0.82101 1.22945,1.20455 0.35579,0.33852 0.68999,0.69879 1.04576,1.03699 0.38056,0.42685 0.7774,0.83978 1.146,1.27702 0.39519,0.41321 0.78936,0.82772 1.18956,1.23579 0.37928,0.39643 0.75576,0.79676 1.12137,1.20643 0.33786,0.43457 0.71706,0.83872 1.09809,1.23577 0.28746,0.30717 0.56434,0.61657 0.82726,0.94403 0.29263,0.33371 0.58281,0.66859 0.85952,1.01576 0.25432,0.36045 0.53503,0.70253 0.8092,1.04876 0.36473,0.38665 0.65556,0.83016 0.97388,1.25276 0.2161,0.35839 0.45843,0.69739 0.69947,1.03978 0.19224,0.35268 0.38721,0.69985 0.60673,1.03646 0.13558,0.32579 0.30876,0.63109 0.4692,0.94435 0.22274,0.3123 0.34562,0.67508 0.49802,1.02325 0.15854,0.36565 0.3454,0.71968 0.52614,1.0767 0.19934,0.38201 0.32379,0.79667 0.49697,1.18937 0.17093,0.37845 0.30411,0.77162 0.45129,1.15936 0.17773,0.42648 0.25223,0.87943 0.29476,1.3363 0.0177,0.4 0.13334,0.7857 0.18988,1.18118 0.0521,0.42883 0.0572,0.86139 0.062,1.29278 0.002,0.44837 10e-4,0.89674 9.6e-4,1.34512 -6.3e-4,0.44884 -6.3e-4,0.89769 -9.6e-4,1.34652 -8e-5,0.44862 -7e-5,0.89721 -7e-5,1.3458 -0.0281,0.41893 0.0139,0.82272 0.0964,1.23185 0.0839,0.4084 0.10538,0.82517 0.11968,1.24068 -0.0286,0.40671 0.07,0.7968 0.14031,1.19312 0.0684,0.41987 0.0802,0.84579 0.0889,1.27022 0.006,0.44765 0.005,0.89537 0.005,1.34306 -6.3e-4,0.44891 -9.4e-4,0.89784 -9.4e-4,1.34676 0.0563,0.38647 0.13921,0.76683 0.18092,1.15577 0.0303,0.39288 0.009,0.78805 0.16171,1.15819 0,0 -1.16421,0.6522 -1.16421,0.6522 v 0 c -0.16063,-0.38196 -0.15806,-0.78488 -0.17826,-1.1933 -0.0395,-0.39386 -0.12012,-0.77891 -0.1861,-1.16865 1.7e-4,-0.44896 3.3e-4,-0.8979 9.5e-4,-1.34685 6.2e-4,-0.44682 0.002,-0.89368 -0.004,-1.34047 -0.007,-0.41795 -0.017,-0.83738 -0.081,-1.25131 -0.0695,-0.40238 -0.17833,-0.79756 -0.14762,-1.21041 -0.0126,-0.40842 -0.0305,-0.81837 -0.11096,-1.22016 -0.0845,-0.41761 -0.13982,-0.82809 -0.10669,-1.25645 -2e-5,-0.44861 -3e-5,-0.89721 5e-5,-1.34581 1e-4,-0.4489 2.7e-4,-0.89778 9.5e-4,-1.34666 6.3e-4,-0.4479 0.002,-0.8958 -3.2e-4,-1.34368 -0.004,-0.42602 -0.007,-0.85309 -0.0555,-1.27694 -0.0538,-0.39847 -0.17244,-0.7859 -0.19147,-1.18788 -0.0373,-0.44543 -0.10349,-0.88802 -0.27729,-1.30366 -0.14912,-0.38464 -0.27958,-0.77641 -0.4492,-1.15304 -0.17235,-0.3906 -0.29583,-0.80302 -0.49259,-1.18377 -0.18163,-0.35946 -0.37323,-0.71387 -0.53205,-1.08204 -0.15056,-0.34609 -0.27182,-0.70608 -0.49355,-1.01595 -0.16003,-0.3086 -0.33193,-0.6094 -0.46293,-0.93233 -0.21816,-0.33553 -0.41003,-0.68268 -0.60203,-1.03336 -0.24162,-0.34061 -0.48241,-0.6792 -0.69611,-1.03775 -0.31396,-0.42452 -0.60791,-0.86361 -0.9719,-1.24929 -0.27512,-0.34527 -0.55664,-0.68668 -0.81028,-1.04765 -0.27765,-0.3464 -0.56666,-0.68254 -0.86076,-1.01495 -0.25905,-0.32513 -0.53771,-0.62883 -0.81756,-0.93666 -0.37812,-0.40203 -0.76182,-0.80301 -1.10029,-1.23925 -0.36454,-0.40815 -0.73809,-0.80884 -1.11897,-1.20142 -0.3979,-0.41422 -0.79952,-0.82486 -1.19013,-1.24615 -0.36667,-0.43331 -0.76431,-0.83965 -1.14433,-1.26128 -0.35354,-0.33806 -0.68453,-0.69907 -1.03917,-1.03633 -0.42869,-0.38456 -0.84121,-0.78608 -1.2342,-1.2072 -0.34676,-0.33738 -0.66937,-0.69938 -0.98745,-1.06358 -0.32338,-0.32687 -0.64926,-0.64857 -0.9952,-0.95225 -0.32434,-0.33009 -0.68642,-0.62201 -1.01935,-0.94354 -0.40773,-0.33666 -0.80799,-0.68152 -1.20124,-1.0351 -0.3199,-0.29395 -0.6335,-0.59447 -0.954,-0.8875 -0.3519,-0.42826 -0.73865,-0.81418 -1.11852,-1.21751 -0.37779,-0.42254 -0.75266,-0.84709 -1.12593,-1.27335 -0.32207,-0.35292 -0.65595,-0.6954 -0.95384,-1.06908 -0.34659,-0.38578 -0.66429,-0.79515 -0.99295,-1.19571 -0.33274,-0.38141 -0.66786,-0.75903 -0.93902,-1.18928 -0.33066,-0.42795 -0.61345,-0.88215 -0.91085,-1.33329 -0.25997,-0.42992 -0.5623,-0.83262 -0.80133,-1.27487 -0.27013,-0.39325 -0.52108,-0.79565 -0.74989,-1.21466 -0.26738,-0.44203 -0.49398,-0.90523 -0.76014,-1.34797 -0.23155,-0.45702 -0.49326,-0.89485 -0.7664,-1.32816 -0.15892,-0.31093 -0.25707,-0.64257 -0.41388,-0.95317 -0.1636,-0.29402 -0.29508,-0.60536 -0.45084,-0.90359 -0.1818,-0.3335 -0.32582,-0.68702 -0.48833,-1.03014 -0.18175,-0.37458 -0.35849,-0.76316 -0.47311,-1.16277 -0.12888,-0.40723 -0.2683,-0.80866 -0.37564,-1.22277 -0.15655,-0.53528 -0.27326,-1.08863 -0.38421,-1.63369 9.5e-4,-0.44117 6.3e-4,-0.88265 0.0239,-1.32335 0.0267,-0.39711 0.0729,-0.79186 0.16787,-1.17925 0.0704,-0.42806 0.009,-0.86668 0.0452,-1.29871 0.0212,-0.39172 0.0487,-0.78895 0.19672,-1.15704 0.14344,-0.32481 0.27431,-0.65836 0.33396,-1.01034 0.0916,-0.36266 0.25739,-0.69438 0.40658,-1.03536 0.2024,-0.32367 0.40484,-0.64703 0.61744,-0.96434 0.2056,-0.36787 0.49403,-0.67977 0.75826,-1.00624 0.26114,-0.30629 0.55448,-0.58751 0.84375,-0.86644 0.26898,-0.22964 0.50905,-0.48473 0.77288,-0.71929 0.29507,-0.30696 0.61958,-0.58319 0.97536,-0.81781 0.54467,-0.31233 1.08344,-0.63486 1.62847,-0.94653 0.28563,-0.16334 -1.13616,0.6642 -0.85036,0.50119 0.65313,-0.37248 1.28524,-0.77784 1.96228,-1.10503 0,0 -1.04526,0.82609 -1.04526,0.82609 z"
       inkscape:connector-curvature="0" />
    <path
       style="fill:#ff0000;stroke:#000000;stroke-width:0;stroke-linecap:butt;stroke-linejoin:miter;stroke-miterlimit:4;stroke-dasharray:none;stroke-opacity:1"
       d="m 139.30739,120.95963 c 3.34499,0.3299 23.18092,-21.255656 31.08316,-13.233 17.33377,17.5979 -5.36349,67.03191 -30.05462,67.73501 -24.53273,0.69859 -49.652755,-46.89005 -33.64321,-65.49213 7.48348,-8.69532 29.2697,10.66022 32.61467,10.99012 z"
       id="path1437"
       inkscape:connector-curvature="0"
       sodipodi:nodetypes="zaaaz" />
  </g>
</svg>
