<?xml version="1.0" encoding="UTF-8" standalone="no"?>
<!-- Created with Inkscape (http://www.inkscape.org/) -->

<svg
   xmlns:dc="http://purl.org/dc/elements/1.1/"
   xmlns:cc="http://creativecommons.org/ns#"
   xmlns:rdf="http://www.w3.org/1999/02/22-rdf-syntax-ns#"
   xmlns:svg="http://www.w3.org/2000/svg"
   xmlns="http://www.w3.org/2000/svg"
   xmlns:sodipodi="http://sodipodi.sourceforge.net/DTD/sodipodi-0.dtd"
   xmlns:inkscape="http://www.inkscape.org/namespaces/inkscape"
   width="1024"
   height="1024"
   viewBox="0 0 270.93333 270.93334"
   version="1.1"
   id="svg8"
   inkscape:version="0.92.2 (5c3e80d, 2017-08-06)"
   sodipodi:docname="Arrow.svg"
   inkscape:export-filename="G:\Documents\Digipen\Semester 02\GAM150\drqst\Production\Illustrations\Arrow.png"
   inkscape:export-xdpi="96"
   inkscape:export-ydpi="96">
  <defs
     id="defs2" />
  <sodipodi:namedview
     id="base"
     pagecolor="#ffffff"
     bordercolor="#666666"
     borderopacity="1.0"
     inkscape:pageopacity="0.0"
     inkscape:pageshadow="2"
     inkscape:zoom="0.7"
     inkscape:cx="722.49965"
     inkscape:cy="615.88574"
     inkscape:document-units="mm"
     inkscape:current-layer="layer3"
     showgrid="false"
     units="px"
     inkscape:pagecheckerboard="true"
     inkscape:window-width="1920"
     inkscape:window-height="1057"
     inkscape:window-x="1912"
     inkscape:window-y="-8"
     inkscape:window-maximized="1" />
  <metadata
     id="metadata5">
    <rdf:RDF>
      <cc:Work
         rdf:about="">
        <dc:format>image/svg+xml</dc:format>
        <dc:type
           rdf:resource="http://purl.org/dc/dcmitype/StillImage" />
        <dc:title />
      </cc:Work>
    </rdf:RDF>
  </metadata>
  <g
     inkscape:groupmode="layer"
     id="layer3"
     inkscape:label="Layer 3">
    <path
       style="fill:#ffffff;stroke:#000000;stroke-width:3.96875;stroke-linecap:butt;stroke-linejoin:miter;stroke-miterlimit:4;stroke-dasharray:none;stroke-opacity:1"
       d="m 266.1769,97.44226 -61.15655,7.55952 1.13393,15.11905 h 49.89286 z"
       id="path821"
       inkscape:connector-curvature="0"
       sodipodi:nodetypes="ccccc" />
    <path
       style="opacity:1;fill:#000000;fill-opacity:1;stroke:#000000;stroke-width:1.38555372;stroke-miterlimit:4;stroke-dasharray:none;stroke-opacity:1;paint-order:markers stroke fill"
       id="path831"
       d="m 250.54632,100.03832 c -0.38818,0.69453 -0.86977,1.31596 -1.20008,2.04797 -0.26336,0.45024 -0.39997,0.96189 -0.57974,1.45393 -0.15774,0.46478 -0.18587,0.95988 -0.30334,1.43642 -0.12721,0.43129 -0.25539,0.87016 -0.40931,1.29196 -0.19699,0.4604 -0.26315,0.95947 -0.30462,1.46071 -0.0214,0.51125 -0.15719,1.00407 -0.22331,1.50974 -0.13466,0.47412 -0.23545,0.95223 -0.28969,1.44538 -0.0666,0.46044 -0.23753,0.88081 -0.38202,1.31408 -0.11907,0.52278 -0.25606,1.04108 -0.35065,1.57048 -0.0361,0.53626 -0.17808,1.04884 -0.27353,1.57337 -0.0325,0.3365 -0.087,0.66272 -0.16626,0.98938 0,0 1.39485,0.83304 1.39485,0.83304 v 0 c 0.0815,-0.33046 0.145,-0.65829 0.17064,-1.00045 0.0921,-0.52584 0.24164,-1.03726 0.27203,-1.5749 0.0896,-0.52167 0.23026,-1.0286 0.34172,-1.54432 0.14677,-0.44674 0.32467,-0.87799 0.39771,-1.35102 0.0502,-0.49263 0.14688,-0.97048 0.28823,-1.44165 0.0631,-0.50958 0.20215,-1.00453 0.22659,-1.51821 0.0363,-0.48468 0.0928,-0.96852 0.28454,-1.41342 0.15875,-0.42671 0.28468,-0.87454 0.41776,-1.31048 0.11778,-0.47073 0.15016,-0.95614 0.29482,-1.41881 0.17728,-0.48883 0.31051,-0.99674 0.568,-1.44609 0.32286,-0.73154 0.80131,-1.35356 1.19839,-2.03646 0,0 -1.37273,-0.87065 -1.37273,-0.87065 z"
       inkscape:connector-curvature="0" />
    <path
       style="opacity:1;fill:#000000;fill-opacity:1;stroke:#000000;stroke-width:1.38555372;stroke-miterlimit:4;stroke-dasharray:none;stroke-opacity:1;paint-order:markers stroke fill"
       id="path833"
       d="m 235.62509,102.10155 c -0.30874,0.6997 -0.65833,1.37824 -0.95187,2.08571 -0.2249,0.4478 -0.41527,0.91166 -0.65146,1.35282 -0.20208,0.4568 -0.4285,0.90008 -0.56819,1.38613 -0.15863,0.40885 -0.27353,0.8354 -0.5017,1.20593 -0.21268,0.37899 -0.37929,0.79545 -0.52245,1.21264 -0.23308,0.39541 -0.30159,0.85493 -0.42917,1.29374 -0.10983,0.44725 -0.30598,0.85568 -0.42347,1.29991 -0.10404,0.47467 -0.25351,0.92948 -0.329,1.41257 -0.057,0.49632 -0.19948,0.97151 -0.26967,1.46642 0,0 1.40231,0.8152 1.40231,0.8152 v 0 c 0.0663,-0.49535 0.21023,-0.96892 0.26872,-1.46407 0.0701,-0.47832 0.2187,-0.92611 0.32146,-1.39469 0.11279,-0.44393 0.31301,-0.84816 0.42089,-1.29409 0.13101,-0.43501 0.18975,-0.89519 0.42615,-1.28709 0.13632,-0.40559 0.29994,-0.80892 0.50502,-1.17693 0.23306,-0.38764 0.36043,-0.82465 0.52239,-1.25104 0.13099,-0.47504 0.35459,-0.90534 0.55015,-1.35049 0.24088,-0.44589 0.43093,-0.91687 0.65555,-1.37234 0.28855,-0.71086 0.6326,-1.3949 0.95683,-2.08648 0,0 -1.38249,-0.85385 -1.38249,-0.85385 z"
       inkscape:connector-curvature="0" />
    <path
       style="opacity:1;fill:#000000;fill-opacity:1;stroke:#000000;stroke-width:1.38555372;stroke-miterlimit:4;stroke-dasharray:none;stroke-opacity:1;paint-order:markers stroke fill"
       id="path835"
       d="m 220.97013,104.20404 c -0.17021,0.83538 -0.43962,1.63831 -0.60265,2.47639 -0.0825,0.56987 -0.25134,1.11522 -0.33483,1.68537 -0.038,0.47301 -0.16604,0.92767 -0.33342,1.36255 -0.19335,0.46319 -0.19271,0.97647 -0.28459,1.46568 -0.13217,0.49792 -0.19341,1.00974 -0.229,1.52532 -0.0165,0.51193 -0.15384,1.00528 -0.22053,1.51103 -0.0605,0.45008 -0.0389,0.90666 -0.0999,1.35576 0,0 1.40175,0.81657 1.40175,0.81657 v 0 c 0.0697,-0.4494 0.0452,-0.90652 0.10108,-1.35875 0.0638,-0.51049 0.20465,-1.00677 0.22474,-1.52195 0.032,-0.50792 0.087,-1.01317 0.22011,-1.50288 0.0973,-0.47713 0.085,-0.98136 0.27146,-1.43607 0.17263,-0.4472 0.31187,-0.91454 0.34992,-1.40162 0.0779,-0.56931 0.24706,-1.11236 0.3253,-1.68092 0.15457,-0.83784 0.41586,-1.63974 0.60412,-2.46773 0,0 -1.39357,-0.82875 -1.39357,-0.82875 z"
       inkscape:connector-curvature="0" />
    <path
       sodipodi:nodetypes="ccccc"
       inkscape:connector-curvature="0"
       id="path837"
       d="m 266.1769,142.7994 -61.15655,-7.55952 1.13393,-15.11905 h 49.89286 z"
       style="fill:#ffffff;stroke:#000000;stroke-width:3.96875;stroke-linecap:butt;stroke-linejoin:miter;stroke-miterlimit:4;stroke-dasharray:none;stroke-opacity:1" />
    <path
       inkscape:connector-curvature="0"
       d="m 250.54632,140.20334 c -0.38818,-0.69453 -0.86977,-1.31596 -1.20008,-2.04797 -0.26336,-0.45024 -0.39997,-0.96189 -0.57974,-1.45393 -0.15774,-0.46478 -0.18587,-0.95988 -0.30334,-1.43642 -0.12721,-0.43129 -0.25539,-0.87016 -0.40931,-1.29196 -0.19699,-0.4604 -0.26315,-0.95947 -0.30462,-1.46071 -0.0214,-0.51125 -0.15719,-1.00407 -0.22331,-1.50974 -0.13466,-0.47412 -0.23545,-0.95223 -0.28969,-1.44538 -0.0666,-0.46044 -0.23753,-0.88081 -0.38202,-1.31408 -0.11907,-0.52278 -0.25606,-1.04108 -0.35065,-1.57048 -0.0361,-0.53626 -0.17808,-1.04884 -0.27353,-1.57337 -0.0325,-0.3365 -0.087,-0.66272 -0.16626,-0.98938 0,0 1.39485,-0.83304 1.39485,-0.83304 v 0 c 0.0815,0.33046 0.145,0.65829 0.17064,1.00045 0.0921,0.52584 0.24164,1.03726 0.27203,1.5749 0.0896,0.52167 0.23026,1.0286 0.34172,1.54432 0.14677,0.44674 0.32467,0.87799 0.39771,1.35102 0.0502,0.49263 0.14688,0.97048 0.28823,1.44165 0.0631,0.50958 0.20215,1.00453 0.22659,1.51821 0.0363,0.48468 0.0928,0.96852 0.28454,1.41342 0.15875,0.42671 0.28468,0.87454 0.41776,1.31048 0.11778,0.47073 0.15016,0.95614 0.29482,1.41881 0.17728,0.48883 0.31051,0.99674 0.568,1.44609 0.32286,0.73154 0.80131,1.35356 1.19839,2.03646 0,0 -1.37273,0.87065 -1.37273,0.87065 z"
       id="path839"
       style="opacity:1;fill:#000000;fill-opacity:1;stroke:#000000;stroke-width:1.38555372;stroke-miterlimit:4;stroke-dasharray:none;stroke-opacity:1;paint-order:markers stroke fill" />
    <path
       inkscape:connector-curvature="0"
       d="m 235.62509,138.14011 c -0.30874,-0.6997 -0.65833,-1.37824 -0.95187,-2.08571 -0.2249,-0.4478 -0.41527,-0.91166 -0.65146,-1.35282 -0.20208,-0.4568 -0.4285,-0.90008 -0.56819,-1.38613 -0.15863,-0.40885 -0.27353,-0.8354 -0.5017,-1.20593 -0.21268,-0.37899 -0.37929,-0.79545 -0.52245,-1.21264 -0.23308,-0.39541 -0.30159,-0.85493 -0.42917,-1.29374 -0.10983,-0.44725 -0.30598,-0.85568 -0.42347,-1.29991 -0.10404,-0.47467 -0.25351,-0.92948 -0.329,-1.41257 -0.057,-0.49632 -0.19948,-0.97151 -0.26967,-1.46642 0,0 1.40231,-0.8152 1.40231,-0.8152 v 0 c 0.0663,0.49535 0.21023,0.96892 0.26872,1.46407 0.0701,0.47832 0.2187,0.92611 0.32146,1.39469 0.11279,0.44393 0.31301,0.84816 0.42089,1.29409 0.13101,0.43501 0.18975,0.89519 0.42615,1.28709 0.13632,0.40559 0.29994,0.80892 0.50502,1.17693 0.23306,0.38764 0.36043,0.82465 0.52239,1.25104 0.13099,0.47504 0.35459,0.90534 0.55015,1.35049 0.24088,0.44589 0.43093,0.91687 0.65555,1.37234 0.28855,0.71086 0.6326,1.3949 0.95683,2.08648 0,0 -1.38249,0.85385 -1.38249,0.85385 z"
       id="path841"
       style="opacity:1;fill:#000000;fill-opacity:1;stroke:#000000;stroke-width:1.38555372;stroke-miterlimit:4;stroke-dasharray:none;stroke-opacity:1;paint-order:markers stroke fill" />
    <path
       inkscape:connector-curvature="0"
       d="m 220.97013,136.03762 c -0.17021,-0.83538 -0.43962,-1.63831 -0.60265,-2.47639 -0.0825,-0.56987 -0.25134,-1.11522 -0.33483,-1.68537 -0.038,-0.47301 -0.16604,-0.92767 -0.33342,-1.36255 -0.19335,-0.46319 -0.19271,-0.97647 -0.28459,-1.46568 -0.13217,-0.49792 -0.19341,-1.00974 -0.229,-1.52532 -0.0165,-0.51193 -0.15384,-1.00528 -0.22053,-1.51103 -0.0605,-0.45008 -0.0389,-0.90666 -0.0999,-1.35576 0,0 1.40175,-0.81657 1.40175,-0.81657 v 0 c 0.0697,0.4494 0.0452,0.90652 0.10108,1.35875 0.0638,0.51049 0.20465,1.00677 0.22474,1.52195 0.032,0.50792 0.087,1.01317 0.22011,1.50288 0.0973,0.47713 0.085,0.98136 0.27146,1.43607 0.17263,0.4472 0.31187,0.91454 0.34992,1.40162 0.0779,0.56931 0.24706,1.11236 0.3253,1.68092 0.15457,0.83784 0.41586,1.63974 0.60412,2.46773 0,0 -1.39357,0.82875 -1.39357,0.82875 z"
       id="path843"
       style="opacity:1;fill:#000000;fill-opacity:1;stroke:#000000;stroke-width:1.38555372;stroke-miterlimit:4;stroke-dasharray:none;stroke-opacity:1;paint-order:markers stroke fill" />
  </g>
  <g
     inkscape:label="Layer 1"
     inkscape:groupmode="layer"
     id="layer1"
     transform="translate(0,-26.06665)">
    <ellipse
       style="opacity:1;fill:#a05a2c;fill-opacity:1;stroke:#000000;stroke-width:3.96875;stroke-miterlimit:4;stroke-dasharray:none;stroke-opacity:1;paint-order:markers stroke fill"
       id="path815"
       cx="-140.19743"
       cy="145.99849"
       rx="126.05505"
       ry="3.96875"
       transform="scale(-1,1)" />
  </g>
  <g
     inkscape:groupmode="layer"
     id="layer2"
     inkscape:label="Layer 2">
    <path
       style="fill:#999999;stroke:#000000;stroke-width:3.96875;stroke-linecap:butt;stroke-linejoin:miter;stroke-miterlimit:4;stroke-dasharray:none;stroke-opacity:1"
       d="m 55.455179,101.50551 c 0,0 -47.2855102,16.42532 -47.1903302,19.42797 0.0793,2.50102 47.4738102,14.3631 47.4738102,14.3631 l -5.53735,-15.64821 z"
       id="path818"
       inkscape:connector-curvature="0"
       sodipodi:nodetypes="csccc" />
  </g>
</svg>
