<?xml version="1.0" encoding="UTF-8" standalone="no"?>
<!-- Created with Inkscape (http://www.inkscape.org/) -->

<svg
   xmlns:dc="http://purl.org/dc/elements/1.1/"
   xmlns:cc="http://creativecommons.org/ns#"
   xmlns:rdf="http://www.w3.org/1999/02/22-rdf-syntax-ns#"
   xmlns:svg="http://www.w3.org/2000/svg"
   xmlns="http://www.w3.org/2000/svg"
   xmlns:sodipodi="http://sodipodi.sourceforge.net/DTD/sodipodi-0.dtd"
   xmlns:inkscape="http://www.inkscape.org/namespaces/inkscape"
   width="1024"
   height="1024"
   viewBox="0 0 270.93333 270.93334"
   version="1.1"
   id="svg8"
   inkscape:version="0.92.2 (5c3e80d, 2017-08-06)"
   sodipodi:docname="Bob_Hand.svg">
  <defs
     id="defs2" />
  <sodipodi:namedview
     id="base"
     pagecolor="#ffffff"
     bordercolor="#666666"
     borderopacity="1.0"
     inkscape:pageopacity="0.0"
     inkscape:pageshadow="2"
     inkscape:zoom="0.7"
     inkscape:cx="513.62693"
     inkscape:cy="524.33426"
     inkscape:document-units="mm"
     inkscape:current-layer="layer1"
     showgrid="false"
     units="px"
     inkscape:pagecheckerboard="true"
     inkscape:window-width="1920"
     inkscape:window-height="1057"
     inkscape:window-x="-8"
     inkscape:window-y="-8"
     inkscape:window-maximized="1" />
  <metadata
     id="metadata5">
    <rdf:RDF>
      <cc:Work
         rdf:about="">
        <dc:format>image/svg+xml</dc:format>
        <dc:type
           rdf:resource="http://purl.org/dc/dcmitype/StillImage" />
        <dc:title></dc:title>
      </cc:Work>
    </rdf:RDF>
  </metadata>
  <g
     inkscape:groupmode="layer"
     id="layer2"
     inkscape:label="Layer 2"
     transform="translate(0,-26.066658)">
    <path
       style="fill:none;stroke:#000000;stroke-width:0.26458332px;stroke-linecap:butt;stroke-linejoin:miter;stroke-opacity:1"
       d="m 187.58067,57.916071 80.13095,-0.755951 -61.23215,55.5625 z"
       id="path3702"
       inkscape:connector-curvature="0"
       sodipodi:nodetypes="cccc" />
    <path
       sodipodi:nodetypes="cccc"
       inkscape:connector-curvature="0"
       id="path3704"
       d="m 206.47947,112.72262 60.85098,33.14511 -63.54026,24.76595 z"
       style="fill:none;stroke:#000000;stroke-width:0.26458332px;stroke-linecap:butt;stroke-linejoin:miter;stroke-opacity:1" />
    <path
       style="fill:none;stroke:#000000;stroke-width:0.26458332px;stroke-linecap:butt;stroke-linejoin:miter;stroke-opacity:1"
       d="m 223.70981,184.53123 44.38913,53.20756 -68.19527,-0.34746 z"
       id="path3706"
       inkscape:connector-curvature="0"
       sodipodi:nodetypes="cccc" />
  </g>
  <g
     inkscape:label="Layer 1"
     inkscape:groupmode="layer"
     id="layer1"
     transform="translate(0,-26.06665)">
    <ellipse
       id="path3699"
       style="fill:#ff0000;stroke-width:0.2722992"
       ry="134.37053"
       rx="115.28273"
       cy="161.49551"
       cx="116.0387" />
    <path
       style="fill:#ffffff;stroke-width:1.42857146"
       d="M 816.1317,257.31437 C 792.54945,210.05198 763.92288,168.83974 730.40049,133.8914 l -11.15691,-11.63148 23.26311,-0.84915 c 43.89216,-1.60215 266.17931,-2.63074 264.69171,-1.22481 -1.616,1.52712 -171.24096,155.0698 -175.81254,159.14353 -2.94367,2.6231 -3.00402,2.536 -15.25416,-22.01512 z"
       id="path3714"
       inkscape:connector-curvature="0"
       transform="matrix(0.26458333,0,0,0.26458333,0,26.06665)" />
    <path
       style="fill:#ffffff;stroke-width:1.42857146"
       d="m 875.0555,499.20796 c 0,-24.35754 -6.9811,-82.62324 -13.40721,-111.89936 -1.85399,-8.44643 -3.10907,-15.35714 -2.78905,-15.35714 0.41928,0 146.87186,79.40474 148.57446,80.55524 0.4154,0.28067 -130.19395,50.89374 -131.30677,50.88334 -0.58928,-0.006 -1.07143,-1.88744 -1.07143,-4.18208 z"
       id="path3716"
       inkscape:connector-curvature="0"
       transform="matrix(0.26458333,0,0,0.26458333,0,26.06665)" />
    <path
       style="fill:#ffffff;stroke-width:1.42857146"
       d="m 860.49378,798.02336 -60.99029,-0.38817 5.88196,-10.34186 c 24.28817,-42.7043 48.42927,-108.61945 57.80249,-157.82462 l 1.15328,-6.05418 65.71428,78.69982 c 36.14286,43.2849 69.13797,82.81285 73.3225,87.83989 l 7.6082,9.14007 -44.75107,-0.3414 c -24.61308,-0.18775 -72.19669,-0.51605 -105.74135,-0.72955 z"
       id="path3718"
       inkscape:connector-curvature="0"
       transform="matrix(0.26458333,0,0,0.26458333,0,26.06665)" />
  </g>
</svg>
