<?xml version="1.0" encoding="UTF-8" standalone="no"?>
<!-- Created with Inkscape (http://www.inkscape.org/) -->

<svg
   xmlns:dc="http://purl.org/dc/elements/1.1/"
   xmlns:cc="http://creativecommons.org/ns#"
   xmlns:rdf="http://www.w3.org/1999/02/22-rdf-syntax-ns#"
   xmlns:svg="http://www.w3.org/2000/svg"
   xmlns="http://www.w3.org/2000/svg"
   xmlns:sodipodi="http://sodipodi.sourceforge.net/DTD/sodipodi-0.dtd"
   xmlns:inkscape="http://www.inkscape.org/namespaces/inkscape"
   width="1024"
   height="1024"
   viewBox="0 0 270.93333 270.93334"
   version="1.1"
   id="svg54"
   inkscape:version="0.92.2 (5c3e80d, 2017-08-06)"
   sodipodi:docname="Bob_Head.svg">
  <defs
     id="defs48">
    <inkscape:path-effect
       effect="bspline"
       id="path-effect966"
       is_visible="true"
       weight="33.333333"
       steps="2"
       helper_size="0"
       apply_no_weight="true"
       apply_with_weight="true"
       only_selected="false" />
    <inkscape:path-effect
       effect="bspline"
       id="path-effect962"
       is_visible="true"
       weight="33.333333"
       steps="2"
       helper_size="0"
       apply_no_weight="true"
       apply_with_weight="true"
       only_selected="false" />
    <inkscape:path-effect
       effect="bspline"
       id="path-effect938"
       is_visible="true"
       weight="33.333333"
       steps="2"
       helper_size="0"
       apply_no_weight="true"
       apply_with_weight="true"
       only_selected="false" />
    <inkscape:path-effect
       effect="bspline"
       id="path-effect910"
       is_visible="true"
       weight="33.333333"
       steps="2"
       helper_size="0"
       apply_no_weight="true"
       apply_with_weight="true"
       only_selected="false" />
    <inkscape:path-effect
       effect="spiro"
       id="path-effect906"
       is_visible="true" />
    <filter
       inkscape:collect="always"
       style="color-interpolation-filters:sRGB"
       id="filter2307"
       x="-0.11849345"
       width="1.2369869"
       y="-0.25599057"
       height="1.5119811">
      <feGaussianBlur
         inkscape:collect="always"
         stdDeviation="4.2734933"
         id="feGaussianBlur2309" />
    </filter>
  </defs>
  <sodipodi:namedview
     id="base"
     pagecolor="#ffffff"
     bordercolor="#666666"
     borderopacity="1.0"
     inkscape:pageopacity="0.0"
     inkscape:pageshadow="2"
     inkscape:zoom="0.7"
     inkscape:cx="559.53062"
     inkscape:cy="528.05484"
     inkscape:document-units="mm"
     inkscape:current-layer="layer1"
     showgrid="false"
     units="px"
     inkscape:pagecheckerboard="true"
     inkscape:window-width="1920"
     inkscape:window-height="1057"
     inkscape:window-x="-8"
     inkscape:window-y="-8"
     inkscape:window-maximized="1" />
  <metadata
     id="metadata51">
    <rdf:RDF>
      <cc:Work
         rdf:about="">
        <dc:format>image/svg+xml</dc:format>
        <dc:type
           rdf:resource="http://purl.org/dc/dcmitype/StillImage" />
        <dc:title></dc:title>
      </cc:Work>
    </rdf:RDF>
  </metadata>
  <g
     inkscape:groupmode="layer"
     id="layer2"
     inkscape:label="Layer 2">
    <path
       style="fill:none;stroke:#000000;stroke-width:0.26458332px;stroke-linecap:butt;stroke-linejoin:miter;stroke-opacity:1"
       d="m 191.25595,210.45714 c 0,0 -1.88988,31.37202 12.85119,30.99405 13.22917,-0.75596 15.11905,-31.75 15.11905,-31.75 z"
       id="path1016"
       inkscape:connector-curvature="0"
       sodipodi:nodetypes="cccc" />
    <path
       style="opacity:1;fill:#ffffff;fill-opacity:1;stroke-width:1.42857146"
       d="m 818.05029,849.05055 c -26.74972,10.77779 -54.78071,17.67327 -82.7818,24.22154 -6.30493,1.06846 0.24488,8.04246 1.01004,11.26395 6.26327,15.33123 21.7414,29.62267 39.35547,26.31697 22.30381,-7.37261 32.87196,-31.32518 39.61056,-52.01706 0.62839,-2.9717 3.11976,-7.31901 2.80573,-9.7854 z"
       id="path1018"
       inkscape:connector-curvature="0"
       transform="scale(0.26458333)" />
    <path
       style="fill:#ffffff;stroke:#000000;stroke-width:0.26458332px;stroke-linecap:butt;stroke-linejoin:miter;stroke-opacity:1"
       d="m 57.074405,44.903572 c 0,0 6.345842,-43.7523095 12.095237,-37.4196436 L 95.249999,36.210118 Z"
       id="path1024"
       inkscape:connector-curvature="0"
       sodipodi:nodetypes="cscc" />
  </g>
  <g
     inkscape:label="Layer 1"
     inkscape:groupmode="layer"
     id="layer1"
     transform="translate(0,-26.06665)">
    <path
       style="fill:#ffffff;stroke:#000000;stroke-width:0.26458332px;stroke-linecap:butt;stroke-linejoin:miter;stroke-opacity:1;fill-opacity:1"
       d="m 155.67658,65.028981 c -0.22806,-0.04748 -0.45563,-0.117303 -0.68368,-0.153996 -0.61447,-0.09887 -1.2288,-0.158832 -1.83968,-0.180866 -0.61088,-0.02204 -1.2184,-0.0061 -1.82056,0.04651 -0.60217,0.05264 -1.19865,0.142008 -1.78697,0.267166 -0.58833,0.125158 -1.16852,0.286102 -1.73788,0.481626 -0.56936,0.195522 -1.12801,0.42563 -1.67328,0.689362 -0.54528,0.263734 -1.07712,0.561115 -1.59319,0.890902 -0.51607,0.32979 -1.01636,0.692034 -1.4981,1.085723 -0.48174,0.393689 -0.94523,0.818907 -1.38751,1.274339 -0.44228,0.455435 -0.8632,0.941218 -1.2609,1.456243 -0.39771,0.515025 -0.77194,1.059238 -1.12345,1.629876 -0.35151,0.570634 -0.6803,1.167545 -0.98754,1.788003 -0.30723,0.620456 -0.59295,1.264595 -0.85783,1.92908 -0.26487,0.664488 -0.50938,1.349349 -0.7338,2.052071 -0.22443,0.702726 -0.42906,1.423356 -0.61495,2.158527 -0.18589,0.735171 -0.35302,1.485064 -0.5023,2.246892 -0.29855,1.523653 -0.52579,3.094619 -0.68936,4.690152 -0.16357,1.59553 -0.26305,3.21532 -0.30696,4.836395 -0.0439,1.621079 -0.032,3.243858 0.0284,4.844151 0.0604,1.600292 0.16937,3.178163 0.31884,4.711333 0.14947,1.53318 0.33958,3.02134 0.56276,4.44108 0.22317,1.41973 0.47938,2.7713 0.76687,4.05711 0.2875,1.28582 0.60613,2.50601 0.95447,3.66335 0.34833,1.15733 0.72601,2.25181 1.13171,3.2861 0.4057,1.03429 0.83954,2.0082 1.29915,2.92489 0.4596,0.91668 0.94517,1.7762 1.45521,2.58072 0.51002,0.80452 1.04446,1.55426 1.60145,2.25206 0.55698,0.69779 1.13637,1.34343 1.73684,1.93993 0.60048,0.5965 1.22193,1.14369 1.86242,1.64434 0.64049,0.50066 1.30013,0.95488 1.97611,1.36581 0.67598,0.41093 1.36836,0.77887 2.07429,1.10691 0.70593,0.32804 1.42561,0.61617 2.15594,0.86817 0.73033,0.25199 1.47135,0.46782 2.22054,0.6506 0.74918,0.18278 1.5061,0.33228 2.26859,0.45269 0.7625,0.1204 1.53037,0.21159 2.30064,0.27647 0.77026,0.0649 1.54313,0.10371 2.31562,0.11988 0.77248,0.0162 1.54491,0.01 2.31407,-0.016 0.76916,-0.0257 1.53504,-0.0707 2.28926,-0.15348 0.75423,-0.0828 1.49634,-0.20345 2.21796,-0.38086 0.72161,-0.17741 1.42259,-0.41149 2.09392,-0.72088 0.33567,-0.1547 0.66414,-0.32826 0.98392,-0.52297 0.31979,-0.19471 0.63107,-0.41069 0.93277,-0.65009 0.30169,-0.2394 0.594,-0.5024 0.87539,-0.79117 0.2814,-0.28876 0.55192,-0.60338 0.81081,-0.94619 0.12719,-0.16843 0.24243,-0.36545 0.3638,-0.54777 -0.17307,-0.77632 -0.37838,-1.50364 -0.53485,-2.30839 -3.11056,-15.99737 -3.11045,-37.126129 -10.35493,-51.111089 -2.07458,-4.004836 -4.76039,-7.390257 -7.92406,-10.224698 z"
       id="path969"
       inkscape:connector-curvature="0" />
    <path
       style="fill:#d40000;stroke:#000000;stroke-width:0.26458332px;stroke-linecap:butt;stroke-linejoin:miter;stroke-opacity:1"
       d="M 67.818042,53.875217 C 50.839243,60.091864 35.86833,76.915361 28.852103,88.986924 14.153963,114.27538 9.3233153,164.32939 19.528715,192.36304 c 9.932269,27.28338 25.988869,39.54308 41.325422,46.61761 16.914166,7.80225 47.903063,15.58145 65.768223,18.07996 18.01745,2.5198 52.28664,3.27562 72.82347,-1.38604 21.60297,-4.90366 37.16706,-14.74122 45.29358,-27.2777 8.12651,-12.53648 17.57578,-42.64823 0.315,-55.87728 -17.26078,-13.22905 -22.67446,-10.70899 -42.26859,-15.62326 -18.60845,-4.66707 -25.02816,-13.5673 -28.29543,-28.22316 -0.12137,0.18232 -0.23661,0.37934 -0.3638,0.54777 -0.25889,0.34281 -0.52941,0.65743 -0.81081,0.94619 -0.28139,0.28877 -0.5737,0.55177 -0.87539,0.79117 -0.3017,0.2394 -0.61298,0.45538 -0.93277,0.65009 -0.31978,0.19471 -0.64825,0.36827 -0.98392,0.52297 -0.67133,0.30939 -1.37231,0.54347 -2.09392,0.72088 -0.72162,0.17741 -1.46373,0.29802 -2.21796,0.38086 -0.75422,0.0828 -1.5201,0.12778 -2.28926,0.15348 -0.76916,0.0257 -1.54159,0.0322 -2.31407,0.016 -0.77249,-0.0162 -1.54536,-0.055 -2.31562,-0.11988 -0.77027,-0.0649 -1.53814,-0.15607 -2.30064,-0.27647 -0.76249,-0.12041 -1.51941,-0.26991 -2.26859,-0.45269 -0.74919,-0.18278 -1.49021,-0.39861 -2.22054,-0.6506 -0.73033,-0.252 -1.45001,-0.54013 -2.15594,-0.86817 -0.70593,-0.32804 -1.39831,-0.69598 -2.07429,-1.10691 -0.67598,-0.41093 -1.33562,-0.86516 -1.97611,-1.36581 -0.64049,-0.50065 -1.26194,-1.04784 -1.86242,-1.64434 -0.60047,-0.5965 -1.17986,-1.24214 -1.73684,-1.93993 -0.55699,-0.6978 -1.09143,-1.44754 -1.60145,-2.25206 -0.51004,-0.80452 -0.99561,-1.66404 -1.45521,-2.58072 -0.45961,-0.91669 -0.89345,-1.8906 -1.29915,-2.92489 -0.4057,-1.03429 -0.78338,-2.12877 -1.13171,-3.28611 -0.34834,-1.15733 -0.66697,-2.37752 -0.95447,-3.66334 -0.28749,-1.28581 -0.5437,-2.63738 -0.76687,-4.05711 -0.22318,-1.41974 -0.41329,-2.9079 -0.56276,-4.44108 -0.14947,-1.53317 -0.25841,-3.111043 -0.31884,-4.711336 -0.0605,-1.600292 -0.0723,-3.223072 -0.0284,-4.84415 0.0439,-1.621076 0.14339,-3.240866 0.30696,-4.836396 0.16357,-1.595532 0.39081,-3.166499 0.68936,-4.690152 0.14928,-0.761828 0.31641,-1.511721 0.5023,-2.246892 0.18589,-0.735171 0.39052,-1.455801 0.61495,-2.158526 0.22442,-0.702723 0.46893,-1.387584 0.7338,-2.052071 0.26488,-0.664486 0.5506,-1.308624 0.85783,-1.92908 0.30724,-0.620459 0.63603,-1.217369 0.98754,-1.788004 0.35151,-0.570637 0.72574,-1.114851 1.12345,-1.629876 0.3977,-0.515024 0.81862,-1.000807 1.2609,-1.456242 0.44228,-0.455433 0.90577,-0.88065 1.38751,-1.27434 0.48174,-0.393689 0.98203,-0.755933 1.4981,-1.085723 0.51607,-0.329787 1.04791,-0.627168 1.59319,-0.890902 0.54527,-0.263731 1.10392,-0.493839 1.67328,-0.689361 0.56936,-0.195525 1.14955,-0.356468 1.73788,-0.481627 0.58832,-0.125158 1.1848,-0.214526 1.78697,-0.267165 0.60216,-0.05264 1.20968,-0.06855 1.82056,-0.04651 0.61088,0.02204 1.22521,0.082 1.83968,0.180867 0.22805,0.03669 0.45562,0.106518 0.68368,0.153995 C 147.79266,57.965504 135.12576,53.929781 124.62173,51.28497 114.11771,48.640158 84.796842,47.658569 67.818042,53.875217 Z"
       id="path960"
       inkscape:connector-curvature="0"
       sodipodi:nodetypes="zssssszsscssccccsccccsccccccsssccscccsssccccscscccsscsczz" />
    <ellipse
       style="opacity:1;fill:#666666;fill-opacity:1;stroke-width:0.26458332"
       id="path1012"
       cx="158.18303"
       cy="108.57885"
       rx="8.8824406"
       ry="15.308036" />
    <path
       style="opacity:1;fill:none;fill-opacity:1;stroke-width:0.37797621"
       d="m 152.12008,65.073288 c -7.3128,0.210598 -13.08693,6.343843 -14.94224,13.085101 -3.38986,11.578762 -2.91545,24.181071 0.45592,35.708721 2.35181,7.97823 7.72368,15.86715 16.16802,18.08139 5.01844,1.38029 10.45611,1.35975 15.52065,0.24509 1.98308,-0.53628 3.52537,-1.99673 4.81771,-3.51695 -3.35072,-15.85048 -3.1593,-32.446847 -8.5797,-47.838882 -2.21198,-6.092751 -5.69075,-11.826282 -10.73252,-15.982249 -0.90261,0.07259 -1.80523,0.145185 -2.70784,0.217779 z m 6.13842,28.086142 c 4.70412,0.263501 7.14853,5.264669 8.17226,9.27887 1.48772,6.57259 0.98595,14.42571 -3.81151,19.57577 -2.97196,3.55548 -8.99225,1.75926 -10.6387,-2.22282 -3.16459,-5.54468 -3.39516,-12.45638 -1.76586,-18.5201 1.16221,-3.668937 3.74337,-7.959902 8.04381,-8.11172 z"
       id="path1014"
       inkscape:connector-curvature="0" />
    <ellipse
       style="opacity:1;fill:#ff8080;fill-opacity:1;stroke-width:0.26458332;filter:url(#filter2307)"
       id="path1022"
       cx="132.10268"
       cy="160.17259"
       rx="43.278275"
       ry="20.032738" />
    <path
       style="opacity:1;fill:none;fill-opacity:1;stroke-width:0.25253814"
       d="m 509.29215,270.49029 c 0.93896,16.68221 2.86308,33.35609 6.67423,49.64619 4.60366,19.43707 11.84771,38.77739 24.64559,54.37225 8.41934,10.23467 19.31964,18.43064 31.64145,23.36201 13.16053,5.39292 27.51969,7.28611 41.66597,7.32054 11.12169,-0.11669 22.79191,-0.6034 32.78428,-6.05247 4.65835,-2.57053 8.62267,-6.37371 11.68413,-10.6989 0.92188,-1.41653 -0.21597,-3.10671 -0.37091,-4.59551 -4.20304,-19.3246 -6.45399,-39.00862 -8.95004,-58.61364 -2.29575,-18.07666 -4.32648,-36.19588 -7.13003,-54.20185 -0.44163,-1.46522 -2.8242,-0.31725 -4.06231,-0.68116 -5.42349,0 -10.84698,0 -16.27046,0 0.42691,1.85256 1.78511,3.72511 2.54385,5.61499 6.12082,13.43674 7.94618,28.51169 6.99129,43.15948 -1.04045,13.46659 -4.54728,27.20324 -12.6243,38.25944 -4.62615,6.17543 -11.30059,11.84982 -19.33495,12.19582 -5.77554,0.34004 -11.48117,-1.79361 -15.84578,-5.55387 -7.98454,-6.83783 -12.64432,-16.71942 -15.57626,-26.62632 -4.60244,-16.45395 -4.57214,-34.19139 -0.0988,-50.67255 1.5039,-5.60202 3.74374,-10.98293 6.50773,-16.07957 -1.20656,-0.46794 -2.84366,-0.0663 -4.19298,-0.22483 -20.18309,-0.11928 -40.36668,-0.0562 -60.55001,-0.0726 z"
       id="path1026"
       inkscape:connector-curvature="0"
       transform="matrix(0.26458333,0,0,0.26458333,0,26.06665)" />
    <path
       style="opacity:1;fill:none;fill-opacity:1;stroke-width:0.25253814"
       d="m 577.45624,146.51972 c -13.41878,-0.2392 -26.7039,4.77908 -36.93469,13.39636 -12.33509,10.19394 -19.66933,25.12289 -24.16969,40.20149 -6.48959,22.25889 -7.87035,45.68734 -7.06068,68.75628 1.00777,23.05629 4.19945,46.1892 11.42684,68.16814 5.97418,17.66974 15.10948,34.83135 29.36288,47.20563 13.28275,11.78439 30.64228,18.18551 48.14888,20.04382 10.74172,1.27733 21.64482,1.18286 32.3808,-0.0857 8.82239,-1.28819 17.82544,-4.47333 23.98027,-11.20538 1.49774,-1.72494 3.46997,-3.32202 4.17625,-5.55485 -1.06402,-5.2992 -2.34948,-10.56264 -3.18387,-15.91215 -5.43665,-31.90525 -8.23519,-64.19441 -12.9976,-96.20303 -3.50526,-23.39396 -7.95606,-46.80499 -16.00382,-69.11053 -4.92055,-13.47413 -11.3571,-26.46146 -19.91204,-38.01439 -5.35685,-7.35827 -11.56877,-14.09779 -18.33136,-20.17621 -0.97889,-0.68883 -2.24272,-0.72473 -3.32033,-1.20074 -2.49872,-0.3644 -5.04312,-0.30512 -7.56184,-0.30877 z M 597.90196,254.135 c 6.54418,-0.28147 12.60048,3.40307 17.05303,7.90387 7.05298,7.42842 11.22288,17.13813 13.72709,26.95489 4.13616,17.40091 3.68923,36.07702 -2.18388,53.02965 -3.51518,9.78143 -9.17359,19.47924 -18.35464,24.87895 -3.78718,2.30507 -8.26445,2.95168 -12.62735,2.58907 -7.65865,-0.74753 -14.00534,-6.16521 -18.38422,-12.19222 -8.76892,-12.29642 -12.29159,-27.60029 -12.7804,-42.50107 -0.34308,-15.12737 2.31164,-30.69373 9.86062,-43.9611 4.28043,-7.48722 10.80882,-14.37329 19.4844,-16.38538 1.36366,-0.32792 2.80132,-0.30843 4.20535,-0.31666 z"
       id="path1028"
       inkscape:connector-curvature="0"
       transform="matrix(0.26458333,0,0,0.26458333,0,26.06665)" />
    <path
       id="path1030"
       transform="matrix(0.26458333,0,0,0.26458333,0,26.06665)"
       style="opacity:1;fill:none;fill-opacity:1;stroke-width:0.25253814"
       d="m 577.45703,146.51953 c -13.41878,-0.2392 -26.70476,4.77921 -36.93555,13.39649 -12.33509,10.19394 -19.66956,25.12257 -24.16992,40.20117 -6.48959,22.25889 -7.87021,45.68692 -7.06054,68.75586 1.00777,23.05629 4.20034,46.18903 11.42773,68.16797 5.97418,17.66974 15.10793,34.83275 29.36133,47.20703 13.28275,11.78439 30.64379,18.18466 48.15039,20.04297 10.74172,1.27733 21.64488,1.18262 32.38086,-0.0859 8.82239,-1.28819 17.82564,-4.47303 23.98047,-11.20508 1.49774,-1.72494 3.4695,-3.32186 4.17578,-5.55469 -1.06402,-5.2992 -2.34921,-10.5626 -3.1836,-15.91211 -5.43665,-31.90525 -8.23563,-64.1945 -12.99804,-96.20312 -3.50526,-23.39396 -7.95615,-46.80384 -16.00391,-69.10938 -4.92055,-13.47413 -11.35717,-26.46269 -19.91211,-38.01562 -5.35685,-7.35827 -11.56944,-14.09736 -18.33203,-20.17578 -0.97889,-0.68883 -2.2427,-0.72517 -3.32031,-1.20118 -2.49872,-0.36439 -5.04183,-0.30494 -7.56055,-0.30859 z m -17.82812,31.49609 c 0.63135,10e-6 1.26367,0.62502 1.26367,1.875 h -0.006 v 2.7793 1.64258 c -0.0892,0.27489 -0.178,0.54934 -0.26758,0.82422 -0.0397,0.079 -0.0882,0.15536 -0.11914,0.23828 -0.0113,0.028 0.0484,-0.0748 0.0703,-0.0547 0.0265,0.0231 0.0197,0.0659 0.0234,0.0996 0.0151,0.14283 0.022,0.28653 0.0371,0.42969 0.0265,0.8079 0.0996,1.58295 -0.16797,2.36328 -0.062,0.1807 -0.18695,0.33485 -0.26367,0.50977 -0.0227,0.0542 0.0813,-0.0877 0.11719,-0.13477 0.13795,0.44473 -0.1302,0.8805 -0.27344,1.2832 -0.0113,0.0317 0.0342,0.05 0.0508,0.12891 0.0782,0.54835 0.0435,1.10304 0.0352,1.6543 0.0575,0.91536 -0.34009,1.78152 -0.3125,2.69531 -0.15572,0.32946 -0.32828,0.65126 -0.4668,0.98828 -0.0302,0.0704 0.21006,-0.2255 0.21875,-0.20898 0.059,0.10956 0.004,0.24877 0.0117,0.37304 0.0302,0.71168 0.0618,0.22196 -0.13281,1.18555 -0.24152,0.44132 -0.32946,0.89375 -0.36915,1.39648 -0.0151,0.1781 0.003,0.35846 -0.0254,0.53516 -0.034,0.22583 -0.10447,0.44361 -0.15625,0.66602 -0.0345,0.10818 -0.0318,0.0884 -0.0547,0.15429 0.0102,0.0282 0.0218,0.046 0.002,0.24024 -0.068,0.66534 -0.10701,0.71454 -0.28125,1.24219 -0.0845,0.14316 -0.16927,0.28649 -0.25391,0.42968 0.0156,0.0362 0.0163,0.0868 0.0117,0.12696 -0.0302,0.31109 -0.0965,0.61684 -0.14453,0.92578 -0.23206,0.47071 -0.0971,0.46418 -0.0566,1.00976 0.009,0.54837 -0.044,0.58753 -0.32812,1.05664 0.005,-0.0113 0.003,0.008 0.0234,0.11914 0.10218,0.62923 0.0204,0.86151 -0.27539,1.41602 0.1265,0.478 -0.1719,0.92905 -0.42383,1.30273 -0.0408,0.0607 0.0892,-0.1162 0.12891,-0.17773 0.0227,-0.0333 0.0142,-0.11745 0.0527,-0.10547 0.0416,0.0132 0.012,0.0858 0.0195,0.12891 0.0751,0.72561 0.12515,1.30304 -0.25586,1.88281 3.2e-4,0.0323 -0.004,0.0712 0,0.0977 0.0423,0.31835 0.0548,0.63236 0.0566,0.95312 -0.16996,0.32077 -0.33975,0.64211 -0.50977,0.96289 0.0339,-0.037 0.0687,-0.0724 0.0977,-0.11328 0.0378,-0.0525 0.0157,-0.15479 0.0762,-0.17773 0.0113,-0.004 0.0227,0.11172 0.0586,0.42578 0.0518,0.55177 0.004,1.10532 0.004,1.6582 0.003,0.32912 0.001,0.16198 0.004,0.49805 0.0189,2.49991 -2.5048,2.52143 -2.52539,0.0215 -0.003,-0.34295 -0.002,-0.16961 -0.004,-0.51953 3e-4,-0.45481 0.0306,-0.91097 0.0117,-1.36523 -0.0529,-0.45122 -0.15889,-0.95642 0,-1.4004 0.0174,-0.0486 0.14773,-0.22616 0.24219,-0.375 -0.0414,-0.65547 -0.13894,-1.28587 0.25195,-1.87304 -0.006,-0.15477 -0.007,-0.30895 -0.0254,-0.46289 -0.0227,-0.37486 -0.0667,-0.63172 0.041,-1.01758 0.0373,-0.1329 0.10815,-0.25375 0.17188,-0.37695 -3.1e-4,-0.008 6e-4,-0.0241 0,-0.0312 0.0302,-0.22991 0.0113,-0.47397 0.0918,-0.69141 0.0488,-0.13123 0.12147,-0.25098 0.20117,-0.36719 0,0 0,-0.002 0,-0.002 -0.0378,-0.37966 -0.0975,-0.72106 0.0351,-1.10547 0.0566,-0.16634 0.14909,-0.31663 0.2461,-0.46484 -0.046,-0.58349 -0.0915,-1.16839 0.19531,-1.70899 -0.0475,-0.54493 -0.0487,-0.66122 0.16797,-1.20898 0.15118,-0.38246 0.11299,-0.40089 0.2207,-0.27735 0.0302,-0.0878 0.0412,-0.18675 0.0937,-0.26367 0.0151,-0.02 0.0618,0.0555 0.0644,0.0312 0.0408,-0.39255 -0.16413,-0.94147 0.13672,-1.27539 0.19087,-0.36389 0.0123,0.0195 0.11133,-0.86719 0.0745,-0.67006 0.10355,-0.86516 0.29102,-1.42773 0.11225,-0.33766 0.0272,-0.27958 0.16211,-0.35547 0.14362,0.25255 0.0292,0.0862 0.0254,-0.45508 -0.008,-0.62451 -0.0183,-0.93581 0.22851,-1.55078 0.003,-0.008 0.0136,-0.0239 0.0176,-0.0332 0.006,-0.19748 0.0202,-0.37688 0.0801,-0.76172 0.0533,-0.34072 0.17207,-0.66892 0.22461,-1.00977 0.0265,-0.17514 -0.0294,-0.35614 0,-0.53125 0.008,-0.46047 0.0435,-0.92491 -0.0234,-1.38281 -0.0265,-0.39082 -0.0561,-0.51446 0.0195,-0.92578 0.0265,-0.15031 0.0802,-0.29467 0.12891,-0.43945 0.0185,-0.0589 0.0402,-0.21306 0.0762,-0.17188 -0.003,-0.0358 -0.008,-0.0716 -0.0117,-0.10742 0.0151,-0.19748 0.002,-0.39814 0.043,-0.5918 0.0431,-0.20224 0.13749,-0.38921 0.20703,-0.58398 0.002,0.0223 -0.0188,0.0682 0.004,0.0664 0.0378,-0.003 0.0759,-0.0382 0.0801,-0.0742 0.0151,-0.12628 -0.008,-1.22501 -0.0117,-1.34571 -0.0518,-0.64447 -0.10272,-1.19162 0.13086,-1.8164 0.0317,-0.0867 0.0482,-0.28054 0.11914,-0.26563 v -1.30664 -2.7793 c 0,-1.24998 0.63037,-1.875 1.26172,-1.875 z m -1.38086,23.4375 c -0.0119,0.0201 -0.0233,0.0405 -0.0352,0.0605 -0.0265,0.048 -0.10685,0.19091 -0.0781,0.14453 0.0408,-0.0655 0.0823,-0.13053 0.11328,-0.20117 3.8e-4,-9.2e-4 -3.5e-4,-0.003 0,-0.004 z m -0.48243,3.0625 c -0.0382,0.0636 -0.0467,0.0788 -0.0957,0.16407 0.0162,-0.0195 0.0344,-0.0377 0.0488,-0.0586 0.0335,-0.0485 0.0374,-0.0739 0.0469,-0.10547 z m -0.79687,4.65821 c -0.0766,0.0984 -0.16368,0.19691 -0.26953,0.29687 0.32996,0.19879 0.27543,-0.0871 0.26953,-0.29687 z m 42.1543,44.95312 c 6.07391,0.18936 11.65776,3.69261 15.83203,7.91211 7.05298,7.42842 11.22235,17.13832 13.72656,26.95508 4.13616,17.40091 3.68952,36.07667 -2.18359,53.0293 -3.51518,9.78143 -9.17442,19.47919 -18.35547,24.8789 -3.78718,2.30507 -8.26406,2.95246 -12.62696,2.58985 -7.65864,-0.74753 -14.00393,-6.16635 -18.38281,-12.19336 -8.76892,-12.29642 -12.29244,-27.59922 -12.78125,-42.5 -0.34308,-15.12737 2.31235,-30.69357 9.86133,-43.96094 4.28043,-7.48722 10.8088,-14.37463 19.48438,-16.38672 1.36366,-0.32792 2.80104,-0.30817 4.20507,-0.3164 0.40901,-0.0176 0.81578,-0.0204 1.22071,-0.008 z" />
    <path
       style="opacity:1;fill:none;fill-opacity:1;stroke-width:0.25253814"
       d="m 575.10311,146.55695 c -16.74607,0.35034 -32.76769,9.07042 -43.14495,22.05788 -10.50654,13.19847 -15.89149,29.6534 -19.10213,46.00955 -4.72351,25.22249 -4.69568,51.16386 -1.83596,76.60388 2.82734,23.46463 7.97306,47.1204 19.31523,68.05952 5.30476,9.3894 11.78612,18.23713 20.051,25.24344 13.02224,11.37782 29.84603,17.72385 46.90354,19.65635 10.37576,1.35565 20.91682,1.23769 31.32102,0.27413 9.83549,-1.0367 19.87402,-4.57074 26.63035,-12.09686 1.3461,-1.47841 2.69995,-3.00281 3.6799,-4.74347 -4.17619,-17.10323 -6.22426,-34.62834 -8.55837,-52.0565 -4.93155,-37.95393 -8.30272,-76.35502 -18.63437,-113.34266 -5.90701,-21.10161 -14.76941,-41.73552 -28.7397,-58.80719 -4.47204,-5.48046 -9.34901,-10.66556 -14.6648,-15.33002 -2.30076,-1.3851 -5.05757,-1.44247 -7.6743,-1.48366 -1.84831,-0.0504 -3.69758,-0.0681 -5.54646,-0.0444 z M 597.834,254.20182 c 4.18259,-0.29712 8.2288,1.17427 11.69469,3.4507 8.87121,5.83753 14.14841,15.64056 17.46092,25.46256 5.39923,16.69688 5.75657,34.92299 1.61508,51.93643 -2.84339,10.90603 -7.74314,21.87886 -16.5812,29.22094 -4.0257,3.32968 -9.13836,5.51081 -14.43561,5.34769 -7.01921,0.18049 -13.31819,-4.10286 -17.90033,-9.09282 -7.68636,-8.69324 -11.68546,-20.03499 -13.82231,-31.28073 -2.99206,-17.03239 -1.80504,-35.04969 4.75038,-51.14687 3.18813,-7.6358 7.84417,-14.92948 14.59789,-19.8711 3.59201,-2.23609 7.60938,-4.30889 11.95757,-4.0218 0.22098,-0.002 0.44195,-0.003 0.66292,-0.005 z"
       id="path1039"
       inkscape:connector-curvature="0"
       transform="matrix(0.26458333,0,0,0.26458333,0,26.06665)" />
    <path
       style="opacity:1;fill:none;fill-opacity:1;stroke-width:0.25253814"
       d="m 575.10311,146.55695 c -16.74607,0.35034 -32.76769,9.07042 -43.14495,22.05788 -10.50654,13.19847 -15.89149,29.6534 -19.10213,46.00955 -4.72351,25.22249 -4.69568,51.16386 -1.83596,76.60388 2.82734,23.46463 7.97306,47.1204 19.31523,68.05952 5.30476,9.3894 11.78612,18.23713 20.051,25.24344 13.02224,11.37782 29.84603,17.72385 46.90354,19.65635 10.37576,1.35565 20.91682,1.23769 31.32102,0.27413 9.83549,-1.0367 19.87402,-4.57074 26.63035,-12.09686 1.3461,-1.47841 2.69995,-3.00281 3.6799,-4.74347 -4.17619,-17.10323 -6.22426,-34.62834 -8.55837,-52.0565 -4.93155,-37.95393 -8.30272,-76.35502 -18.63437,-113.34266 -5.90701,-21.10161 -14.76941,-41.73552 -28.7397,-58.80719 -4.47204,-5.48046 -9.34901,-10.66556 -14.6648,-15.33002 -2.30076,-1.3851 -5.05757,-1.44247 -7.6743,-1.48366 -1.84831,-0.0504 -3.69758,-0.0681 -5.54646,-0.0444 z M 597.834,254.20182 c 4.18259,-0.29712 8.2288,1.17427 11.69469,3.4507 8.87121,5.83753 14.14841,15.64056 17.46092,25.46256 5.39923,16.69688 5.75657,34.92299 1.61508,51.93643 -2.84339,10.90603 -7.74314,21.87886 -16.5812,29.22094 -4.0257,3.32968 -9.13836,5.51081 -14.43561,5.34769 -7.01921,0.18049 -13.31819,-4.10286 -17.90033,-9.09282 -7.68636,-8.69324 -11.68546,-20.03499 -13.82231,-31.28073 -2.99206,-17.03239 -1.80504,-35.04969 4.75038,-51.14687 3.18813,-7.6358 7.84417,-14.92948 14.59789,-19.8711 3.59201,-2.23609 7.60938,-4.30889 11.95757,-4.0218 0.22098,-0.002 0.44195,-0.003 0.66292,-0.005 z"
       id="path1041"
       inkscape:connector-curvature="0"
       transform="matrix(0.26458333,0,0,0.26458333,0,26.06665)" />
    <path
       style="opacity:1;fill:none;fill-opacity:1;stroke-width:0.25253814"
       d="m 575.10311,146.55695 c -16.74607,0.35034 -32.76769,9.07042 -43.14495,22.05788 -10.50654,13.19847 -15.89149,29.6534 -19.10213,46.00955 -4.72351,25.22249 -4.69568,51.16386 -1.83596,76.60388 2.82734,23.46463 7.97306,47.1204 19.31523,68.05952 5.30476,9.3894 11.78612,18.23713 20.051,25.24344 13.02224,11.37782 29.84603,17.72385 46.90354,19.65635 10.37576,1.35565 20.91682,1.23769 31.32102,0.27413 9.83549,-1.0367 19.87402,-4.57074 26.63035,-12.09686 1.3461,-1.47841 2.69995,-3.00281 3.6799,-4.74347 -4.17619,-17.10323 -6.22426,-34.62834 -8.55837,-52.0565 -4.93155,-37.95393 -8.30272,-76.35502 -18.63437,-113.34266 -5.90701,-21.10161 -14.76941,-41.73552 -28.7397,-58.80719 -4.47204,-5.48046 -9.34901,-10.66556 -14.6648,-15.33002 -2.30076,-1.3851 -5.05757,-1.44247 -7.6743,-1.48366 -1.84831,-0.0504 -3.69758,-0.0681 -5.54646,-0.0444 z M 597.834,254.20182 c 4.18259,-0.29712 8.2288,1.17427 11.69469,3.4507 8.87121,5.83753 14.14841,15.64056 17.46092,25.46256 5.39923,16.69688 5.75657,34.92299 1.61508,51.93643 -2.84339,10.90603 -7.74314,21.87886 -16.5812,29.22094 -4.0257,3.32968 -9.13836,5.51081 -14.43561,5.34769 -7.01921,0.18049 -13.31819,-4.10286 -17.90033,-9.09282 -7.68636,-8.69324 -11.68546,-20.03499 -13.82231,-31.28073 -2.99206,-17.03239 -1.80504,-35.04969 4.75038,-51.14687 3.18813,-7.6358 7.84417,-14.92948 14.59789,-19.8711 3.59201,-2.23609 7.60938,-4.30889 11.95757,-4.0218 0.22098,-0.002 0.44195,-0.003 0.66292,-0.005 z"
       id="path1043"
       inkscape:connector-curvature="0"
       transform="matrix(0.26458333,0,0,0.26458333,0,26.06665)" />
    <path
       style="opacity:1;fill:none;fill-opacity:1;stroke-width:0.25253814"
       d="m 575.10311,146.55695 c -16.74607,0.35034 -32.76769,9.07042 -43.14495,22.05788 -10.50654,13.19847 -15.89149,29.6534 -19.10213,46.00955 -4.72351,25.22249 -4.69568,51.16386 -1.83596,76.60388 2.82734,23.46463 7.97306,47.1204 19.31523,68.05952 5.30476,9.3894 11.78612,18.23713 20.051,25.24344 13.02224,11.37782 29.84603,17.72385 46.90354,19.65635 10.37576,1.35565 20.91682,1.23769 31.32102,0.27413 9.83549,-1.0367 19.87402,-4.57074 26.63035,-12.09686 1.3461,-1.47841 2.69995,-3.00281 3.6799,-4.74347 -4.17619,-17.10323 -6.22426,-34.62834 -8.55837,-52.0565 -4.93155,-37.95393 -8.30272,-76.35502 -18.63437,-113.34266 -5.90701,-21.10161 -14.76941,-41.73552 -28.7397,-58.80719 -4.47204,-5.48046 -9.34901,-10.66556 -14.6648,-15.33002 -2.30076,-1.3851 -5.05757,-1.44247 -7.6743,-1.48366 -1.84831,-0.0504 -3.69758,-0.0681 -5.54646,-0.0444 z M 597.834,254.20182 c 4.18259,-0.29712 8.2288,1.17427 11.69469,3.4507 8.87121,5.83753 14.14841,15.64056 17.46092,25.46256 5.39923,16.69688 5.75657,34.92299 1.61508,51.93643 -2.84339,10.90603 -7.74314,21.87886 -16.5812,29.22094 -4.0257,3.32968 -9.13836,5.51081 -14.43561,5.34769 -7.01921,0.18049 -13.31819,-4.10286 -17.90033,-9.09282 -7.68636,-8.69324 -11.68546,-20.03499 -13.82231,-31.28073 -2.99206,-17.03239 -1.80504,-35.04969 4.75038,-51.14687 3.18813,-7.6358 7.84417,-14.92948 14.59789,-19.8711 3.59201,-2.23609 7.60938,-4.30889 11.95757,-4.0218 0.22098,-0.002 0.44195,-0.003 0.66292,-0.005 z"
       id="path1045"
       inkscape:connector-curvature="0"
       transform="matrix(0.26458333,0,0,0.26458333,0,26.06665)" />
    <path
       style="opacity:1;fill:none;fill-opacity:1;stroke-width:0.25253814"
       d="m 575.10311,146.55695 c -16.74607,0.35034 -32.76769,9.07042 -43.14495,22.05788 -10.50654,13.19847 -15.89149,29.6534 -19.10213,46.00955 -4.72351,25.22249 -4.69568,51.16386 -1.83596,76.60388 2.82734,23.46463 7.97306,47.1204 19.31523,68.05952 5.30476,9.3894 11.78612,18.23713 20.051,25.24344 13.02224,11.37782 29.84603,17.72385 46.90354,19.65635 10.37576,1.35565 20.91682,1.23769 31.32102,0.27413 9.83549,-1.0367 19.87402,-4.57074 26.63035,-12.09686 1.3461,-1.47841 2.69995,-3.00281 3.6799,-4.74347 -4.17619,-17.10323 -6.22426,-34.62834 -8.55837,-52.0565 -4.93155,-37.95393 -8.30272,-76.35502 -18.63437,-113.34266 -5.90701,-21.10161 -14.76941,-41.73552 -28.7397,-58.80719 -4.47204,-5.48046 -9.34901,-10.66556 -14.6648,-15.33002 -2.30076,-1.3851 -5.05757,-1.44247 -7.6743,-1.48366 -1.84831,-0.0504 -3.69758,-0.0681 -5.54646,-0.0444 z M 597.834,254.20182 c 4.18259,-0.29712 8.2288,1.17427 11.69469,3.4507 8.87121,5.83753 14.14841,15.64056 17.46092,25.46256 5.39923,16.69688 5.75657,34.92299 1.61508,51.93643 -2.84339,10.90603 -7.74314,21.87886 -16.5812,29.22094 -4.0257,3.32968 -9.13836,5.51081 -14.43561,5.34769 -7.01921,0.18049 -13.31819,-4.10286 -17.90033,-9.09282 -7.68636,-8.69324 -11.68546,-20.03499 -13.82231,-31.28073 -2.99206,-17.03239 -1.80504,-35.04969 4.75038,-51.14687 3.18813,-7.6358 7.84417,-14.92948 14.59789,-19.8711 3.59201,-2.23609 7.60938,-4.30889 11.95757,-4.0218 0.22098,-0.002 0.44195,-0.003 0.66292,-0.005 z"
       id="path1047"
       inkscape:connector-curvature="0"
       transform="matrix(0.26458333,0,0,0.26458333,0,26.06665)" />
    <path
       style="opacity:1;fill:none;fill-opacity:1;stroke-width:0.25253814"
       d="m 575.10311,146.55695 c -16.74607,0.35034 -32.76769,9.07042 -43.14495,22.05788 -10.50654,13.19847 -15.89149,29.6534 -19.10213,46.00955 -4.72351,25.22249 -4.69568,51.16386 -1.83596,76.60388 2.82734,23.46463 7.97306,47.1204 19.31523,68.05952 5.30476,9.3894 11.78612,18.23713 20.051,25.24344 13.02224,11.37782 29.84603,17.72385 46.90354,19.65635 10.37576,1.35565 20.91682,1.23769 31.32102,0.27413 9.83549,-1.0367 19.87402,-4.57074 26.63035,-12.09686 1.3461,-1.47841 2.69995,-3.00281 3.6799,-4.74347 -4.17619,-17.10323 -6.22426,-34.62834 -8.55837,-52.0565 -4.93155,-37.95393 -8.30272,-76.35502 -18.63437,-113.34266 -5.90701,-21.10161 -14.76941,-41.73552 -28.7397,-58.80719 -4.47204,-5.48046 -9.34901,-10.66556 -14.6648,-15.33002 -2.30076,-1.3851 -5.05757,-1.44247 -7.6743,-1.48366 -1.84831,-0.0504 -3.69758,-0.0681 -5.54646,-0.0444 z M 597.834,254.20182 c 4.18259,-0.29712 8.2288,1.17427 11.69469,3.4507 8.87121,5.83753 14.14841,15.64056 17.46092,25.46256 5.39923,16.69688 5.75657,34.92299 1.61508,51.93643 -2.84339,10.90603 -7.74314,21.87886 -16.5812,29.22094 -4.0257,3.32968 -9.13836,5.51081 -14.43561,5.34769 -7.01921,0.18049 -13.31819,-4.10286 -17.90033,-9.09282 -7.68636,-8.69324 -11.68546,-20.03499 -13.82231,-31.28073 -2.99206,-17.03239 -1.80504,-35.04969 4.75038,-51.14687 3.18813,-7.6358 7.84417,-14.92948 14.59789,-19.8711 3.59201,-2.23609 7.60938,-4.30889 11.95757,-4.0218 0.22098,-0.002 0.44195,-0.003 0.66292,-0.005 z"
       id="path1049"
       inkscape:connector-curvature="0"
       transform="matrix(0.26458333,0,0,0.26458333,0,26.06665)" />
    <path
       style="opacity:1;fill:none;fill-opacity:1;stroke-width:0.25253814"
       d="m 575.10311,146.55695 c -16.74607,0.35034 -32.76769,9.07042 -43.14495,22.05788 -10.50654,13.19847 -15.89149,29.6534 -19.10213,46.00955 -4.72351,25.22249 -4.69568,51.16386 -1.83596,76.60388 2.82734,23.46463 7.97306,47.1204 19.31523,68.05952 5.30476,9.3894 11.78612,18.23713 20.051,25.24344 13.02224,11.37782 29.84603,17.72385 46.90354,19.65635 10.37576,1.35565 20.91682,1.23769 31.32102,0.27413 9.83549,-1.0367 19.87402,-4.57074 26.63035,-12.09686 1.3461,-1.47841 2.69995,-3.00281 3.6799,-4.74347 -4.17619,-17.10323 -6.22426,-34.62834 -8.55837,-52.0565 -4.93155,-37.95393 -8.30272,-76.35502 -18.63437,-113.34266 -5.90701,-21.10161 -14.76941,-41.73552 -28.7397,-58.80719 -4.47204,-5.48046 -9.34901,-10.66556 -14.6648,-15.33002 -2.30076,-1.3851 -5.05757,-1.44247 -7.6743,-1.48366 -1.84831,-0.0504 -3.69758,-0.0681 -5.54646,-0.0444 z M 597.834,254.20182 c 4.18259,-0.29712 8.2288,1.17427 11.69469,3.4507 8.87121,5.83753 14.14841,15.64056 17.46092,25.46256 5.39923,16.69688 5.75657,34.92299 1.61508,51.93643 -2.84339,10.90603 -7.74314,21.87886 -16.5812,29.22094 -4.0257,3.32968 -9.13836,5.51081 -14.43561,5.34769 -7.01921,0.18049 -13.31819,-4.10286 -17.90033,-9.09282 -7.68636,-8.69324 -11.68546,-20.03499 -13.82231,-31.28073 -2.99206,-17.03239 -1.80504,-35.04969 4.75038,-51.14687 3.18813,-7.6358 7.84417,-14.92948 14.59789,-19.8711 3.59201,-2.23609 7.60938,-4.30889 11.95757,-4.0218 0.22098,-0.002 0.44195,-0.003 0.66292,-0.005 z"
       id="path1051"
       inkscape:connector-curvature="0"
       transform="matrix(0.26458333,0,0,0.26458333,0,26.06665)" />
    <path
       style="opacity:1;fill:none;fill-opacity:1;stroke-width:0.25253814"
       d="m 575.10311,146.55695 c -16.74607,0.35034 -32.76769,9.07042 -43.14495,22.05788 -10.50654,13.19847 -15.89149,29.6534 -19.10213,46.00955 -4.72351,25.22249 -4.69568,51.16386 -1.83596,76.60388 2.82734,23.46463 7.97306,47.1204 19.31523,68.05952 5.30476,9.3894 11.78612,18.23713 20.051,25.24344 13.02224,11.37782 29.84603,17.72385 46.90354,19.65635 10.37576,1.35565 20.91682,1.23769 31.32102,0.27413 9.83549,-1.0367 19.87402,-4.57074 26.63035,-12.09686 1.3461,-1.47841 2.69995,-3.00281 3.6799,-4.74347 -4.17619,-17.10323 -6.22426,-34.62834 -8.55837,-52.0565 -4.93155,-37.95393 -8.30272,-76.35502 -18.63437,-113.34266 -5.90701,-21.10161 -14.76941,-41.73552 -28.7397,-58.80719 -4.47204,-5.48046 -9.34901,-10.66556 -14.6648,-15.33002 -2.30076,-1.3851 -5.05757,-1.44247 -7.6743,-1.48366 -1.84831,-0.0504 -3.69758,-0.0681 -5.54646,-0.0444 z M 597.834,254.20182 c 4.18259,-0.29712 8.2288,1.17427 11.69469,3.4507 8.87121,5.83753 14.14841,15.64056 17.46092,25.46256 5.39923,16.69688 5.75657,34.92299 1.61508,51.93643 -2.84339,10.90603 -7.74314,21.87886 -16.5812,29.22094 -4.0257,3.32968 -9.13836,5.51081 -14.43561,5.34769 -7.01921,0.18049 -13.31819,-4.10286 -17.90033,-9.09282 -7.68636,-8.69324 -11.68546,-20.03499 -13.82231,-31.28073 -2.99206,-17.03239 -1.80504,-35.04969 4.75038,-51.14687 3.18813,-7.6358 7.84417,-14.92948 14.59789,-19.8711 3.59201,-2.23609 7.60938,-4.30889 11.95757,-4.0218 0.22098,-0.002 0.44195,-0.003 0.66292,-0.005 z"
       id="path1053"
       inkscape:connector-curvature="0"
       transform="matrix(0.26458333,0,0,0.26458333,0,26.06665)" />
    <path
       style="opacity:1;fill:none;fill-opacity:1;stroke-width:0.25253814"
       d="m 575.10311,146.55695 c -16.74607,0.35034 -32.76769,9.07042 -43.14495,22.05788 -10.50654,13.19847 -15.89149,29.6534 -19.10213,46.00955 -4.72351,25.22249 -4.69568,51.16386 -1.83596,76.60388 2.82734,23.46463 7.97306,47.1204 19.31523,68.05952 5.30476,9.3894 11.78612,18.23713 20.051,25.24344 13.02224,11.37782 29.84603,17.72385 46.90354,19.65635 10.37576,1.35565 20.91682,1.23769 31.32102,0.27413 9.83549,-1.0367 19.87402,-4.57074 26.63035,-12.09686 1.3461,-1.47841 2.69995,-3.00281 3.6799,-4.74347 -4.17619,-17.10323 -6.22426,-34.62834 -8.55837,-52.0565 -4.93155,-37.95393 -8.30272,-76.35502 -18.63437,-113.34266 -5.90701,-21.10161 -14.76941,-41.73552 -28.7397,-58.80719 -4.47204,-5.48046 -9.34901,-10.66556 -14.6648,-15.33002 -2.30076,-1.3851 -5.05757,-1.44247 -7.6743,-1.48366 -1.84831,-0.0504 -3.69758,-0.0681 -5.54646,-0.0444 z M 597.834,254.20182 c 4.18259,-0.29712 8.2288,1.17427 11.69469,3.4507 8.87121,5.83753 14.14841,15.64056 17.46092,25.46256 5.39923,16.69688 5.75657,34.92299 1.61508,51.93643 -2.84339,10.90603 -7.74314,21.87886 -16.5812,29.22094 -4.0257,3.32968 -9.13836,5.51081 -14.43561,5.34769 -7.01921,0.18049 -13.31819,-4.10286 -17.90033,-9.09282 -7.68636,-8.69324 -11.68546,-20.03499 -13.82231,-31.28073 -2.99206,-17.03239 -1.80504,-35.04969 4.75038,-51.14687 3.18813,-7.6358 7.84417,-14.92948 14.59789,-19.8711 3.59201,-2.23609 7.60938,-4.30889 11.95757,-4.0218 0.22098,-0.002 0.44195,-0.003 0.66292,-0.005 z"
       id="path1055"
       inkscape:connector-curvature="0"
       transform="matrix(0.26458333,0,0,0.26458333,0,26.06665)" />
    <path
       style="opacity:1;fill:none;fill-opacity:1;stroke-width:0.25253814"
       d="m 575.10311,146.55695 c -16.74607,0.35034 -32.76769,9.07042 -43.14495,22.05788 -10.50654,13.19847 -15.89149,29.6534 -19.10213,46.00955 -4.72351,25.22249 -4.69568,51.16386 -1.83596,76.60388 2.82734,23.46463 7.97306,47.1204 19.31523,68.05952 5.30476,9.3894 11.78612,18.23713 20.051,25.24344 13.02224,11.37782 29.84603,17.72385 46.90354,19.65635 10.37576,1.35565 20.91682,1.23769 31.32102,0.27413 9.83549,-1.0367 19.87402,-4.57074 26.63035,-12.09686 1.3461,-1.47841 2.69995,-3.00281 3.6799,-4.74347 -4.17619,-17.10323 -6.22426,-34.62834 -8.55837,-52.0565 -4.93155,-37.95393 -8.30272,-76.35502 -18.63437,-113.34266 -5.90701,-21.10161 -14.76941,-41.73552 -28.7397,-58.80719 -4.47204,-5.48046 -9.34901,-10.66556 -14.6648,-15.33002 -2.30076,-1.3851 -5.05757,-1.44247 -7.6743,-1.48366 -1.84831,-0.0504 -3.69758,-0.0681 -5.54646,-0.0444 z M 597.834,254.20182 c 4.18259,-0.29712 8.2288,1.17427 11.69469,3.4507 8.87121,5.83753 14.14841,15.64056 17.46092,25.46256 5.39923,16.69688 5.75657,34.92299 1.61508,51.93643 -2.84339,10.90603 -7.74314,21.87886 -16.5812,29.22094 -4.0257,3.32968 -9.13836,5.51081 -14.43561,5.34769 -7.01921,0.18049 -13.31819,-4.10286 -17.90033,-9.09282 -7.68636,-8.69324 -11.68546,-20.03499 -13.82231,-31.28073 -2.99206,-17.03239 -1.80504,-35.04969 4.75038,-51.14687 3.18813,-7.6358 7.84417,-14.92948 14.59789,-19.8711 3.59201,-2.23609 7.60938,-4.30889 11.95757,-4.0218 0.22098,-0.002 0.44195,-0.003 0.66292,-0.005 z"
       id="path1057"
       inkscape:connector-curvature="0"
       transform="matrix(0.26458333,0,0,0.26458333,0,26.06665)" />
  </g>
</svg>
