<?xml version="1.0" encoding="UTF-8" standalone="no"?>
<!-- Created with Inkscape (http://www.inkscape.org/) -->

<svg
   xmlns:dc="http://purl.org/dc/elements/1.1/"
   xmlns:cc="http://creativecommons.org/ns#"
   xmlns:rdf="http://www.w3.org/1999/02/22-rdf-syntax-ns#"
   xmlns:svg="http://www.w3.org/2000/svg"
   xmlns="http://www.w3.org/2000/svg"
   xmlns:sodipodi="http://sodipodi.sourceforge.net/DTD/sodipodi-0.dtd"
   xmlns:inkscape="http://www.inkscape.org/namespaces/inkscape"
   width="1024"
   height="1024"
   viewBox="0 0 270.93333 270.93334"
   version="1.1"
   id="svg8"
   inkscape:export-filename="D:\Documents\Digipen\Semester 02\GAM150\drqst\Production\Illustrations\Win_Platform.png"
   inkscape:export-xdpi="96"
   inkscape:export-ydpi="96"
   inkscape:version="0.92.2 (5c3e80d, 2017-08-06)"
   sodipodi:docname="Win_Platform.svg">
  <defs
     id="defs2">
    <filter
       style="color-interpolation-filters:sRGB;"
       inkscape:label="Dark and Glow"
       id="filter851"
       y="-0.25"
       height="1.5"
       inkscape:menu-tooltip="Darkens the edge with an inner blur and adds a flexible glow"
       inkscape:menu="Shadows and Glows">
      <feGaussianBlur
         stdDeviation="11.47 9.12367"
         result="fbSourceGraphic"
         id="feGaussianBlur849" />
      <feColorMatrix
         result="fbSourceGraphicAlpha"
         in="fbSourceGraphic"
         values="0 0 0 -1 0 0 0 0 -1 0 0 0 0 -1 0 0 0 0 1 0"
         id="feColorMatrix853" />
      <feGaussianBlur
         id="feGaussianBlur855"
         stdDeviation="11.47 9.12"
         result="fbSourceGraphic"
         in="fbSourceGraphic" />
      <feColorMatrix
         result="fbSourceGraphicAlpha"
         in="fbSourceGraphic"
         values="0 0 0 -1 0 0 0 0 -1 0 0 0 0 -1 0 0 0 0 1 0"
         id="feColorMatrix919" />
      <feGaussianBlur
         id="feGaussianBlur921"
         stdDeviation="5"
         result="result6"
         in="fbSourceGraphic" />
      <feComposite
         in2="result6"
         id="feComposite923"
         result="result8"
         in="fbSourceGraphic"
         operator="atop" />
      <feComposite
         in2="fbSourceGraphicAlpha"
         id="feComposite925"
         result="result9"
         operator="over"
         in="result8" />
      <feColorMatrix
         id="feColorMatrix927"
         values="1 0 0 0 0 0 1 0 0 0 0 0 1 0 0 0 0 0 1 0 "
         result="result10" />
      <feBlend
         in2="result6"
         id="feBlend929"
         in="result10"
         mode="normal" />
    </filter>
  </defs>
  <sodipodi:namedview
     id="base"
     pagecolor="#ffffff"
     bordercolor="#666666"
     borderopacity="1.0"
     inkscape:pageopacity="0.0"
     inkscape:pageshadow="2"
     inkscape:zoom="0.7"
     inkscape:cx="400.08578"
     inkscape:cy="533.02611"
     inkscape:document-units="mm"
     inkscape:current-layer="layer1"
     showgrid="false"
     units="px"
     inkscape:pagecheckerboard="true"
     inkscape:window-width="1920"
     inkscape:window-height="1057"
     inkscape:window-x="-8"
     inkscape:window-y="-8"
     inkscape:window-maximized="1" />
  <metadata
     id="metadata5">
    <rdf:RDF>
      <cc:Work
         rdf:about="">
        <dc:format>image/svg+xml</dc:format>
        <dc:type
           rdf:resource="http://purl.org/dc/dcmitype/StillImage" />
        <dc:title></dc:title>
      </cc:Work>
    </rdf:RDF>
  </metadata>
  <g
     inkscape:label="Layer 1"
     inkscape:groupmode="layer"
     id="layer1"
     transform="translate(0,-26.06665)">
    <path
       style="fill:#aa0088;stroke:#000000;stroke-width:3.95745182;stroke-linecap:butt;stroke-linejoin:miter;stroke-miterlimit:4;stroke-dasharray:none;stroke-opacity:1"
       d="m 11.945724,154.88093 c -12.92634132,11.54888 -6.4553037,66.43671 -1.853458,52.53869 4.601844,-13.89802 242.040834,-12.78554 248.382024,1.9816 4.61688,10.75165 15.54247,-44.38955 1.09345,-53.38636 C 228.43036,136.62689 37.005393,132.49169 11.945724,154.88093 Z"
       id="path933"
       inkscape:connector-curvature="0"
       sodipodi:nodetypes="szsss" />
    <path
       d="m 52.538692,174.15771 c 1.042312,0.98546 -0.814138,1.89121 -1.637896,1.7324 -2.232334,-0.43038 -2.668649,-3.26204 -1.826886,-5.00819 1.505718,-3.12346 5.629787,-3.60005 8.378473,-1.92138 4.033806,2.46352 4.557983,8.02927 2.015873,11.74876 -3.388232,4.95749 -10.439971,5.52716 -15.119047,2.11037 -5.88814,-4.29968 -6.502124,-12.856 -2.204863,-18.48934 5.204559,-6.82272 15.275034,-7.48045 21.859623,-2.29935 7.759711,6.10574 8.460883,17.69593 2.393852,25.22991 -7.004628,8.69827 -20.118085,9.44272 -28.600199,2.48834 -9.637916,-7.902 -10.425542,-22.54111 -2.58284,-31.97048 8.798328,-10.57834 24.964778,-11.40908 35.340774,-2.67734 11.519322,9.69389 12.393148,27.38893 2.771829,38.71106"
       sodipodi:t0="0"
       sodipodi:argument="-18.092188"
       sodipodi:radius="28.609077"
       sodipodi:revolution="3"
       sodipodi:expansion="1"
       sodipodi:cy="174.15771"
       sodipodi:cx="52.538692"
       id="path937"
       style="fill:none;fill-rule:evenodd;stroke:#000000;stroke-width:2.64583325;stroke-miterlimit:4;stroke-dasharray:none"
       sodipodi:type="spiral" />
    <path
       sodipodi:type="spiral"
       style="fill:none;fill-rule:evenodd;stroke:#000000;stroke-width:2.64583325;stroke-miterlimit:4;stroke-dasharray:none"
       id="path939"
       sodipodi:cx="214.69048"
       sodipodi:cy="176.04759"
       sodipodi:expansion="1"
       sodipodi:revolution="3"
       sodipodi:radius="28.609077"
       sodipodi:argument="-18.092188"
       sodipodi:t0="0"
       d="m 214.69048,176.04759 c 1.04231,0.98546 -0.81414,1.89121 -1.6379,1.73239 -2.23234,-0.43038 -2.66865,-3.26203 -1.82689,-5.00818 1.50572,-3.12346 5.62979,-3.60005 8.37848,-1.92138 4.0338,2.46352 4.55798,8.02927 2.01587,11.74876 -3.38823,4.95749 -10.43997,5.52715 -15.11905,2.11037 -5.88814,-4.29968 -6.50212,-12.856 -2.20486,-18.48934 5.20456,-6.82272 15.27503,-7.48045 21.85962,-2.29935 7.75971,6.10573 8.46088,17.69593 2.39385,25.22991 -7.00462,8.69827 -20.11808,9.44272 -28.60019,2.48834 -9.63792,-7.902 -10.42555,-22.54111 -2.58284,-31.97048 8.79832,-10.57834 24.96477,-11.40908 35.34077,-2.67734 11.51932,9.69389 12.39315,27.38893 2.77183,38.71106" />
    <path
       style="fill:#ffcc00;stroke:#000000;stroke-width:0.98746228;stroke-linecap:butt;stroke-linejoin:miter;stroke-miterlimit:4;stroke-dasharray:none;stroke-opacity:1"
       d="m 107.71621,193.56454 54.63959,0.094 -4.79625,-33.1035 -11.00316,20.5016 -11.37932,-30.7524 -10.81506,30.28218 -12.22573,-19.27903 z"
       id="path2531"
       inkscape:connector-curvature="0"
       sodipodi:nodetypes="cccccccc" />
    <ellipse
       style="opacity:1;fill:#ff0000;fill-opacity:1;stroke:#000000;stroke-width:0.98746228;stroke-miterlimit:4;stroke-dasharray:none;stroke-opacity:0.97979796"
       id="path2533"
       cx="135.17706"
       cy="146.87167"
       rx="3.7617614"
       ry="3.7147384" />
    <ellipse
       ry="3.7147384"
       rx="3.7617614"
       cy="156.74629"
       cx="157.74763"
       id="ellipse2535"
       style="opacity:1;fill:#ff0000;fill-opacity:1;stroke:#000000;stroke-width:0.98746228;stroke-miterlimit:4;stroke-dasharray:none;stroke-opacity:0.97979796" />
    <ellipse
       style="opacity:1;fill:#ff0000;fill-opacity:1;stroke:#000000;stroke-width:0.98746228;stroke-miterlimit:4;stroke-dasharray:none;stroke-opacity:0.97979796"
       id="ellipse2537"
       cx="111.47797"
       cy="158.15697"
       rx="3.7617614"
       ry="3.7147384" />
    <ellipse
       style="opacity:1;fill:#ff0000;fill-opacity:1;stroke:#000000;stroke-width:0.98746228;stroke-miterlimit:4;stroke-dasharray:none;stroke-opacity:0.97979796"
       id="path2641"
       cx="134.94196"
       cy="180.6805"
       rx="5.313488"
       ry="10.156755" />
    <ellipse
       ry="6.0447092"
       rx="3.1622782"
       cy="184.33414"
       cx="154.87929"
       id="ellipse2643"
       style="opacity:1;fill:#ff0000;fill-opacity:1;stroke:#000000;stroke-width:0.58768004;stroke-miterlimit:4;stroke-dasharray:none;stroke-opacity:0.97979796" />
    <ellipse
       style="opacity:1;fill:#ff0000;fill-opacity:1;stroke:#000000;stroke-width:0.58768004;stroke-miterlimit:4;stroke-dasharray:none;stroke-opacity:0.97979796"
       id="ellipse2645"
       cx="115.00462"
       cy="184.33414"
       rx="3.1622782"
       ry="6.0447092" />
  </g>
</svg>
